<svg width="158" height="157" viewBox="0 0 158 157" fill="none" xmlns="http://www.w3.org/2000/svg">
<circle cx="78.9251" cy="78.7309" r="78.2104" fill="white"/>
<path fill-rule="evenodd" clip-rule="evenodd" d="M43.0018 85.5949C43.7656 91.2906 44.5293 96.9863 45.2931 102.682L45.9098 107.282C45.9877 107.862 45.9142 109.007 46.2108 109.527C46.3155 109.71 46.5909 109.797 46.7934 109.905C47.4902 110.277 48.1873 110.649 48.8841 111.021C54.7793 114.168 60.6744 117.315 66.5693 120.462C72.2269 123.483 77.8845 126.503 83.542 129.523C84.1274 129.836 85.0744 130.651 85.7064 130.437C86.3072 130.232 86.9212 129.729 87.4666 129.411C88.5137 128.801 89.5606 128.191 90.6076 127.58C96.9431 123.889 103.278 120.197 109.614 116.505C112.228 114.982 114.842 113.458 117.456 111.935C118.171 111.518 118.886 111.102 119.601 110.685C119.975 110.467 120.024 110.475 120.171 110.105C120.722 108.721 120.976 107.137 121.366 105.702C121.795 104.12 122.224 102.539 122.654 100.957C122.845 100.251 122.755 100.16 122.443 99.4791C121.825 98.1307 121.208 96.7825 120.59 95.4342C119.219 92.4417 117.848 89.4492 116.477 86.4566C115.922 85.2465 114.587 84.395 113.625 83.5049L98.6973 69.685C98.3181 69.3339 97.939 68.9829 97.5598 68.6318C97.4974 70.7417 97.0781 73.0097 97.6931 75.0479C98.7023 78.3926 99.7114 81.7374 100.72 85.0821C101.208 86.6989 101.696 88.3155 102.184 89.9321C102.274 90.2325 102.826 91.4236 102.679 91.6878C102.597 91.8342 101.9 91.9824 101.749 92.0394C101.101 92.2847 100.452 92.53 99.8036 92.7754C97.9969 93.4588 96.1902 94.1423 94.3835 94.8256C92.7586 95.4405 91.1336 96.0551 89.5086 96.6698C88.9575 96.8783 88.3104 97.2643 87.7284 97.2322C87.2078 97.2034 86.6159 96.9471 86.1121 96.8182C85.2265 96.5914 84.3407 96.3645 83.455 96.1376C81.7153 95.692 79.9754 95.2465 78.2357 94.8008C76.2783 94.2995 74.6253 92.827 72.9514 91.7373C70.0742 89.864 67.1969 87.9907 64.3198 86.1175C63.6611 85.6886 63.6587 85.444 63.3962 84.6609C62.8064 82.9013 62.2164 81.1416 61.6265 79.3819C61.3116 78.4424 60.9242 77.4989 60.6863 76.5369C60.294 74.9494 60.0613 73.3061 59.7505 71.701C59.6568 71.2168 59.563 70.7324 59.4693 70.2481C58.2644 70.7343 57.0594 71.2206 55.8543 71.7069C55.6797 71.7774 54.8287 71.9875 54.753 72.1601C54.7051 72.2693 54.9582 72.7646 54.9944 72.871C55.9936 75.8134 56.9927 78.7557 57.9919 81.698C58.3062 82.6236 58.6204 83.5491 58.9347 84.4747C58.1838 83.3012 57.4327 82.1275 56.6816 80.954C56.0916 82.9277 55.5014 84.9015 54.9112 86.8751C53.5166 85.2748 52.1217 83.6745 50.7269 82.0742C50.244 83.6745 49.7612 85.2748 49.2784 86.8751C47.7764 84.9015 46.2743 82.9277 44.7721 80.954C44.5937 81.984 44.415 83.0139 44.2364 84.0439C44.1825 84.3548 44.1933 85.2467 43.9852 85.4928C43.8138 85.6954 43.3203 85.5949 43.0018 85.5949Z" fill="#F0DD33"/>
<path fill-rule="evenodd" clip-rule="evenodd" d="M138.106 97.9061C138.021 100.587 138.08 104.068 136.604 106.425C136.366 106.805 135.559 107.991 135.469 106.948C135.381 105.924 135.634 104.911 135.383 103.875C135.249 103.321 134.797 102.111 134.026 102.612C133.633 102.867 133.529 103.497 133.375 103.894C133.147 104.482 132.893 105.061 132.653 105.645C131.816 107.682 130.949 110.113 129.089 111.461C129.332 109.705 129.996 107.829 129.55 106.053C129.398 105.448 128.937 104.343 128.144 104.697C127.371 105.043 126.87 106.584 126.506 107.271C125.4 109.352 124.269 111.395 123.024 113.398C122.398 114.406 121.722 115.327 120.902 116.19C120.39 116.729 119.751 117.64 118.944 117.72C118.944 116.184 119.452 114.699 119.917 113.252C120.416 111.696 120.871 110.126 121.362 108.567C121.787 107.215 122.136 105.873 122.419 104.486C122.536 103.913 122.629 103.319 123.121 102.948C123.563 102.615 124.261 102.457 124.754 102.212C126.048 101.569 127.378 100.876 128.58 100.077C129.074 99.7488 129.499 99.325 130.016 99.0307C130.604 98.6955 131.154 98.4134 131.699 98.0048C134.05 96.2418 136.169 94.0731 137.597 91.4915C137.828 92.5286 138.135 93.5421 138.169 94.6112C138.204 95.7074 138.14 96.8105 138.106 97.9061ZM118.759 110.23C118.383 109.598 117.811 109.857 117.306 110.161C116.523 110.634 115.738 111.103 114.951 111.569C113.349 112.518 111.777 113.516 110.212 114.524C107.026 116.574 103.729 118.253 100.37 119.988C97.1242 121.666 94.0064 123.662 90.965 125.679C90.234 126.164 89.5082 126.66 88.8063 127.186C88.1833 127.653 87.6851 128.308 87.0292 128.724C86.3462 129.157 85.8768 128.806 85.2235 128.487C84.4066 128.087 83.5552 127.753 82.7201 127.393C79.3502 125.94 75.9707 124.432 72.6926 122.783C69.4342 121.145 66.3469 119.256 63.2249 117.381C61.738 116.488 60.2765 115.538 58.8099 114.612C57.2491 113.627 55.6331 112.889 53.9959 112.051C53.2715 111.68 52.6299 111.177 51.8858 110.84C51.1037 110.486 50.2774 110.232 49.577 109.721C49.263 109.492 48.9981 109.218 48.6392 109.056C48.3446 108.923 48.0101 108.9 47.7192 108.759C47.1272 108.472 46.9578 107.888 46.8432 107.282C46.1059 103.387 45.714 99.3846 45.2867 95.4466C45.0466 93.2321 44.7787 91.0263 44.4468 88.8235C44.2971 87.8303 44.5981 87.0609 44.7561 86.0948C44.9406 84.9665 45.0135 83.8144 45.1371 82.6784C45.7203 83.7528 46.2247 84.8804 46.9668 85.8609C47.5138 86.5834 48.4482 87.6081 49.4555 87.5839C51.0211 87.5463 50.9495 84.8762 51.0126 83.8163C51.7257 84.4492 51.942 85.4803 52.5339 86.2155C53.0744 86.8867 53.8099 87.7194 54.6398 88.02C56.3873 88.6529 56.2191 85.4275 56.123 84.5128C56.0747 84.054 55.8142 83.3281 56.4323 83.5373C57.0016 83.7299 57.5555 84.5286 58.034 84.8949C58.8611 85.5283 59.7683 86.0547 60.6167 86.6592C61.6694 87.4095 62.8053 87.9516 63.8786 88.6503C64.5499 89.0874 65.2822 89.1855 66.014 89.5068C67.0861 89.9778 68.0332 90.6796 69.0537 91.2442C71.0746 92.3617 73.3165 93.3638 75.527 94.0375C76.2422 94.2555 77.1953 94.87 77.7378 94.2385C78.0719 93.85 78.2914 93.2564 78.575 92.8208C78.9337 92.2694 79.3147 91.7325 79.7103 91.2065C81.1165 89.3372 82.6771 87.5721 84.4103 85.9954C86.4267 84.1614 88.6315 82.5108 90.9899 81.1362C92.0032 80.5455 96.2342 77.8982 97.1643 79.7614C96.4 79.714 95.7376 79.992 95.084 80.34C94.9245 80.425 94.102 81.0091 94.2945 80.4943C94.0555 80.5388 93.8459 80.8486 93.665 80.9864C93.3523 81.2245 92.878 81.4994 92.5159 81.6966C92.158 81.8913 91.7158 81.939 91.3895 82.1752C91.2704 82.2615 91.1982 82.4014 91.0845 82.4947L90.7588 82.4972C90.7101 82.6766 90.6613 82.8558 90.6125 83.0352C90.4284 82.4484 90.1658 83.2116 89.8582 83.4595C89.6733 83.6085 89.3805 83.7619 89.1628 83.8581C89.0001 83.93 88.975 83.7629 88.8169 83.89C88.6766 84.0028 88.5871 84.2513 88.4362 84.3928C88.2509 84.5659 88.0139 84.7005 87.8074 84.8484C87.4118 85.1316 86.9933 85.3541 86.5926 85.6226C86.0535 85.9839 85.7707 86.6053 85.2473 86.9831C84.9993 87.1621 84.6142 87.183 84.48 87.2976C84.1434 87.5853 84.2543 88.0213 83.6267 88.0405C83.6838 88.1314 83.7181 88.2299 83.7298 88.3364C83.5803 88.3107 83.4474 88.2491 83.331 88.1514C83.3571 88.7739 82.7415 88.9961 82.3725 89.3794C82.1597 89.6003 81.8947 89.9109 81.7447 90.1767C81.7197 90.2212 81.6721 90.576 81.6618 90.5808C81.6048 90.608 81.258 90.305 81.2908 90.3303C81.1941 90.9055 80.6344 91.4492 80.3893 91.9816C80.2602 92.2622 80.129 92.7131 79.8746 92.9104C79.8054 92.9641 79.5925 92.9081 79.4165 93.0945C79.2875 93.2311 79.1386 93.4838 79.0861 93.6651C79.0512 93.7863 79.0932 94.0996 79.043 94.1723C78.951 94.3051 78.8077 94.1716 78.6635 94.2699C78.397 94.4514 78.3902 94.7349 78.0003 94.7722C78.2691 95.4216 79.892 95.6218 80.4818 95.8065C82.1499 96.3285 83.9 96.8499 85.4593 97.6494C85.8626 97.8561 86.2442 98.0266 86.3156 98.503C86.4153 99.1658 86.0755 100.047 86.0107 100.717C85.8351 102.525 85.7992 104.386 85.8359 106.202C85.8706 107.922 85.9266 109.658 86.0073 111.376C86.0819 112.969 86.405 114.53 86.5792 116.112C86.627 116.546 86.5952 118.504 87.3458 118.405C87.9725 118.323 87.5767 116.986 87.565 116.602C87.5388 115.754 87.7184 114.888 87.7108 114.032C87.7073 113.621 87.8882 113.266 87.9055 112.873C87.9228 112.484 87.7283 112.176 87.7866 111.773C87.8426 111.386 88.993 109.16 87.8882 109.421C87.9529 109.103 88.0095 108.782 88.095 108.468C88.2131 108.574 88.3084 108.697 88.3801 108.838C88.4785 108.155 88.4456 107.472 88.5066 106.788C88.534 106.478 88.6603 106.139 88.6172 105.827C88.6254 105.697 88.6088 105.57 88.5676 105.446C88.4997 105.374 88.4156 105.336 88.3156 105.333C88.263 105.162 88.2495 105.115 88.3428 104.947C88.3829 104.833 88.4624 104.762 88.5813 104.734C88.8079 104.707 88.8338 104.578 88.6589 104.345C88.7501 103.887 88.7619 103.598 88.6961 103.14C88.6407 102.756 88.8443 102.012 88.6368 101.67C88.3946 101.27 88.2742 101.658 88.2292 101.104C88.2195 100.986 88.2118 100.742 88.2593 100.625C88.3113 100.497 88.4675 100.55 88.4875 100.504C88.6232 100.196 88.6322 99.5897 88.1521 99.6424C88.1709 99.4223 88.1898 99.2023 88.2084 98.9823C88.5552 99.3793 88.4341 99.0432 88.6307 98.8225C88.8956 98.5252 89.1547 98.474 89.5334 98.3564C90.5427 98.0434 91.5151 97.5724 92.5013 97.1903C94.5896 96.381 96.7167 95.6585 98.7439 94.7021C103.008 92.6904 107.187 90.5071 111.477 88.5485C111.17 87.983 111.361 87.9555 111.585 87.4245C111.884 87.6309 111.821 87.4869 112.034 87.4743C112.014 87.2971 112.07 87.2437 112.2 87.3139C112.303 87.3455 112.409 87.3567 112.518 87.3474C112.783 87.3927 113 87.538 113.242 87.5932C113.321 87.6513 113.408 87.6948 113.503 87.7241C113.588 87.7047 113.661 87.6628 113.721 87.5981C114.112 87.6702 114.244 87.9628 114.261 88.3866C114.264 88.4604 114.037 88.5359 114.102 88.635C114.215 88.8081 114.521 88.7668 114.696 88.7889C114.657 88.9688 114.619 89.1485 114.581 89.3282C115.348 88.9763 115.148 90.0778 115.38 90.4396C115.445 90.5406 115.589 90.4599 115.665 90.5769C115.762 90.7296 115.733 90.9458 115.817 91.0978C116.005 91.4417 116.194 91.3999 116.382 91.7938C117.366 93.85 118.674 95.7657 119.617 97.8661C120.067 98.8658 120.472 99.8826 120.941 100.873C121.373 101.785 121.619 102.561 121.312 103.557C120.598 105.867 119.835 108.219 118.9 110.451C118.853 110.377 118.806 110.303 118.759 110.23ZM68.9825 127.475C68.9155 127.588 68.8486 127.701 68.7816 127.815C68.6329 126.964 69.0291 127.359 68.9825 127.475ZM65.8348 125.882C65.6203 125.818 65.713 125.47 65.7199 125.321C65.8556 125.489 65.9887 125.66 66.1017 125.845C66.0127 125.857 65.9237 125.87 65.8348 125.882ZM57.2081 122.612C57.4334 122.487 57.5954 122.397 57.8509 122.254C57.5913 122.757 57.5913 122.757 57.2081 122.612ZM43.6363 78.2946C43.2921 79.1347 44.3417 84.3222 43.3645 84.4915C43.2243 84.0362 43.2068 82.7826 42.6266 82.6329C41.9067 82.4471 41.9777 83.7378 41.8794 84.1369C40.4015 83.1145 39.745 81.14 39.039 79.5753C38.139 77.5808 37.4309 75.5064 36.7546 73.4282C36.1764 71.6514 35.6982 69.8433 35.1139 68.0694C34.7468 66.9552 34.351 65.8384 34.1041 64.69C34.0505 64.4405 33.8395 63.8079 34.0188 63.5708C34.2794 63.2259 35.2173 63.6209 35.5196 63.7115C37.4803 64.2981 39.5142 64.5506 41.5287 64.8915C43.7668 65.27 46 65.6612 48.2517 65.9547C48.8143 66.028 49.3773 66.0975 49.9406 66.165C50.3059 66.2089 50.8589 66.165 51.2059 66.3279C51.9082 66.6574 52.0577 67.9184 52.3186 68.5726C53.2918 71.0134 54.4372 73.377 55.4619 75.7957C56.385 77.9745 57.0848 80.2925 58.4117 82.2764C57.4221 81.8401 56.1679 79.5338 55.0621 80.8632C54.5867 81.4348 54.7066 82.1879 54.7446 82.872C54.7996 83.861 54.8168 84.8573 54.8168 85.8479C53.7347 85.5683 53.0076 84.3468 52.4395 83.4816C51.6634 82.2997 51.1747 81.1861 50.8311 79.8313C50.6822 79.2446 50.2876 79.2301 49.9369 78.879C49.7116 78.6533 49.5983 78.3493 49.2751 78.6775C48.8689 79.09 49.1391 80.2325 49.2093 80.7196C49.3759 81.8787 49.9222 83.6625 49.3911 84.7517C48.6743 86.2216 46.7535 82.5231 46.5285 81.989C46.4141 81.7171 44.3705 76.5025 43.6363 78.2946ZM42.2944 53.1044C42.4154 53.1228 42.5363 53.1412 42.6573 53.1596C42.5598 53.2453 42.3569 53.5455 42.1911 53.4661C42.2255 53.3456 42.26 53.2251 42.2944 53.1044ZM48.7046 51.7367C48.6668 51.7781 48.6286 51.8194 48.5906 51.8608C48.4171 51.6451 48.4786 51.3307 48.4786 51.0812C48.708 51.219 48.764 51.4945 48.7046 51.7367ZM49.2226 54.1301V54.8351C48.7421 54.6281 48.7326 54.5212 49.2226 54.1301ZM49.8062 55.0265C49.4695 54.9347 49.4293 54.8606 49.4766 54.3461C49.6161 54.6343 49.708 54.8243 49.8062 55.0265ZM51.7442 60.2483C51.6031 60.6093 50.7783 59.749 50.8085 59.4915C50.8373 59.2458 50.964 59.1726 51.1388 59.3305C51.1966 59.3828 51.1108 59.5718 51.1476 59.6374C51.2807 59.8749 51.549 60.0692 51.7442 60.2483ZM51.7534 62.4234C51.5468 62.9364 51.1784 62.1284 51.7183 62.1064C51.7537 62.2096 51.7655 62.3152 51.7534 62.4234ZM51.3525 61.6144C51.2725 61.5083 51.1948 61.4008 51.1193 61.2913C51.3974 61.3472 51.6182 61.7501 51.9116 61.4813C51.8768 61.8913 51.5839 61.9026 51.3525 61.6144ZM33.3685 54.9502C32.9212 54.4648 35.8376 54.1241 36.1894 54.0408C38.7425 53.4354 41.153 52.5594 43.5402 51.4845C44.679 50.9717 45.812 50.4528 46.9241 49.8843C47.4044 49.639 48.0626 49.431 48.4637 49.0626C48.75 48.7997 48.7385 48.6007 49.1106 48.4441C49.4266 48.3114 49.4423 48.4367 49.587 48.1967C49.6739 48.0526 49.7722 47.5249 49.7214 47.3687C49.5828 46.9425 49.3779 47.288 49.0904 46.9944C48.8832 46.7827 48.9334 46.1806 48.9899 45.9313C49.0633 46.05 49.1055 46.179 49.1167 46.3179C49.4288 46.1649 49.303 45.6396 49.6443 45.5535C50.004 45.4629 49.9668 45.7415 50.0606 46.0264C50.3325 45.6295 50.1146 45.291 49.9675 44.9034C50.7153 44.7642 51.5189 44.6293 52.2602 44.8767C52.7963 45.0555 53.2551 45.4951 53.8211 45.58C54.3754 45.6631 54.4819 45.4018 54.8906 45.1366C55.2223 44.9214 55.5071 45.1748 55.6779 45.0123C55.5726 45.5612 54.6677 45.4861 54.779 46.172C54.8292 46.4807 55.2097 46.758 55.3829 46.9982C55.6003 47.2997 55.7736 47.633 55.9217 47.9728C56.4977 49.2943 56.7439 50.8279 56.9856 52.2411C57.5821 55.7294 57.6576 59.2865 58.2186 62.786C58.4859 64.4529 58.7539 66.1207 58.8928 67.8039C58.9275 68.2247 59.186 69.1793 58.9745 69.5842C58.7957 69.926 58.3979 69.927 58.0486 70.0097C57.3653 70.1712 56.7236 70.3906 56.0681 70.6337C55.4806 70.8515 55.3098 70.9851 54.9326 70.4354C54.5677 69.9034 54.3873 69.2694 54.1263 68.6863C53.7938 67.9433 53.3921 67.2263 53.0065 66.5096C53.764 66.5096 54.2 66.1029 54.1799 65.3375C54.158 64.4897 53.4568 64.2885 53.1677 63.5918C52.8866 63.9549 52.8629 63.9651 52.6625 63.6204C52.4334 63.2262 52.2787 62.505 52.1385 62.0579C52.2388 62.1643 52.3391 62.2707 52.4393 62.377C52.6921 62.031 52.2961 61.4856 52.1636 61.1598C51.9592 60.6567 51.9232 60.1127 51.7293 59.611C51.6235 59.3372 51.3786 59.1217 51.3185 58.836C51.2785 58.6448 51.4391 58.4628 51.4009 58.2687C51.3346 57.9307 50.9502 57.5681 50.8306 57.2244C50.6466 56.6956 50.4469 56.2301 50.2187 55.715C49.9098 55.0177 49.9816 54.2861 49.9251 53.544C49.8666 52.7746 49.6187 52.0385 49.5312 51.2724C49.4706 50.7432 49.6601 50.0768 49.2574 49.6529C49.2103 50.3575 49.4134 50.3467 48.7476 50.4734C47.9895 50.6176 47.4398 51.1791 46.7231 51.3467C46.5754 51.3812 46.4677 50.7395 46.5253 51.6149C46.1816 51.3625 45.4478 51.6759 45.7216 51.8256C45.5141 52.0463 45.1055 51.8937 45.0373 52.2243C44.3322 51.5427 43.2016 53.8626 42.362 52.6525C42.2234 53.4727 41.6262 53.9575 40.8244 54.066C40.4213 54.1205 40.1728 54.2541 39.815 54.3743C39.7424 54.3984 39.7157 54.5023 39.6298 54.5303C39.4984 54.5729 39.3056 54.4443 39.211 54.4693C39.0184 54.5202 38.8042 54.7722 38.5352 54.8223C38.2269 54.8798 37.8905 54.8534 37.5818 54.8179C37.1959 54.7734 37.0261 54.7279 36.6482 54.8543C36.3083 54.9681 35.9443 55.2867 35.6289 54.9398C35.1333 55.7923 33.9519 55.5839 33.3685 54.9502ZM56.277 44.6631C55.9021 44.6184 56.1624 44.2977 56.3361 44.2014C56.808 43.9399 56.682 44.7114 56.277 44.6631ZM35.5128 47.7222C37.7138 44.5648 41.4785 42.3955 44.7909 40.5702C46.6002 39.5732 48.4469 38.6068 50.3466 37.7908C51.2912 37.3853 52.2467 36.9955 53.2112 36.6392C53.7262 36.449 54.2474 36.276 54.7691 36.1038C54.9132 36.0563 55.1756 35.9103 55.3265 35.9245C55.3005 35.922 55.7017 36.0305 55.6228 36.0646C55.8813 35.9527 56.0043 35.661 56.3081 35.5443C56.6496 35.4131 57.0846 35.3588 57.4504 35.347C57.7741 35.3364 58.0543 35.4694 58.3626 35.4798C58.5653 35.4865 58.7375 35.3909 58.9359 35.3768C59.0374 35.3697 59.0284 35.5208 59.0896 35.5296C59.1161 35.5334 59.3865 35.4325 59.3891 35.4342C59.4876 35.4971 59.5748 35.7426 59.6638 35.8385C59.9191 36.1134 60.2937 36.3049 60.6341 36.4496C61.0484 36.6256 62.0589 36.8026 61.5906 37.4539C61.9232 37.4064 62.0781 37.7053 61.6615 37.781C61.4359 37.8222 61.3395 37.6167 61.172 37.4765C60.7849 37.1532 59.8454 36.693 59.2879 36.7138C58.9742 36.7255 58.7318 36.9622 58.4426 37.0481C58.1579 37.1326 58.0169 37.0015 57.7672 37.0223C57.4752 37.0465 57.2872 37.2922 57.009 37.3358C56.7484 37.3768 56.6033 37.2001 56.3704 37.2125C56.0936 37.227 55.8254 37.4661 55.5612 37.5464C55.1408 37.6741 54.8321 37.7612 54.4217 37.9729C53.6264 38.3834 52.7382 38.5393 51.9185 38.8926C51.2632 39.175 50.5201 39.3237 49.9137 39.6361C49.2394 39.9832 48.562 40.329 47.9017 40.7062C47.4246 40.9787 46.4548 41.0725 45.9289 41.0032C45.9213 41.9663 45.4446 41.2911 44.9642 41.7129C45.0778 41.8126 45.2069 41.8859 45.351 41.9328C44.8303 42.1396 44.3491 42.3969 43.8447 42.6345C43.3235 42.8804 42.7673 42.9344 42.4248 43.3993C42.1093 43.8277 42.2162 43.6067 41.7455 43.7754C41.5295 43.8528 41.3417 44.0891 41.186 44.2476C40.9186 44.5203 40.8593 44.9332 40.7066 44.3728C40.662 44.4411 40.4866 44.8762 40.4525 44.8873C40.2611 44.6853 40.2336 44.9247 40.1266 45.0103C40.1829 45.1964 40.1024 45.3184 39.8852 45.3762C39.7753 45.4575 39.6639 45.5371 39.5514 45.6151C39.1433 45.8966 38.6237 46.1381 38.3363 46.5575C38.1244 46.4332 38.0458 46.2186 38.1749 45.9995C37.7698 46.3707 37.2865 46.7521 37.1769 47.3236C37.1265 47.2752 37.0678 47.2403 37.0012 47.2189C36.8367 47.3293 37.0509 47.6583 37.1552 47.7324C37.61 47.5567 37.0416 47.6204 37.3472 47.6487C37.4343 47.6567 37.5237 47.7215 37.6198 47.7227C37.9016 47.7263 38.1664 47.7129 38.4458 47.6702C39.0618 47.5758 39.6673 47.3999 40.2637 47.2235C40.9133 47.0315 41.563 46.8398 42.1982 46.6042C42.7212 46.4103 43.2356 46.1941 43.7498 45.9787C43.9551 45.8926 44.1603 45.8054 44.366 45.7199C44.7566 45.5576 44.9626 45.291 44.9081 45.7477C45.2191 45.6964 45.4887 45.2592 45.7276 45.0807C46.0636 44.83 46.4415 44.6429 46.8396 44.5149C47.0009 44.463 47.1193 44.3971 47.2861 44.3966C47.3678 44.3965 47.4168 44.6256 47.4683 44.6131C47.8255 44.5271 47.6627 44.3302 47.8233 44.0466C48.1746 43.4269 49.1209 43.0841 49.7021 42.732C50.0709 42.5084 50.3328 42.2078 50.6733 41.9602C50.8327 41.8445 50.9484 41.7933 51.1153 41.7443C51.2431 41.7067 51.3998 41.9986 51.4827 41.7053C51.1854 41.5844 50.9403 41.4355 50.6543 41.3473C50.452 41.2847 50.6947 41.0707 50.3742 41.1981C50.2454 41.2493 50.2011 41.4971 50.1538 41.6008C49.7957 41.2828 48.7889 41.6123 48.364 41.7454C48.3348 41.7546 48.2036 41.6857 48.1418 41.6899C47.8965 41.7062 47.7258 42.0344 47.5643 42.1759C47.1351 42.5518 46.6695 42.709 46.141 42.9236C46.2817 42.1594 47.3154 41.8464 47.9187 41.5537C48.8007 41.1258 49.6218 40.5796 50.5874 40.3495C51.2305 40.196 52.0827 40.0727 52.3605 40.8161C52.5267 41.2618 52.5476 42.3691 51.9851 42.5747C51.9258 42.3667 52.116 42.1889 52.1733 42.0084C51.6134 42.2209 51.5212 42.8896 51.096 43.2387C50.857 43.4347 50.7715 43.4976 50.656 43.6871C50.5412 43.8753 50.4862 44.0508 50.2172 44.251C49.7777 43.3227 49.8521 44.5943 49.6292 44.7538C49.7188 44.6896 49.2659 44.877 49.32 44.8572C49.2991 44.8649 49.1018 44.5471 48.9738 44.5538C48.741 44.5659 48.7857 44.8209 48.6735 44.9492C48.2932 45.3835 47.8019 45.6684 47.1898 45.6C47.1755 45.9091 47.2714 46.2782 46.847 46.3064L46.7914 45.6213C46.5604 45.8537 46.2564 46.0744 46.0684 46.3434C45.8545 46.6495 45.8774 46.838 45.5225 47.0421C45.1517 47.2554 44.3628 47.6756 43.9215 47.7119C44.0306 47.558 44.0113 47.4189 43.8639 47.2951C43.642 47.5226 43.3143 47.545 43.078 47.7505C43.8982 48.0912 42.448 48.0736 42.264 48.1122C42.1409 48.1381 42.0334 48.2496 41.9087 48.2748C41.743 48.3082 41.7216 48.1351 41.5791 48.1899C41.3705 48.2703 41.4551 48.497 41.2369 48.611C41.0801 48.6929 40.8143 48.6918 40.6374 48.7696C40.2159 48.9552 39.318 49.3663 39.0332 48.8677C38.8888 49.7232 37.4145 49.2024 36.8687 49.1448C36.1213 49.0659 34.8195 48.7171 35.5128 47.7222ZM38.6521 38.9689C38.7578 38.8792 38.8637 38.8857 38.9696 38.9888C38.8222 38.2146 39.9624 37.8386 40.4599 37.5095C41.1197 37.0729 41.8964 36.2259 42.7599 36.2929C42.6126 36.4014 42.4657 36.5099 42.3186 36.6184C42.5286 36.6455 42.7385 36.6725 42.9482 36.6996C42.8299 36.8724 42.7114 37.0451 42.5928 37.2177C42.399 36.1558 41.388 37.4965 41.0954 37.6919C40.8008 37.8886 40.5069 38.0352 40.245 38.275C39.9856 38.5127 39.7514 38.9406 39.3225 38.7268C39.2834 39.3333 38.7931 39.1688 38.454 39.5047C38.4398 39.294 38.5611 39.145 38.6521 38.9689ZM43.1316 35.9413C44.1753 35.5526 45.084 34.834 46.0675 34.3206C47.0068 33.8302 47.9652 33.3898 48.9202 32.9322C49.4047 32.7 50.2921 32.0996 50.8459 32.4056C51.5931 32.8188 50.5644 32.9521 50.2972 33.0951C50.1984 32.4589 49.8522 33.0353 50.059 33.3893C49.4888 33.1444 48.2453 34.1024 47.7013 34.3665C47.5782 34.4264 47.6334 34.4609 47.4934 34.5313C47.4589 34.5486 47.102 34.6294 46.9998 34.6635C46.4877 34.834 46.1502 34.6986 45.9295 35.3132C45.8833 35.1686 45.8372 35.0237 45.791 34.8789C45.4704 35.5947 44.4959 35.9081 43.8727 36.3313C43.7121 36.4405 43.2535 36.8638 43.0497 36.7762C42.7661 36.6543 42.8799 36.035 43.1316 35.9413ZM61.9593 38.0995C62.3999 38.1285 61.975 38.3328 62.0961 38.4679C62.0824 38.4527 62.3615 38.6894 62.3249 38.6244C62.3742 38.7118 62.4925 38.7086 62.553 38.8862C62.7614 39.497 61.8513 40.1282 61.5444 40.4748C60.9476 41.149 60.6027 42.0028 59.9809 42.6554C59.7 42.9501 59.4206 43.1537 59.0313 43.2636C58.7589 43.3406 58.4706 43.2582 58.2202 43.5187C58.0185 43.7285 58.0643 43.8477 57.8414 43.9593C57.4487 44.1559 57.2757 43.9834 56.8936 44.4085C56.5648 43.5197 57.5095 43.5211 58.0025 43.0244C58.6829 42.3387 59.4285 41.6469 60.0667 40.9133C60.6335 40.2615 60.8606 39.69 61.1296 38.8982C61.2145 38.6486 61.3068 38.1133 61.5407 37.9566C61.9049 37.7127 61.6863 38.0814 61.9593 38.0995ZM64.1261 61.1884C65.2818 59.9031 66.7155 58.749 68.2695 57.9747C68.8249 57.6979 69.6156 57.3346 70.1913 57.7608C70.7558 58.1785 70.6343 59.0117 70.4068 59.5786C70.1887 59.4934 70.3945 58.6968 70.2814 58.5C70.0345 58.0704 69.5018 58.2985 69.1394 58.4425C68.7148 58.6112 68.336 58.7975 67.9998 59.1036C67.8633 59.2276 67.6021 59.3388 67.5147 59.4241C67.3834 59.3699 67.306 59.4094 67.2828 59.5425C67.3098 59.6242 67.3066 59.7045 67.273 59.7835C67.2538 59.8087 67.0831 59.7056 67.0588 59.7263C66.948 59.8205 66.8444 59.9314 66.7354 60.0189C66.5167 60.1948 66.3307 60.278 66.1293 60.5232C65.7405 60.997 65.2262 61.2747 64.8356 61.7261C64.7474 61.8282 64.6416 62.0899 64.6218 62.1128C64.4244 62.3419 64.1316 62.5232 63.9089 62.7658C63.5238 63.185 63.1126 63.4663 62.6682 63.8257C62.4769 63.9803 62.2536 64.1469 62.1263 64.362C62.0684 64.4601 62.0357 64.9978 62.0336 65C61.5978 65.475 61.6826 64.5202 61.7155 64.4005C62.0694 63.1125 63.2659 62.1454 64.1261 61.1884ZM61.7473 69.8983C61.8016 70.1006 61.8461 70.2678 61.9012 70.4731C61.5556 70.1913 61.5556 70.1913 61.7473 69.8983ZM61.3741 70.5608C61.2471 70.6881 61.1195 70.8145 60.9909 70.9401C60.7081 70.6429 61.4259 70.5099 61.3741 70.5608ZM61.1947 65.446C61.0595 65.9898 60.5646 66.6489 60.2244 67.0781C60.2619 67.0308 59.934 67.126 59.8967 67.1476C59.7755 67.2174 60.0657 67.6696 59.6458 67.4675C59.4968 67.5513 59.7902 67.8928 59.5877 68.0457C59.0025 66.7198 60.6003 65.5711 61.219 64.587C61.5215 64.8632 61.2706 65.1412 61.1947 65.446ZM57.3938 72.6143C57.8204 72.7235 58.0424 72.6548 58.3304 72.2381C58.5036 71.9878 58.5669 71.5445 58.9629 71.919L59.0328 71.4375C59.5982 71.6681 59.5507 72.5015 59.7977 72.9633C59.9179 72.4409 60.2026 70.9812 61.0744 71.2154C62.0531 71.4783 60.4243 73.1519 60.273 73.5619C59.9403 73.0485 60.0712 73.526 59.8174 73.5983C59.5996 73.6606 59.2594 73.5012 58.9948 73.5156C58.1898 73.5591 57.4826 73.9192 56.7473 74.2241C56.5611 73.7249 56.3751 73.2258 56.1888 72.7267C56.6218 72.7598 57.5169 71.614 57.644 72.4468C57.323 72.3912 57.2325 72.4053 57.0761 72.6959C57.176 72.6455 57.2819 72.6183 57.3938 72.6143ZM59.2008 79.1293C59.1995 79.1253 60.0335 79.1765 60.1078 79.1494C60.6785 78.9422 60.4675 78.2985 60.5842 77.8436C60.8195 78.0587 60.6948 78.4512 60.7674 78.7295C60.8525 79.0566 61.0991 79.3354 61.1219 79.6852C61.1739 80.4756 60.5216 80.3002 60.0272 80.5559C59.6048 80.7745 59.5579 81.0494 59.2011 80.4604C59.1046 80.301 58.8969 79.8857 58.9182 79.6818C58.9391 79.4799 59.2608 79.312 59.2008 79.1293ZM59.8729 82.5494L59.6423 82.2925C60.3295 82.5017 59.9242 82.1872 60.0823 81.7572C60.6097 82.1064 61.0398 82.4654 61.4571 81.7662L62.1782 84.6579C61.6939 84.7712 61.0691 84.0273 60.737 83.7717C60.5451 83.624 59.4805 83.0551 60.1198 82.8893C60.0374 82.776 59.9551 82.6627 59.8729 82.5494ZM64.5793 73.469C64.1791 73.8475 63.7759 74.0594 63.3401 74.3569C62.9579 74.618 63.0895 74.9178 62.7582 75.209C62.5382 75.4027 62.0224 75.5998 61.7505 75.7475C61.2663 76.0106 60.8326 76.0607 60.3344 75.7663C60.47 76.8514 59.7226 76.9364 58.7922 77.1513C58.3485 77.2539 58.0858 77.4105 57.766 77.0065C57.547 76.7299 57.4612 76.2292 57.7337 75.9762C58.1665 75.5742 59.3194 75.713 59.8746 75.4601C60.296 75.2684 60.7252 74.1881 61.245 74.5812C60.9768 74.1564 61.2891 74.0419 61.5223 73.739C61.7777 73.407 61.9347 73.0187 62.1989 72.6894C62.701 72.0634 63.4719 71.4336 64.1851 71.0561C64.8125 70.7241 65.142 70.9592 65.236 71.6566C65.2833 72.0072 65.2815 72.5295 65.0841 72.8406C65.0211 72.9398 64.8134 72.9409 64.7504 73.0341C64.6408 73.1968 64.7414 73.3157 64.5793 73.469ZM71.9427 65.0527C72.4434 65.438 72.3947 66.2477 72.4735 66.7992C72.5847 67.5765 72.5041 68.3286 72.4922 69.1203C72.4796 69.9497 72.0704 70.4899 71.8777 71.2674C71.6637 72.1322 71.3873 72.5902 70.9071 73.3159C71.4279 73.3973 70.6528 74.9439 70.525 75.1441C70.3863 75.3614 69.2676 76.3628 69.7472 76.3628C69.4826 76.7098 69.1946 77.0658 68.931 77.4032C68.8271 77.536 68.6451 77.5882 68.5634 77.682C68.3968 77.8726 68.3867 78.0425 68.2674 78.2649C68.0863 78.6024 68.0268 78.5123 67.7888 78.7572C67.6245 78.9263 67.5166 79.1496 67.3552 79.3117C66.8351 79.8339 66.7687 79.4061 66.4779 79.004C66.4334 79.1117 66.3542 79.1792 66.2404 79.2066C66.1493 78.7514 66.7763 78.2917 67.0399 78.0151C67.4717 77.5619 67.8663 77.0626 68.2481 76.567C69.0657 75.5051 69.8003 74.3769 70.38 73.1683C70.9967 71.8822 71.4894 70.4903 71.7453 69.0871C71.9403 68.0177 72.1257 66.1831 70.6886 65.911C69.6433 65.7132 68.4909 66.3447 67.6293 66.856C67.1041 67.1674 66.5761 67.4771 66.0759 67.8274C65.5329 68.2073 65.0636 68.745 64.4743 69.0499C64.7966 68.8831 63.733 69.385 63.8958 69.2438C63.8196 69.3097 63.8854 69.5112 63.835 69.6021C63.7693 69.7204 63.5411 69.8372 63.4388 69.9137C63.1684 70.1156 62.7364 70.3222 62.6135 70.6557C60.8985 69.4392 64.309 67.2795 65.1832 66.7294C66.9173 65.6385 69.9347 63.5069 71.9427 65.0527ZM76.5687 53.2213C76.5523 52.3453 77.2698 51.1494 77.7544 50.435C77.9914 50.0853 78.3701 50.0992 78.509 49.6869C78.5892 49.4494 78.4841 49.2004 78.5079 48.9619C78.5401 48.6395 78.6807 48.3809 78.843 48.1037C80.3096 45.5981 82.0915 43.3804 83.9894 41.1945C84.9253 40.1168 85.8125 38.9977 86.8218 37.9854C87.2434 37.5626 88.3766 36.0426 89.0249 36.1947C89.3681 36.2752 89.5679 36.7961 89.7229 37.0619C89.9791 37.5015 90.2609 37.9132 90.5723 38.3175C91.3942 39.3847 92.3423 40.3215 93.4619 41.078C94.161 41.5507 94.8674 42.0101 95.5511 42.5054C96.1139 42.913 96.9647 43.379 97.3666 43.9513C97.7686 44.5237 97.1783 45.0084 96.8556 45.4837C96.3541 46.2229 95.8929 46.9888 95.3893 47.7271C95.1893 47.5841 95.2409 47.2935 95.1038 47.1102C94.9821 46.9478 94.8101 46.8817 94.6421 46.7814C94.32 46.5895 94.004 46.3549 93.7132 46.6764C93.2041 47.2391 93.904 48.5691 94.6585 48.4231C94.7473 48.9784 93.2408 49.893 92.8632 50.1986C91.7045 51.1361 90.5092 51.9511 88.9785 52.0359C88.3591 52.0702 87.7145 52.0234 87.126 51.8173C86.844 51.7186 86.5323 51.583 86.3161 51.3678C86.0573 51.1102 85.9913 50.7267 85.7403 50.4716C85.5225 50.2503 85.2235 50.2162 85.0059 49.9941C84.788 49.7718 84.6804 49.4207 84.592 49.1328C84.4191 48.5703 84.3865 47.9771 84.2204 47.4133C84.1204 47.0742 84.0384 46.6209 83.7125 46.9467C83.2391 47.42 83.4769 48.9085 83.598 49.4756C83.7714 50.2847 84.1777 50.937 84.6034 51.6331C85.065 52.3883 85.2354 53.0887 85.3181 53.9625C85.473 55.5982 85.945 57.1677 86.6795 58.6393C86.9887 59.259 87.359 59.8416 87.6928 60.447C87.8487 60.7295 88.1981 61.6932 88.6222 61.688C89.2998 61.6797 88.3346 59.7151 88.2007 59.3852C87.4585 57.5585 86.7495 55.6385 86.5905 53.6605C87.6545 53.9331 88.8142 54.1917 89.916 54.019C89.2048 55.6004 89.9477 57.1749 89.8568 58.8027C89.8114 59.619 89.7785 60.3721 89.7954 61.186C89.8104 61.8998 89.4863 62.6132 89.2061 63.2586C88.6496 64.5402 87.949 66.1213 86.9154 67.1031C86.0514 67.9239 84.8955 67.9881 83.7665 67.7991C81.1983 67.3689 79.5108 65.4058 78.4331 63.1763C77.7405 61.7441 77.2112 60.2151 76.8826 58.6597C76.5021 56.8595 76.6025 55.0472 76.5687 53.2213ZM79.904 41.0893C77.5073 39.365 80.99 37.4069 82.7628 37.6735C83.1786 37.7359 83.9437 37.9068 83.9048 38.4464C83.8729 38.8875 83.1331 39.3791 82.849 39.6513C82.039 40.4281 81.2147 42.032 79.904 41.0893ZM97.3391 79.4029C97.2568 79.3296 96.5861 79.5095 96.8518 79.1149C97.0726 78.787 97.6848 79.1979 97.9072 79.2822C97.7239 79.4082 97.5644 79.6033 97.3391 79.4029ZM87.3595 100.258C87.1535 100.283 86.9381 99.7306 87.6807 100.143C87.5737 100.181 87.4665 100.22 87.3595 100.258ZM87.3382 109.261C87.3638 109.509 87.4399 109.672 87.2631 109.852C87.1136 109.669 87.0943 109.41 87.3382 109.261ZM87.6397 112.981C87.6178 113.116 87.5959 113.251 87.5743 113.385C87.4028 113.299 87.2315 113.213 87.06 113.126C87.2531 113.078 87.4465 113.03 87.6397 112.981ZM87.8495 109.844C88.1051 109.939 87.9862 109.635 88.1717 109.593C88.2382 109.909 88.1563 110.18 87.9736 110.441C87.9562 110.379 87.8626 109.849 87.8495 109.844ZM94.381 87.3962C94.0225 87.3507 93.9682 87.7274 93.7009 87.8735C93.5284 87.968 93.0031 87.8971 92.9051 88.0777C93.0345 88.1149 93.164 88.1522 93.2934 88.1893C92.9971 88.348 92.7008 88.5069 92.4046 88.6657C93.1172 88.6657 93.8598 88.3272 94.5676 88.4266C94.8667 88.4687 95.0861 88.5692 95.2738 88.8112C95.3877 88.9581 95.4878 89.1944 95.5062 89.3743C95.5259 89.5689 95.3734 89.7033 95.4004 89.7961C95.7194 89.8048 95.6817 90.325 95.6101 90.5371C95.4548 90.9968 94.8379 91.7168 94.2851 91.4252C94.5164 91.7515 94.4575 91.9378 94.1155 92.1271C94.1466 92.0193 94.1694 91.8306 93.9946 91.8493C93.9497 92.0301 93.9669 92.3169 93.8184 92.4532C93.6522 92.6058 93.5038 92.4275 93.3448 92.5267C93.1563 92.6445 93.213 92.8293 93.0647 92.957C92.8687 93.1257 92.8407 93.0058 92.6064 93.0386C92.2515 93.0886 92.4779 92.8693 92.1937 93.1551C92.0954 93.2537 92.112 93.5102 91.9526 93.6546C91.6465 93.9316 90.8298 94.2203 90.5366 93.865C89.8315 94.9761 87.7182 95.2427 86.7346 94.3656C85.1657 92.9668 88.091 90.122 89.0567 89.2203C90.0261 88.3155 91.1027 87.534 92.1921 86.7796C92.8111 86.351 93.4463 85.962 94.0949 85.5802C94.495 85.3445 94.9974 84.9141 95.4891 84.9554C95.9301 84.9925 96.3068 85.3328 96.7711 85.4001C97.1068 85.4488 97.7591 85.5291 97.3355 85.982C97.1374 86.1936 96.3595 86.5357 96.0945 86.5872C95.9389 86.6175 95.7749 86.5596 95.6207 86.5909C95.3597 86.6442 95.1804 86.8633 94.8964 86.8354C94.9863 87.2546 94.8222 87.4519 94.381 87.3962ZM99.0239 71.8366C99.0241 72.1645 98.4222 72.0827 98.2965 71.9713C98.0895 71.7881 98.0823 71.2402 98.0055 70.991C98.3554 71.0785 99.0236 71.3989 99.0239 71.8366ZM94.1752 61.019C95.4395 59.9857 96.7689 59.0383 98.1742 58.2039C98.6774 57.9051 99.388 57.3025 100.013 57.3777C100.275 57.4094 100.817 57.7088 100.62 58.0389C100.583 58.1007 100.291 58.1255 100.201 58.1703C100.099 58.221 100.019 58.3609 99.9239 58.43C99.2673 58.909 98.4784 59.2033 97.8196 59.6938C97.2782 60.0966 96.7734 60.5472 96.1906 60.8929C95.6315 61.2243 95.0473 61.4341 94.5165 61.8012C94.527 61.7938 93.8261 62.0444 93.9636 62.09C93.3483 61.8854 93.9982 61.1638 94.1752 61.019ZM102.605 60.6341C103.356 60.3364 104.091 59.9753 104.877 59.7752C105.269 59.6754 105.672 59.6003 106.078 59.6453C106.148 59.5251 106.239 59.4985 106.354 59.5656C106.444 59.7026 106.562 59.8077 106.709 59.8812C106.933 60.0524 107.758 60.2763 107.593 60.6544C107.484 60.9045 106.657 60.9254 106.43 60.9815C105.746 61.151 105.108 61.5322 104.403 61.6258C104.337 61.6346 104.121 61.5549 104.119 61.5554C103.844 61.6151 103.615 61.8988 103.378 62.0348C102.87 62.3275 102.139 62.3767 101.774 62.8819C102.957 63.679 103.983 62.8884 105.022 62.2866C105.645 61.9262 106.314 61.6661 106.994 61.435C107.35 61.3144 107.709 61.1889 108.069 61.083C108.218 61.0289 108.372 60.99 108.529 60.9662C108.676 60.9372 108.78 60.9902 108.844 61.1252C109.28 61.1108 109.317 60.8389 109.579 61.3461C109.949 62.0611 109.383 62.0247 108.851 62.1126C108.114 62.2342 107.364 62.5082 106.637 62.6898C106.47 62.7318 105 63.0705 104.999 63.0825C104.932 63.5437 109.15 63.1166 109.512 63.0475C110.151 62.9252 110.836 62.5781 111.497 62.6618C112.005 62.726 113.162 63.4669 112.352 63.9592C112.193 63.2 111.645 63.827 111.359 64.0832C110.978 64.4242 110.433 64.3914 109.911 64.525C109.196 64.7075 107.368 65.3921 106.861 64.5193C107.021 65.2842 104.107 64.8955 103.706 64.8702C103.315 64.8454 102.811 64.928 102.433 64.8172C102.187 64.7451 102.05 64.5858 101.818 64.55C101.762 64.6108 101.694 64.6523 101.614 64.6742C101.497 64.6151 101.391 64.5399 101.296 64.4489C100.516 64.0922 99.308 63.895 99.7417 62.7586C100.151 61.6869 101.613 61.0275 102.605 60.6341ZM109.921 61.2965C109.94 61.2297 109.96 61.163 109.979 61.0961C109.982 61.3008 110.472 61.3882 110.416 61.6533C110.29 62.2405 109.724 61.3582 109.675 61.2621C109.757 61.2736 109.839 61.2849 109.921 61.2965ZM112.918 62.272C112.975 62.5125 113.627 63.0246 113.466 63.1427C113.208 62.7948 112.497 62.9528 112.918 62.272ZM101.907 84.2183C102.146 83.747 102.868 84.5496 102.792 83.745C103.185 83.7803 102.94 84.0775 103.41 83.9469C103.587 83.898 103.706 83.7035 103.921 83.6587C103.978 83.6467 104.226 83.6662 104.312 83.6637C104.595 83.655 105.704 83.6237 104.94 83.2545C105.368 82.9735 105.421 83.1161 105.806 83.3735C105.707 82.8413 106.275 83.1434 106.539 83.2098C106.351 82.9063 106.818 82.5833 106.97 82.3782C106.916 82.6942 106.944 83.048 107.404 82.8459C107.519 82.7957 107.493 82.5723 107.584 82.5358C107.751 82.4691 107.844 82.5905 107.903 82.5836C107.962 82.5771 108.086 82.6099 108.209 82.5636C108.37 82.5036 108.292 82.2895 108.496 82.2577C108.628 82.237 108.725 82.4306 108.887 82.4323C108.97 82.4331 109.108 82.3492 109.171 82.3537C109.183 82.3545 109.262 82.165 109.359 82.1604C109.501 82.1535 109.558 82.5316 109.61 82.6051C109.859 82.9555 110.189 83.1841 110.57 83.371C109.881 83.9996 108.49 83.933 107.623 84.1449C107.153 84.2598 106.753 84.4254 106.323 84.6389C106.219 84.7059 106.13 84.7882 106.055 84.8857C105.994 84.8455 105.933 84.8053 105.873 84.7651C105.637 84.7796 105.414 84.6637 105.149 84.7082C104.331 84.8455 103.69 85.4554 102.858 85.5912C102.484 85.6523 102.177 85.7376 101.933 85.4153C101.719 85.1327 101.755 84.5189 101.907 84.2183ZM100.784 80.462C100.97 80.618 100.747 81.1259 101.106 81.0707C101.361 81.0315 101.31 80.6383 101.51 80.555C101.773 80.4457 101.932 80.7051 102.179 80.6811C102.64 80.6359 102.613 80.2359 102.224 80.0601C102.629 79.9539 102.759 80.4298 103.117 80.4255C103.588 80.4199 103.475 79.8676 103.876 79.7761C104.05 79.7364 103.992 79.9897 104.104 80.0213C104.329 80.0841 104.486 79.9761 104.686 79.8811C104.864 79.7961 104.991 79.6319 105.186 79.5762C105.274 79.5508 105.5 79.5973 105.565 79.5501C105.696 79.4551 105.813 79.0848 105.942 79.0358C105.916 79.0457 106.339 79.2566 106.4 79.2765C106.363 79.4328 106.277 79.4514 106.142 79.3323C106.142 79.6852 107.128 79.7951 106.926 79.3591C107.459 79.5786 107.062 79.6916 107.008 79.9981C106.987 80.1213 106.915 80.1179 106.936 80.2482C106.946 80.3082 107.226 80.2565 107.222 80.3383C107.199 80.8649 105.511 81.0269 105.191 81.0733C104.529 81.1695 103.902 81.3313 103.264 81.5305C102.789 81.6788 101.97 82.1037 101.464 82.0773C100.737 82.0394 100.642 81.0958 100.784 80.462ZM99.1594 75.0879C98.9821 74.502 99.551 73.2919 100.292 73.4431C100.474 73.4802 100.519 73.6304 100.66 73.6969C100.858 73.7901 101.179 73.7411 101.35 73.8373C101.733 74.0531 101.54 74.6032 101.924 74.8019C101.317 74.9482 99.4413 76.0191 99.1594 75.0879ZM99.8616 77.3641C100.123 77.2244 100.547 77.2065 100.725 76.9378C100.814 76.999 100.982 77.3701 101.141 77.3133C101.215 77.2868 101.292 77.0857 101.287 77.0859C101.428 77.0819 101.457 76.8909 101.673 76.9124C101.872 76.9322 102.095 77.17 102.272 77.2587C102.242 76.6691 102.394 76.6128 102.874 76.2972C102.98 76.2281 103.068 75.9685 103.165 75.8636C103.072 76.4822 103.306 76.4856 103.803 76.5786C104.426 76.6951 104.814 77.0276 105.064 77.6259C104.533 77.5231 103.848 77.6469 103.639 78.2142C103.216 77.4446 101.676 78.5066 101.178 78.7241C100.808 78.8855 100.378 79.1025 100.068 78.7263C99.85 78.4613 99.9751 78.1425 99.9798 77.9071C99.981 77.8332 100.058 77.8289 100.051 77.7188C100.042 77.5783 99.8578 77.5221 99.8616 77.3641ZM105.528 89.4657C105.388 89.5185 104.667 89.5481 104.662 89.3104C104.658 89.1005 105.935 89.312 105.528 89.4657ZM104.356 88.6969C103.81 89.0315 103.2 87.8524 102.999 87.5128C103.572 87.5857 103.851 87.1094 104.188 86.7474C104.509 87.4466 104.997 87.0771 105.509 86.8436C106.114 86.5682 106.776 86.5661 107.395 86.3451C107.589 86.2761 107.767 86.1736 107.956 86.0947C108.107 86.0382 108.259 85.9802 108.41 85.9209C108.517 85.8249 108.555 85.7066 108.524 85.5664C108.473 85.4486 108.508 85.3742 108.627 85.3435C108.77 85.3857 108.916 85.4104 109.064 85.4169C109.303 85.3699 109.646 85.146 109.358 84.9047C109.666 84.6259 109.976 84.9031 110.273 85.0252C110.202 84.825 110.132 84.6248 110.061 84.4246C110.209 84.4869 110.646 85.095 110.691 85.0916C110.974 85.0705 110.944 84.693 111.107 84.5406C111.201 84.6557 111.228 85.5136 111.597 85.2246C111.754 85.1011 111.415 84.6802 111.331 84.5843C111.753 84.6791 112.121 85.1799 112.235 85.5688C112.035 85.5976 111.85 85.5576 111.68 85.4485C111.571 85.99 112.579 85.7706 112.742 86.0535C113.062 86.6074 110.983 86.9921 110.712 87.0435C110.17 87.1462 109.53 87.1845 109.033 87.4234C108.557 87.6521 108.445 87.7175 107.889 87.7604C107.254 87.8094 106.634 88.0174 106.02 88.1794C105.487 88.3199 104.829 88.4072 104.356 88.6969ZM115.96 68.8708C116.461 68.6914 118.15 67.7605 118.58 68.1745C118.534 68.1306 118.89 68.8607 118.886 68.8148C118.917 69.1945 118.907 69.3473 118.437 69.5293C118.1 69.6596 117.807 69.3827 117.504 69.4926C117.172 69.6135 117.404 69.8273 117.233 69.9766C117.045 70.1403 116.684 70.211 116.45 70.2827C115.878 70.4583 115.302 70.605 114.733 70.7942C113.576 71.179 112.35 71.5372 111.16 71.8094C110.271 72.0128 108.762 72.5183 107.943 71.9212C107.863 72.2607 107.668 72.2143 107.396 72.2637C107.183 72.3024 106.799 72.4073 106.609 72.4127C106.294 72.4218 105.419 72.3397 105.539 71.9004C105.506 72.0214 106.22 71.6073 106.097 71.5815C106.4 71.645 106.302 71.4932 106.55 71.4087C106.875 71.2984 107.214 71.3043 107.545 71.1875C108.381 70.8931 109.082 70.5109 109.963 70.3264C111.978 69.905 114.017 69.5661 115.96 68.8708ZM35.2178 114.254C35.0546 114.258 34.9276 113.797 35.4241 114.126C35.3554 114.169 35.2867 114.211 35.2178 114.254ZM31.2958 113.657C31.0738 113.714 30.9853 113.59 31.0305 113.288C31.34 113.166 31.4284 113.289 31.2958 113.657ZM28.2679 113.039C28.2111 112.77 28.4122 112.709 28.5946 112.588C28.5762 112.945 28.5762 112.945 28.2679 113.039ZM20.6494 110.819C20.3425 110.752 19.9335 110.454 19.8632 110.955C19.8119 110.839 19.5499 110.293 19.6624 110.167C19.7211 110.101 19.9435 110.406 19.9199 110.376C20.1885 109.836 20.6515 110.488 20.9103 110.681C20.8234 110.727 20.7363 110.773 20.6494 110.819ZM100.445 51.1132C100.551 50.8904 100.676 50.8197 100.82 50.9012C100.594 51.4222 99.8298 51.7047 100.445 51.1132ZM105.754 46.2221C105.944 46.5749 105.659 46.7241 105.456 47.0174C105.575 46.701 105.657 46.4818 105.754 46.2221ZM128.829 80.6673C129.512 80.6671 130.966 80.3088 131.378 81.0848C131.651 80.5575 131.96 81.5463 132.197 81.7049C132.223 81.7228 132.393 81.5934 132.473 81.6411C132.592 81.7129 132.695 81.9086 132.763 82.025C132.97 82.3758 133.058 82.7928 133.173 83.1788C131.98 83.1788 130.758 82.9027 129.566 82.8024C128.784 82.7365 128.017 82.7345 127.234 82.7765C127.079 82.7848 126.77 82.7337 126.637 82.7629C126.501 82.7925 126.256 83.0663 126.107 83.0223C126.339 83.4545 129.305 84.5009 129.531 84.0223C129.263 83.861 128.667 83.7371 128.668 83.3473C128.668 82.9106 129.227 82.9114 129.522 82.9242C130.169 82.9523 131.253 83.1665 131.518 83.8354C131.632 84.1222 131.667 84.8442 131.542 85.1211C131.461 85.2998 131.325 85.5147 131.108 85.551C131.02 85.5659 130.892 85.4486 130.878 85.4515C130.434 85.5451 129.613 85.8996 129.129 85.3998C128.78 85.849 127.098 85.3584 126.583 85.1889C125.683 84.8925 124.443 84.4856 123.896 83.6502C123.23 82.6321 124.585 81.7717 125.363 81.3578C126.427 80.7923 127.642 80.6678 128.829 80.6673ZM133.373 83.0213C133.582 83.08 133.792 83.1389 134.001 83.1977C133.945 83.5625 133.119 83.2738 133.373 83.0213ZM139.699 96.284C139.764 94.8222 139.339 93.5347 139.093 92.1209C139.032 91.7704 139.094 91.1577 138.827 90.8694C138.571 90.5939 138 90.8179 137.977 90.3308C137.726 90.6241 137.751 90.6854 137.44 90.3481C137.497 90.4927 137.505 90.6398 137.465 90.7896C137.272 90.6798 136.574 90.3153 136.633 90.8138C136.059 90.6875 136.225 90.3305 135.898 90.0579C135.851 90.0192 135.664 90.1567 135.591 90.0981C135.46 89.992 135.395 89.8957 135.284 89.759C135.142 89.9286 134.95 90.0512 134.778 90.1853C134.677 89.9682 134.482 89.8088 134.248 89.756C134.467 90.2124 135.009 90.8035 134.265 91.0632C133.821 91.2181 133.094 91.0282 132.624 91.0644C130.881 91.1988 128.972 90.821 127.287 90.4081C125.556 89.984 123.805 89.3853 122.248 88.5103C121.916 88.3237 121.707 88.1029 121.421 87.8715C121.143 87.6465 120.941 87.6109 120.607 87.4671C120.006 87.2081 119.457 86.7929 118.999 86.3301C118.016 85.3349 117.103 84.0333 117.377 82.5763C117.649 81.124 118.653 79.9891 119.728 79.0328C120.996 77.9033 122.429 76.9602 123.949 76.1999C124.629 75.8602 126.368 74.5835 127.039 75.3305C127.468 75.8077 127.227 76.4166 126.641 76.5227C126.496 76.549 126.345 76.4525 126.198 76.5185C125.988 76.6139 126.062 76.7266 125.975 76.8061C125.824 76.9442 125.663 77.1596 125.437 77.2793C124.649 77.6972 123.887 78.0283 123.134 78.5372C122.787 78.7716 122.452 78.8724 122.146 79.0771C121.842 79.2805 121.773 79.6172 121.363 79.4095C121.509 80.0016 120.633 80.6356 120.29 80.9984C119.759 81.5601 119.121 82.277 119.369 83.1081C119.855 84.7349 122.049 85.9705 123.453 86.6857C125.205 87.578 127.137 88.2883 129.087 88.5823C130.057 88.7284 131.059 88.8187 132.037 88.9113C132.797 88.9835 133.965 88.7193 134.512 89.4005C134.529 88.6062 137.024 88.6763 137.555 88.5746C136.49 84.9556 134.4 81.7379 132.165 78.7316C131.068 77.2558 129.99 75.7381 128.74 74.3852C127.371 72.9041 125.807 71.5805 124.321 70.2177C121.407 67.5448 118.11 65.1592 114.756 63.0577C111.409 60.9612 107.944 58.8978 104.277 57.403C100.09 55.6958 95.6813 54.5729 91.2679 53.6165C91.8665 52.858 92.8404 52.488 93.6069 51.933C93.8754 51.7387 94.2381 51.2724 94.5867 51.2087C94.9643 51.1396 95.2615 51.5435 95.5303 51.7463C96.3017 52.3281 96.8352 52.081 97.7187 52.046C98.2474 52.025 99.4994 52.3177 99.7223 51.6067C100.019 51.9991 99.5888 52.3137 99.3688 52.6015C99.529 52.8236 99.658 52.5931 99.8162 52.5584C99.865 52.5182 99.9136 52.4779 99.9624 52.4377C100.041 52.3248 100.112 52.3241 100.175 52.4355C100.269 52.5767 100.364 52.5454 100.46 52.3417C100.486 52.3254 100.512 52.3089 100.538 52.2926C100.652 52.2321 100.763 52.1364 100.869 52.061C101.672 51.4905 102.387 51.0045 103.274 50.5843C104.018 50.2316 103.618 49.5568 104.108 49.0802C104.219 48.9723 104.406 49.0264 104.525 48.935C104.641 48.8453 104.659 48.7435 104.744 48.6473C104.947 48.4161 104.705 48.1477 105.225 48.4308L105.037 47.3808C106.057 48.3647 106.053 45.5335 106.192 45.1145C106.174 45.1699 106.284 44.7412 106.284 44.7449C106.314 43.8953 106.43 43.2795 105.43 43.2302C105.809 42.9932 105.924 43.456 106.099 42.9769C106.187 42.7368 105.914 42.3243 106.349 42.479C106.441 41.9688 106.35 41.556 106.236 41.0602C106.119 40.5527 106.188 40.2141 106.193 39.7067C106.199 39.131 105.928 38.5525 105.841 37.9857C105.774 37.5418 105.844 36.8417 105.266 37.0047C105.185 36.8785 105.47 36.4901 105.459 36.2981C105.441 35.9998 105.115 35.6967 105.023 35.4102C104.887 35.5494 104.696 35.5958 104.511 35.533C104.685 35.1438 104.522 35.013 104.356 34.6774C104.261 34.4852 104.318 34.273 104.115 34.1353C103.998 34.0563 103.799 34.1894 103.708 34.0968C103.512 33.8983 103.584 33.6351 103.449 33.3736C103.28 33.0457 102.894 32.7952 102.628 32.5491C101.131 31.1657 99.505 30.1084 97.5139 29.5678C95.5052 29.0224 93.1634 28.827 91.1615 29.4561C90.3613 29.7075 89.6509 29.6817 88.9307 30.1513C88.6972 30.3036 88.6721 30.2628 88.5535 30.5168C88.5261 30.576 88.7748 30.7336 88.6225 30.8304C88.4571 30.9356 88.2744 30.7218 88.1901 30.5443C87.1482 31.2942 86.1719 32.2939 85.5785 33.4402C84.9889 34.5792 84.9348 35.9173 84.7096 37.1552C83.6711 35.9754 82.2664 35.4099 80.7393 35.977C79.4082 36.4712 78.3767 37.5575 78.1163 38.9648C77.9575 39.8227 78.131 40.6915 78.5229 41.4655C78.6923 41.8 78.8975 42.1703 79.2091 42.3955C79.4555 42.5734 79.8775 42.5485 79.9935 42.8695C80.1713 43.3612 79.1442 44.4234 78.8776 44.8538C78.3952 45.6328 77.947 46.4373 77.6058 47.2882C76.3825 45.57 75.2116 43.6933 73.8206 42.109C72.5078 40.6137 70.9428 39.2727 69.408 38.0088C66.2224 35.3856 62.9099 32.9212 59.3465 30.8314C56.0284 28.8854 52.0204 27.8051 48.1534 28.1871C44.375 28.5604 41.4823 30.9365 39.0481 33.677C34.3677 38.9462 31.5011 46.4565 31.2211 53.4707C31.1369 55.5778 31.2983 57.6574 31.8217 59.7011C32.071 60.6743 32.0348 61.6314 32.1796 62.617C32.3431 63.7289 32.6259 64.8368 32.8993 65.9259C33.9409 70.075 35.268 74.2209 36.7572 78.2325C37.5315 80.3186 38.4683 82.358 39.7357 84.1975C40.321 85.0473 41.0793 85.712 41.7093 86.5189C42.3203 87.3014 42.4818 88.2619 42.6161 89.2221C42.9383 91.5244 43.1521 93.8365 43.3458 96.1523C43.4281 97.1338 43.5242 98.1066 43.6548 99.0812C43.7688 99.9309 43.4821 99.8891 42.7632 100.178C42.909 99.4142 39.4743 99.9336 39.15 99.9858C38.7971 100.042 38.4234 100.043 38.1454 100.088C37.8347 100.139 37.5305 100.211 37.1726 100.201C36.6465 100.186 35.6614 100.053 35.4605 100.72C35.3223 99.9461 34.4091 100.793 35.0847 100.649C34.3912 100.726 33.6836 100.598 32.9817 100.663C32.1774 100.737 31.3661 100.808 30.5674 100.928C30.0113 101.012 29.4807 101.225 28.9237 101.287C28.2109 101.366 27.467 101.358 26.7473 101.421C24.0927 101.654 21.3411 102.23 18.7606 102.889C18.1761 103.039 17.5045 103.145 16.946 103.384C16.7965 103.449 16.662 103.592 16.5188 103.647C16.2786 103.739 16.3115 103.675 16.0982 103.718C14.8205 103.972 13.5025 104.386 12.2249 104.712C11.5163 104.893 10.3637 105.056 9.78566 105.547C9.52655 105.767 9.30011 106.158 9.71533 106.408C10.047 106.608 10.5204 106.289 10.7889 106.117C10.5497 106.736 10.0987 107.045 10.3423 107.75C10.5346 108.308 10.9688 108.994 11.6369 108.635C11.7263 108.842 11.7626 109.253 12.026 109.329C12.2628 109.398 12.4342 109.099 12.6661 109.17C12.7491 109.195 12.7176 109.351 12.7919 109.392C12.92 109.462 13.0499 109.492 13.1967 109.541C13.3228 109.584 13.526 109.671 13.6576 109.68C13.7411 109.686 13.938 109.544 13.9373 109.544C14.1291 109.573 14.2323 109.938 14.3704 110.043C14.5497 110.18 14.6977 110.212 14.9223 110.261C15.389 110.364 15.9906 110.541 16.2986 110.066C16.2281 110.405 16.6921 110.372 16.8968 110.415C16.8741 110.236 16.7748 110.072 16.6216 109.974C17.0793 110.004 16.8937 110.457 17.232 110.576C17.4731 110.661 17.4458 110.445 17.6302 110.421C17.8732 110.39 18.0576 110.565 18.4371 110.403C18.5194 110.767 18.5495 111.133 18.9983 111.187C19.2618 111.219 19.8761 110.746 19.8413 111.14C20.4299 110.968 20.6533 111.084 20.9608 111.6C21.0128 111.284 21.2643 111.375 21.4951 111.356C21.8609 111.325 21.8703 111.354 22.1538 111.148C22.1798 111.129 22.4028 110.621 22.5019 110.937C22.5465 111.079 22.2519 111.411 22.1427 111.496C22.2782 111.564 22.7223 111.803 22.893 111.759C23.0408 111.721 23.0413 111.47 23.2188 111.457C23.1753 111.601 23.132 111.746 23.0884 111.89C23.4338 111.94 23.7223 111.71 23.9951 111.542C24.2552 112.196 24.9986 111.827 25.4029 112.32C25.6167 112.58 25.6267 112.778 26.0342 112.846C26.4512 112.915 26.8154 112.733 27.1698 113.075C27.0575 112.863 26.7776 112.687 27.0557 112.459C27.245 112.726 27.3426 113.048 27.5609 113.296C27.591 113.17 27.6211 113.044 27.6512 112.917C28.2201 113.522 28.9362 113.528 29.665 113.863V113.42C30.1867 114.212 30.2146 113.711 30.8379 113.388C30.7956 113.62 30.7531 113.853 30.7107 114.086C31.1593 114.052 31.5784 114.581 31.9466 114.132C32.169 114.503 32.4386 114.32 32.8031 114.438C33.0104 114.505 33.1647 114.708 33.3664 114.781C33.6688 114.892 33.7591 114.886 34.0438 114.982C34.2969 115.067 34.4408 115.233 34.7577 115.286C34.9635 115.321 35.1502 115.318 35.3472 115.309C35.4233 115.305 35.3982 115.135 35.5674 115.175C35.8289 115.236 36.0236 115.562 36.2119 115.73C36.4952 115.022 37.2883 115.97 37.6716 116.096C37.7083 115.915 37.7017 115.696 37.8339 115.547C37.989 115.885 38.0482 116.169 38.3703 116.387C38.5562 116.512 38.8291 116.602 39.0438 116.648C39.1795 116.677 39.426 116.642 39.5113 116.684C39.6568 116.755 39.7104 116.944 39.8573 116.962C39.9438 116.972 40.0719 116.746 40.1366 116.764C40.4327 116.844 40.5972 117.202 40.8962 117.395C41.786 117.971 42.9058 118.027 43.8972 118.153C44.146 118.184 44.1821 118.117 44.3842 118.262C44.492 118.34 44.4431 118.576 44.5757 118.642C45.0754 118.891 45.0758 118.359 45.1805 118.029C45.3458 118.246 45.3743 118.532 45.6004 118.705C45.7239 118.701 45.8475 118.704 45.9707 118.713C46.0403 118.792 46.086 118.883 46.1072 118.986C46.4066 119.187 46.7456 119.117 47.0548 119.268C47.1562 119.318 47.3358 119.617 47.4607 119.703C47.6842 119.857 48.0299 119.939 48.2853 120.006C48.8209 120.146 49.5889 119.96 49.9076 120.516C50.3307 120.065 50.167 120.603 50.4543 120.717C50.6239 120.783 50.879 120.518 51.0672 120.544C51.4059 120.592 51.5279 120.956 51.6364 121.221C51.8427 121.176 51.7011 120.595 51.6953 120.468C51.9517 120.438 52.0086 121.109 52.0529 121.257C52.4577 121.063 51.7933 120.46 52.2285 120.266C52.1886 120.78 52.6004 121.203 51.8649 121.277C51.9665 121.586 54.3387 121.93 54.5035 121.657C54.54 122.162 54.8812 121.69 55.0071 121.518C55.0212 121.812 54.9203 122.23 55.2528 122.367C55.4788 122.46 55.9883 122.22 56.077 122C56.1782 122.336 56.3479 122.325 56.5587 122.539C56.7035 122.685 56.799 122.94 56.9509 123.063C57.2304 123.289 57.7504 123.254 58.0762 123.204C58.7135 123.105 58.6382 122.983 58.8652 123.642C58.9166 123.392 59.0775 122.869 59.3582 123.258C59.5368 123.505 59.1565 124.049 59.0466 124.266C59.2922 124.132 59.536 123.973 59.8154 123.915C59.831 124.001 59.8454 124.182 59.8042 124.262C59.8125 124.246 60.1106 124.444 60.2211 124.499C60.1946 124.486 60.3085 123.991 60.3053 124.007C60.6985 124.249 60.4257 124.71 60.774 124.948C60.8639 125.01 61.0751 124.938 61.1839 124.975C61.3733 125.041 61.5371 125.217 61.7055 125.32C61.5711 125.141 61.5904 124.84 61.5996 124.633C61.6852 124.68 61.7464 124.856 61.8328 124.87C61.8655 124.876 62.2042 124.92 62.202 124.919C62.5546 125.164 62.482 125.195 62.1793 125.49C62.2874 125.659 62.7395 125.366 62.8618 125.317C62.8874 125.383 62.894 125.623 62.9421 125.666C62.9713 125.737 63.0005 125.808 63.0298 125.879C63.1201 125.812 63.217 125.79 63.3203 125.812C63.3857 125.834 63.8957 126.041 63.9303 125.97C63.8188 125.934 63.7175 125.879 63.6271 125.805C63.9214 125.542 64.115 125.402 64.3862 125.782C64.4203 125.83 64.303 126.002 64.3378 126.064C64.4673 126.297 64.7335 126.481 64.9143 126.671C64.9891 126.409 64.815 125.755 65.2305 125.779C65.5625 125.798 65.815 126.598 65.7001 126.846C65.8321 126.703 66.62 126.56 66.7687 126.605C67.1893 126.732 67.0713 127.118 67.5887 126.552C67.9415 126.794 67.6306 126.886 67.6941 127.181C67.7873 127.2 67.8755 127.177 67.959 127.112C67.8966 128.366 68.8273 127.408 69.4316 127.6C69.6689 127.675 69.7295 127.942 69.9841 128.021C70.1188 128.062 70.2687 127.964 70.3997 127.988C70.5046 127.973 70.6089 127.955 70.7125 127.933C70.8439 127.867 70.9055 127.941 70.8975 128.152C71.1086 128.261 71.0288 128.304 71.2757 128.325C71.4347 128.339 71.581 128.174 71.7617 128.202C72.0734 128.251 72.0322 128.489 72.2315 128.613C72.4108 128.725 72.6129 128.722 72.8337 128.7C72.9462 128.689 73.2621 128.545 73.3001 128.544C73.536 128.541 73.4081 128.491 73.6913 128.693C73.9118 128.85 74.0044 128.951 74.2751 129.024C74.5855 129.107 75.1362 129.288 75.3451 129.064C75.6273 129.485 75.8482 129.176 76.2206 129.204C76.4112 129.219 76.4414 129.292 76.6111 129.322C76.886 129.369 77.2289 129.328 77.5213 129.421C77.9821 129.569 78.0341 129.643 78.505 129.662C78.59 129.63 78.6749 129.596 78.7598 129.563C78.7852 129.704 78.852 129.819 78.9603 129.909C79.2237 129.963 79.3968 129.831 79.614 129.686C79.7759 130.188 80.3012 130.232 80.7506 130.298C81.4756 130.404 82.1689 130.462 82.868 130.699C83.4585 130.899 84.0501 131.124 84.6181 131.38C85.1179 131.606 85.5896 131.943 86.1552 131.784C87.4366 131.426 88.6784 130.118 89.7504 129.367C91.0202 128.477 92.3896 127.744 93.7164 126.945C98.9983 123.761 104.579 121.068 109.787 117.766C112.63 115.963 115.268 113.821 118.322 112.363C117.887 114.149 117.147 115.962 117.281 117.832C117.334 118.585 117.558 119.476 118.145 120.002C118.872 120.652 119.681 120.238 120.376 119.773C121.865 118.778 122.858 117.325 123.973 115.961C125.291 114.347 126.314 112.614 127.282 110.774C127.514 111.098 127.337 111.64 127.34 111.999C127.345 112.457 127.469 112.899 127.683 113.308C128.234 114.363 129.284 114.619 130.232 113.896C132.056 112.504 133.115 110.026 134.093 108.031C134.651 109.062 135.442 110.361 136.781 109.624C137.886 109.016 138.536 107.657 138.873 106.507C139.86 103.148 139.548 99.7269 139.699 96.284Z" fill="#1C1C1C"/>
<path fill-rule="evenodd" clip-rule="evenodd" d="M138.023 76.1103C137.897 75.8059 137.842 75.8557 138.074 75.5606C138.254 75.7374 138.11 75.8835 138.023 76.1103ZM143.608 94.5317C143.254 93.5299 143.472 92.442 143.257 91.4145C143.158 90.943 143.002 90.4857 142.946 90.0057C142.921 89.7927 142.731 88.834 142.86 88.6831C142.461 88.4424 142.459 88.2643 142.367 87.7924C142.509 87.6421 142.492 87.5139 142.313 87.4075C142.197 87.2673 142.08 87.127 141.963 86.9868C142.473 87.2347 142.172 86.6002 142.12 86.2345C142.079 85.9455 142.051 85.644 141.954 85.367C141.835 85.0265 141.569 84.8543 142.121 84.8543C141.94 84.6489 141.668 84.4371 141.578 84.1857C141.448 83.8238 141.662 83.3457 141.397 83.0261C141.249 82.8478 140.487 82.778 140.62 82.393C140.688 82.1968 140.997 82.3432 141.093 82.2058C141.469 81.6655 140.359 81.4416 140.305 81.2118C140.234 80.9139 140.635 80.8473 140.66 80.5687C140.684 80.296 140.257 79.8479 140.145 79.604C139.991 79.6412 139.823 79.8826 139.647 79.7673C139.614 79.7455 139.664 78.8015 139.624 78.6762C139.585 78.553 139.504 78.2262 139.476 78.1657C139.362 77.9255 139.036 77.8085 138.985 77.5248C138.954 77.3555 139.621 77.0991 138.856 77.0911C139.131 76.6094 138.627 76.3167 138.444 75.9051C138.208 75.3759 138.069 74.8043 137.827 74.2724C137.592 73.7553 137.329 73.2647 136.99 72.8075C136.683 72.3935 136.55 71.9953 136.304 71.5581C136.255 71.5197 136.206 71.4813 136.157 71.4429C135.952 71.4723 135.887 71.3797 135.96 71.1648C135.804 70.9342 135.687 70.688 135.549 70.4472C135.389 70.1673 135.172 69.9391 135.006 69.6669C134.786 69.306 134.721 68.8991 134.473 68.5371C134.167 68.0917 133.823 67.699 133.54 67.237C133.185 66.6582 132.792 66.2984 132.345 65.8502C132.132 65.6367 132.107 65.1035 131.846 64.8004C131.562 64.4703 131.282 64.3808 131.086 63.9475C130.83 63.3837 130.454 63.1145 130.089 62.6272C129.787 62.2252 129.64 61.7632 129.308 61.3744C129.022 61.0404 128.698 60.7352 128.393 60.4185C128.008 60.0186 127.724 59.5326 127.323 59.1524C127.381 59.2073 126.974 58.8869 126.995 58.8971C126.905 58.8515 126.614 58.8149 126.657 58.8397C126.052 58.4862 125.294 57.1923 124.384 57.8779C123.905 58.2384 124.135 58.8997 124.469 59.2588C124.613 59.413 125.358 60.1735 125.52 59.8528C125.694 60.098 126.229 61.2831 126.675 60.9436C126.63 61.3486 126.866 61.2142 127.021 61.488C127.124 61.6687 127.074 61.7573 127.149 62.0393C127.354 62.8145 128.138 63.5716 128.556 64.2475C129.595 65.9299 130.742 67.5255 131.782 69.2099C132.774 70.8151 133.885 72.3383 134.836 73.9651C135.918 75.815 137.266 77.5613 138.081 79.5555C138.108 79.6226 138.335 79.7287 138.391 79.8294C138.489 80.0043 138.468 80.3067 138.531 80.5048C138.75 81.1917 139.104 81.8678 139.508 82.4367C139.863 82.9358 139.888 83.6142 140.132 84.1997C140.476 85.025 140.839 85.8416 141.174 86.6711C141.694 87.962 142.046 89.1994 142.405 90.5471C142.638 91.4206 142.823 92.2935 142.898 93.1954C142.966 94.0249 142.982 94.8889 143.291 95.6741C143.502 95.3509 143.75 94.9321 143.608 94.5317Z" fill="#1C1C1C"/>
<path fill-rule="evenodd" clip-rule="evenodd" d="M24.6527 112.305C24.279 112.23 23.9274 112.129 23.8482 111.703C23.794 111.904 23.7399 112.105 23.6857 112.306C24.1406 112.409 24.5958 112.511 25.0507 112.614C24.9445 112.428 24.867 112.348 24.6527 112.305Z" fill="#1C1C1C"/>
<path fill-rule="evenodd" clip-rule="evenodd" d="M25.6555 42.2855C25.6838 42.1651 25.7205 42.0472 25.7657 41.9321C25.7965 42.0443 25.9471 42.2869 25.8594 42.3927C25.7477 42.527 25.6347 42.451 25.6555 42.2855ZM27.4874 38.8196C27.6101 38.8734 27.8755 38.8838 28.0277 38.9292C27.6328 39.267 27.5632 39.1676 27.0526 39.1284C27.0299 38.7866 27.1696 38.6805 27.4874 38.8196ZM24.0641 47.2816C24.1171 47.283 24.1702 47.2843 24.2235 47.2856C24.2267 47.1368 24.2228 46.9881 24.2115 46.8396C24.75 46.9566 24.4452 46.0209 24.2761 45.8269C24.8014 45.8444 25.0573 44.1906 25.2237 43.872C25.3714 43.5891 25.5388 43.4796 25.6468 43.1346C25.7413 42.8326 25.8435 42.5609 25.9798 42.2752C26.293 41.6185 26.7038 41.0221 26.628 40.2566C26.8934 40.831 27.1268 40.2576 27.2951 39.983C27.5663 39.5405 28.2279 38.9759 28.2982 38.4504C28.3604 37.9878 28.0147 37.9633 28.2187 37.5342C28.4251 37.0999 28.5947 37.1434 28.9562 37.0045C29.1966 36.912 29.2444 37.0244 29.414 36.7226C29.5239 36.5272 29.4852 36.3815 29.626 36.2214C29.6841 36.2716 29.7502 36.2924 29.8243 36.2838C29.9385 36.1338 30.0135 35.9668 30.0491 35.7826C30.1423 35.5339 30.1873 35.3055 30.3277 35.0687C30.4608 34.8443 30.697 34.244 30.8222 34.1358C30.9552 34.0209 31.7092 34.0794 31.7059 34.0835C32.0174 33.694 31.4459 33.3059 32.2372 33.388C32.0809 33.0987 32.6299 32.7396 32.7892 32.5786C33.1872 32.1768 33.2189 31.9908 33.3029 31.4855C33.3456 31.2278 33.0672 31.2576 33.4404 31.1988C33.5947 31.1747 33.7428 31.3709 33.8541 31.3421C34.3458 31.2153 33.8314 31.2395 33.9671 31.0403C34.0099 30.977 34.2286 30.722 34.2266 30.7247C34.2159 30.7375 34.2758 30.5027 34.3254 30.4424C34.4194 30.4344 34.5119 30.4181 34.6028 30.3934C34.649 30.3006 34.6899 30.2055 34.7253 30.1082C35.0811 29.8132 35.6135 29.6811 35.8596 29.3569C36.0188 29.1473 35.9711 28.942 36.1768 28.733C36.3727 28.5339 36.6318 28.6781 36.6706 28.2284C36.72 27.6563 36.102 27.4017 35.8491 27.9791C35.1635 27.1394 32.2979 30.2201 31.9668 30.6226C30.5288 32.3698 29.1155 34.1602 27.936 36.0922C26.7867 37.9748 25.8435 39.9556 25.1062 42.032C24.7507 43.0331 24.5342 44.0298 24.3171 45.0653C24.2442 45.4121 23.6994 46.9575 23.9262 47.3033C23.9721 47.2961 24.0181 47.2888 24.0641 47.2816Z" fill="#1C1C1C"/>
<path fill-rule="evenodd" clip-rule="evenodd" d="M137.253 90.1271C137.495 89.9666 137.495 89.9666 137.537 89.6635C137.213 89.7223 137.213 89.7223 137.253 90.1271Z" fill="#1C1C1C"/>
<path fill-rule="evenodd" clip-rule="evenodd" d="M17.8626 110.551C17.8656 110.551 17.8678 110.552 17.8695 110.553C17.8645 110.547 17.8463 110.528 17.8626 110.551Z" fill="#1C1C1C"/>
<path fill-rule="evenodd" clip-rule="evenodd" d="M17.7003 110.714C17.7751 110.875 17.8951 110.914 18.0607 110.833C18.1259 110.926 17.4946 110.255 17.7003 110.714Z" fill="#1C1C1C"/>
<path fill-rule="evenodd" clip-rule="evenodd" d="M28.632 37.3097C28.2532 38.0482 28.7277 37.5111 28.7034 37.751C28.7193 37.5934 28.785 37.3688 28.632 37.3097Z" fill="#1C1C1C"/>
<path fill-rule="evenodd" clip-rule="evenodd" d="M90.3022 48.7553C90.4666 50.0813 92.291 49.4542 92.7014 48.6521C93.0002 48.0682 93.7549 45.7607 92.9429 45.2732C92.341 44.9119 92.2124 46.4693 92.064 46.8172C91.8154 47.3999 91.6211 46.987 91.0683 47.1365C90.4582 47.3015 90.2343 48.2055 90.3022 48.7553Z" fill="#1C1C1C"/>
<path fill-rule="evenodd" clip-rule="evenodd" d="M88.3089 46.3281C88.961 46.4721 89.6002 46.3979 90.0634 45.8858C90.3199 45.6022 90.6613 45.0397 90.1994 44.7653C89.7808 44.5168 89.3062 45.0988 88.8654 44.9784C88.2659 44.8147 88.5746 44.1756 88.3689 43.7534C87.6131 44.1861 87.1915 46.0814 88.3089 46.3281Z" fill="#1C1C1C"/>
<path fill-rule="evenodd" clip-rule="evenodd" d="M88.9851 49.6764C88.3565 49.6751 88.3513 50.4439 88.6795 50.7734C88.9935 51.0887 89.7875 51.4077 90.2132 51.1626C91.053 50.6787 89.4938 49.7263 88.9851 49.6764Z" fill="#1C1C1C"/>
<path fill-rule="evenodd" clip-rule="evenodd" d="M52.409 80.2478C52.5432 80.3126 52.9388 80.6461 53.1055 80.4955C52.8702 80.2598 52.6347 80.0241 52.3995 79.7883C52.2694 79.9301 52.1803 80.1374 52.409 80.2478Z" fill="#1C1C1C"/>
<path fill-rule="evenodd" clip-rule="evenodd" d="M49.4378 46.52C49.3711 46.5696 49.3043 46.619 49.2375 46.6683C49.4627 46.8548 49.4571 46.9103 49.6841 46.7337C49.6167 46.6455 49.5347 46.5744 49.4378 46.52Z" fill="#1C1C1C"/>
<path fill-rule="evenodd" clip-rule="evenodd" d="M92.0433 90.5144C91.9169 90.2887 91.6783 90.7048 91.5168 90.7725C91.2542 90.8824 91.0387 90.2999 91.114 90.9981C90.5203 90.7278 90.16 91.3479 89.7771 91.6709C89.2362 92.1273 88.5746 92.3748 88.2137 93.023C89.9121 93.4181 91.7782 91.9621 93.0446 91.0058C93.2513 90.8496 94.2842 90.0618 93.5841 89.9856C93.2978 89.9546 92.2557 90.8936 92.0433 90.5144Z" fill="#1C1C1C"/>
<path fill-rule="evenodd" clip-rule="evenodd" d="M91.5389 89.1468C91.8713 88.8866 91.1546 88.8628 91.0413 88.8354C91.0511 89.0424 91.0605 89.2492 91.0703 89.4562C91.2308 89.3595 91.387 89.2563 91.5389 89.1468Z" fill="#1C1C1C"/>
<path fill-rule="evenodd" clip-rule="evenodd" d="M90.2895 90.0157C90.3888 89.954 90.6658 89.7614 90.4774 89.6179C90.3072 89.7256 90.1855 89.9014 90.1588 90.102C90.2024 90.0733 90.2459 90.0445 90.2895 90.0157Z" fill="#1C1C1C"/>
<path fill-rule="evenodd" clip-rule="evenodd" d="M62.7831 73.212C62.5707 73.2948 62.4756 73.4257 62.4979 73.605C62.8242 73.5387 62.762 73.2323 62.7831 73.212Z" fill="#1C1C1C"/>
</svg>
