<svg width="157" height="157" viewBox="0 0 157 157" fill="none" xmlns="http://www.w3.org/2000/svg">
<circle cx="78.289" cy="78.7309" r="78.2104" fill="white"/>
<path fill-rule="evenodd" clip-rule="evenodd" d="M37.7841 95.8253C41.6931 93.7612 45.6019 91.6972 49.5108 89.6331C53.2173 97.8967 62.5229 103.199 71.4672 101.244C73.6472 100.767 75.8083 99.6898 76.855 97.6104C77.6424 96.0465 77.6719 94.2101 77.3156 92.5249C77.0152 91.1051 76.4562 89.6067 75.5414 88.4638C74.3919 87.0279 72.625 85.9251 71.195 84.7986C68.9794 83.0524 66.7438 81.3318 64.5021 79.6196C64.2081 79.3954 63.3898 78.992 63.2253 78.6469C63.0873 78.358 63.2253 77.6564 63.2253 77.3399V75.8505C66.4777 77.0372 70.1051 77.6901 73.562 77.5122C79.3167 77.2157 83.9374 73.049 88.0415 69.3485C88.7733 68.6887 89.4928 68.0148 90.1951 67.3234C90.3295 67.191 90.6701 66.7011 90.8578 66.6641C91.109 66.6145 91.769 67.0305 91.9999 67.1234C92.7989 67.4444 93.5977 67.7655 94.3967 68.0868C96.3417 68.8687 98.2968 69.5074 100.053 70.6557C107.506 75.5296 115.434 81.4887 118.822 90.0268C120.747 94.8797 121.896 100.062 122.597 105.23C122.692 105.934 122.937 106.812 122.815 107.516C122.591 108.807 121.858 110.174 121.416 111.403C120.854 112.964 120.292 114.525 119.73 116.086C119.668 116.259 119.592 116.694 119.448 116.802C119.148 117.027 118.146 116.951 117.786 116.99C115.717 117.218 113.642 117.448 111.563 117.562C109.695 117.665 107.952 117.187 106.17 116.654C105.178 116.358 104.194 116.038 103.214 115.703C102.994 115.627 101.916 115.425 101.791 115.203C101.736 115.106 101.921 114.65 101.947 114.543C102.109 113.863 102.259 113.18 102.4 112.495C103.4 107.661 104.136 102.596 103.714 97.6531C103.275 92.504 100.416 88.4361 96.8155 84.914C95.4907 83.6182 94.0813 82.4066 92.606 81.2868C92.3475 81.0904 91.8755 80.5789 91.5485 80.5133C91.2859 80.4606 91.0886 80.6799 90.8268 80.8511C90.0682 81.3467 89.3098 81.8422 88.5514 82.3376C88.3475 82.4705 87.5524 82.8217 87.4788 83.0562C87.4168 83.2538 87.7408 83.9072 87.7949 84.0973C88.0251 84.9018 88.2304 85.7137 88.4159 86.5297C89.6322 91.8755 90.2003 97.7271 88.706 103.074C87.2952 108.123 84.036 112.667 79.6639 115.542C75.1411 118.516 69.881 119.252 64.631 118.228C55.2943 116.406 45.7218 110.928 40.6368 102.672C39.3349 100.558 38.3513 98.2473 37.7841 95.8253Z" fill="#F0DD33"/>
<path fill-rule="evenodd" clip-rule="evenodd" d="M121.764 107.217C121.402 110.092 120.117 112.823 118.526 115.214C118.317 114.799 118.57 114.455 117.99 114.376C117.6 114.323 117.084 114.599 116.7 114.664C115.274 114.907 113.776 114.72 112.351 114.567C112.72 114.167 113.208 113.842 113.025 113.191C112.886 112.699 112.282 112.508 112.047 112.053C112.368 111.913 113.251 112.616 113.56 112.735C113.407 112.349 112.885 111.658 112.997 111.234C113.079 110.922 113.484 110.982 113.147 110.583C112.994 110.72 112.502 111.382 112.234 111.218C112.493 110.984 112.304 110.856 112.418 110.621C112.506 110.439 112.584 110.351 112.707 110.192C113.023 109.782 113.23 109.257 112.828 108.776C112.693 108.615 112.463 108.649 112.337 108.467C112.215 108.291 112.241 108.085 112.208 107.888C112.171 107.667 112.189 107.418 112.127 107.201C112.001 106.754 111.953 106.761 112.168 106.299C111.947 106.49 111.725 106.68 111.503 106.87C111.393 106.403 111.311 105.908 111.084 105.481C111.007 105.336 110.595 104.955 110.613 104.804C110.56 105.243 110.208 104.726 110.065 104.69C109.613 104.576 108.815 105.022 108.47 105.297C107.518 106.057 106.95 107.507 106.349 108.544C105.689 109.684 105.026 110.949 104.852 112.26C104.809 112.586 104.799 113.272 104.43 113.436C104.232 113.525 103.405 113.287 103.2 113.169C102.7 112.879 102.875 112.445 103.069 111.986C103.32 111.391 103.546 110.881 103.662 110.237C103.8 109.466 103.9 108.686 104.02 107.911C104.271 106.287 104.524 104.655 104.653 103.016C104.694 102.491 104.628 101.969 104.648 101.457C104.666 101.01 105.009 100.493 104.818 99.96C104.753 99.7772 104.618 99.7345 104.627 99.5797C104.632 99.4838 104.877 99.5738 104.91 99.4475C104.974 99.2014 104.739 98.9496 104.679 98.7214C104.583 98.3611 104.656 98.0284 104.711 97.6672C104.934 96.1997 104.521 94.6553 104.128 93.2437C103.702 91.7186 103.124 90.2512 102.531 88.7857C102.009 87.4956 101.789 86.0952 101.175 84.8425C100.644 83.7604 100.063 82.6862 99.106 81.9857C98.6675 81.6647 98.3506 81.1794 97.9332 80.825C97.6844 80.6136 97.4176 80.3868 97.1185 80.251C96.8295 80.12 96.4837 80.1963 96.2203 80.0725C95.8543 79.9006 95.4479 79.4684 95.0567 79.2996C94.719 79.1537 94.3314 79.0542 94.0152 78.7486C93.5865 78.334 93.5068 78.0581 92.9049 77.9784C92.5566 77.9326 92.2113 77.9528 91.9644 77.6067C90.987 76.2364 93.6233 74.2577 92.4027 72.8282C91.9168 73.3184 91.7094 74.0154 91.4747 74.6459C91.1675 75.4715 90.7349 76.167 90.2484 76.8988C89.3971 78.1796 88.1272 79.4783 87.7614 81.0062C87.1652 80.1722 86.8294 79.6752 85.9296 80.4999C85.7604 80.1264 85.9834 79.415 85.6469 79.175C85.0552 78.7529 83.9265 79.8039 83.6038 80.1852C82.3403 81.6785 81.6344 83.4965 80.9409 85.3129C80.6346 86.1153 80.3054 87.131 80.6957 87.9611C81.0411 88.6954 81.8628 89.0982 82.563 89.4133C83.5541 89.8592 84.3745 89.8359 85.4277 89.9473C85.9111 89.9982 86.3467 90.2094 86.8074 89.9635C87.2063 89.7509 87.491 89.3261 87.8377 89.0441C87.9192 89.3091 88.1304 89.5421 88.3995 89.3075C88.7934 90.9625 89.1857 92.5819 89.0906 94.2968C89.0032 95.8705 88.8661 97.4506 88.5854 99.0021C88.2959 100.602 87.9572 102.229 87.3269 103.734C86.7034 105.223 85.7472 106.534 84.8764 107.882C84.6113 107.341 84.2955 107.609 83.9122 107.862C83.76 107.539 83.9555 107.292 83.7441 107.005C83.6077 106.925 83.486 106.826 83.3788 106.708C83.3418 106.477 83.2896 106.25 83.223 106.027C82.8829 106.166 82.7385 106.33 82.5832 106.656C82.071 105.754 81.7084 105.869 80.7548 105.927C79.4778 106.004 79.0696 107.11 78.647 108.148C78.5466 108.395 78.3603 108.706 78.3385 108.98C78.3228 109.174 78.4944 109.498 78.4711 109.598C78.4231 109.803 78.2372 109.632 78.187 109.733C78.0026 110.106 77.9556 110.634 77.8575 111.038C77.5957 112.118 77.516 113.864 76.4523 114.479C75.5618 114.993 74.284 115.115 73.2856 115.309C71.7148 115.613 70.0517 115.669 68.4555 115.677C67.0289 115.685 65.3233 115.857 63.9691 115.319C63.7707 115.24 62.8318 114.799 63.0506 114.574C63.1456 114.476 63.6599 114.637 63.7652 114.694C63.6939 114.656 63.6406 114.218 63.6047 114.119C63.4707 113.75 63.3678 113.737 63.1133 113.457C62.5486 112.838 63.3109 113.124 63.2595 112.679C63.2495 112.594 62.6456 112.815 62.6622 112.809C62.6819 112.674 62.8063 112.394 62.7423 112.259C62.7891 112.358 62.3938 111.524 62.4408 111.714C62.3493 111.346 62.6061 110.983 62.553 110.627C62.4778 110.122 62.1088 110.223 61.8198 109.924C61.7206 109.822 61.6813 109.614 61.5839 109.496C61.5416 109.445 61.3868 109.436 61.3711 109.409C61.2655 109.225 61.2721 109.195 61.383 108.808C61.1689 108.902 60.605 109.291 60.3869 109.079C60.1242 108.824 60.6754 108.525 60.2195 108.35C60.0358 108.279 59.9305 108.477 59.7666 108.483C59.6566 108.487 59.6351 108.216 59.4977 108.287C59.2525 108.415 59.1889 108.95 59.0808 109.182C58.4683 107.619 56.494 110.188 56.1294 110.791C55.7919 111.349 55.7726 112.452 54.9391 112.367C54.5014 112.322 53.9987 111.843 53.6497 111.608C53.1377 111.265 52.5905 110.979 52.0614 110.662C49.7126 109.254 47.4981 107.703 45.4183 105.919C44.6532 105.263 43.6291 104.449 43.5272 103.432C43.4865 103.025 43.4372 102.654 43.3242 102.242C43.0971 101.413 42.7968 101.559 42.134 101.107C42.3996 100.583 42.7786 100.555 42.7556 99.9209C42.7366 99.4055 42.5393 98.891 42.3662 98.4155C42.1451 97.8089 42.0382 97.127 41.3904 96.9586C40.7003 96.7792 40.5902 97.1148 40.1334 97.5995C40.1806 97.3384 40.3915 96.6765 40.0987 96.5079C39.6911 96.2737 39.4713 97.1389 39.1512 97.2324C38.8758 96.6173 37.9435 95.6596 38.596 95.0484C38.9252 94.74 39.5648 94.6217 39.9727 94.4349C40.5795 94.1574 41.1683 93.8397 41.7573 93.5271C44.3755 92.1384 46.9182 90.6224 49.5151 89.1956C49.9732 90.2562 50.3819 91.3415 50.9096 92.3709C51.3496 93.2296 52.1366 94.0423 52.1048 95.0588C52.0721 96.1166 51.5933 97.1574 51.4788 98.2157C51.403 98.9162 51.5079 99.1925 52.2788 98.9489C52.3455 99.4318 53.1234 100.131 53.5384 100.377C54.2062 100.772 54.8712 100.048 55.3369 99.5994C55.666 99.9123 55.7356 100.375 56.0074 100.724C56.1441 100.577 56.1235 100.161 56.2104 100.093C56.2937 100.027 56.5849 100.171 56.645 100.169C56.736 100.166 56.6589 99.9078 56.7324 99.9046C56.9676 100.484 57.5105 99.5148 58.0325 99.9121C57.9697 99.608 58.0555 99.5032 58.3164 99.3581C58.4515 99.9879 59.0048 99.6914 59.4825 99.7611C60.3312 99.8844 61.1598 100.36 61.994 100.576C63.7127 101.02 65.3353 101.267 67.1052 101.238C67.8133 101.226 68.1112 101.334 68.5286 101.887C68.6875 102.098 68.7645 102.361 69.0401 102.461C69.444 102.606 69.4668 102.335 69.7944 102.258C70.1277 102.18 69.9526 102.096 70.2664 102.261C70.4592 102.362 70.5732 102.684 70.731 102.835C71.1772 103.261 71.6513 103.423 72.0243 102.839C72.0951 103.052 72.1755 103.118 72.3429 103.259C72.3192 102.922 72.269 102.247 72.8253 102.407C73.2409 102.526 73.0476 103.124 73.6377 103.02C73.9685 102.962 74.2435 102.484 74.4415 102.243C74.7128 101.913 74.7244 102.366 74.7778 101.802C74.8093 101.468 74.5911 101.053 74.4586 100.761C74.9542 100.863 75.0427 101.388 75.5352 101.434C76.087 101.486 76.369 100.753 76.9037 100.893C76.8521 100.77 76.6523 100.359 76.74 100.237C76.8751 100.05 77.0688 100.494 77.2797 100.452C77.5093 100.406 77.7642 99.7818 77.7159 99.5715C77.62 99.1523 77.133 99.2582 76.9477 98.9257C76.7784 98.6219 76.928 98.0652 76.92 97.736C76.9091 97.2875 76.8051 96.8326 76.8828 96.3846C76.9646 95.9136 77.202 95.524 77.5261 95.1762C77.7515 94.9346 78.3784 94.5604 77.829 94.2825C78.8028 93.9228 78.2277 92.9168 78.3037 92.0805C78.3509 91.5606 78.5601 91.1821 78.4443 90.6231C78.3062 89.9544 77.9495 89.332 77.5805 88.7667C77.2132 88.2034 76.8347 87.6805 76.2884 87.2822C76.1403 87.1821 75.9918 87.0821 75.8434 86.9822C75.7414 86.8387 75.6127 86.797 75.4574 86.8572C75.2064 86.6662 75.1604 86.5106 74.9747 86.237C74.5081 85.5489 73.6809 85.2092 72.9947 84.8005C72.3354 84.4079 71.7621 83.868 71.0711 83.5308C71.0747 83.5324 70.3455 83.2179 70.4068 83.2997C70.1556 82.9638 70.4115 82.5479 70.3986 82.1857C70.3852 81.8138 70.1622 81.6499 70.0582 81.3291C69.9342 80.9476 70.157 80.4738 69.9325 80.1325C69.8448 79.9996 69.6734 79.9624 69.5669 79.8452C69.3855 79.6457 69.3049 79.3771 69.1126 79.1807C68.9239 79.4034 68.7354 79.6261 68.5469 79.8487C68.3242 79.3073 68.28 79.1664 67.8236 79.6809C67.1269 80.4662 66.7321 80.1273 66.1643 79.3977C65.9767 79.1566 65.7583 79.1089 65.6179 78.9318C65.3943 78.65 65.6347 78.1564 65.3155 77.9105C65.1294 77.767 64.8694 77.9121 64.7127 77.6653C64.5201 77.362 64.8344 76.9113 64.6571 76.5714C67.325 77.4162 70.0475 78.0895 72.8669 77.8842C75.6058 77.685 78.4027 77.0132 80.9162 75.9006C85.2774 73.9698 89.5308 70.7942 91.2449 66.1886C91.6743 66.6927 91.5848 67.6123 92.0587 68.075C92.763 68.7627 92.6996 67.3881 92.6996 66.9504C93.2641 67.1016 94.0697 67.3411 94.1155 68.0291C94.1619 68.7243 93.5368 69.4485 93.317 70.0808C93.0961 70.7163 92.986 71.4515 93.0398 72.1227C93.0665 72.4581 93.1287 72.8057 93.2963 73.1022C93.5013 73.4646 93.7289 73.4466 94.0038 73.6121C93.9586 73.5851 94.3478 73.8481 94.3364 73.8453C95.1555 74.042 95.8132 74.6577 96.6935 74.4348C97.2604 74.2913 97.8083 73.8764 98.0175 74.7061C98.4116 74.4411 98.4604 74.2361 98.4495 73.8453C98.4446 73.676 98.2045 73.5315 98.4452 73.4778C98.5251 73.4602 98.8239 73.8229 98.9407 73.8565C99.2638 73.9489 99.3882 73.819 99.544 73.5761C99.6338 73.4358 99.6398 72.4892 99.7474 72.4694C99.9756 72.427 100.452 73.4015 100.579 73.5761C100.579 70.7817 103.494 74.0204 104.401 74.6376C105.138 75.1398 105.94 75.5848 106.559 76.2403C107.347 77.0752 107.119 77.5604 106.587 78.4629C105.998 79.4618 105.572 80.6257 105.036 81.6674C104.767 82.1901 104.445 82.8176 104.453 83.4252C104.455 83.63 104.573 83.8416 104.562 84.0405C104.546 84.3282 104.407 84.4502 104.291 84.7022C103.958 85.4274 104.257 86.2936 104.96 86.6528C105.412 86.883 105.875 87.0285 106.311 87.2945C106.772 87.5755 107.227 87.8787 107.788 87.898C108.15 87.9104 108.35 87.8133 108.7 87.922C108.937 87.9956 109.136 88.2093 109.411 88.1824C109.96 88.1282 110.364 87.5213 110.928 87.3964C111.346 87.304 111.889 87.3576 112.156 86.9475C112.486 86.4385 111.857 85.9315 112.359 85.463C112.497 85.7214 112.589 86.0161 112.622 86.3072C112.77 85.9162 112.83 85.602 113.049 85.2516C113.277 84.8854 113.407 84.647 113.403 84.1849C113.396 83.3559 112.995 82.5829 112.794 81.7941C113.496 81.8329 114.075 83.0429 114.381 83.5503C114.946 84.4865 115.53 85.4104 116.092 86.3485C116.797 87.5258 117.693 88.8203 118.146 90.1206C118.555 91.294 117.565 92.0487 117.02 93.0026C116.375 94.1313 116.18 95.212 115.827 96.4223C115.546 97.3906 115.514 98.466 116.304 99.2005C116.657 99.5284 117.105 99.7189 117.545 99.8971C118.069 100.11 118.207 100.499 118.769 100.611C119.217 100.701 119.714 100.745 120.173 100.731C120.959 100.706 120.674 100.447 121.109 99.9509C120.973 100.417 121.433 100.859 121.561 101.286C121.74 101.884 121.781 102.544 121.854 103.162C122.016 104.517 121.935 105.868 121.764 107.217ZM111.247 119.627C110.541 119.467 109.489 119.563 108.855 119.212C108.415 118.969 108.614 118.734 108.796 118.275C109.291 117.028 110.668 116.89 111.888 117.229C111.674 118.028 111.461 118.828 111.247 119.627ZM112.518 128.986C114.756 130.199 117.199 131.499 119 133.321C119.423 133.749 120.567 134.701 120.415 135.401C120.255 136.133 118.817 135.991 118.286 135.972C115.712 135.877 113.302 135.232 110.997 134.101C108.792 133.02 106.667 131.913 105.063 130.004C104.414 129.231 103.224 128.037 103.359 126.934C103.493 125.838 104.618 125.007 105.215 124.147C105.799 123.304 106.525 121.46 107.618 121.181C108.094 121.059 108.572 121.328 109.016 121.463C109.44 121.592 110.082 121.591 110.445 121.875C111.101 122.389 110.838 123.575 110.149 123.907C109.69 124.128 109.155 124.223 108.674 124.383C108.132 124.563 105.399 125.386 106.417 126.319C107.126 126.968 108.387 126.176 109.146 125.995C109.536 125.902 110.162 125.782 110.394 126.227C110.62 126.66 110.211 127.11 109.855 127.312C109.326 127.611 108.65 127.564 108.192 128.004C107.818 128.363 107.721 128.79 108.234 129.007C109.599 129.583 111.093 128.214 112.518 128.986ZM84.4314 108.236C84.3526 107.93 84.554 107.756 84.8721 107.89C84.802 108.09 84.6553 108.205 84.4314 108.236ZM62.2335 114.861C61.9454 114.822 62.0618 114.459 62.1801 114.279C62.3711 114.428 62.3888 114.622 62.2335 114.861ZM42.19 102.257C41.8238 101.849 42.3767 101.142 42.9266 101.473C42.7473 101.742 42.3869 101.944 42.19 102.257ZM40.8624 85.1685C40.2699 84.1136 40.2281 81.8222 38.6886 81.6826C38.1226 81.6313 37.1154 82.3408 36.6295 82.0055C36.189 81.7017 36.573 80.1713 35.9317 80.1944C35.0278 80.2267 35.4919 81.998 35.084 82.4371C34.8505 82.688 34.3237 82.7888 33.9979 82.7452C33.5027 82.6793 33.46 82.4552 33.4475 81.9907C33.438 81.6469 33.6871 80.2703 32.9142 80.4989C32.3513 80.6652 32.4871 81.8742 32.4315 82.3033C32.2246 83.8998 29.9023 83.8251 28.6853 83.9606C27.9469 84.0424 24.486 84.5943 25.255 83.068C25.5803 82.4225 26.3776 81.8856 26.9204 81.4362C27.8441 80.6711 28.8994 80.0682 30.0006 79.5996C32.0485 78.7284 34.356 78.2649 36.5766 78.5688C39.0769 78.9107 41.1356 80.1445 42.8047 82.0055C43.1496 82.3903 44.1236 83.2795 43.7506 83.8275C43.5433 84.1323 42.8256 84.2079 42.5045 84.3212C41.9228 84.5269 41.3558 84.7926 40.8624 85.1685ZM44.5426 85.9391C45.3922 85.6176 45.585 86.6773 45.9122 87.25C46.1923 87.7406 46.8133 88.4853 46.4873 89.0612C46.1912 89.5854 45.2852 89.8976 44.7753 90.1186C44.1078 90.4081 43.41 90.6233 42.7439 90.9151C42.3949 90.0838 42.0924 89.2314 41.7243 88.4088C41.5164 87.9449 41.0906 87.3065 41.456 86.8428C42.0611 86.0754 43.699 86.2584 44.5426 85.9391ZM68.1067 54.5648C68.1723 53.6123 68.7962 53.9243 69.0369 54.5796C69.2985 55.2914 69.3282 56.1374 69.3491 56.888C69.3646 57.4604 69.2472 58.3553 68.7007 57.5211C68.1757 56.7198 68.0425 55.4935 68.1067 54.5648ZM71.4646 58.4048C71.3704 59.558 70.713 58.7605 70.4722 58.1455C70.1211 57.2483 69.8527 56.0884 69.981 55.1218C70.1291 54.0063 70.6735 54.7067 70.9163 55.389C71.2596 56.3542 71.2744 57.4059 71.4646 58.4048ZM72.8921 57.4641C72.1517 57.6648 70.9973 53.2974 71.9973 53.1482C72.8285 53.0245 73.6219 57.2665 72.8921 57.4641ZM75.8565 57.9195C75.8497 58.8886 75.0507 58.1245 74.7712 57.7333C74.259 57.0168 73.8555 55.9473 73.8264 55.0673C73.7992 54.2413 74.1607 53.5703 74.7392 54.4599C75.3817 55.4481 75.6485 56.7791 75.8565 57.9195ZM69.3882 46.731C70.1093 44.7068 71.0093 42.8459 72.2116 41.0644C72.4273 40.7447 72.6437 40.3805 72.9375 40.126C73.1752 39.92 73.5181 39.8683 73.7419 39.6675C74.1924 39.2636 73.848 38.8584 73.4096 38.6469C72.673 38.2911 71.3624 38.3427 71.8765 37.1606C72.5872 35.5274 74.4292 36.4377 75.1542 37.5478C75.4476 36.8546 75.9632 37.0237 76.5919 36.9763C77.5317 36.9052 78.4156 36.4547 79.3647 36.4706C80.2448 36.4854 81.0551 36.9136 81.9372 36.9291C82.9193 36.9468 83.7398 36.9876 84.6951 37.2628C84.1974 38.2716 83.5795 39.2689 82.6321 39.9117C82.8026 39.5967 83.3933 38.7503 82.8636 38.5166C82.5053 38.3586 81.74 39.0205 81.4355 39.1733C81.4234 38.8849 81.3178 38.594 81.1453 38.3631C80.2148 39.0141 80.5282 40.1317 81.3222 40.744C80.628 41.1062 79.902 41.4241 79.1227 41.5417C78.3537 41.6581 77.5806 41.4769 76.8158 41.607C75.4735 41.8352 74.4708 43.0386 74.2571 44.3592C74.1411 45.0758 74.5321 46.8788 75.1143 45.481C75.2307 45.2018 75.2903 44.8726 75.4748 44.6273C75.7787 44.2227 76.0121 44.3653 76.4577 44.4622C76.8272 44.5426 77.4747 44.6233 77.6148 45.0326C77.7404 45.3998 77.4125 45.8934 77.2268 46.1729C76.5903 47.1322 75.6388 47.9614 74.489 48.1787C73.838 48.3017 68.8751 48.1725 69.3882 46.731ZM70.9371 33.5946C70.5198 33.3148 70.833 32.5853 70.8825 32.2124C70.9565 32.3489 71.0305 32.4852 71.1045 32.622C71.0527 31.7477 71.1721 31.0415 71.3583 30.193C71.429 29.8708 71.4035 29.5968 71.418 29.2741C71.4264 29.0893 71.3919 28.9583 71.4682 28.8473C71.5659 28.7047 71.683 29.1195 71.6776 29.083C72.1228 28.546 71.7614 28.4322 71.8915 27.8918C71.8931 27.885 72.3011 27.4486 72.3462 27.3664C72.5611 26.9737 72.6044 26.8224 72.9759 26.5945C73.3526 26.3635 73.2257 26.592 73.4304 26.0979C73.6273 25.622 73.6146 25.2934 73.7286 24.7951C73.9047 24.9236 74.0823 24.9274 74.2619 24.8066C74.0955 24.7605 74.0065 24.6513 73.9953 24.4788C74.4544 24.4318 74.8609 23.9863 75.2785 24.1399C75.1731 23.9595 75.1007 22.9256 75.4439 22.9276C75.4551 23.0897 75.4551 23.2515 75.444 23.4134C75.7337 22.9761 76.1882 22.3291 76.5454 21.9987C76.8151 21.7492 76.7389 21.8221 77.0687 21.7869C77.3523 21.7567 77.3562 21.8635 77.5996 21.6086C77.5038 21.3459 77.5756 21.1791 77.8151 21.1089C77.8889 21.0768 77.9629 21.0446 78.0365 21.0122C78.3762 20.8058 78.5019 20.5722 78.7692 20.2988C78.9771 20.0858 79.417 19.995 79.5734 19.7823C79.7417 19.5538 79.6172 19.0443 79.8411 18.8707C80.0863 18.6803 80.1024 18.9283 80.3413 18.9057C80.3756 18.9025 80.7211 18.718 80.7915 18.6944C81.302 18.5218 81.7744 18.4524 82.2059 18.0592C82.3507 17.9271 82.4531 17.6743 82.5928 17.5722C82.8244 17.4032 83.1012 17.4363 83.3375 17.2875C83.4126 17.2403 83.526 17.0297 83.6147 16.9521C83.8758 16.7232 84.2337 16.6096 84.5572 16.5089C85.227 16.3004 85.8578 16.0935 86.5056 15.813C87.8968 15.2103 89.431 14.6996 90.9072 14.3515C91.0771 14.3115 91.514 14.3348 91.6404 14.2525C91.7338 14.1915 91.815 13.9842 91.838 13.971C92.1141 13.8103 92.5586 13.63 92.9373 13.5221C94.0485 13.2051 94.0874 13.8105 93.379 14.4517C92.7503 15.0209 91.991 15.4182 91.3452 15.9623C90.2926 16.8495 89.6088 18.1582 88.9142 19.3219C89.8469 19.7745 91.1838 19.316 92.1309 19.1195C92.6124 19.0198 93.1233 19.0092 93.5976 19.0094L93.7498 18.9223C93.8714 18.8402 93.9502 18.8737 93.9866 19.023C94.0041 19.2145 94.0974 19.2452 94.2667 19.1148C94.3564 19.053 94.4498 18.998 94.5474 18.9499C94.7211 18.8509 94.9876 18.5333 95.2104 18.5726C95.5387 18.6304 95.3416 18.7911 95.5535 18.8725C96.0409 19.0593 96.2773 18.6146 96.7319 18.5434C96.8881 18.5189 97.1099 18.6399 97.2814 18.6213C97.423 18.5695 97.5543 18.4992 97.6749 18.4104C97.7965 18.4075 97.8814 18.4658 97.9303 18.5848C98.301 18.5873 98.9845 18.4988 99.0174 18.0298C99.2783 18.5236 99.4284 18.3556 99.8364 18.126C99.8364 18.7173 101.114 18.2133 101.464 18.2121C102.365 18.2093 103.143 17.8532 103.997 18.3122C102.487 18.9881 100.776 19.2879 99.3135 20.0551C98.6525 20.4022 97.8009 21.3834 98.2917 22.1803C98.583 22.6533 99.1241 22.6265 99.6023 22.5699C100.21 22.498 100.715 22.7261 101.337 22.7008C102.598 22.6497 104.148 23.6086 105.236 22.584C105.712 23.2319 106.273 23.2294 106.987 23.2691C107.318 23.2876 109.385 23.6473 109.3 24.0479C109.252 24.2733 108.264 24.6274 108.115 24.6936C107.555 24.942 106.975 25.1372 106.381 25.2875C105.31 25.5589 104.256 25.5423 103.176 25.7099C102.39 25.832 101.418 26.28 101.633 27.2767C101.822 28.1543 102.862 27.9565 103.535 27.8952C104.272 27.8281 104.981 27.7434 105.722 27.7761C106.317 27.8024 107.547 27.7652 107.922 28.351C106.271 29.5405 104.201 29.849 102.233 30.0961C99.9579 30.3815 97.7003 30.7423 95.474 31.3006C95.6416 30.9644 96.3799 29.741 96.0886 29.3759C95.7319 28.9284 94.6611 30.7328 94.386 30.9753C92.0437 33.0417 88.8367 34.4437 85.9663 35.5897C86.9115 34.4199 88.3356 33.6215 89.4902 32.6731C90.2849 32.0202 91.7305 30.9543 91.2045 29.7424C88.2503 31.5862 85.7652 34.9074 82.0383 35.1249C83.3698 34.1544 84.904 33.4081 85.9992 32.1414C86.2554 31.8455 87.1002 30.7141 86.5762 30.3073C86.1637 29.9873 85.4344 31.1149 85.1469 31.3592C83.1241 33.0768 80.3452 34.5311 77.8257 35.3361C76.9201 35.6255 75.676 36.1173 74.8443 35.4857C73.7286 34.6383 72.8594 34.611 71.6009 35.2872C71.4757 34.7359 71.4592 33.9454 70.9371 33.5946ZM97.5581 72.5784V73.278C97.1796 73.2407 97.3492 72.8411 97.1218 72.6576C97.2673 72.6313 97.4126 72.6047 97.5581 72.5784ZM97.082 71.7682C97.1973 72.176 97.1973 72.176 96.714 72.1299C96.8822 71.9646 96.9719 71.8763 97.082 71.7682ZM98.907 72.3393C99.1831 72.1876 98.9477 73.0972 98.5093 72.6265C98.6419 72.5307 98.7745 72.4351 98.907 72.3393ZM99.8836 71.0253C99.8319 71.3257 99.7806 71.6259 99.7292 71.926C99.568 71.7926 99.4068 71.6591 99.2456 71.5257C99.4584 71.3589 99.6709 71.1922 99.8836 71.0253ZM120.858 98.9199C121.204 98.7105 121.274 99.5116 121.311 99.6639C121.084 99.5383 120.313 99.2493 120.858 98.9199ZM52.1464 38.0153C51.546 38.8443 50.9469 39.68 50.4532 40.5783C50.1789 41.0774 49.9785 41.8069 49.4801 42.1408C49.0364 42.4378 48.3055 42.4832 47.8076 42.6075C46.8086 42.8565 45.8179 43.1403 44.8464 43.4818C41.5307 44.6482 38.3826 46.6325 36.0521 49.2878C34.9293 50.5669 33.9918 52.0406 33.4643 53.6679C32.8595 55.5332 33.0634 57.4888 32.8416 59.4088C32.7886 59.8701 32.6917 61.5149 32.1475 61.7229C31.4776 61.979 31.288 60.3579 31.2072 59.9337C31.1059 59.4011 30.8248 55.7571 29.7745 56.0942C29.1342 56.2995 29.1303 58.4247 29.0911 58.9315C29.002 60.0824 28.8708 61.2243 28.652 62.3589C28.4812 63.243 28.2546 64.1199 28.0428 64.995C27.8566 65.7642 27.6545 66.6872 27.073 67.2665C26.6457 64.9233 26.5762 62.2906 27.3772 60.0193C27.5962 59.3977 28.973 56.21 27.7555 55.9013C27.0283 55.7167 26.4518 57.4536 26.2549 57.9123C25.5954 59.4485 25.072 61.0415 24.5027 62.6123C24.1288 63.6436 23.7499 65.5036 22.8339 66.2204C22.5001 63.6311 23.2063 61.0499 24.0655 58.6318C24.2192 58.2 26.1278 53.8959 24.475 54.3623C23.5727 54.617 22.9413 56.5433 22.5703 57.2874C21.6614 59.1102 20.5447 61.0054 19.0242 62.3836C18.9527 60.9407 19.8751 59.4131 20.218 58.0271C20.6122 56.4341 21.1324 54.9524 21.975 53.5362C23.5351 50.9142 25.5724 48.4341 27.5843 46.1482C29.6616 43.7884 32.0296 41.6872 34.6105 39.8937C37.2015 38.0932 39.9259 36.9509 42.992 36.2493C46.4248 35.4641 50.1499 34.9998 53.5871 36.012C53.107 36.6798 52.6289 37.3493 52.1464 38.0153ZM108.927 41.4425C108.872 41.4536 108.817 41.4647 108.761 41.4758C108.716 41.2068 108.671 40.9379 108.625 40.6689C108.968 40.8701 108.677 41.2143 108.927 41.4425ZM94.5574 39.1192C98.6166 37.33 102.895 36.009 107.224 35.0581C110.166 34.4115 113.503 34.0934 116.37 35.2268C119.681 36.5351 121.053 40.0438 121.198 43.398C121.368 47.3073 120.04 51.015 118.125 54.3664C117.666 55.1711 115.209 60.0348 114.177 59.4933C114.525 58.5403 116.967 53.1668 115.35 52.6912C114.419 52.4176 113.698 55.0621 113.378 55.6572C113.161 56.0606 111.677 58.8848 111.182 58.6431C111.65 57.1373 112.22 55.584 112.175 53.9824C112.141 52.7727 111.51 52.2034 110.843 53.4565C109.388 56.1921 107.858 58.9983 105.74 61.2856C105.54 59.5895 106.448 57.7168 107 56.1517C107.433 54.9231 108.013 53.699 108.151 52.3896C108.226 51.6803 108.204 50.2787 107.146 50.5248C106.224 50.7389 105.481 51.7939 104.752 52.3401C105.303 51.2996 105.834 50.2456 106.467 49.2511C107.008 48.3987 107.658 47.6213 108.195 46.7668C108.435 46.3861 108.568 46.0164 108.72 45.6146C108.869 45.2181 109.095 44.9977 109.35 44.6369C109.539 44.3685 109.643 44.141 109.701 43.8454C109.722 43.7352 109.646 43.5706 109.658 43.4458C109.678 43.2266 109.908 43.1683 109.832 42.9167C110.235 43.476 110.123 42.3765 110.116 42.1726C110.089 41.4552 110.379 40.6786 110.021 40.0115C109.266 38.6052 107.053 38.8781 105.745 38.9793C103.871 39.1242 101.525 39.5509 99.9204 40.5658C99.5099 40.8251 99.2522 40.677 98.8069 40.8762C98.3998 41.0585 97.9855 41.2476 97.5677 41.4252C96.4819 41.8863 95.4452 42.4581 94.3744 42.9523C94.4313 42.1497 94.6132 41.367 94.4866 40.5651C94.4327 40.2214 94.0912 39.3247 94.5574 39.1192ZM123.107 101.373C122.751 98.997 122.35 96.6463 121.716 94.3266C121.413 93.2185 121.174 92.088 120.856 90.9848C120.604 90.1083 119.833 89.6638 119.452 88.8473C118.555 86.9268 117.733 85.0244 116.653 83.1863C115.524 81.2657 114.176 79.5733 112.574 78.029C109.323 74.8964 105.568 72.5032 101.933 69.8671C100.067 68.5137 98.1328 67.335 96.0502 66.3433C95.211 65.9436 94.4044 65.6244 93.5164 65.3642C92.5963 65.0949 92.1368 64.78 91.7962 63.8556C91.0969 61.9572 89.7852 61.3356 87.9937 60.6142C87.1834 60.2879 86.4463 59.8357 85.6478 59.4887C84.8174 59.1281 83.939 58.8516 83.1665 58.3695C79.6522 56.1769 84.3442 51.6129 86.21 49.9697C86.9374 49.3294 87.76 48.6723 88.686 48.3544C89.6455 48.0248 90.9534 47.8311 91.9692 47.7407C92.6587 47.6796 93.6349 48.0011 94.2077 47.4532C94.6695 47.0118 94.4909 46.3048 94.4343 45.7463C94.2752 44.18 95.5614 44.0574 96.8565 43.7806C98.8798 43.3481 100.771 42.4385 102.798 41.9837C104.091 41.6933 107.681 40.8244 107.703 43.0069C107.718 44.6616 106.481 46.3259 105.703 47.6782C105.095 48.7356 104.446 49.7576 103.803 50.7925C103.321 51.5665 102.886 52.4157 102.893 53.3508C102.899 54.0898 103.196 54.8194 104.062 54.7103C105.037 54.5875 105.767 53.6227 106.576 53.1557C106.609 54.1663 105.845 55.2968 105.551 56.2484C105.205 57.3707 104.9 58.5374 104.705 59.6962C104.58 60.4357 104.237 63.2834 105.734 62.9181C106.742 62.6718 107.612 61.3712 108.199 60.6031C108.818 59.7939 109.373 58.9424 109.934 58.0925C110.284 59.1325 108.107 61.1444 109.212 62.0816C110.39 63.0819 112.432 59.5403 113.006 58.8863C113.106 59.6808 111.985 61.4407 113.253 61.8051C114.151 62.0631 115.375 60.8395 115.94 60.2636C116.973 59.2112 117.099 57.7252 117.744 56.4512C118.482 54.9928 119.428 53.6636 120.112 52.1714C122.266 47.4694 123.362 40.5034 119.964 36.0681C117.671 33.0735 113.693 32.5551 110.175 32.8321C106.171 33.1473 102.255 34.3661 98.5099 35.7633C95.9951 36.7015 93.5211 37.7519 91.0612 38.8252C89.2461 39.6172 87.4395 40.4296 85.6387 41.2542C84.7673 41.6529 83.9185 42.0845 83.0709 42.5307C82.3716 42.899 81.5404 43.3272 80.7261 43.1172C81.312 42.2269 82.4774 41.9318 83.3195 41.3618C84.3157 40.6872 84.8674 39.5345 85.2321 38.4192C85.6251 37.2179 85.9731 36.9311 87.1799 36.6173C88.386 36.3038 89.5149 35.7983 90.5926 35.1732C93.1201 33.7071 95.9131 32.8689 98.7856 32.4143C101.327 32.0122 104.015 31.831 106.388 30.7552C108.154 29.9544 110.378 28.1823 108.227 26.4021C109.749 25.2946 112.448 23.4451 110.085 21.6337C108.253 20.2297 105.486 20.3385 103.302 20.3385C103.616 19.7039 104.622 19.4858 105.187 19.1408C105.885 18.7152 106.746 18.2545 106.988 17.4156C107.385 16.0437 105.887 15.6438 104.843 15.5062C100.874 14.9834 96.4131 15.3763 92.6531 16.758C92.8493 16.0662 93.8269 15.5565 94.3742 15.1853C95.1035 14.6909 95.825 14.15 96.3574 13.4357C96.6381 13.0588 96.8475 12.6515 96.9033 12.1806C96.9633 11.6731 96.9092 11.8876 96.7564 11.753C96.1929 11.256 95.3998 10.9432 94.6344 10.9098C92.4287 10.8135 90.4686 11.8515 88.3758 12.3611C87.4504 12.5863 86.5869 12.6788 85.7009 13.0784C84.6324 13.5603 83.5316 13.9814 82.4747 14.4853C81.9836 14.7195 81.5215 14.9993 81.0257 15.2218C80.5761 15.4236 80.4719 15.6768 80.1092 15.9836C79.7764 16.2651 79.4072 16.1258 79.03 16.3365C78.5081 16.6275 78.011 17.1352 77.5261 17.4973C75.6385 18.9073 73.8555 20.5263 72.3587 22.3516C69.7747 25.5025 67.2076 30.384 68.9707 34.5136C69.3827 35.4777 70.3543 35.7877 70.5957 36.84C70.8071 37.7619 70.8407 38.6774 71.1125 39.5876C71.3881 40.5099 70.2837 41.3748 69.8123 42.1256C69.0747 43.3002 68.7534 44.6292 68.3381 45.937C68.2089 45.5851 68.1648 44.9918 67.8025 44.7845C67.3638 44.5338 67.3581 45.0572 67.0427 44.8214C66.6719 44.544 66.3711 43.4612 66.1556 43.03C65.8682 42.4547 65.5726 41.8831 65.2417 41.3314C63.891 39.0788 61.8098 37.3384 59.5511 36.039C54.9387 33.3856 49.3849 33.1014 44.2462 34.0654C39.0853 35.0334 34.6039 37.6034 30.6128 40.9532C28.4026 42.8082 26.4529 44.8635 24.6985 47.1558C22.9753 49.4075 21.1948 51.6006 19.9272 54.1532C19.2154 55.5866 18.5709 57.0722 18.1727 58.6266C17.8637 59.8329 17.5633 61.2976 17.9565 62.521C18.293 63.568 19.2655 64.1304 20.2471 63.4499C21.1081 62.8527 21.4925 61.774 22.0806 60.9475C22.1986 62.3169 20.533 67.358 22.9599 67.5954C24.752 67.7709 25.4091 63.644 25.7888 62.4488C26.0431 64.0571 25.5627 65.7945 26.1668 67.3479C26.4597 68.1016 27.3745 69.4661 28.149 68.3833C28.4957 67.8984 28.5212 67.2072 28.6453 66.643C28.8014 65.9321 28.9971 65.2302 29.1517 64.5187C29.5416 62.7258 29.759 60.9051 30.0601 59.0963C30.5667 60.2712 30.4711 62.4113 31.727 63.1391C33.0007 63.8772 33.5733 61.7667 33.7186 60.9125C33.9628 59.4762 33.846 58.0049 34.0565 56.5633C34.2699 55.1027 34.7895 53.7858 35.5759 52.5404C38.3739 48.1101 43.621 44.7631 48.9009 44.542C48.6162 45.6375 46.9909 48.4604 49.1132 48.5068C49.5916 48.5174 50.0302 48.4316 50.5152 48.4838C51.1117 48.5477 51.8214 48.8535 52.4175 48.8104C52.7792 48.7842 52.7653 48.6332 53.1361 48.8496C53.5246 49.0764 53.5757 49.4123 54.0007 48.8832C54.3207 49.4781 55.0672 49.6366 55.6319 49.8963C55.6385 49.7426 55.6453 49.5889 55.6519 49.435C56.002 49.9336 56.3816 50.0231 56.9181 50.2671C57.2615 50.4231 57.5035 50.375 57.813 50.4556C58.1876 50.553 58.3751 50.7601 58.7125 50.9519C59.0784 51.1599 59.72 51.1343 60.0009 51.4605C60.4979 52.0372 59.7297 53.0109 59.4527 53.5038C58.674 54.8895 58.1606 56.4952 57.8232 58.0417C57.7371 58.4361 57.6547 58.7149 57.7181 59.1063C57.7733 59.4467 57.875 59.2008 57.8123 59.5362C57.7901 59.6549 57.5694 59.9045 57.5301 59.99C57.1965 60.7144 57.246 61.675 57.2285 62.4565C57.1863 64.3245 57.4233 66.091 57.9319 67.8872C58.1551 68.6749 58.3518 69.4963 58.6333 70.2649C58.8949 70.979 59.2909 71.4152 59.1515 72.1872C58.8527 73.8429 60.584 74.2919 61.529 75.3291C61.9571 75.7991 62.0334 76.3992 62.1299 77.0044C62.2682 77.8771 62.5557 78.6789 62.9106 79.4877C63.5322 80.9047 64.3842 82.7549 65.5528 83.8012C66.0784 84.2717 66.5611 84.7925 67.1587 85.1436C67.4382 85.3079 67.7875 85.7096 68.099 85.787C68.3939 85.8601 68.2884 85.5463 68.6087 85.8057C68.8539 86.0043 68.8406 86.3 69.1813 86.5252C69.5079 86.7413 69.8598 86.9218 70.2036 87.1083C70.9024 87.4874 71.6572 87.846 72.2933 88.325C72.9091 88.7891 73.5224 89.2778 74.1413 89.746C74.7108 90.1773 75.1107 90.7136 75.2948 91.4121C76.1035 94.4807 73.2685 97.0739 70.8504 98.357C67.7209 100.018 64.1737 99.6671 60.9547 98.4585C57.6177 97.2056 54.3227 94.9067 52.3348 91.9087C51.8408 91.1637 51.3399 90.3656 50.9652 89.5523C50.7187 89.0175 50.648 88.3596 50.3165 87.8685C49.5729 86.7674 47.9759 88.346 47.2027 88.7594C46.0643 83.9477 43.8784 78.5152 38.7961 76.793C33.9788 75.1605 27.9428 77.1001 24.8127 81.0731C24.075 82.0095 23.0192 83.5269 23.516 84.7807C23.9483 85.8713 25.3713 86.1179 26.3973 86.2273C27.8602 86.3835 29.3996 86.1959 30.8114 85.7988C31.174 85.6967 31.7951 85.406 32.1797 85.5182C32.7773 85.6928 32.7548 86.5627 33.0564 87.0158C33.3617 87.4743 33.8045 87.4261 33.9078 86.8378C34.0061 86.2759 33.4896 85.7478 33.9266 85.2489C34.1698 84.9712 34.9906 84.7417 35.3323 84.958C35.6182 85.139 35.6438 85.7071 35.8709 85.9684C36.4971 86.6889 36.5652 85.5211 36.6935 85.0284C36.8861 84.2876 37.728 83.7115 38.5452 84.043C39.0565 84.2505 39.1845 85.0364 39.3169 85.5114C39.5875 86.4816 39.7738 87.4184 40.1402 88.3637C40.4199 89.085 41.6049 91.0938 41.0366 91.7974C40.6856 92.232 39.7994 92.4754 39.2899 92.6431C38.5799 92.8768 37.7282 93.0165 37.0766 93.3841C36.7701 93.5571 36.0943 94.0287 35.9997 94.3862C35.8394 94.9918 36.5755 95.019 36.9179 94.7118C37.9895 97.8929 39.2547 101.022 41.2226 103.764C43.1973 106.516 45.7612 108.797 48.4635 110.811C53.7482 114.751 59.9645 117.375 66.548 118C69.9154 118.32 73.3971 118.039 76.5844 116.87C76.9439 116.738 77.3087 116.585 77.6888 116.523C78.0331 116.467 78.3864 116.586 78.7197 116.53C79.1522 116.459 79.0362 116.292 79.3109 116.06C79.5647 115.847 79.9607 115.773 80.2416 115.588C81.6412 114.67 82.9108 113.378 84.005 112.12C86.0606 109.756 88.0979 106.81 89.0661 103.806C90.0392 100.788 90.0855 97.5816 90.3782 94.4525C90.5594 92.5171 89.9768 90.7189 89.6591 88.8273C89.3338 86.8901 88.9535 84.9853 88.5062 83.0755C88.3291 82.3202 88.3277 81.7738 88.9198 81.2239C89.381 80.7961 89.9573 80.4592 90.5706 80.7508C91.2127 81.0564 91.7946 81.723 92.3811 82.1372C92.9857 82.5644 93.2689 83.1341 93.871 82.4228C93.871 83.0403 94.1684 83.2259 94.6879 83.4289C95.3848 83.7013 96.0355 83.9928 96.666 84.407C98.0295 85.3032 99.0597 86.6592 99.8293 88.0832C100.65 89.6015 101.594 91.1553 102.164 92.7882C102.785 94.5679 102.863 96.5744 102.926 98.4439C102.991 100.398 103.011 102.366 102.899 104.318C102.794 106.165 102.691 108.239 102.147 110.014C101.547 111.971 99.6043 114.188 102.232 115.494C104.075 116.409 106.308 116.188 108.122 117.13C107.888 117.505 107.731 117.929 107.476 118.291C107.155 118.748 106.869 118.743 106.374 118.926C105.466 119.262 105.905 119.808 105.812 120.526C105.729 121.164 104.876 121.891 104.469 122.36C103.857 123.066 103.223 123.765 102.729 124.563C101.657 126.291 101.658 128.175 102.639 129.942C103.502 131.495 104.735 133.261 106.251 134.224C107.905 135.277 109.856 136.185 111.672 136.916C113.305 137.573 115.032 137.993 116.779 138.205C118.088 138.363 119.889 138.517 120.937 137.531C121.898 136.627 122.125 135.189 121.675 133.988C120.62 131.171 117.395 129.476 115.051 127.881C115.794 127.621 116.773 127.534 117.35 126.942C118.071 126.202 117.405 125.568 116.576 125.576C115.858 125.584 115.125 125.818 114.442 126.026C113.834 126.21 112.719 126.726 112.104 126.354C111.291 125.863 112.181 125.367 112.619 125.145C113.443 124.728 113.398 124.198 112.6 123.764C111.312 123.062 113.158 123.031 113.351 122.399C113.594 121.599 112.58 120.83 112.651 119.957C112.718 119.125 112.975 117.662 113.625 117.066C114.073 116.655 114.841 116.692 115.404 116.6C116.314 116.453 117.205 116.182 118.083 115.902C118.35 117.472 119.599 116.061 120.091 115.434C121.019 114.253 121.403 112.824 121.893 111.429C122.444 109.858 122.913 108.316 123.205 106.673C123.523 104.882 123.374 103.16 123.107 101.373Z" fill="#1C1C1C"/>
<path fill-rule="evenodd" clip-rule="evenodd" d="M61.5139 120.191C61.2587 120.479 60.0367 120.081 59.7013 120.039C58.7055 119.915 57.7721 119.947 56.7868 119.698C56.0321 119.507 54.9261 119.086 54.1907 119.199C54.129 119.208 54.201 119.414 54.096 119.412C53.9593 119.41 53.8862 119.31 53.7495 119.257C53.4255 119.133 53.1697 118.852 52.8293 119.097C52.6683 118.336 52.3904 119.003 52.0081 118.997C51.6052 118.991 51.7526 118.511 51.3301 118.449C50.9947 118.4 50.8546 118.608 50.4836 118.465C49.9696 118.267 49.6052 117.978 49.0409 117.84C48.4027 117.684 47.981 117.461 47.3938 117.2C46.8803 116.973 46.3111 116.9 45.7904 116.686C44.4433 116.131 43.1239 115.445 41.8444 114.75C39.41 113.43 37.0066 112.187 34.8187 110.465C34.0179 109.835 33.4532 109.136 32.8186 108.352C32.3878 107.818 31.6465 106.796 30.8412 106.965C31.0296 106.443 30.5272 105.99 30.1965 105.668C29.6855 105.17 29.2499 104.645 28.8272 104.067C28.4294 103.523 28.1501 102.974 27.9035 102.352C27.7164 101.881 27.5956 101.41 27.0825 101.882C26.0603 102.821 27.3725 104.674 27.9396 105.499C28.8772 106.864 29.8106 108.251 30.9267 109.478C33.0081 111.765 35.38 113.847 38.0492 115.412C39.4284 116.221 40.8815 116.936 42.3778 117.5C43.7145 118.003 45.0346 118.267 46.4064 118.627C47.2236 118.842 48.0012 119.126 48.8352 119.275C49.1595 119.333 49.4785 119.412 49.8083 119.429C49.8937 119.433 50.0347 119.321 50.089 119.326C50.2202 119.338 50.3204 119.458 50.5122 119.5C50.7409 119.55 50.9675 119.529 51.1457 119.605C51.2183 119.636 51.3971 119.862 51.5867 119.932C51.8954 120.046 52.1339 120.099 52.4503 120.003C52.7181 119.921 52.9358 119.641 53.2362 119.669C53.1944 119.849 53.1522 120.029 53.1102 120.209C53.416 120.091 53.5586 120.198 53.8393 120.143C53.785 120.154 54.4268 120.006 54.3622 119.989C54.4067 120.001 54.5722 120.304 54.7314 120.38C55.3891 120.691 56.1917 120.459 56.8866 120.512C57.5999 120.565 58.3 120.67 59.0188 120.722C59.5478 120.76 62.0338 121.081 62.0883 120.174C61.8953 120.13 61.7039 120.135 61.5139 120.191Z" fill="#1C1C1C"/>
<path fill-rule="evenodd" clip-rule="evenodd" d="M128.525 36.8935C128.73 35.136 128.146 33.6688 127.691 32.0172C127.319 30.6638 126.857 29.3157 125.913 28.2302C125.056 27.2443 123.759 25.984 122.369 25.9172C121.289 25.8652 120.551 26.711 121.494 27.4937C122.434 28.2747 123.288 28.7795 124.032 29.7982C124.888 30.9716 125.534 32.2961 126.013 33.6638C126.886 36.1553 127.381 39.0934 126.556 41.6529C126.474 41.9066 126.151 42.6323 126.474 42.8362C126.845 43.0695 127.131 42.5112 127.232 42.2722C127.327 42.0494 127.751 39.9408 128.128 40.2223C128.104 39.9321 127.979 39.7963 127.997 39.5096C128.007 39.3438 128.15 39.1082 128.163 38.8936C128.206 38.1901 128.444 37.5837 128.525 36.8935Z" fill="#1C1C1C"/>
<path fill-rule="evenodd" clip-rule="evenodd" d="M63.5605 27.7018C64.6942 27.7264 64.7334 25.1824 65.0865 24.4921C65.2523 24.1681 65.4246 23.7783 65.6082 23.4761C65.7508 23.2417 65.9252 23.2063 66.0297 23.0201C66.3782 22.4016 66.1359 21.91 65.9797 21.312C66.3914 21.2458 66.5312 21.2475 66.6791 20.8358C66.7229 20.7142 66.6184 20.4936 66.7051 20.4021C66.8243 20.2762 67.0258 20.3444 67.1472 20.2386C67.1788 20.2109 67.1668 19.9457 67.2053 19.8461C67.2919 19.6211 67.3611 19.5349 67.528 19.363C67.7525 19.1314 68.3634 19.0055 68.161 18.6003C68.312 18.594 68.4558 18.5588 68.5927 18.4947C68.6367 18.2925 68.2251 18.3693 68.2586 18.2531C68.3297 18.0065 68.7166 17.682 68.9616 17.6316C68.7525 17.5228 68.5436 17.4137 68.3347 17.3046C68.8597 17.1941 68.8451 16.8823 69.3796 17.2363C69.321 16.7422 69.9947 16.2888 70.2867 15.9706C70.8357 15.3726 71.4501 14.8654 72.0571 14.3271C72.5849 13.8592 73.0729 13.3603 73.5656 12.8569C73.8174 12.5992 74.0737 12.3455 74.3632 12.13C74.6589 11.9099 74.89 11.9531 75.162 11.8027C75.5962 11.5625 75.8591 11.0755 76.2957 10.8307C76.4923 10.7203 76.5764 10.8452 76.7196 10.7069C76.8533 10.5777 76.9744 10.1516 76.8965 9.98674C76.5691 9.29271 74.202 11.1337 73.8304 11.3729C69.317 14.2808 65.6834 18.2888 63.7064 23.3179C63.4378 24.0012 61.9064 27.6657 63.5605 27.7018Z" fill="#1C1C1C"/>
<path fill-rule="evenodd" clip-rule="evenodd" d="M62.2668 120.629C62.5746 120.562 62.8839 120.495 63.3391 120.396C62.5256 119.95 62.459 119.972 62.2668 120.629Z" fill="#1C1C1C"/>
<path fill-rule="evenodd" clip-rule="evenodd" d="M78.2125 40.2083C78.8178 40.1509 80.1384 39.5261 79.9387 38.6742C79.7544 37.8879 79.041 38.7352 78.553 38.6465C78.0315 38.552 77.7895 37.4381 77.3513 38.5742C77.116 39.1843 77.463 40.2792 78.2125 40.2083Z" fill="#1C1C1C"/>
</svg>
