<svg width="157" height="157" viewBox="0 0 157 157" fill="none" xmlns="http://www.w3.org/2000/svg">
<circle cx="78.289" cy="78.413" r="78.2104" fill="white"/>
<path fill-rule="evenodd" clip-rule="evenodd" d="M37.7841 97.3693C41.6931 95.3053 45.6019 93.2412 49.5108 91.1772C53.2173 99.4407 62.5229 104.743 71.4672 102.788C73.6472 102.311 75.8083 101.234 76.855 99.1544C77.6424 97.5906 77.6719 95.7542 77.3156 94.069C77.0152 92.6492 76.4562 91.1507 75.5414 90.0079C74.3919 88.572 72.625 87.4692 71.195 86.3426C68.9794 84.5965 66.7438 82.8759 64.5021 81.1637C64.2081 80.9394 63.3898 80.5361 63.2253 80.191C63.0873 79.902 63.2253 79.2004 63.2253 78.8839V77.3946C66.4777 78.5812 70.1051 79.2342 73.562 79.0562C79.3167 78.7598 83.9374 74.593 88.0415 70.8926C88.7733 70.2328 89.4928 69.5589 90.1951 68.8675C90.3295 68.735 90.6701 68.2452 90.8578 68.2082C91.109 68.1585 91.769 68.5745 91.9999 68.6675C92.7989 68.9884 93.5977 69.3096 94.3967 69.6309C96.3417 70.4127 98.2968 71.0514 100.053 72.1998C107.506 77.0737 115.434 83.0328 118.822 91.5709C120.747 96.4238 121.896 101.606 122.597 106.774C122.692 107.478 122.937 108.356 122.815 109.06C122.591 110.351 121.858 111.718 121.416 112.947C120.854 114.508 120.292 116.069 119.73 117.63C119.668 117.803 119.592 118.238 119.448 118.346C119.148 118.571 118.146 118.495 117.786 118.534C115.717 118.762 113.642 118.992 111.563 119.106C109.695 119.209 107.952 118.731 106.17 118.198C105.178 117.902 104.194 117.582 103.214 117.247C102.994 117.171 101.916 116.969 101.791 116.747C101.736 116.65 101.921 116.194 101.947 116.087C102.109 115.407 102.259 114.724 102.4 114.039C103.4 109.205 104.136 104.14 103.714 99.1972C103.275 94.0481 100.416 89.9802 96.8155 86.4581C95.4907 85.1623 94.0813 83.9506 92.606 82.8309C92.3475 82.6345 91.8755 82.123 91.5485 82.0574C91.2859 82.0047 91.0886 82.224 90.8268 82.3952C90.0682 82.8907 89.3098 83.3863 88.5514 83.8817C88.3475 84.0146 87.5524 84.3658 87.4788 84.6002C87.4168 84.7979 87.7408 85.4512 87.7949 85.6414C88.0251 86.4459 88.2304 87.2578 88.4159 88.0738C89.6322 93.4196 90.2003 99.2711 88.706 104.618C87.2952 109.667 84.036 114.211 79.6639 117.086C75.1411 120.06 69.881 120.796 64.631 119.772C55.2943 117.95 45.7218 112.472 40.6368 104.216C39.3349 102.103 38.3513 99.7914 37.7841 97.3693Z" fill="#F0DD33"/>
<path fill-rule="evenodd" clip-rule="evenodd" d="M121.764 108.761C121.402 111.636 120.117 114.367 118.526 116.758C118.317 116.342 118.57 115.999 117.99 115.92C117.6 115.867 117.084 116.143 116.7 116.208C115.274 116.451 113.776 116.264 112.351 116.111C112.72 115.711 113.208 115.386 113.025 114.735C112.886 114.243 112.282 114.051 112.047 113.596C112.368 113.457 113.251 114.16 113.56 114.279C113.407 113.893 112.885 113.202 112.997 112.778C113.079 112.466 113.484 112.526 113.147 112.126C112.994 112.264 112.502 112.926 112.234 112.762C112.493 112.527 112.304 112.4 112.418 112.165C112.506 111.983 112.584 111.894 112.707 111.736C113.023 111.325 113.23 110.801 112.828 110.32C112.693 110.159 112.463 110.193 112.337 110.011C112.215 109.835 112.241 109.629 112.208 109.432C112.171 109.211 112.189 108.962 112.127 108.745C112.001 108.298 111.953 108.305 112.168 107.843C111.947 108.034 111.725 108.224 111.503 108.414C111.393 107.947 111.311 107.452 111.084 107.025C111.007 106.88 110.595 106.499 110.613 106.348C110.56 106.787 110.208 106.27 110.065 106.234C109.613 106.12 108.815 106.566 108.47 106.841C107.518 107.601 106.95 109.051 106.349 110.088C105.689 111.228 105.026 112.493 104.852 113.804C104.809 114.13 104.799 114.816 104.43 114.98C104.232 115.069 103.405 114.831 103.2 114.713C102.7 114.423 102.875 113.989 103.069 113.529C103.32 112.935 103.546 112.425 103.662 111.781C103.8 111.01 103.9 110.229 104.02 109.455C104.271 107.831 104.524 106.199 104.653 104.559C104.694 104.035 104.628 103.513 104.648 103.001C104.666 102.554 105.009 102.037 104.818 101.504C104.753 101.321 104.618 101.278 104.627 101.124C104.632 101.028 104.877 101.118 104.91 100.991C104.974 100.745 104.739 100.494 104.679 100.265C104.583 99.9051 104.656 99.5723 104.711 99.2112C104.934 97.7436 104.521 96.1992 104.128 94.7876C103.702 93.2626 103.124 91.7952 102.531 90.3296C102.009 89.0395 101.789 87.6392 101.175 86.3865C100.644 85.3044 100.063 84.2302 99.106 83.5296C98.6675 83.2087 98.3506 82.7233 97.9332 82.3689C97.6844 82.1575 97.4176 81.9308 97.1185 81.7949C96.8295 81.664 96.4837 81.7403 96.2203 81.6164C95.8543 81.4445 95.4479 81.0124 95.0567 80.8435C94.719 80.6977 94.3314 80.5981 94.0152 80.2926C93.5865 79.878 93.5068 79.602 92.9049 79.5223C92.5566 79.4766 92.2113 79.4968 91.9644 79.1506C90.987 77.7803 93.6233 75.8017 92.4027 74.3722C91.9168 74.8624 91.7094 75.5593 91.4747 76.1898C91.1675 77.0154 90.7349 77.711 90.2484 78.4428C89.3971 79.7236 88.1272 81.0222 87.7614 82.5502C87.1652 81.7161 86.8294 81.2192 85.9296 82.0439C85.7604 81.6704 85.9834 80.959 85.6469 80.719C85.0552 80.2969 83.9265 81.3478 83.6038 81.7292C82.3403 83.2225 81.6344 85.0404 80.9409 86.8568C80.6346 87.6592 80.3054 88.675 80.6957 89.5051C81.0411 90.2394 81.8628 90.6422 82.563 90.9572C83.5541 91.4031 84.3745 91.3799 85.4277 91.4912C85.9111 91.5421 86.3467 91.7534 86.8074 91.5075C87.2063 91.2948 87.491 90.87 87.8377 90.588C87.9192 90.8531 88.1304 91.0861 88.3995 90.8514C88.7934 92.5064 89.1857 94.1259 89.0906 95.8407C89.0032 97.4144 88.8661 98.9946 88.5854 100.546C88.2959 102.146 87.9572 103.773 87.3269 105.278C86.7034 106.767 85.7472 108.078 84.8764 109.426C84.6113 108.885 84.2955 109.153 83.9122 109.406C83.76 109.083 83.9555 108.836 83.7441 108.549C83.6077 108.469 83.486 108.37 83.3788 108.252C83.3418 108.021 83.2896 107.794 83.223 107.571C82.8829 107.71 82.7385 107.874 82.5832 108.2C82.071 107.298 81.7084 107.413 80.7548 107.471C79.4778 107.548 79.0696 108.653 78.647 109.692C78.5466 109.939 78.3603 110.25 78.3385 110.524C78.3228 110.718 78.4944 111.042 78.4711 111.142C78.4231 111.347 78.2372 111.176 78.187 111.277C78.0026 111.65 77.9556 112.178 77.8575 112.582C77.5957 113.662 77.516 115.408 76.4523 116.023C75.5618 116.537 74.284 116.659 73.2856 116.853C71.7148 117.157 70.0517 117.213 68.4555 117.221C67.0289 117.229 65.3233 117.401 63.9691 116.863C63.7707 116.784 62.8318 116.342 63.0506 116.118C63.1456 116.02 63.6599 116.181 63.7652 116.238C63.6939 116.2 63.6406 115.762 63.6047 115.663C63.4707 115.293 63.3678 115.281 63.1133 115.001C62.5486 114.382 63.3109 114.667 63.2595 114.223C63.2495 114.138 62.6456 114.359 62.6622 114.353C62.6819 114.218 62.8063 113.938 62.7423 113.803C62.7891 113.902 62.3938 113.068 62.4408 113.258C62.3493 112.89 62.6061 112.527 62.553 112.171C62.4778 111.666 62.1088 111.767 61.8198 111.468C61.7206 111.366 61.6813 111.158 61.5839 111.04C61.5416 110.989 61.3868 110.98 61.3711 110.953C61.2655 110.769 61.2721 110.739 61.383 110.352C61.1689 110.446 60.605 110.835 60.3869 110.623C60.1242 110.368 60.6754 110.069 60.2195 109.894C60.0358 109.823 59.9305 110.021 59.7666 110.027C59.6566 110.031 59.6351 109.76 59.4977 109.831C59.2525 109.959 59.1889 110.494 59.0808 110.726C58.4683 109.163 56.494 111.732 56.1294 112.335C55.7919 112.893 55.7726 113.996 54.9391 113.91C54.5014 113.865 53.9987 113.387 53.6497 113.152C53.1377 112.809 52.5905 112.523 52.0614 112.206C49.7126 110.798 47.4981 109.247 45.4183 107.463C44.6532 106.807 43.6291 105.993 43.5272 104.976C43.4865 104.569 43.4372 104.198 43.3242 103.786C43.0971 102.956 42.7968 103.102 42.134 102.651C42.3996 102.127 42.7786 102.099 42.7556 101.465C42.7366 100.949 42.5393 100.435 42.3662 99.9594C42.1451 99.3529 42.0382 98.6709 41.3904 98.5026C40.7003 98.3232 40.5902 98.6588 40.1334 99.1434C40.1806 98.8823 40.3915 98.2204 40.0987 98.0519C39.6911 97.8176 39.4713 98.6829 39.1512 98.7764C38.8758 98.1612 37.9435 97.2036 38.596 96.5924C38.9252 96.2839 39.5648 96.1656 39.9727 95.9789C40.5795 95.7014 41.1683 95.3836 41.7573 95.0711C44.3755 93.6823 46.9182 92.1664 49.5151 90.7396C49.9732 91.8002 50.3819 92.8855 50.9096 93.9148C51.3496 94.7735 52.1366 95.5863 52.1048 96.6028C52.0721 97.6605 51.5933 98.7013 51.4788 99.7596C51.403 100.46 51.5079 100.736 52.2788 100.493C52.3455 100.976 53.1234 101.675 53.5384 101.921C54.2062 102.316 54.8712 101.592 55.3369 101.143C55.666 101.456 55.7356 101.919 56.0074 102.268C56.1441 102.121 56.1235 101.704 56.2104 101.637C56.2937 101.571 56.5849 101.714 56.645 101.713C56.736 101.71 56.6589 101.452 56.7324 101.449C56.9676 102.028 57.5105 101.059 58.0325 101.456C57.9697 101.152 58.0555 101.047 58.3164 100.902C58.4515 101.532 59.0048 101.235 59.4825 101.305C60.3312 101.428 61.1598 101.904 61.994 102.12C63.7127 102.564 65.3353 102.81 67.1052 102.782C67.8133 102.77 68.1112 102.878 68.5286 103.431C68.6875 103.641 68.7645 103.905 69.0401 104.005C69.444 104.15 69.4668 103.879 69.7944 103.802C70.1277 103.724 69.9526 103.64 70.2664 103.805C70.4592 103.906 70.5732 104.228 70.731 104.379C71.1772 104.805 71.6513 104.967 72.0243 104.383C72.0951 104.596 72.1755 104.662 72.3429 104.803C72.3192 104.466 72.269 103.791 72.8253 103.951C73.2409 104.07 73.0476 104.668 73.6377 104.564C73.9685 104.506 74.2435 104.028 74.4415 103.787C74.7128 103.457 74.7244 103.91 74.7778 103.346C74.8093 103.012 74.5911 102.597 74.4586 102.305C74.9542 102.407 75.0427 102.932 75.5352 102.978C76.087 103.03 76.369 102.297 76.9037 102.437C76.8521 102.314 76.6523 101.903 76.74 101.781C76.8751 101.594 77.0688 102.038 77.2797 101.996C77.5093 101.95 77.7642 101.326 77.7159 101.115C77.62 100.696 77.133 100.802 76.9477 100.47C76.7784 100.166 76.928 99.6091 76.92 99.28C76.9091 98.8314 76.8051 98.3766 76.8828 97.9286C76.9646 97.4575 77.202 97.0679 77.5261 96.7202C77.7515 96.4786 78.3784 96.1043 77.829 95.8264C78.8028 95.4667 78.2277 94.4608 78.3037 93.6244C78.3509 93.1046 78.5601 92.7261 78.4443 92.1671C78.3062 91.4984 77.9495 90.8759 77.5805 90.3107C77.2132 89.7474 76.8347 89.2245 76.2884 88.8262C76.1403 88.7261 75.9918 88.626 75.8434 88.5261C75.7414 88.3826 75.6127 88.341 75.4574 88.4012C75.2064 88.2102 75.1604 88.0545 74.9747 87.7809C74.5081 87.0929 73.6809 86.7532 72.9947 86.3445C72.3354 85.9518 71.7621 85.412 71.0711 85.0747C71.0747 85.0764 70.3455 84.7618 70.4068 84.8437C70.1556 84.5077 70.4115 84.0919 70.3986 83.7296C70.3852 83.3577 70.1622 83.1939 70.0582 82.8731C69.9342 82.4915 70.157 82.0178 69.9325 81.6765C69.8448 81.5435 69.6734 81.5063 69.5669 81.3891C69.3855 81.1897 69.3049 80.9211 69.1126 80.7247C68.9239 80.9473 68.7354 81.17 68.5469 81.3927C68.3242 80.8512 68.28 80.7104 67.8236 81.2249C67.1269 82.0101 66.7321 81.6713 66.1643 80.9416C65.9767 80.7005 65.7583 80.6528 65.6179 80.4757C65.3943 80.1939 65.6347 79.7003 65.3155 79.4544C65.1294 79.3109 64.8694 79.456 64.7127 79.2092C64.5201 78.906 64.8344 78.4553 64.6571 78.1154C67.325 78.9601 70.0475 79.6335 72.8669 79.4282C75.6058 79.2289 78.4027 78.5571 80.9162 77.4445C85.2774 75.5138 89.5308 72.3382 91.2449 67.7325C91.6743 68.2367 91.5848 69.1563 92.0587 69.619C92.763 70.3066 92.6996 68.932 92.6996 68.4944C93.2641 68.6455 94.0697 68.885 94.1155 69.573C94.1619 70.2682 93.5368 70.9925 93.317 71.6248C93.0961 72.2602 92.986 72.9954 93.0398 73.6667C93.0665 74.0021 93.1287 74.3497 93.2963 74.6461C93.5013 75.0086 93.7289 74.9905 94.0038 75.156C93.9586 75.129 94.3478 75.3921 94.3364 75.3892C95.1555 75.586 95.8132 76.2016 96.6935 75.9788C97.2604 75.8353 97.8083 75.4203 98.0175 76.25C98.4116 75.985 98.4604 75.78 98.4495 75.3892C98.4446 75.22 98.2045 75.0754 98.4452 75.0218C98.5251 75.0041 98.8239 75.3669 98.9407 75.4005C99.2638 75.4929 99.3882 75.3629 99.544 75.1201C99.6338 74.9798 99.6398 74.0332 99.7474 74.0133C99.9756 73.971 100.452 74.9455 100.579 75.1201C100.579 72.3256 103.494 75.5643 104.401 76.1816C105.138 76.6838 105.94 77.1287 106.559 77.7842C107.347 78.6192 107.119 79.1043 106.587 80.0068C105.998 81.0058 105.572 82.1697 105.036 83.2114C104.767 83.7341 104.445 84.3615 104.453 84.9691C104.455 85.1739 104.573 85.3855 104.562 85.5844C104.546 85.8721 104.407 85.9942 104.291 86.2462C103.958 86.9714 104.257 87.8376 104.96 88.1968C105.412 88.4269 105.875 88.5724 106.311 88.8385C106.772 89.1194 107.227 89.4227 107.788 89.442C108.15 89.4543 108.35 89.3573 108.7 89.4659C108.937 89.5396 109.136 89.7533 109.411 89.7263C109.96 89.6721 110.364 89.0653 110.928 88.9404C111.346 88.848 111.889 88.9016 112.156 88.4914C112.486 87.9825 111.857 87.4755 112.359 87.0069C112.497 87.2653 112.589 87.56 112.622 87.8511C112.77 87.4601 112.83 87.146 113.049 86.7955C113.277 86.4293 113.407 86.1909 113.403 85.7288C113.396 84.8998 112.995 84.1269 112.794 83.3381C113.496 83.3769 114.075 84.5869 114.381 85.0942C114.946 86.0305 115.53 86.9544 116.092 87.8924C116.797 89.0697 117.693 90.3643 118.146 91.6646C118.555 92.8379 117.565 93.5926 117.02 94.5466C116.375 95.6753 116.18 96.7559 115.827 97.9663C115.546 98.9345 115.514 100.01 116.304 100.744C116.657 101.072 117.105 101.263 117.545 101.441C118.069 101.654 118.207 102.043 118.769 102.155C119.217 102.245 119.714 102.289 120.173 102.275C120.959 102.25 120.674 101.991 121.109 101.495C120.973 101.961 121.433 102.403 121.561 102.83C121.74 103.428 121.781 104.088 121.854 104.706C122.016 106.061 121.935 107.412 121.764 108.761ZM111.247 121.171C110.541 121.011 109.489 121.107 108.855 120.756C108.415 120.513 108.614 120.278 108.796 119.819C109.291 118.572 110.668 118.434 111.888 118.773C111.674 119.572 111.461 120.372 111.247 121.171ZM112.518 130.53C114.756 131.743 117.199 133.043 119 134.865C119.423 135.293 120.567 136.245 120.415 136.945C120.255 137.677 118.817 137.535 118.286 137.515C115.712 137.421 113.302 136.776 110.997 135.645C108.792 134.564 106.667 133.457 105.063 131.548C104.414 130.775 103.224 129.581 103.359 128.478C103.493 127.382 104.618 126.551 105.215 125.691C105.799 124.848 106.525 123.004 107.618 122.725C108.094 122.603 108.572 122.872 109.016 123.007C109.44 123.136 110.082 123.135 110.445 123.419C111.101 123.933 110.838 125.119 110.149 125.451C109.69 125.672 109.155 125.767 108.674 125.927C108.132 126.106 105.399 126.93 106.417 127.863C107.126 128.512 108.387 127.719 109.146 127.539C109.536 127.446 110.162 127.326 110.394 127.771C110.62 128.204 110.211 128.654 109.855 128.856C109.326 129.155 108.65 129.108 108.192 129.548C107.818 129.907 107.721 130.334 108.234 130.551C109.599 131.127 111.093 129.758 112.518 130.53ZM84.4314 109.78C84.3526 109.474 84.554 109.3 84.8721 109.434C84.802 109.634 84.6553 109.749 84.4314 109.78ZM62.2335 116.405C61.9454 116.366 62.0618 116.003 62.1801 115.823C62.3711 115.972 62.3888 116.166 62.2335 116.405ZM42.19 103.801C41.8238 103.393 42.3767 102.686 42.9266 103.017C42.7473 103.286 42.3869 103.488 42.19 103.801ZM40.8624 86.7124C40.2699 85.6575 40.2281 83.3661 38.6886 83.2266C38.1226 83.1753 37.1154 83.8847 36.6295 83.5495C36.189 83.2457 36.573 81.7152 35.9317 81.7383C35.0278 81.7706 35.4919 83.542 35.084 83.9811C34.8505 84.232 34.3237 84.3328 33.9979 84.2892C33.5027 84.2232 33.46 83.9991 33.4475 83.5347C33.438 83.1908 33.6871 81.8142 32.9142 82.0428C32.3513 82.2092 32.4871 83.4181 32.4315 83.8472C32.2246 85.4438 29.9023 85.3691 28.6853 85.5045C27.9469 85.5864 24.486 86.1382 25.255 84.6119C25.5803 83.9664 26.3776 83.4296 26.9204 82.9801C27.8441 82.2151 28.8994 81.6121 30.0006 81.1436C32.0485 80.2724 34.356 79.8088 36.5766 80.1128C39.0769 80.4547 41.1356 81.6884 42.8047 83.5495C43.1496 83.9342 44.1236 84.8235 43.7506 85.3714C43.5433 85.6763 42.8256 85.7519 42.5045 85.8652C41.9228 86.0709 41.3558 86.3366 40.8624 86.7124ZM44.5426 87.483C45.3922 87.1615 45.585 88.2212 45.9122 88.794C46.1923 89.2845 46.8133 90.0292 46.4873 90.6052C46.1912 91.1293 45.2852 91.4415 44.7753 91.6626C44.1078 91.9521 43.41 92.1673 42.7439 92.4591C42.3949 91.6277 42.0924 90.7753 41.7243 89.9527C41.5164 89.4888 41.0906 88.8505 41.456 88.3867C42.0611 87.6193 43.699 87.8023 44.5426 87.483ZM68.1067 56.1087C68.1723 55.1562 68.7962 55.4683 69.0369 56.1236C69.2985 56.8354 69.3282 57.6814 69.3491 58.4319C69.3646 59.0043 69.2472 59.8993 68.7007 59.0651C68.1757 58.2638 68.0425 57.0375 68.1067 56.1087ZM71.4646 59.9488C71.3704 61.102 70.713 60.3044 70.4722 59.6895C70.1211 58.7922 69.8527 57.6324 69.981 56.6658C70.1291 55.5503 70.6735 56.2506 70.9163 56.9329C71.2596 57.8981 71.2744 58.9498 71.4646 59.9488ZM72.8921 59.0081C72.1517 59.2088 70.9973 54.8413 71.9973 54.6921C72.8285 54.5685 73.6219 58.8104 72.8921 59.0081ZM75.8565 59.4634C75.8497 60.4325 75.0507 59.6684 74.7712 59.2772C74.259 58.5608 73.8555 57.4912 73.8264 56.6113C73.7992 55.7853 74.1607 55.1142 74.7392 56.0038C75.3817 56.9921 75.6485 58.3231 75.8565 59.4634ZM69.3882 48.275C70.1093 46.2507 71.0093 44.3899 72.2116 42.6083C72.4273 42.2886 72.6437 41.9244 72.9375 41.67C73.1752 41.4639 73.5181 41.4123 73.7419 41.2114C74.1924 40.8075 73.848 40.4024 73.4096 40.1908C72.673 39.835 71.3624 39.8866 71.8765 38.7045C72.5872 37.0713 74.4292 37.9816 75.1542 39.0918C75.4476 38.3986 75.9632 38.5676 76.5919 38.5203C77.5317 38.4491 78.4156 37.9986 79.3647 38.0145C80.2448 38.0294 81.0551 38.4575 81.9372 38.4731C82.9193 38.4908 83.7398 38.5315 84.6951 38.8067C84.1974 39.8155 83.5795 40.8129 82.6321 41.4557C82.8026 41.1406 83.3933 40.2943 82.8636 40.0605C82.5053 39.9026 81.74 40.5645 81.4355 40.7173C81.4234 40.4288 81.3178 40.1379 81.1453 39.907C80.2148 40.558 80.5282 41.6757 81.3222 42.2879C80.628 42.6502 79.902 42.9681 79.1227 43.0857C78.3537 43.202 77.5806 43.0208 76.8158 43.1509C75.4735 43.3791 74.4708 44.5825 74.2571 45.9032C74.1411 46.6198 74.5321 48.4227 75.1143 47.0249C75.2307 46.7458 75.2903 46.4166 75.4748 46.1712C75.7787 45.7666 76.0121 45.9092 76.4577 46.0061C76.8272 46.0865 77.4747 46.1673 77.6148 46.5765C77.7404 46.9438 77.4125 47.4374 77.2268 47.7169C76.5903 48.6762 75.6388 49.5053 74.489 49.7227C73.838 49.8456 68.8751 49.7164 69.3882 48.275ZM70.9371 35.1386C70.5198 34.8587 70.833 34.1293 70.8825 33.7563C70.9565 33.8928 71.0305 34.0292 71.1045 34.1659C71.0527 33.2917 71.1721 32.5854 71.3583 31.7369C71.429 31.4147 71.4035 31.1407 71.418 30.818C71.4264 30.6332 71.3919 30.5022 71.4682 30.3913C71.5659 30.2486 71.683 30.6634 71.6776 30.627C72.1228 30.09 71.7614 29.9761 71.8915 29.4357C71.8931 29.4289 72.3011 28.9925 72.3462 28.9103C72.5611 28.5177 72.6044 28.3663 72.9759 28.1385C73.3526 27.9074 73.2257 28.136 73.4304 27.6419C73.6273 27.166 73.6146 26.8373 73.7286 26.3391C73.9047 26.4676 74.0823 26.4713 74.2619 26.3505C74.0955 26.3044 74.0065 26.1953 73.9953 26.0227C74.4544 25.9758 74.8609 25.5302 75.2785 25.6839C75.1731 25.5034 75.1007 24.4696 75.4439 24.4716C75.4551 24.6336 75.4551 24.7955 75.444 24.9573C75.7337 24.52 76.1882 23.8731 76.5454 23.5426C76.8151 23.2931 76.7389 23.366 77.0687 23.3308C77.3523 23.3007 77.3562 23.4074 77.5996 23.1525C77.5038 22.8898 77.5756 22.7231 77.8151 22.6529C77.8889 22.6207 77.9629 22.5885 78.0365 22.5562C78.3762 22.3498 78.5019 22.1162 78.7692 21.8427C78.9771 21.6298 79.417 21.5389 79.5734 21.3263C79.7417 21.0977 79.6172 20.5882 79.8411 20.4146C80.0863 20.2242 80.1024 20.4722 80.3413 20.4496C80.3756 20.4464 80.7211 20.262 80.7915 20.2383C81.302 20.0657 81.7744 19.9964 82.2059 19.6031C82.3507 19.4711 82.4531 19.2182 82.5928 19.1162C82.8244 18.9471 83.1012 18.9803 83.3375 18.8315C83.4126 18.7842 83.526 18.5736 83.6147 18.496C83.8758 18.2671 84.2337 18.1535 84.5572 18.0528C85.227 17.8444 85.8578 17.6374 86.5056 17.357C87.8968 16.7542 89.431 16.2435 90.9072 15.8955C91.0771 15.8554 91.514 15.8787 91.6404 15.7965C91.7338 15.7355 91.815 15.5282 91.838 15.515C92.1141 15.3543 92.5586 15.174 92.9373 15.0661C94.0485 14.749 94.0874 15.3544 93.379 15.9957C92.7503 16.5649 91.991 16.9622 91.3452 17.5062C90.2926 18.3935 89.6088 19.7021 88.9142 20.8658C89.8469 21.3184 91.1838 20.86 92.1309 20.6634C92.6124 20.5637 93.1233 20.5532 93.5976 20.5533L93.7498 20.4662C93.8714 20.3841 93.9502 20.4176 93.9866 20.5669C94.0041 20.7584 94.0974 20.7891 94.2667 20.6587C94.3564 20.5969 94.4498 20.5419 94.5474 20.4939C94.7211 20.3948 94.9876 20.0773 95.2104 20.1165C95.5387 20.1743 95.3416 20.335 95.5535 20.4164C96.0409 20.6033 96.2773 20.1586 96.7319 20.0874C96.8881 20.0629 97.1099 20.1839 97.2814 20.1653C97.423 20.1135 97.5543 20.0431 97.6749 19.9543C97.7965 19.9515 97.8814 20.0098 97.9303 20.1287C98.301 20.1312 98.9845 20.0428 99.0174 19.5738C99.2783 20.0676 99.4284 19.8995 99.8364 19.67C99.8364 20.2613 101.114 19.7572 101.464 19.7561C102.365 19.7532 103.143 19.3972 103.997 19.8561C102.487 20.5321 100.776 20.8318 99.3135 21.5991C98.6525 21.9461 97.8009 22.9273 98.2917 23.7243C98.583 24.1973 99.1241 24.1705 99.6023 24.1138C100.21 24.042 100.715 24.27 101.337 24.2447C102.598 24.1936 104.148 25.1525 105.236 24.1279C105.712 24.7759 106.273 24.7734 106.987 24.8131C107.318 24.8315 109.385 25.1913 109.3 25.5919C109.252 25.8173 108.264 26.1713 108.115 26.2376C107.555 26.486 106.975 26.6811 106.381 26.8314C105.31 27.1029 104.256 27.0863 103.176 27.2539C102.39 27.3759 101.418 27.824 101.633 28.8206C101.822 29.6982 102.862 29.5004 103.535 29.4391C104.272 29.3721 104.981 29.2874 105.722 29.3201C106.317 29.3464 107.547 29.3092 107.922 29.895C106.271 31.0845 104.201 31.3929 102.233 31.6401C99.9579 31.9254 97.7003 32.2863 95.474 32.8445C95.6416 32.5084 96.3799 31.285 96.0886 30.9199C95.7319 30.4724 94.6611 32.2768 94.386 32.5193C92.0437 34.5857 88.8367 35.9876 85.9663 37.1337C86.9115 35.9639 88.3356 35.1654 89.4902 34.217C90.2849 33.5642 91.7305 32.4982 91.2045 31.2864C88.2503 33.1301 85.7652 36.4514 82.0383 36.6689C83.3698 35.6983 84.904 34.952 85.9992 33.6854C86.2554 33.3894 87.1002 32.258 86.5762 31.8513C86.1637 31.5312 85.4344 32.6589 85.1469 32.9032C83.1241 34.6207 80.3452 36.075 77.8257 36.8801C76.9201 37.1694 75.676 37.6612 74.8443 37.0297C73.7286 36.1822 72.8594 36.1549 71.6009 36.8311C71.4757 36.2798 71.4592 35.4894 70.9371 35.1386ZM97.5581 74.1224V74.822C97.1796 74.7846 97.3492 74.3851 97.1218 74.2015C97.2673 74.1753 97.4126 74.1486 97.5581 74.1224ZM97.082 73.3121C97.1973 73.7199 97.1973 73.7199 96.714 73.6738C96.8822 73.5085 96.9719 73.4202 97.082 73.3121ZM98.907 73.8833C99.1831 73.7315 98.9477 74.6411 98.5093 74.1704C98.6419 74.0746 98.7745 73.979 98.907 73.8833ZM99.8836 72.5692C99.8319 72.8696 99.7806 73.1699 99.7292 73.4699C99.568 73.3366 99.4068 73.2031 99.2456 73.0696C99.4584 72.9029 99.6709 72.7361 99.8836 72.5692ZM120.858 100.464C121.204 100.254 121.274 101.056 121.311 101.208C121.084 101.082 120.313 100.793 120.858 100.464ZM52.1464 39.5593C51.546 40.3883 50.9469 41.2239 50.4532 42.1223C50.1789 42.6214 49.9785 43.3509 49.4801 43.6847C49.0364 43.9817 48.3055 44.0271 47.8076 44.1515C46.8086 44.4004 45.8179 44.6842 44.8464 45.0257C41.5307 46.1921 38.3826 48.1765 36.0521 50.8317C34.9293 52.1109 33.9918 53.5845 33.4643 55.2118C32.8595 57.0771 33.0634 59.0327 32.8416 60.9528C32.7886 61.414 32.6917 63.0588 32.1475 63.2668C31.4776 63.5229 31.288 61.9019 31.2072 61.4776C31.1059 60.9451 30.8248 57.3011 29.7745 57.6381C29.1342 57.8434 29.1303 59.9686 29.0911 60.4754C29.002 61.6263 28.8708 62.7682 28.652 63.9028C28.4812 64.7869 28.2546 65.6638 28.0428 66.5389C27.8566 67.3081 27.6545 68.2311 27.073 68.8105C26.6457 66.4673 26.5762 63.8346 27.3772 61.5632C27.5962 60.9417 28.973 57.7539 27.7555 57.4453C27.0283 57.2607 26.4518 58.9975 26.2549 59.4563C25.5954 60.9924 25.072 62.5854 24.5027 64.1563C24.1288 65.1876 23.7499 67.0475 22.8339 67.7643C22.5001 65.1751 23.2063 62.5938 24.0655 60.1757C24.2192 59.744 26.1278 55.4398 24.475 55.9063C23.5727 56.1609 22.9413 58.0872 22.5703 58.8313C21.6614 60.6541 20.5447 62.5493 19.0242 63.9275C18.9527 62.4846 19.8751 60.957 20.218 59.571C20.6122 57.978 21.1324 56.4964 21.975 55.0801C23.5351 52.4581 25.5724 49.978 27.5843 47.6922C29.6616 45.3324 32.0296 43.2311 34.6105 41.4376C37.2015 39.6372 39.9259 38.4949 42.992 37.7933C46.4248 37.008 50.1499 36.5438 53.5871 37.556C53.107 38.2238 52.6289 38.8932 52.1464 39.5593ZM108.927 42.9865C108.872 42.9976 108.817 43.0087 108.761 43.0197C108.716 42.7508 108.671 42.4818 108.625 42.2129C108.968 42.4141 108.677 42.7583 108.927 42.9865ZM94.5574 40.6631C98.6166 38.8739 102.895 37.5529 107.224 36.602C110.166 35.9555 113.503 35.6374 116.37 36.7707C119.681 38.079 121.053 41.5878 121.198 44.9419C121.368 48.8513 120.04 52.5589 118.125 55.9104C117.666 56.7151 115.209 61.5788 114.177 61.0373C114.525 60.0842 116.967 54.7107 115.35 54.2352C114.419 53.9616 113.698 56.6061 113.378 57.2012C113.161 57.6045 111.677 60.4288 111.182 60.187C111.65 58.6812 112.22 57.1279 112.175 55.5263C112.141 54.3167 111.51 53.7473 110.843 55.0004C109.388 57.736 107.858 60.5423 105.74 62.8295C105.54 61.1334 106.448 59.2608 107 57.6956C107.433 56.467 108.013 55.2429 108.151 53.9335C108.226 53.2242 108.204 51.8226 107.146 52.0687C106.224 52.2828 105.481 53.3379 104.752 53.884C105.303 52.8436 105.834 51.7896 106.467 50.7951C107.008 49.9426 107.658 49.1653 108.195 48.3107C108.435 47.9301 108.568 47.5603 108.72 47.1586C108.869 46.762 109.095 46.5417 109.35 46.1809C109.539 45.9125 109.643 45.685 109.701 45.3894C109.722 45.2791 109.646 45.1145 109.658 44.9898C109.678 44.7705 109.908 44.7123 109.832 44.4606C110.235 45.02 110.123 43.9204 110.116 43.7165C110.089 42.9992 110.379 42.2225 110.021 41.5554C109.266 40.1492 107.053 40.4221 105.745 40.5232C103.871 40.6681 101.525 41.0949 99.9204 42.1098C99.5099 42.3691 99.2522 42.2209 98.8069 42.4202C98.3998 42.6025 97.9855 42.7915 97.5677 42.9692C96.4819 43.4302 95.4452 44.0021 94.3744 44.4962C94.4313 43.6936 94.6132 42.9109 94.4866 42.109C94.4327 41.7654 94.0912 40.8686 94.5574 40.6631ZM123.107 102.917C122.751 100.541 122.35 98.1902 121.716 95.8706C121.413 94.7624 121.174 93.6319 120.856 92.5288C120.604 91.6522 119.833 91.2078 119.452 90.3913C118.555 88.4707 117.733 86.5684 116.653 84.7302C115.524 82.8096 114.176 81.1173 112.574 79.5729C109.323 76.4404 105.568 74.0471 101.933 71.411C100.067 70.0577 98.1328 68.8789 96.0502 67.8873C95.211 67.4875 94.4044 67.1684 93.5164 66.9082C92.5963 66.6388 92.1368 66.324 91.7962 65.3995C91.0969 63.5011 89.7852 62.8796 87.9937 62.1581C87.1834 61.8318 86.4463 61.3797 85.6478 61.0326C84.8174 60.672 83.939 60.3955 83.1665 59.9134C79.6522 57.7209 84.3442 53.1569 86.21 51.5137C86.9374 50.8733 87.76 50.2162 88.686 49.8983C89.6455 49.5688 90.9534 49.3751 91.9692 49.2846C92.6587 49.2235 93.6349 49.545 94.2077 48.9971C94.6695 48.5557 94.4909 47.8487 94.4343 47.2903C94.2752 45.7239 95.5614 45.6013 96.8565 45.3245C98.8798 44.892 100.771 43.9824 102.798 43.5276C104.091 43.2372 107.681 42.3683 107.703 44.5509C107.718 46.2055 106.481 47.8698 105.703 49.2221C105.095 50.2795 104.446 51.3015 103.803 52.3364C103.321 53.1104 102.886 53.9596 102.893 54.8948C102.899 55.6337 103.196 56.3634 104.062 56.2542C105.037 56.1314 105.767 55.1666 106.576 54.6996C106.609 55.7102 105.845 56.8407 105.551 57.7923C105.205 58.9146 104.9 60.0814 104.705 61.2401C104.58 61.9796 104.237 64.8273 105.734 64.462C106.742 64.2158 107.612 62.9151 108.199 62.1471C108.818 61.3379 109.373 60.4863 109.934 59.6364C110.284 60.6765 108.107 62.6884 109.212 63.6255C110.39 64.6259 112.432 61.0843 113.006 60.4302C113.106 61.2248 111.985 62.9847 113.253 63.349C114.151 63.6071 115.375 62.3835 115.94 61.8075C116.973 60.7551 117.099 59.2692 117.744 57.9952C118.482 56.5367 119.428 55.2075 120.112 53.7153C122.266 49.0134 123.362 42.0474 119.964 37.6121C117.671 34.6175 113.693 34.0991 110.175 34.3761C106.171 34.6913 102.255 35.9101 98.5099 37.3072C95.9951 38.2454 93.5211 39.2958 91.0612 40.3692C89.2461 41.1612 87.4395 41.9736 85.6387 42.7981C84.7673 43.1968 83.9185 43.6284 83.0709 44.0746C82.3716 44.4429 81.5404 44.8711 80.7261 44.6611C81.312 43.7708 82.4774 43.4758 83.3195 42.9057C84.3157 42.2311 84.8674 41.0784 85.2321 39.9631C85.6251 38.7619 85.9731 38.475 87.1799 38.1612C88.386 37.8478 89.5149 37.3422 90.5926 36.7171C93.1201 35.251 95.9131 34.4129 98.7856 33.9582C101.327 33.5561 104.015 33.3749 106.388 32.2991C108.154 31.4983 110.378 29.7263 108.227 27.946C109.749 26.8386 112.448 24.989 110.085 23.1777C108.253 21.7737 105.486 21.8824 103.302 21.8824C103.616 21.2479 104.622 21.0297 105.187 20.6847C105.885 20.2591 106.746 19.7985 106.988 18.9595C107.385 17.5877 105.887 17.1877 104.843 17.0501C100.874 16.5274 96.4131 16.9203 92.6531 18.302C92.8493 17.6101 93.8269 17.1004 94.3742 16.7293C95.1035 16.2348 95.825 15.6939 96.3574 14.9796C96.6381 14.6027 96.8475 14.1954 96.9033 13.7246C96.9633 13.217 96.9092 13.4315 96.7564 13.297C96.1929 12.8 95.3998 12.4871 94.6344 12.4538C92.4287 12.3574 90.4686 13.3955 88.3758 13.905C87.4504 14.1302 86.5869 14.2227 85.7009 14.6223C84.6324 15.1042 83.5316 15.5253 82.4747 16.0292C81.9836 16.2634 81.5215 16.5433 81.0257 16.7658C80.5761 16.9675 80.4719 17.2207 80.1092 17.5275C79.7764 17.809 79.4072 17.6698 79.03 17.8804C78.5081 18.1715 78.011 18.6792 77.5261 19.0413C75.6385 20.4513 73.8555 22.0703 72.3587 23.8955C69.7747 27.0464 67.2076 31.928 68.9707 36.0575C69.3827 37.0216 70.3543 37.3317 70.5957 38.3839C70.8071 39.3059 70.8407 40.2214 71.1125 41.1315C71.3881 42.0538 70.2837 42.9188 69.8123 43.6695C69.0747 44.8441 68.7534 46.1732 68.3381 47.481C68.2089 47.1291 68.1648 46.5358 67.8025 46.3285C67.3638 46.0778 67.3581 46.6012 67.0427 46.3653C66.6719 46.0879 66.3711 45.0052 66.1556 44.5739C65.8682 43.9987 65.5726 43.427 65.2417 42.8753C63.891 40.6227 61.8098 38.8823 59.5511 37.5829C54.9387 34.9295 49.3849 34.6454 44.2462 35.6093C39.0853 36.5774 34.6039 39.1473 30.6128 42.4972C28.4026 44.3522 26.4529 46.4075 24.6985 48.6997C22.9753 50.9514 21.1948 53.1445 19.9272 55.6972C19.2154 57.1306 18.5709 58.6162 18.1727 60.1706C17.8637 61.3768 17.5633 62.8415 17.9565 64.0649C18.293 65.112 19.2655 65.6744 20.2471 64.9938C21.1081 64.3966 21.4925 63.3179 22.0806 62.4914C22.1986 63.8608 20.533 68.902 22.9599 69.1393C24.752 69.3148 25.4091 65.1879 25.7888 63.9927C26.0431 65.6011 25.5627 67.3385 26.1668 68.8918C26.4597 69.6456 27.3745 71.01 28.149 69.9272C28.4957 69.4424 28.5212 68.7512 28.6453 68.187C28.8014 67.4761 28.9971 66.7741 29.1517 66.0627C29.5416 64.2697 29.759 62.4491 30.0601 60.6402C30.5667 61.8152 30.4711 63.9552 31.727 64.6831C33.0007 65.4211 33.5733 63.3106 33.7186 62.4564C33.9628 61.0201 33.846 59.5488 34.0565 58.1072C34.2699 56.6466 34.7895 55.3298 35.5759 54.0843C38.3739 49.654 43.621 46.307 48.9009 46.086C48.6162 47.1814 46.9909 50.0043 49.1132 50.0508C49.5916 50.0613 50.0302 49.9755 50.5152 50.0277C51.1117 50.0917 51.8214 50.3975 52.4175 50.3544C52.7792 50.3281 52.7653 50.1771 53.1361 50.3935C53.5246 50.6203 53.5757 50.9563 54.0007 50.4271C54.3207 51.022 55.0672 51.1805 55.6319 51.4402C55.6385 51.2865 55.6453 51.1328 55.6519 50.979C56.002 51.4776 56.3816 51.5671 56.9181 51.811C57.2615 51.967 57.5035 51.919 57.813 51.9996C58.1876 52.097 58.3751 52.3041 58.7125 52.4958C59.0784 52.7038 59.72 52.6783 60.0009 53.0044C60.4979 53.5811 59.7297 54.5549 59.4527 55.0478C58.674 56.4334 58.1606 58.0391 57.8232 59.5857C57.7371 59.9801 57.6547 60.2588 57.7181 60.6502C57.7733 60.9906 57.875 60.7447 57.8123 61.0802C57.7901 61.1988 57.5694 61.4485 57.5301 61.5339C57.1965 62.2584 57.246 63.2189 57.2285 64.0004C57.1863 65.8684 57.4233 67.635 57.9319 69.4311C58.1551 70.2189 58.3518 71.0402 58.6333 71.8088C58.8949 72.5229 59.2909 72.9592 59.1515 73.7312C58.8527 75.3869 60.584 75.8358 61.529 76.873C61.9571 77.343 62.0334 77.9431 62.1299 78.5484C62.2682 79.421 62.5557 80.2229 62.9106 81.0317C63.5322 82.4487 64.3842 84.2988 65.5528 85.3451C66.0784 85.8157 66.5611 86.3364 67.1587 86.6876C67.4382 86.8518 67.7875 87.2535 68.099 87.3309C68.3939 87.404 68.2884 87.0902 68.6087 87.3497C68.8539 87.5482 68.8406 87.844 69.1813 88.0692C69.5079 88.2852 69.8598 88.4657 70.2036 88.6523C70.9024 89.0313 71.6572 89.39 72.2933 89.8689C72.9091 90.333 73.5224 90.8218 74.1413 91.29C74.7108 91.7212 75.1107 92.2575 75.2948 92.9561C76.1035 96.0246 73.2685 98.6179 70.8504 99.901C67.7209 101.562 64.1737 101.211 60.9547 100.002C57.6177 98.7496 54.3227 96.4507 52.3348 93.4527C51.8408 92.7077 51.3399 91.9096 50.9652 91.0963C50.7187 90.5614 50.648 89.9036 50.3165 89.4125C49.5729 88.3113 47.9759 89.89 47.2027 90.3033C46.0643 85.4917 43.8784 80.0592 38.7961 78.337C33.9788 76.7045 27.9428 78.644 24.8127 82.617C24.075 83.5534 23.0192 85.0708 23.516 86.3246C23.9483 87.4153 25.3713 87.6619 26.3973 87.7712C27.8602 87.9274 29.3996 87.7398 30.8114 87.3427C31.174 87.2407 31.7951 86.9499 32.1797 87.0621C32.7773 87.2367 32.7548 88.1067 33.0564 88.5597C33.3617 89.0183 33.8045 88.97 33.9078 88.3817C34.0061 87.8199 33.4896 87.2918 33.9266 86.7928C34.1698 86.5151 34.9906 86.2857 35.3323 86.5019C35.6182 86.6829 35.6438 87.251 35.8709 87.5123C36.4971 88.2328 36.5652 87.065 36.6935 86.5723C36.8861 85.8316 37.728 85.2554 38.5452 85.5869C39.0565 85.7944 39.1845 86.5804 39.3169 87.0554C39.5875 88.0256 39.7738 88.9623 40.1402 89.9077C40.4199 90.629 41.6049 92.6378 41.0366 93.3414C40.6856 93.776 39.7994 94.0194 39.2899 94.187C38.5799 94.4207 37.7282 94.5605 37.0766 94.9281C36.7701 95.1011 36.0943 95.5727 35.9997 95.9301C35.8394 96.5357 36.5755 96.5629 36.9179 96.2557C37.9895 99.4369 39.2547 102.566 41.2226 105.308C43.1973 108.06 45.7612 110.341 48.4635 112.355C53.7482 116.295 59.9645 118.919 66.548 119.544C69.9154 119.864 73.3971 119.582 76.5844 118.414C76.9439 118.282 77.3087 118.129 77.6888 118.067C78.0331 118.011 78.3864 118.13 78.7197 118.074C79.1522 118.003 79.0362 117.836 79.3109 117.604C79.5647 117.391 79.9607 117.317 80.2416 117.132C81.6412 116.214 82.9108 114.922 84.005 113.664C86.0606 111.3 88.0979 108.354 89.0661 105.35C90.0392 102.332 90.0855 99.1255 90.3782 95.9964C90.5594 94.061 89.9768 92.2629 89.6591 90.3713C89.3338 88.4341 88.9535 86.5292 88.5062 84.6194C88.3291 83.8642 88.3277 83.3177 88.9198 82.7678C89.381 82.34 89.9573 82.0031 90.5706 82.2948C91.2127 82.6004 91.7946 83.267 92.3811 83.6812C92.9857 84.1083 93.2689 84.678 93.871 83.9668C93.871 84.5842 94.1684 84.7699 94.6879 84.9729C95.3848 85.2452 96.0355 85.5367 96.666 85.951C98.0295 86.8472 99.0597 88.2032 99.8293 89.6271C100.65 91.1454 101.594 92.6993 102.164 94.3321C102.785 96.1118 102.863 98.1184 102.926 99.9878C102.991 101.942 103.011 103.91 102.899 105.862C102.794 107.709 102.691 109.783 102.147 111.558C101.547 113.515 99.6043 115.732 102.232 117.037C104.075 117.953 106.308 117.732 108.122 118.674C107.888 119.049 107.731 119.473 107.476 119.835C107.155 120.292 106.869 120.287 106.374 120.47C105.466 120.806 105.905 121.351 105.812 122.07C105.729 122.708 104.876 123.435 104.469 123.904C103.857 124.61 103.223 125.309 102.729 126.107C101.657 127.835 101.658 129.719 102.639 131.486C103.502 133.039 104.735 134.804 106.251 135.768C107.905 136.821 109.856 137.729 111.672 138.46C113.305 139.117 115.032 139.537 116.779 139.749C118.088 139.907 119.889 140.061 120.937 139.075C121.898 138.171 122.125 136.733 121.675 135.531C120.62 132.715 117.395 131.02 115.051 129.425C115.794 129.165 116.773 129.077 117.35 128.486C118.071 127.746 117.405 127.112 116.576 127.12C115.858 127.128 115.125 127.362 114.442 127.57C113.834 127.754 112.719 128.27 112.104 127.898C111.291 127.407 112.181 126.911 112.619 126.689C113.443 126.272 113.398 125.742 112.6 125.307C111.312 124.606 113.158 124.575 113.351 123.943C113.594 123.143 112.58 122.374 112.651 121.501C112.718 120.668 112.975 119.206 113.625 118.61C114.073 118.199 114.841 118.236 115.404 118.144C116.314 117.997 117.205 117.726 118.083 117.446C118.35 119.016 119.599 117.605 120.091 116.978C121.019 115.797 121.403 114.368 121.893 112.973C122.444 111.402 122.913 109.86 123.205 108.217C123.523 106.426 123.374 104.704 123.107 102.917Z" fill="#1C1C1C"/>
<path fill-rule="evenodd" clip-rule="evenodd" d="M61.5139 121.735C61.2587 122.023 60.0367 121.625 59.7013 121.583C58.7055 121.459 57.7721 121.491 56.7868 121.242C56.0321 121.051 54.9261 120.631 54.1907 120.743C54.129 120.752 54.201 120.958 54.096 120.956C53.9593 120.955 53.8862 120.854 53.7495 120.802C53.4255 120.677 53.1697 120.396 52.8293 120.641C52.6683 119.88 52.3904 120.547 52.0081 120.541C51.6052 120.535 51.7526 120.055 51.3301 119.993C50.9947 119.944 50.8546 120.152 50.4836 120.009C49.9696 119.811 49.6052 119.522 49.0409 119.384C48.4027 119.228 47.981 119.005 47.3938 118.744C46.8803 118.517 46.3111 118.444 45.7904 118.23C44.4433 117.675 43.1239 116.989 41.8444 116.294C39.41 114.974 37.0066 113.731 34.8187 112.009C34.0179 111.379 33.4532 110.68 32.8186 109.896C32.3878 109.363 31.6465 108.34 30.8412 108.509C31.0296 107.987 30.5272 107.534 30.1965 107.212C29.6855 106.714 29.2499 106.189 28.8272 105.611C28.4294 105.067 28.1501 104.518 27.9035 103.896C27.7164 103.425 27.5956 102.954 27.0825 103.426C26.0603 104.365 27.3725 106.218 27.9396 107.043C28.8772 108.408 29.8106 109.796 30.9267 111.022C33.0081 113.309 35.38 115.391 38.0492 116.956C39.4284 117.765 40.8815 118.48 42.3778 119.044C43.7145 119.547 45.0346 119.812 46.4064 120.171C47.2236 120.386 48.0012 120.67 48.8352 120.819C49.1595 120.878 49.4785 120.956 49.8083 120.973C49.8937 120.977 50.0347 120.865 50.089 120.87C50.2202 120.882 50.3204 121.002 50.5122 121.044C50.7409 121.094 50.9675 121.073 51.1457 121.149C51.2183 121.18 51.3971 121.406 51.5867 121.476C51.8954 121.59 52.1339 121.643 52.4503 121.547C52.7181 121.465 52.9358 121.185 53.2362 121.213C53.1944 121.393 53.1522 121.573 53.1102 121.753C53.416 121.635 53.5586 121.742 53.8393 121.687C53.785 121.698 54.4268 121.55 54.3622 121.533C54.4067 121.545 54.5722 121.848 54.7314 121.924C55.3891 122.235 56.1917 122.003 56.8866 122.056C57.5999 122.11 58.3 122.214 59.0188 122.266C59.5478 122.304 62.0338 122.625 62.0883 121.718C61.8953 121.674 61.7039 121.679 61.5139 121.735Z" fill="#1C1C1C"/>
<path fill-rule="evenodd" clip-rule="evenodd" d="M128.525 38.4375C128.73 36.6799 128.146 35.2127 127.691 33.5611C127.319 32.2078 126.857 30.8596 125.913 29.7741C125.056 28.7882 123.759 27.528 122.369 27.4611C121.289 27.4091 120.551 28.255 121.494 29.0377C122.434 29.8186 123.288 30.3235 124.032 31.3421C124.888 32.5155 125.534 33.8401 126.013 35.2077C126.886 37.6992 127.381 40.6374 126.556 43.1968C126.474 43.4506 126.151 44.1763 126.474 44.3802C126.845 44.6134 127.131 44.0551 127.232 43.8162C127.327 43.5933 127.751 41.4848 128.128 41.7663C128.104 41.476 127.979 41.3402 127.997 41.0536C128.007 40.8877 128.15 40.6522 128.163 40.4376C128.206 39.734 128.444 39.1276 128.525 38.4375Z" fill="#1C1C1C"/>
<path fill-rule="evenodd" clip-rule="evenodd" d="M63.5604 29.2458C64.6941 29.2705 64.7333 26.7264 65.0864 26.0362C65.2522 25.7122 65.4245 25.3223 65.608 25.0202C65.7506 24.7857 65.9251 24.7504 66.0296 24.5641C66.3781 23.9456 66.1357 23.454 65.9796 22.8561C66.3913 22.7899 66.531 22.7915 66.679 22.3798C66.7228 22.2583 66.6183 22.0377 66.7049 21.9461C66.8241 21.8202 67.0257 21.8884 67.1471 21.7827C67.1787 21.755 67.1667 21.4897 67.2051 21.3902C67.2918 21.1652 67.361 21.079 67.5279 20.9071C67.7523 20.6755 68.3633 20.5496 68.1609 20.1444C68.3119 20.138 68.4557 20.1028 68.5926 20.0388C68.6366 19.8365 68.225 19.9134 68.2584 19.7972C68.3296 19.5506 68.7165 19.2261 68.9615 19.1757C68.7524 19.0668 68.5435 18.9578 68.3346 18.8487C68.8596 18.7381 68.8449 18.4263 69.3795 18.7803C69.3208 18.2863 69.9946 17.8329 70.2866 17.5147C70.8356 16.9167 71.4499 16.4095 72.057 15.8712C72.5847 15.4033 73.0728 14.9044 73.5655 14.4009C73.8173 14.1433 74.0735 13.8895 74.363 13.6741C74.6588 13.454 74.8899 13.4971 75.1619 13.3467C75.5961 13.1066 75.859 12.6195 76.2956 12.3747C76.4922 12.2643 76.5763 12.3892 76.7195 12.251C76.8531 12.1218 76.9743 11.6957 76.8964 11.5308C76.569 10.8368 74.2018 12.6777 73.8303 12.917C69.3169 15.8248 65.6833 19.8329 63.7062 24.8619C63.4376 25.5453 61.9063 29.2097 63.5604 29.2458Z" fill="#1C1C1C"/>
<path fill-rule="evenodd" clip-rule="evenodd" d="M62.2668 122.173C62.5746 122.106 62.8839 122.039 63.3391 121.94C62.5256 121.494 62.459 121.516 62.2668 122.173Z" fill="#1C1C1C"/>
<path fill-rule="evenodd" clip-rule="evenodd" d="M78.2124 41.7522C78.8177 41.6948 80.1383 41.0701 79.9385 40.2182C79.7543 39.4319 79.0409 40.2791 78.5528 40.1905C78.0314 40.096 77.7894 38.9821 77.3512 40.1181C77.1159 40.7282 77.4629 41.8231 78.2124 41.7522Z" fill="#1C1C1C"/>
</svg>
