<svg width="158" height="157" viewBox="0 0 158 157" fill="none" xmlns="http://www.w3.org/2000/svg">
<circle cx="78.971" cy="78.413" r="78.2104" fill="white"/>
<path fill-rule="evenodd" clip-rule="evenodd" d="M54.5193 67.832C54.9932 72.6362 55.4672 77.4405 55.941 82.2446C58.5212 80.7664 61.1015 79.2881 63.6816 77.81V88.7547V91.6314C63.6816 91.886 63.5311 92.7604 63.6816 92.9809C63.8093 93.1678 64.7547 93.1732 64.9783 93.2047C66.4371 93.4098 67.8995 93.5922 69.3639 93.7545C73.2235 94.1825 77.3543 94.7956 81.2287 94.3039C84.5964 93.8764 87.8613 92.6737 90.9381 91.2744C92.0183 90.7831 93.0835 90.2572 94.1289 89.6953C94.3505 89.5762 95.1551 89.2949 95.2756 89.0525C95.374 88.8543 95.143 88.1582 95.1122 87.95C94.9823 87.0721 94.8522 86.1942 94.7222 85.3165L92.9063 73.0585L96.3366 76.4978C96.6053 76.7672 97.1156 77.5322 97.4875 77.6516C97.7601 77.7392 98.4352 77.4681 98.7048 77.4161C100.647 77.0403 102.589 76.6643 104.532 76.2887C104.984 76.2011 106.004 76.2044 106.386 75.93C106.591 75.7821 106.601 75.4813 106.673 75.1962C107.147 73.3327 107.621 71.4693 108.094 69.6061C108.18 69.2704 108.656 68.2122 108.535 67.8741C108.491 67.7531 108.281 67.6702 108.153 67.5912C105.221 65.7935 102.29 63.9957 99.3581 62.198C97.7521 61.2132 96.1461 60.2284 94.5402 59.2436C93.8676 58.831 93.0412 58.0877 92.279 57.8569C91.8058 57.7137 91.1174 57.821 90.6278 57.8069C89.6326 57.7784 88.6378 57.7499 87.6427 57.7214C87.4869 57.717 86.9413 57.6055 86.8101 57.6976C86.701 57.7743 86.7463 57.8811 86.7105 58.0639C86.623 58.5103 86.6224 58.9916 86.5792 59.4447C86.5446 59.8083 86.6133 60.4751 86.4502 60.8042C86.3459 61.0146 86.4781 60.9308 86.3371 61.0325C86.1691 61.1535 85.633 61.1146 85.4332 61.1378C84.4581 61.2516 83.4831 61.3652 82.508 61.4789C81.3488 61.6141 80.1766 61.8678 79.012 61.7509C77.2464 61.5739 75.3426 61.5827 73.6088 61.2093C73.1583 61.1122 72.996 60.8573 72.6484 60.5089C71.9701 59.8287 71.2986 59.1407 70.6127 58.4679C70.2766 58.1381 70.4206 58.1941 70.074 58.3191C69.6398 58.4758 69.1993 58.854 68.8063 59.0944C67.3004 60.0153 65.7945 60.9364 64.2885 61.8573L55.0947 67.4801C54.9028 67.5974 54.7111 67.7147 54.5193 67.832Z" fill="#F0DD33"/>
<path fill-rule="evenodd" clip-rule="evenodd" d="M142.457 68.4293C140.562 75.6534 136.75 83.5304 129.071 85.8331C127.204 86.3929 125.387 86.8156 123.448 86.6024C123.264 86.5821 123.109 86.6081 122.934 86.6115C122.619 86.6175 122.891 86.7309 122.538 86.6216C122.263 86.5363 122.005 86.3231 121.719 86.2288C120.957 85.9785 120.144 85.9301 119.37 85.7278C117.467 85.2308 115.506 84.6172 113.662 83.9317C112.794 83.6091 111.996 83.1596 111.179 82.7273C110.349 82.288 109.469 82.015 108.63 81.6121C107.966 81.2935 106.83 80.8785 106.364 80.2809C105.866 79.6437 106.554 78.2872 106.751 77.6098C107.42 75.3049 108.216 73.0337 108.719 70.6828C110.455 72.7026 112.864 73.9534 115.358 74.7601C116.711 75.1979 118.103 75.5143 119.511 75.7124C120.789 75.8921 122.168 76.1097 123.449 75.8545C124.416 75.6618 125.629 75.2155 126.32 74.4744C126.567 74.2098 126.862 73.7249 126.724 73.3406C126.549 72.8528 126.038 73.0824 125.762 72.7184C125.521 72.4012 125.559 71.6595 125.482 71.2734C125.346 70.5899 125.16 69.9253 124.932 69.2674C124.49 67.9901 123.94 66.7099 123.808 65.3507C123.693 64.1715 123.96 63.0563 124.546 62.0331C124.823 61.5494 125.519 60.2334 126.197 60.2881C126.942 60.3481 125.937 63.5014 125.904 64.1447C125.774 66.6945 126.115 69.4116 127.418 71.6465C127.917 72.5023 128.639 73.4986 129.704 73.6047C130.833 73.7169 131.743 72.8255 132.28 71.9235C133.591 69.723 132.93 66.7033 132.266 64.397C131.452 61.5673 129.327 59.6169 127.983 57.0756C129.989 57.278 131.064 58.5576 132.093 60.1811C133.227 61.9684 134.109 64.1142 134.544 66.1939C134.764 67.2446 134.612 68.2997 134.614 69.3608C134.614 69.7133 134.614 71.0137 135.187 70.9624C135.798 70.9077 136.008 69.4411 136.098 68.9936C136.304 67.9674 136.528 66.941 136.707 65.9097C137.023 64.085 137.164 62.2162 137.544 60.404C137.608 60.0978 137.736 59.2479 138.192 59.4773C138.545 59.654 138.488 60.9685 138.501 61.274C138.533 62.0269 138.577 62.7798 138.583 63.5334C138.592 64.6504 138.37 65.8067 138.479 66.9169C138.55 67.6423 138.938 68.4438 139.419 67.4656C139.895 66.4953 139.993 65.2854 140.258 64.242C140.538 63.1465 140.826 62.0349 141.418 61.0619C141.583 60.792 141.76 60.3634 142.125 60.4904C142.39 60.5828 142.586 61.2145 142.668 61.4374C143.039 62.445 142.976 63.5652 142.952 64.6199C142.924 65.9124 142.786 67.1761 142.457 68.4293ZM105.5 70.304C105.399 70.2711 104.969 70.2302 104.862 70.2208C104.737 70.2099 104.879 69.9785 104.576 70.0442C104.635 70.1897 104.739 70.2867 104.888 70.3354C104.433 70.4899 104.097 70.1082 103.786 70.0591C103.488 70.0121 103.476 70.0591 103.182 70.3748C102.863 69.985 102.923 70.2281 102.661 70.2282C102.566 70.2284 102.562 70.3728 102.407 70.3555C102.271 70.3404 102.257 70.1343 102.177 70.11C101.743 69.978 101.296 70.6421 100.803 70.0661C100.684 70.6654 99.3166 69.9147 98.7904 70.02C98.2389 70.1302 98.4768 70.3287 98.0311 69.9894C97.6063 69.6661 97.7248 69.8809 97.2308 70.1455C97.2423 70.1393 96.9519 70.3361 96.9789 70.3393C96.6369 70.2991 96.6564 69.9442 96.2233 69.963C95.7649 69.983 95.5692 70.3438 95.1496 69.8998C95.0584 70.2323 95.0395 70.0891 94.8246 70.1729C94.7063 70.2011 94.6029 70.1699 94.5141 70.0794C94.4873 70.1708 94.4282 70.2268 94.3368 70.2475C94.1027 70.2685 93.6631 70.3013 93.4505 70.1881C93.1314 70.0182 93.3878 69.9529 93.1666 69.7618C93.0674 70.2887 92.85 70.1767 92.3915 70.2259C92.0418 70.2635 91.9647 70.1558 91.6306 70.1033C91.3016 70.0518 90.8764 70.18 90.5554 70.2346C90.4228 70.2573 90.2455 70.3501 90.1105 70.3175C89.989 70.2881 89.937 70.1934 89.8644 70.1685C89.7762 70.1388 89.7949 70.0614 89.6427 70.0238C89.5376 69.9982 89.3495 70.097 89.2446 70.1141C88.4963 70.2361 87.7777 70.2373 87.0639 69.9418C87.4154 70.5621 86.2422 70.2272 86.033 69.9703C85.7716 70.3816 85.4552 70.0912 84.9283 70.1233C84.4209 70.1543 83.6576 70.3103 83.4519 69.6758C83.4116 69.8047 83.1236 70.1791 83.009 70.2362C82.6763 70.4017 82.6366 70.1568 82.3274 70.0571C81.9064 69.9213 81.9943 70.1791 81.7331 70.2314C81.2926 70.32 81.0544 70.0085 80.665 69.8428C80.6485 70.1003 80.6401 70.2587 80.4183 70.419C80.222 69.7011 79.5212 70.4778 79.6415 69.5184C79.3748 69.6927 78.9997 69.8266 78.9238 70.1791C79.3696 70.0559 78.9713 70.3485 78.9526 70.3582C78.8937 70.3891 78.6946 70.1086 78.6485 70.0691C78.6358 70.2014 78.6233 70.3338 78.6107 70.4661C78.4331 70.377 78.2663 70.2173 78.1221 70.1373C77.9922 70.0653 78.1783 69.9153 77.9588 69.905C77.8432 69.8994 77.7225 70.1509 77.6011 70.1724C77.4155 70.205 77.5047 69.9377 77.4269 69.9466C77.3086 69.9603 77.1157 70.1341 77.0262 70.1308C76.7328 70.1199 76.9314 69.9827 76.7074 69.9198C76.3073 69.8074 76.3329 70.0702 76.0453 70.1649C75.387 70.3819 75.4531 69.3835 74.7836 70.0494C74.6233 70.2087 74.5202 70.4548 74.3007 70.441C73.8463 70.4123 74.0058 69.8715 74.0982 69.6066C74.1937 69.6539 72.4377 70.5595 72.4516 70.524C72.4626 70.3069 72.7389 70.1394 72.4921 69.9465C72.2903 70.3813 72.0779 70.3888 71.6124 70.4698C71.3862 70.5092 71.3416 70.5618 71.0995 70.4673C70.9453 70.4073 70.8417 70.1603 70.6884 70.1467C70.7091 70.1487 70.4276 70.3637 70.3847 70.3829C70.1307 70.498 69.9699 70.3676 69.7232 70.4149C69.5126 70.4552 69.4297 70.635 69.2204 70.5857C68.941 70.5201 69.1051 70.185 68.7206 70.2785C68.5892 70.3105 68.5102 70.5648 68.3031 70.6172C67.9803 70.6994 67.5847 70.5463 67.2436 70.6262C66.9728 70.6897 66.7719 70.7165 66.5351 70.7297C66.3438 70.7404 66.4225 70.591 66.0703 70.7674L65.9211 70.3895C65.7448 70.5487 65.5685 70.7077 65.3922 70.867C65.3588 70.7242 65.3375 70.5798 65.3286 70.4334C65.0657 70.6978 64.7347 70.743 64.3812 70.7668C63.9986 70.7926 63.7135 70.8762 63.3411 70.9465C63.2234 70.9686 62.9202 71.0041 62.8234 70.9627C62.8376 70.9688 62.6423 70.8873 62.7011 70.9027C62.6758 70.8509 62.6522 70.7982 62.6305 70.7445C62.5976 70.5954 62.4907 70.5889 62.3102 70.7248C62.2168 70.7104 62.0357 70.5874 61.9425 70.6177C61.7024 70.6959 61.735 70.8829 61.4958 70.8554C61.3405 70.8376 61.2612 70.6072 61.0996 70.5916C60.8522 70.5678 60.6377 70.8457 60.4148 70.9064C61.0926 70.7216 59.5357 70.865 60.0198 70.8777C59.7023 70.8694 59.3729 70.8536 59.0796 70.9964C58.9175 70.8851 59.1143 70.6615 58.9505 70.5695C58.802 70.486 58.7905 70.7065 58.7732 70.7113C58.8669 70.6847 58.8201 70.8723 58.7264 70.9056C58.4343 71.0096 58.2005 70.7453 58.1854 70.4831C57.9373 70.8582 57.8676 70.7074 57.5026 70.7306C57.1426 70.7535 56.8321 70.9429 56.472 70.9394C55.7597 70.9326 55.2764 70.684 55.0387 70.0456C55.7976 70.1385 56.5615 69.6484 57.3037 69.7639C57.5476 69.8018 57.6999 69.9857 57.9136 69.953C58.1768 69.9128 58.3607 69.6245 58.6983 69.5934C59.4429 69.5251 60.1769 69.5916 60.9266 69.477C61.8221 69.34 62.7565 69.2589 63.6606 69.3256C64.3593 69.3773 64.925 69.1091 65.6335 69.0574C66.5496 68.9904 67.4731 68.9786 68.3908 68.9303C69.3336 68.8805 70.3482 68.7295 71.2884 68.778C71.5819 68.793 71.8346 68.8219 72.1259 68.8043C72.2491 68.7969 72.3657 68.7128 72.4949 68.7254C72.6634 68.7417 72.7357 68.9148 72.9103 68.9087C73.2071 68.8986 73.5243 68.6531 73.8771 68.6464C74.4571 68.6354 75.0346 68.6367 75.6162 68.6035C76.1281 68.5743 76.6766 68.4543 77.1863 68.4608C77.5459 68.4653 77.6346 68.7728 77.8441 68.8046C78.2209 68.8616 80.1266 67.7728 80.2913 68.7501C81.2834 68.0683 82.6139 68.6455 83.7183 68.5175C85.1369 68.3529 86.5817 68.4996 88.01 68.4409C89.4633 68.3814 90.9585 68.4365 92.4062 68.5741C93.0058 68.6311 93.5851 68.6846 94.1864 68.6501C94.4545 68.6346 94.7644 68.5659 95.0324 68.6279C95.0973 68.6431 95.5945 68.9915 95.5328 69.0015C95.8043 68.7567 95.6206 68.7208 96.0983 68.7082C96.4666 68.6985 96.8148 68.7784 97.181 68.8002C97.8383 68.8392 98.5005 68.7478 99.1563 68.7679C99.7039 68.7848 100.239 68.8658 100.79 68.8698C101.383 68.8742 102.084 68.891 102.513 69.3712C102.468 69.2205 102.423 69.0697 102.377 68.9189C103.039 68.9709 103.694 69.2082 104.363 69.0972C104.194 69.2602 104.022 69.3932 103.957 69.6322C104.318 69.5861 104.563 69.333 104.943 69.3311C105.262 69.3291 105.329 69.4899 105.666 69.2821C105.707 69.5367 105.749 69.7913 105.79 70.0458C106.257 69.9354 105.951 69.586 105.985 69.2709C106.364 69.3853 106.686 69.2539 106.536 69.8019C106.421 70.2244 105.895 70.4326 105.5 70.304ZM104.844 75.0103C104.681 75.4695 103.273 75.2071 102.94 75.1585C102.51 75.0961 102.018 74.9968 101.622 74.9475C101.574 74.8839 101.517 74.8299 101.451 74.7855C101.401 74.8553 101.338 74.9048 101.262 74.9338C101.08 74.9738 101.079 75.1623 100.84 75.1206C100.829 75.3996 101.022 75.2411 101.17 75.3423C100.798 75.5931 100.968 75.3044 100.759 75.309C100.707 75.2352 100.635 75.2062 100.543 75.2221C100.425 75.2528 100.316 75.3034 100.217 75.374C100.124 75.4728 100.044 75.4778 99.9774 75.3894C99.9137 75.3252 99.8361 75.2855 99.7444 75.2705C99.3773 75.3303 99.2746 75.4939 98.8612 75.4672C98.2706 75.429 97.6317 75.5852 97.0503 75.5029C96.69 75.452 96.0879 74.8836 95.9243 75.4376C95.6753 75.027 95.2785 74.7475 95.04 74.3279C96.151 74.2633 97.2616 74.1865 98.3736 74.1462C99.3471 74.111 100.412 74.2211 101.322 74.175C102.174 74.1318 103.077 74.0372 103.947 73.9592C104.869 73.8764 105.174 74.0797 104.844 75.0103ZM75.8607 75.078C76.2641 75.1902 76.6483 74.936 77.0395 75.0163C77.1688 75.0429 77.4366 75.2793 77.4955 75.284C77.6032 75.2926 77.9199 75.0604 78.0557 75.0294C78.915 74.833 79.956 74.8539 80.8151 74.9745C81.2704 75.0383 81.3403 74.8292 81.7377 74.7277C82.1506 74.6219 82.7378 74.7033 83.1726 74.6742C84.1958 74.6054 85.2186 74.6543 86.2348 74.5791C87.2781 74.502 88.3162 74.4603 89.3599 74.4064C90.071 74.3697 91.7796 73.9625 92.3689 74.4925C92.8549 74.9294 92.2288 75.688 91.7428 75.8612C91.3792 75.9903 91.2051 75.718 90.9353 75.7441C90.628 75.7736 90.7351 76.1381 90.4609 75.8C90.2909 76.1362 89.2226 75.9929 88.9165 76.0152C88.2494 76.0635 87.685 76.1979 87.2308 75.5731C87.2616 75.7531 87.2924 75.9335 87.3232 76.1137C86.7211 75.7906 86.0748 75.8939 85.5521 76.0067C85.2933 76.0624 84.4987 76.4478 84.2183 76.2816C84.0254 76.1673 84.3655 75.9718 84.0399 75.8742C83.8693 75.823 83.5749 76.1074 83.3664 76.0932C82.7895 76.0533 82.9532 75.6639 82.3866 76.1596C82.1946 75.9929 82.1307 75.7095 82.1561 75.4666C81.7445 75.8191 81.7789 76.4066 81.0429 76.299C80.7687 76.259 80.7183 75.9782 80.5753 75.9264C80.2707 75.8159 80.2362 76.0144 79.9723 76.1716C79.8727 76.2308 79.7512 76.3261 79.6339 76.3381C79.393 76.3622 79.3548 76.2511 79.3218 76.2547C79.1615 76.2725 78.9595 76.3543 78.7694 76.2958C78.5986 76.2434 78.5487 75.9409 78.248 76.0117C77.9602 76.0794 77.9578 76.2757 78.01 76.5695C77.7261 76.54 77.5545 76.3813 77.3421 76.2093C77.1278 76.7113 76.6765 76.2955 76.4268 76.7191C76.1017 76.3293 75.8931 76.4366 75.4897 76.0559C75.5096 76.2147 75.5294 76.3736 75.549 76.5325C75.2343 76.4716 75.0942 76.2487 74.8255 76.5436C74.5649 76.0561 73.7746 76.7507 73.3686 76.2799C73.1876 76.8762 71.9904 76.7336 71.4847 76.7439C71.0366 76.7532 70.7048 76.7163 70.267 76.8208C69.8801 76.913 69.3438 77.0088 68.9799 76.9665C68.7422 76.939 68.4823 76.8952 68.186 76.9276C67.759 76.974 67.3901 77.196 66.9477 77.091C66.2817 76.9329 65.8734 76.0544 66.6152 75.6686C67.123 75.4046 68.0376 75.5023 68.5964 75.4535C69.5224 75.3728 70.5602 75.2035 71.4874 75.2805C72.2107 75.3405 72.87 75.1673 73.6079 75.0941C74.1635 75.0391 75.0741 74.9398 75.4365 75.4926C75.5756 75.3312 75.5612 74.9948 75.8607 75.078ZM65.7235 82.6454C65.624 82.1482 69.8576 81.8744 70.2778 81.842C71.1601 81.7736 72.0447 81.725 72.929 81.7024C73.6559 81.6839 74.3344 81.8232 75.0615 81.7112C75.7405 81.6066 76.5601 81.3922 77.1512 81.8748C77.2381 81.2147 79.7865 81.5363 80.2713 81.5381C82.3819 81.5457 84.4014 81.5507 86.4428 81.4195C87.6095 81.3444 88.8484 81.2435 90.0153 81.3022C90.5416 81.3287 90.9655 81.4695 91.4888 81.3472C91.8302 81.2676 92.198 81.1017 92.5246 81.3361C92.9066 81.6107 93.07 82.5427 92.8067 82.9317C92.615 83.2151 92.4452 83.1837 92.139 83.1346C91.6682 83.0595 91.3183 82.95 90.8382 83.1422C90.916 83.111 90.5166 83.2005 90.5496 83.198C90.0058 83.2387 89.2599 83.6202 88.7912 83.1805C88.979 83.2136 89.2519 82.877 89.0152 82.8493C88.8374 82.8287 88.7247 83.0199 88.586 83.084C88.1114 83.3031 87.8686 83.2346 87.5852 82.7749C87.0138 83.2715 86.9522 83.134 86.7014 82.5225C86.5082 82.6718 86.4667 83.0252 86.3147 83.141C86.292 83.1583 86.3856 83.3728 86.2759 83.3641C86.174 83.3557 86.1406 83.1881 86.0623 83.1749C86.0123 83.1664 85.9862 83.0194 85.9384 83.0105C85.8865 83.0008 85.8332 83.0946 85.7743 83.0919C85.6173 83.0845 85.1683 83.42 85.3293 82.9491C85.0913 83.253 84.989 83.0593 84.9031 82.7827C84.6284 82.9925 84.3538 83.2021 84.079 83.4116C83.9513 83.0551 83.7314 83.1522 83.4549 83.2768C83.5382 83.0291 83.486 82.7949 83.2769 82.967C83.1557 83.0667 83.0745 83.3831 82.9506 83.5176C82.449 83.0076 82.2667 83.1475 81.5738 83.2139C81.3093 83.239 80.9806 83.2881 80.7444 83.1276C80.5365 82.9867 80.4191 82.4693 80.0638 82.8873C80.143 82.7944 80.019 83.5085 79.9971 83.6218C79.8404 83.5159 79.7073 83.3854 79.5977 83.2308C79.3933 83.6371 78.8566 83.2725 78.4169 83.3556C77.7246 83.4863 77.0105 83.7065 76.3989 83.1892C76.3557 83.3562 75.8548 83.5689 75.854 83.5755C75.8838 83.2796 76.0696 83.3836 75.6901 83.3275C75.6202 83.3172 75.541 83.4433 75.475 83.4571C75.2488 83.5041 74.9845 83.4595 74.7564 83.453C73.8078 83.4256 72.9394 83.6367 72.0027 83.7132C71.687 83.7388 71.3124 83.7894 71.0159 83.67C70.7106 83.5467 70.7189 83.4068 70.4099 83.4862C70.5077 83.4612 70.2169 83.7679 70.2326 83.7564C70.1911 83.7867 70.0178 83.637 69.9562 83.6482C69.9382 83.7137 69.9203 83.779 69.9023 83.8444C69.8277 83.8352 69.7533 83.826 69.6789 83.8169C69.4752 83.8443 69.2915 83.6373 69.1001 83.6303C69.1353 83.6315 68.5836 83.8378 68.6088 83.8503C68.2236 83.6574 68.3342 83.7134 67.8456 83.8308C67.3838 83.9417 66.924 83.9158 66.4502 83.9851C65.072 84.186 65.8931 83.4926 65.7235 82.6454ZM64.5063 89.5635C64.2472 89.1945 64.9367 89.0669 65.157 89.0343C65.5191 88.9807 65.9997 89.0873 66.2411 89.0296C66.6086 88.9419 66.9634 88.7323 67.3771 88.6755C67.8994 88.6038 68.4257 88.5921 68.9501 88.5473C69.1247 88.5321 69.341 88.4718 69.5109 88.4819C69.7641 88.4972 69.8691 88.6317 70.0735 88.6326C70.4215 88.6344 70.8509 88.4137 71.2076 88.3733C71.6643 88.3213 72.1258 88.2969 72.5847 88.274C73.5518 88.2258 74.5089 88.2458 75.4755 88.2448C75.9164 88.2442 77.0903 87.7849 77.3101 88.2998C77.6158 87.9096 78.3997 87.9628 78.8367 87.9514C79.6064 87.9315 80.3682 87.857 81.1374 87.8211C81.7959 87.7903 82.5317 87.9318 83.1785 87.8327C83.5349 87.7782 83.6531 87.6635 84.0571 87.7153C84.3575 87.7535 84.8153 87.5942 85.0731 87.6647C85.0596 87.661 85.3947 87.8694 85.2901 87.8761C85.4053 87.8686 85.3985 87.9494 85.5254 87.9134C85.692 87.8662 85.6155 87.6557 85.961 87.581C86.4999 87.4643 87.2185 87.5994 87.7783 87.5694C88.3214 87.5404 88.8637 87.5278 89.4073 87.5304C89.6576 87.5315 89.9672 87.4715 90.2106 87.5206C90.3299 87.5445 90.5834 87.7009 90.6846 87.6851C90.971 87.6401 91.117 87.4404 91.5043 87.4528C91.9434 87.4668 92.3385 87.4607 92.7752 87.4271C93.1978 87.3946 93.2657 87.334 93.4752 87.6871C93.6829 88.0375 93.7401 88.4936 93.3579 88.7317C93.6062 88.7153 93.9116 89.0492 93.6191 89.2339C93.4382 89.3482 93.0757 89.0904 92.8593 89.1089C92.5925 89.1319 92.3832 89.2734 92.0931 89.2822C91.7879 89.2916 91.478 89.3688 91.1772 89.3747C90.8637 89.3807 90.6268 89.2401 90.3294 89.3C90.0678 89.3529 90.0402 89.568 89.7252 89.3791C89.5687 89.285 89.5423 88.9367 89.3287 88.9335C89.0425 88.9291 89.1566 89.3003 88.9921 89.4723C88.9479 88.9414 88.5398 89.8198 88.3775 89.1754C88.2279 89.3894 87.6741 89.6887 87.4058 89.5168C87.1613 89.3601 87.2425 89.0057 87.1406 88.7502C86.9709 89.2092 86.516 89.6855 86.5572 88.8497C86.3361 89.123 85.7388 89.0798 85.8886 89.5577C85.7085 89.5543 85.6659 89.2962 85.5144 89.2766C85.3835 89.2598 85.2797 89.3607 85.2596 89.3592C85.3313 89.3653 85.0454 89.4608 85.0409 89.4618C85.2346 89.4223 84.4826 89.355 84.6106 89.356C84.4361 89.3547 84.2225 89.498 84.0185 89.4976C83.8327 89.4971 83.6478 89.4236 83.4642 89.4027C82.9886 89.3482 83.0876 89.453 82.7889 89.6031C82.6783 89.6585 82.6505 89.7526 82.4934 89.741C82.3775 89.7322 82.3342 89.5803 82.321 89.5791C82.158 89.5626 82.2785 89.5076 82.0254 89.533C81.9962 89.5832 81.9674 89.6332 81.9383 89.6834C81.8469 89.8008 81.7283 89.8301 81.5828 89.7716C81.2082 89.8522 79.966 90.2018 80.0876 89.5544C79.8973 89.6478 79.707 89.7413 79.5166 89.8348C79.435 89.3127 78.4008 90.0048 78.1698 90.0398C77.8734 90.0844 77.8461 89.9702 77.5659 89.9095C77.5154 89.8986 77.4141 90.0659 77.2958 90.0418C76.9883 89.9798 76.9335 89.949 76.8808 89.6138C76.6617 90.0252 76.4795 89.8413 76.0819 89.9089C75.9939 89.9239 75.9378 90.0977 75.8115 90.0677C75.7204 90.0462 75.718 89.8792 75.6552 89.8576C75.5988 89.8381 75.6072 89.7063 75.5241 89.6876C75.4287 89.6659 75.1034 89.9337 75.0101 89.9751C74.7997 90.0681 74.4541 90.2223 74.2487 90.1762C73.9946 90.1192 74.1077 89.9301 73.7488 89.9514C73.1826 89.9846 72.9464 90.4685 72.5941 89.7061C72.4352 90.0115 72.4554 90.0944 72.2 90.1951C72.0113 90.2695 71.5335 90.1918 71.285 90.1825C70.2241 90.1433 69.181 90.5062 68.1288 90.4112C67.6663 90.3694 67.2763 90.2765 66.8096 90.3524C66.3192 90.4324 65.8396 90.5499 65.3421 90.5972C65.0891 90.6211 64.5605 90.6942 64.4363 90.3694C64.3272 90.0836 64.7346 89.8887 64.5063 89.5635ZM66.5871 101.283C65.2109 102.208 64.0712 103.47 62.8076 104.539C61.5407 105.61 60.5354 106.802 59.3961 107.988C58.3427 109.085 57.3749 110.123 56.1015 110.952C55.2956 111.477 54.5767 112.122 53.749 112.617C53.1289 112.987 52.1896 113.475 52.4921 112.342C52.8021 111.18 53.3745 110.007 53.8715 108.922C54.5782 107.38 55.2902 105.853 56.0547 104.341C56.3421 103.773 56.5028 103.207 56.9585 102.754C57.4543 102.262 57.8015 101.619 58.3444 101.153C60.6283 99.1954 64.0703 100.708 66.5871 101.283ZM70.9041 101.947C70.2798 102.276 69.5811 102.357 68.9196 102.574C68.3558 102.759 67.8316 103.089 67.2253 103.113C67.7773 102.697 68.2514 102.132 68.8737 101.816C69.5736 101.46 70.2089 101.719 70.9041 101.947ZM98.3038 104.685C96.0076 103.907 93.8698 102.761 91.6334 101.839C91.2473 101.679 88.2279 100.681 88.2892 100.206C90.405 99.8167 92.5841 99.1488 94.7051 99.877C96.6345 100.539 98.2038 102.128 99.6974 103.458C100.087 103.805 102.497 105.385 102.282 105.889C102.132 106.237 100.971 106.142 100.697 106.071C100.342 105.978 100.138 105.762 99.8606 105.525C99.396 105.129 98.8821 104.881 98.3038 104.685ZM94.0649 91.6892C94.4137 91.367 94.6225 90.8781 94.9556 90.5807C95.3837 90.1985 96.0743 90.3847 96.5422 90.5832C97.9463 91.1789 99.1464 92.1803 100.542 92.8018C102.088 93.4907 103.427 94.4112 104.822 95.3598C106.097 96.227 107.475 96.9448 108.777 97.7722C110.103 98.6157 111.587 99.1639 112.931 99.9773C114.299 100.805 115.662 101.637 116.977 102.549C119.321 104.176 121.762 105.847 123.497 108.16C124.388 109.349 125.223 110.697 125.877 112.032C126.471 113.246 127.116 114.931 126.346 116.193C125.606 117.406 124.344 118.361 123.277 119.265C122.872 119.608 122.488 120.024 121.964 120.173C121.326 120.353 120.582 120.303 119.927 120.357C116.422 120.642 113.156 120.373 109.702 119.743C106.371 119.136 103.027 118.796 99.6706 118.375C97.7772 118.137 95.8842 117.86 94.0165 117.463C93.218 117.294 92.4057 117.099 91.6245 116.868C90.9422 116.666 90.3685 116.223 89.667 116.047C86.6897 115.3 83.2834 115.015 80.3359 113.759C82.9443 112.671 85.716 112.014 88.3893 111.109C91.2029 110.157 93.9508 109.359 96.9164 109.088C98.4424 108.949 99.8081 108.558 101.276 108.148C102.675 107.758 104.135 107.639 105.572 107.464C106.211 107.386 108.035 107.502 108.247 106.664C108.562 105.415 106.77 105.271 106.006 105.383C104.923 105.542 104.029 105.813 103.2 104.92C102.353 104.009 101.531 103.076 100.668 102.176C99.07 100.508 97.4224 98.5777 95.1628 97.8291C92.4063 96.9159 89.2098 97.7827 86.4593 98.302C83.5542 98.8506 80.6538 99.3757 77.8031 100.173C76.6226 100.503 75.1001 101.231 73.875 101.114C72.6675 100.998 71.2998 100.8 70.1329 100.45C69.605 100.292 69.171 99.9992 68.6986 99.7259C68.0843 99.3704 67.4111 99.1426 66.7592 98.8662C65.4409 98.3076 64.1557 97.793 62.7334 97.5734C61.5356 97.3885 60.2637 97.2788 59.103 97.7004C57.9642 98.114 56.9552 98.9561 56.1606 99.8556C55.2976 100.833 54.5842 101.928 53.877 103.02C53.5374 103.544 53.1229 104.002 52.7711 104.514C52.4758 104.944 52.3035 105.422 51.991 105.841C51.2917 106.776 50.8169 107.973 50.3932 109.062C49.9223 110.27 49.3993 111.708 49.5117 113.023C49.5542 113.52 49.5985 114.179 49.7901 114.64C50.0337 115.226 50.381 115.211 50.8816 115.432C51.7418 115.812 51.983 116.862 53.0947 116.657C54.1373 116.465 55.0416 115.603 55.8023 114.915C56.7938 114.019 57.7427 113.074 58.6915 112.133C59.6651 111.167 60.6244 110.095 61.3989 108.959C61.7038 108.511 61.9415 108.006 62.3018 107.599C62.7606 107.08 63.2758 107.017 63.899 106.811C69.3475 105.003 74.8224 103.26 80.4411 102.066C81.7872 101.78 83.1442 101.412 84.4666 101.031C85.8691 100.627 86.5954 101.054 87.7529 101.822C90.1711 103.427 93.0294 104.558 95.7221 105.606C96.57 105.935 97.9198 105.956 98.5826 106.607C94.6539 107.208 90.9099 108.365 87.1205 109.517C85.2522 110.085 83.3625 110.577 81.4871 111.121C79.611 111.664 77.8064 112.368 75.9561 112.981C74.1146 113.59 72.1685 113.839 70.3092 114.401C68.4112 114.975 66.5212 115.37 64.5729 115.719C62.6058 116.072 60.6523 116.478 58.6784 116.794C57.7746 116.938 56.8709 117.088 55.9772 117.287C55.1027 117.481 54.2578 117.947 53.3789 118.055C49.4538 118.537 45.6057 119.611 41.6958 120.219C38.7766 120.672 33.6977 121.304 31.8047 118.364C29.9011 115.407 32.2365 111.957 34.3203 109.842C35.6153 108.528 37.0705 107.372 38.5972 106.343C40.2313 105.242 41.8034 104.053 43.4378 102.953C47.1363 100.465 51.1468 98.4352 55.1204 96.4358C57.0276 95.4761 58.8704 94.4468 60.7257 93.3936C61.6466 92.8708 62.1561 93.7142 62.8841 94.2875C63.4566 94.7387 64.5079 95.8502 65.3089 95.3364C65.3397 95.5214 65.3706 95.7064 65.4014 95.8918C65.6359 95.7843 65.8708 95.677 66.1054 95.5696C66.2629 95.9845 66.2445 96.2423 66.6848 96.4602C66.9551 96.5941 67.5322 96.7552 67.79 96.5194C67.8425 96.6834 67.895 96.8471 67.9477 97.0109C68.173 96.9936 68.2165 96.3464 68.2591 96.1948C68.6452 96.7612 69.1793 97.2344 69.8581 97.3945C69.8614 97.3575 69.7477 96.8922 69.7526 96.8894C69.9674 96.7574 70.2383 97.3226 70.3521 97.4437C70.7296 97.8448 70.9548 97.7825 71.3718 97.4589C71.4022 97.4919 71.5433 97.8617 71.5638 97.855C71.6541 97.8262 71.8254 97.4986 71.8443 97.4687C71.8181 97.8997 72.6469 97.9865 72.9396 97.8941C72.8739 97.7677 72.8083 97.6415 72.7428 97.5152C73.7622 97.3785 74.1625 98.466 75.141 98.4108C75.8644 98.3698 75.2842 98.2111 75.6937 97.9C76.0513 97.6281 76.115 98.2228 76.1502 98.2038C76.2184 98.1322 76.2712 98.0497 76.3088 97.9565C76.4412 98.4657 77.495 98.9224 77.386 98.0853C77.8006 98.2517 78.095 98.5281 78.5538 98.5865C79.1115 98.6574 79.7071 98.5386 80.2635 98.4922C81.4622 98.3921 82.5923 98.1466 83.6728 97.5951C84.3135 97.2682 84.9955 96.9716 85.5977 96.5772C86.1017 96.2471 87.0579 95.245 87.7289 95.6764C87.557 95.1675 88.366 95.6391 88.3918 94.9836C88.5218 95.0819 88.6518 95.1801 88.7817 95.2786C88.8596 95.1071 88.8379 94.8367 88.9423 94.6871C89.0855 94.4818 89.1556 94.6027 89.2777 94.4873C89.4144 94.358 89.5338 94.0119 89.6977 93.9134C89.8666 93.812 90.0654 93.9329 90.2472 93.8443C90.524 93.7092 91.7144 92.3913 91.5129 93.5206C92.0249 93.346 91.6302 93.1863 91.694 92.8438C91.8225 92.1575 92.1351 92.6515 92.4464 92.7112C92.9563 92.8094 92.946 92.3861 93.2303 92.0787C93.4899 91.7977 93.978 91.6721 93.8099 91.1841C94.0018 91.288 94.0426 91.4916 94.0649 91.6892ZM63.3318 77.0306C62.9301 77.4798 62.6293 77.2878 62.1828 77.2219C62.135 77.0611 62.0533 77.039 61.938 77.1551C61.8056 77.2314 61.6635 77.2817 61.511 77.3057C61.1448 77.3963 60.7645 77.3578 60.4063 77.4951C60.4166 77.3746 60.5426 77.1605 60.4619 77.0382C60.0851 77.2998 59.8516 77.4662 59.389 77.4712C59.0142 77.4751 58.3563 77.1876 58.0451 77.5313C58.0354 77.3975 58.0257 77.2639 58.0164 77.1301C57.8639 77.2063 57.7313 77.3083 57.6185 77.4362C57.5971 77.238 57.5853 77.0881 57.4548 76.9279C57.2071 77.4392 56.9358 77.4513 56.4548 77.256C56.5223 77.2833 55.9733 76.9602 55.9943 77.0497C55.8207 76.3155 58.5604 76.3761 58.848 76.3472C59.5663 76.2743 60.2845 76.232 61.0039 76.1655C61.6861 76.1026 62.1954 75.9958 62.6675 76.5672C62.4571 75.7418 64.4478 75.7827 63.3318 77.0306ZM31.9198 64.2291C31.9953 65.4771 32.272 66.8035 31.7887 68.0046C31.4002 68.9701 30.6251 70.0605 29.7901 70.6906C28.0805 71.9806 26.6315 70.402 26.3934 68.6672C26.1455 66.8576 26.6371 64.6466 28.189 63.5309C29.1163 62.8643 30.0143 62.9105 31.0818 63.1297C31.3325 63.1812 31.7396 63.1613 31.883 63.4115C31.9167 63.47 31.8865 64.2279 31.9198 64.2291ZM54.6262 80.8563C54.3308 81.0061 54.0219 81.0936 53.7615 81.2972C53.6711 81.3679 53.6403 81.5292 53.5443 81.5886C53.3697 81.6971 53.12 81.6251 52.938 81.7147C52.6367 81.8624 52.4207 82.074 52.0627 82.2102C51.531 82.4125 51.0647 82.69 50.5621 82.9531C49.7247 83.3915 48.8259 83.7678 47.9505 84.1246C47.5085 84.3048 46.2864 84.656 46.3286 85.3055C46.2298 85.3323 46.1288 85.1153 45.9223 85.1326C45.639 85.1562 45.2647 85.4852 44.9705 85.5661C44.4202 85.7174 43.9943 85.7307 43.9943 86.4351C43.8192 86.3156 43.7747 86.0232 43.5416 85.9845C43.2793 85.9409 43.1689 86.225 42.9591 86.3134C42.7121 86.4175 42.4048 86.3176 42.1601 86.4284C42.0531 86.542 41.9341 86.6413 41.8033 86.7259C41.6702 86.7412 41.5376 86.7372 41.4059 86.7134C40.8863 86.8241 40.4083 87.0203 39.8876 87.1222C39.3801 87.2217 39.0325 87.2578 39.246 87.8603C38.703 87.967 38.5705 87.3886 37.958 87.6003C37.2073 87.8593 36.5056 88.0463 35.7219 88.2043C35.3222 88.2849 34.9046 88.4648 34.502 88.5071C34.2148 88.5373 33.9467 88.4341 33.6639 88.4662C33.3231 88.5045 33.0491 88.663 32.6964 88.6689C32.3618 88.6749 32.0105 88.6145 31.6819 88.5553C31.7284 88.6882 31.7865 88.8156 31.8563 88.9376C31.6291 88.8899 31.5242 88.6156 31.3316 88.575C31.1295 88.5326 30.9484 88.7418 30.7801 88.6955C30.7084 88.6756 30.7561 88.4538 30.628 88.4113C30.511 88.373 30.4618 88.4183 30.3459 88.4001C30.3072 88.394 29.8226 88.3677 29.7453 88.4087C29.6103 88.4806 29.7469 88.6151 29.7201 88.6351C29.2643 88.9738 29.2587 88.7911 29.0555 88.4372C28.7571 87.9179 28.3973 88.2457 27.855 88.1548C27.2505 88.0535 26.7743 88.3213 26.1794 88.2831C25.5378 88.2421 24.7837 87.76 24.2163 87.4784C22.9913 86.8706 21.7967 86.2953 20.7679 85.3746C18.7567 83.5747 17.1205 81.3613 16.1558 78.8273C15.1193 76.105 14.9229 73.2659 15.0061 70.3778C15.0561 68.6408 15.1946 66.9049 15.4673 65.1884C15.655 64.0076 15.6943 61.9091 17.0203 61.3715C17.2482 64.1362 16.5289 66.9535 16.9826 69.7004C17.1192 70.5278 17.4523 71.6301 18.0827 72.243C19.0161 73.1499 19.2345 71.8388 19.3189 71.1146C19.476 69.7693 19.768 68.4317 19.9747 67.0928C20.1812 65.7547 20.3272 64.4014 20.6143 63.0772C20.719 62.5944 21.5633 59.0588 22.1831 59.2262C22.0577 61.7984 21.7247 64.3262 21.7116 66.9078C21.7064 67.9433 21.6141 69.0369 21.7629 70.0656C21.8396 70.5949 22.3197 72.1483 23.1455 72.0187C23.9096 71.8988 23.0695 70.8047 22.9981 70.3828C22.8092 69.2659 23.0501 67.8764 23.2262 66.7679C23.5598 64.6699 24.3037 62.5214 25.5197 60.7682C26.6088 59.1984 28.2857 57.7038 30.306 57.9807C31.1691 58.0991 31.8425 58.3143 32.2762 59.1056C32.6165 59.7266 33.957 60.4324 33.1801 61.2099C32.473 61.9178 31.3292 61.3512 30.5431 61.1823C29.5806 60.9758 28.5491 61.2243 27.7442 61.7906C26.3631 62.7619 25.5761 64.4985 25.3192 66.1273C24.973 68.3233 25.8985 74.0716 29.3074 72.7834C31.5721 71.9275 33.2778 68.8487 33.0876 66.4916C33.0114 65.5481 32.644 63.7569 33.9442 63.5022C35.6099 63.1759 35.8452 65.0194 35.6765 66.2175C35.4314 67.9601 34.514 69.5805 33.4645 70.9583C32.5498 72.1592 31.486 72.9101 30.3854 73.9019C30.0595 74.1954 29.2283 74.8556 29.3679 75.4017C29.521 76.0002 30.8272 76.1703 31.3502 76.2687C33.9377 76.755 36.8556 76.3076 39.4387 75.9682C44.7477 75.27 49.9869 73.5509 54.3402 70.3902C54.516 72.3459 54.7378 74.295 54.8194 76.2578C54.859 77.2105 54.8691 78.1771 54.9776 79.1247C55.0445 79.7075 55.2858 80.5217 54.6262 80.8563ZM39.9053 87.6709C39.6968 87.7802 39.9222 87.1182 39.8642 87.3372C40.1756 87.4493 40.1893 87.5606 39.9053 87.6709ZM61.9285 64.0033C62.2594 63.6372 63.1633 62.7663 63.4502 63.5928C63.557 63.2404 63.5708 62.7185 63.9829 63.1944C64.147 62.6099 65.9568 62.6646 66.4051 62.6388C67.8405 62.5564 69.2817 62.5123 70.7119 62.3691C73.6511 62.0749 76.6415 62.2268 79.5914 62.2171C80.2301 62.215 80.8672 62.1803 81.5013 62.2733C82.1132 62.363 82.7563 62.6149 83.38 62.5229C83.9345 62.4411 84.2981 62.2875 84.8688 62.3532C85.5518 62.4318 86.2149 62.4877 86.9039 62.4852C89.9516 62.4739 92.9978 62.5979 96.0461 62.6028C96.6402 62.6037 97.352 62.4871 97.9094 62.7405C98.1159 62.8345 98.3416 63.1469 98.4993 63.1812C98.68 63.2204 98.5726 62.9374 98.8146 63.0653C99.1386 63.2364 98.8878 63.7627 98.6736 63.846C98.8019 63.7962 98.4422 63.7469 98.4782 63.7449C98.3076 63.7542 98.1619 63.8856 97.9787 63.8774C97.6995 63.8651 97.4658 63.6942 97.2409 63.5437C97.237 63.6052 97.3606 64.0148 97.2195 64.0354C97.0981 64.0533 96.9843 63.6495 96.9721 63.5555C96.2902 64.1594 95.5676 63.8228 94.7215 63.8992C94.1212 63.9536 92.8697 64.3555 92.451 63.7264C92.4336 63.8603 92.38 63.9774 92.2907 64.0779C92.171 64.2608 92.0676 64.2453 91.9802 64.0307C91.9506 64.0321 91.659 64.0957 91.6533 64.0953C91.4482 64.0789 91.182 64.005 90.9733 63.9871C90.6503 63.9594 90.7098 64.1955 90.4524 64.1993C90.3119 64.2012 89.9536 63.9975 89.7085 63.9848C89.284 63.9625 88.8505 64.1433 88.4318 64.0886C88.1436 64.051 87.883 63.8154 87.6002 63.8063C87.2477 63.7945 87.1335 64.0644 86.8543 63.6854C86.7971 63.6698 86.7616 63.8927 86.7389 63.8966C86.7444 63.8956 86.4731 63.9359 86.4411 63.9485C86.3854 63.9698 86.1686 64.0695 86.1026 64.0706C85.9601 64.0733 85.8827 63.9709 85.7316 63.9685C85.4816 63.9642 84.6836 64.1852 84.706 63.7208C83.8139 64.0527 83.0528 63.9234 82.1372 64.0018C81.7171 64.038 81.4533 63.9815 81.0536 63.904C80.5531 63.8071 80.2208 63.9289 79.7216 63.9536C79.2419 63.9772 79.0907 63.7734 78.6857 63.5894C78.526 63.5169 78.4205 63.4212 78.2246 63.4615C78.1129 63.4846 78.1925 63.6734 78.1594 63.6863C77.9874 63.753 77.8672 63.6823 77.6313 63.6986C77.1957 63.7283 77.0223 64.0938 76.5746 63.7507C76.7233 63.7327 76.8721 63.7142 77.0211 63.6961C76.5929 63.5138 76.0278 63.4209 76.1314 64.0845C75.7663 64.033 76.0824 63.7834 75.9029 63.694C75.7233 63.6049 75.5224 63.7542 75.2963 63.828C74.6992 64.0224 74.2014 63.9259 73.579 63.891C72.8715 63.8513 71.2168 64.4308 70.7103 63.6786C70.695 63.8371 70.5255 64.2787 70.2999 64.2579C70.2264 64.2511 70.4313 63.7822 70.4546 63.7327C70.3384 63.981 69.8083 64.0282 69.5469 64.157C69.5763 64.0235 69.6054 63.8901 69.6347 63.7567C69.3921 64.016 69.2743 63.8578 68.9888 63.9445C68.864 63.9824 68.6833 64.2408 68.5766 64.2564C68.4524 64.1117 68.296 64.0494 68.108 64.0695C67.9827 64.0382 67.8576 64.0319 67.7324 64.0512C67.2315 64.0877 66.7748 64.3672 66.2764 64.1768C65.845 64.0118 65.6782 63.5875 65.421 64.2626C65.3532 64.1426 65.2856 64.0226 65.218 63.9025C65.1345 64.0329 65.0511 64.163 64.9674 64.2932C64.6411 64.0786 64.6211 63.9544 64.2455 64.0332C64.1574 64.0685 64.067 64.0635 63.9744 64.0183C63.9523 64.0845 63.9302 64.1505 63.908 64.2165C63.8993 64.3826 63.8501 64.4376 63.7607 64.3811C63.6856 64.354 63.6178 64.3129 63.5573 64.2576C63.3088 64.2767 62.9914 64.3423 62.7247 64.3061C62.6218 64.2923 61.9765 63.9503 61.9285 64.0033ZM69.5324 59.5354C69.5616 59.5805 69.5909 59.6256 69.6202 59.6707C69.2168 59.8845 69.1218 59.7618 69.0802 59.3323C69.2773 59.3361 69.3109 59.6842 69.5324 59.5354ZM69.7823 59.2834C69.9766 59.3694 70.1993 59.5384 70.3823 59.312C70.5054 59.6715 69.5906 60.162 69.7823 59.2834ZM71.0369 59.4422C71.4447 59.7189 70.4665 59.4964 70.468 59.4969C70.6439 59.3338 70.8334 59.3157 71.0369 59.4422ZM74.5447 57.8989C74.6846 58.6075 75.0704 58.5873 75.693 58.2579C76.601 57.7775 76.7544 56.9908 76.8176 56.0514C76.8784 55.1507 76.9882 54.802 77.9132 54.99C78.559 55.1213 79.1052 55.0109 79.7562 54.9929C80.4508 54.9737 80.6956 55.0802 80.7515 55.7979C80.8074 56.5165 80.9348 57.0622 81.4542 57.6091C81.9823 58.1651 82.6866 58.4972 83.3728 58.8083C83.7257 58.968 84.057 59.14 84.4474 59.1747C84.5987 59.1882 85.3861 59.0882 85.4026 59.3384C85.4149 59.5264 84.3244 60.0568 84.2088 60.12C83.703 60.3961 83.1987 60.6439 82.6463 60.8112C81.3754 61.1961 80.0279 61.2189 78.7115 61.1955C76.5891 61.1581 73.6558 60.2567 72.3867 58.3662C73.1061 58.2105 73.8254 58.0547 74.5447 57.8989ZM74.3543 51.7629C74.0185 51.48 73.801 51.0525 73.5221 50.7174C73.3814 50.5485 73.2783 50.4947 73.1444 50.4101C73.0034 50.321 72.9241 50.4471 72.8063 50.2377C72.5025 49.6966 73.4403 48.9353 72.4456 48.7271C72.1091 48.6565 71.2992 48.9242 71.201 48.4401C71.062 47.7555 72.3633 47.7108 72.6694 47.3634C73.2783 46.6726 72.865 45.5017 73.2359 44.7048C73.5868 43.95 74.4929 43.8159 75.208 43.589C76.2045 43.2732 77.2129 43.09 78.2246 42.8372C78.9321 42.6605 80.1074 41.9507 80.7635 42.5779C79.751 42.8036 80.3396 43.1579 81.0144 43.3578C81.7787 43.5845 82.5888 43.6728 83.3808 43.736C84.1961 43.8009 85.0269 43.8133 85.8324 43.6501C86.5774 43.4992 87.4094 42.8491 88.1905 43.0156C87.7571 43.7723 86.466 44.1855 85.6815 44.3837C85.2818 44.4847 85.0258 44.4531 85.0796 44.9535C85.1315 45.4385 85.5514 45.9248 85.6463 46.43C85.7717 47.0986 85.6622 47.7131 85.425 48.3419C85.1918 48.9606 85.1375 49.0414 85.3413 49.6325C85.6588 50.553 84.9763 51.5705 84.3455 52.2389C81.7944 54.9418 76.9124 53.918 74.3543 51.7629ZM80.8366 35.6088C80.8468 35.6364 80.8381 35.6259 80.8366 35.6088V35.6088ZM81.6311 42.43C81.5253 42.5093 80.9161 42.6757 80.9416 42.4367C80.9756 42.1164 81.5247 42.2321 81.6311 42.43ZM83.0196 35.9601C82.8766 35.8531 82.4762 35.8971 82.769 35.4915C82.8643 35.6699 82.942 35.8149 83.0196 35.9601ZM73.4114 33.3966C73.5936 32.9214 73.7954 32.4792 73.8775 31.9732C73.9282 31.6614 73.8274 31.3055 74.2615 31.2565C73.7083 31.0144 73.7027 30.0584 73.67 29.5629C73.6252 28.8805 73.4104 27.9668 73.7092 27.3316C74.0158 26.6791 74.4295 26.6899 74.5543 27.467C74.6032 27.7712 74.4162 27.8696 74.381 28.0815C74.3115 28.5007 74.4499 28.4088 74.7191 28.0895C74.8304 28.414 74.8729 28.9017 75.3254 28.8811C75.2953 28.7933 75.122 28.5997 75.1799 28.4907C75.2688 28.3232 75.7034 28.5791 75.7585 28.6178C76.1554 28.8965 76.2415 29.1509 75.9585 29.5024C76.3503 29.5449 76.0214 29.8893 76.2744 29.979C76.6603 30.116 76.4015 29.4671 76.3597 29.353C76.5945 29.445 76.6733 29.5502 76.8221 29.7364C76.9094 29.8649 76.9889 29.9984 77.0606 30.1365C77.1406 30.3886 77.3051 30.4517 77.5545 30.3261C78.0544 30.4835 78.7445 30.4588 79.1924 30.7342C79.3971 30.8598 79.4709 31.1348 79.6419 31.2392C79.8342 31.3568 80.092 31.3035 80.2986 31.3773C80.223 31.5498 80.2843 31.6431 80.4819 31.6577C80.6355 31.6717 80.7844 31.7065 80.9282 31.7618C81.0357 31.6804 81.1528 31.616 81.2791 31.5693C81.3641 31.7195 81.4841 31.7566 81.6394 31.681C82.1004 31.7677 82.3218 31.9427 82.6148 32.2044C82.8777 32.4393 82.6637 32.4584 82.9518 32.4375C83.0676 32.4292 83.2704 32.232 83.5352 32.2705C83.6876 32.3002 83.8345 32.3475 83.9761 32.4119C84.1289 32.5433 84.2915 32.5598 84.4633 32.4616C84.7424 32.5984 84.7698 32.8412 85.1102 32.8744C85.4865 32.9112 85.3654 32.4401 85.6238 33.1044C85.9719 32.4001 86.0994 33.5222 86.4588 33.6129C86.831 33.7068 86.8712 33.4037 87.1898 33.7348C87.2853 33.8341 87.28 33.9981 87.3872 34.1032C87.5629 34.2754 87.8005 34.241 87.9532 34.4759C87.8681 34.3448 87.9733 34.9405 87.9715 34.9208C87.9952 35.1836 87.7626 35.478 88.2393 35.4556C88.234 35.4832 88.005 35.8183 87.9603 35.7804C87.9494 35.7422 87.9401 35.7034 87.9328 35.6641C87.8817 35.6863 87.859 36.0054 87.8684 36.0618C87.9088 36.0681 87.9254 36.038 87.9181 35.9713C87.8397 36.2174 87.9578 36.3738 87.8073 36.6075C87.711 36.7568 87.4474 36.869 87.3074 36.9612C86.9694 37.1836 86.6387 37.4069 86.3089 37.6437C85.5402 38.196 84.6794 38.862 83.7113 38.9772C84.1975 38.4978 86.9949 36.6839 85.5918 36.1632C85.3316 36.0666 84.8578 35.9753 84.5857 35.9549C84.2471 35.9298 83.8971 36.1244 83.5238 36.0028C83.0732 35.8566 83.243 35.4314 82.9678 35.2788C82.3834 34.9552 82.5213 35.7163 82.3375 35.9155C82.1441 35.712 82.1855 35.6129 81.8805 35.5946C81.5707 35.5758 81.4971 35.8633 81.1356 35.6841C80.6376 35.4374 80.9012 34.9458 80.1948 34.9343C80.2066 34.8264 80.3091 34.5248 80.1743 34.4407C79.9925 34.6773 80.1332 34.9419 79.9645 35.1697C79.8801 35.2839 79.6969 35.375 79.5631 35.412C79.2499 35.4983 79.2054 35.6637 79.2564 35.1903C79.0243 35.61 78.3126 35.4374 77.8893 35.3951C77.201 35.3265 76.4695 35.1957 75.8097 34.9742C75.1994 34.7691 74.8735 34.4169 74.3702 34.0964C74.18 33.9752 74.0891 34.0216 73.8164 33.9462C73.547 33.872 73.2846 33.728 73.4114 33.3966ZM74.8636 25.9636C74.9676 25.9008 75.0421 26.8386 74.9163 27.0139C74.6856 26.6477 74.2769 26.1106 74.8636 25.9636ZM75.1955 25.5896C75.5297 25.2859 75.2975 26.0701 75.2362 26.2017C75.1125 26.122 74.9887 26.0424 74.8649 25.9627C75.0228 25.8654 75.0622 25.7106 75.1955 25.5896ZM87.8017 24.3257C90.8886 24.9761 93.9475 26.1919 96.4233 28.1926C98.6786 30.0149 100.27 32.6006 101.163 35.3509C102.089 38.2057 101.778 41.3729 99.574 43.5578C98.4129 44.7086 96.8799 45.403 95.4188 46.0805C94.7188 46.4051 93.9978 46.6755 93.295 46.9927C92.7903 47.2204 92.174 47.5848 91.598 47.5217C91.8919 47.2112 92.3182 47.2048 92.6739 47.0151C93.1036 46.7855 93.4545 46.3451 93.8249 46.0305C94.1926 45.7182 95.0083 44.7347 95.5734 44.9728C95.4949 44.4487 96.0896 44.2055 96.3575 43.86C96.6408 43.4945 96.6612 43.067 97.1834 42.9474C96.6226 42.5067 96.7943 41.6758 96.9163 41.076C97.0723 40.3089 97.1445 39.6047 97.2061 38.8241C97.317 37.4169 97.4064 35.6241 96.6319 34.3871C96.3806 33.9853 96.0606 33.6162 95.8365 33.1988C95.5661 32.696 95.6258 32.2535 95.6258 31.7022C95.1318 32.0356 95.0276 31.3559 94.8189 31.0247C94.6622 30.7761 94.4565 30.6373 94.4059 30.3245C94.3692 30.0971 94.6152 30.0586 94.4803 29.8201C94.315 29.9454 94.2491 30.1397 94.1653 30.32C94.0127 30.2588 94.1926 30.0454 94.1052 29.9761C94.1027 29.9742 93.8082 29.8458 93.8228 29.8643C93.6334 29.6232 93.5724 29.2231 93.4796 28.9362C93.1326 29.1127 93.1975 29.0919 92.8104 28.797C92.7421 28.7451 92.4015 28.5067 92.3693 28.4288C92.2196 28.0644 92.4821 28.2802 92.4087 28.0541C92.1979 27.4044 91.0148 27.5273 90.9211 26.5539C90.3442 26.9216 90.1241 26.4006 89.7832 26.03C89.4336 25.6504 88.8474 25.5043 88.8788 24.9022C88.6972 24.9645 88.5156 25.0268 88.3342 25.0888C88.4285 24.5332 87.6064 24.5686 87.3086 24.2867C87.4738 24.2887 87.6382 24.3018 87.8017 24.3257ZM88.2718 58.7408C88.5579 58.484 88.4711 58.8259 88.6552 58.7868C88.8127 58.7533 88.8437 58.6339 88.9947 58.5972C89.6167 58.4463 90.5466 58.6358 91.2006 58.6032C91.9582 58.5657 93.2568 58.7236 93.6179 59.6136C93.8354 60.1494 93.5035 59.9671 93.1377 59.9273C92.8543 59.8965 92.6022 59.9541 92.3216 59.9512C92.1829 59.9727 92.0448 59.9706 91.907 59.9447C91.8398 59.9003 91.8001 59.8377 91.7879 59.7571C91.3976 59.6978 90.983 59.9297 90.5507 59.9412C89.9737 59.9567 89.4609 59.8456 89.0226 59.4545C88.8483 59.7153 88.7296 59.8447 88.4161 59.8738C88.408 59.8745 88.1017 59.7509 88.0545 59.7385C87.9917 59.7221 87.8331 59.8542 87.7122 59.8165C87.9267 59.4734 87.9579 59.0226 88.2718 58.7408ZM127.676 61.8379C127.778 61.4823 127.863 61.1219 127.956 60.7639C129.38 62.3917 130.626 64.5707 131.187 66.6582C131.551 68.0146 132.118 70.4727 130.382 71.1723C128.967 71.7423 128.178 69.6993 127.82 68.6931C127.03 66.4718 127.03 64.098 127.676 61.8379ZM63.9603 36.3324C63.9785 36.3286 63.0383 36.8777 63.3481 36.4332C63.4724 36.2544 63.9444 36.1288 64.1538 36.1288L63.9603 36.3324ZM63.0558 36.5651C62.947 36.6569 62.8371 36.7477 62.7263 36.8372C62.6199 36.6684 62.5132 36.4994 62.4068 36.3306C62.6168 36.2418 63.5077 36.1751 63.0558 36.5651ZM62.3931 53.6343C62.1964 53.5005 62.0405 53.5716 61.9813 53.7962C61.9813 53.5728 62.0972 53.0536 62.2754 52.9932C62.3905 52.9539 61.8927 52.3627 62.0326 52.208C62.3884 52.4126 62.1754 52.6085 62.2796 52.8727C62.3267 52.9918 62.4679 53.1045 62.4989 53.1961C62.5514 53.3515 62.7638 53.8859 62.3931 53.6343ZM61.4294 52.3039C61.2279 52.3558 61.5806 52.6896 61.5803 52.8372C61.58 52.9489 61.4466 53.0345 61.3915 53.1873C61.2721 53.5181 61.4775 53.7416 61.1394 53.9941C61.1394 53.2691 60.6548 51.348 61.586 50.9948C61.1317 50.6356 61.5048 50.221 61.8609 50.6509C62.2032 51.0642 61.9851 52.1612 61.4294 52.3039ZM60.9442 49.443C60.7612 48.7913 60.2102 48.5634 59.5805 48.6021C59.6045 48.2684 59.8563 47.7874 60.0382 48.3887C60.113 48.2109 60.1648 47.9791 60.3354 47.8613C60.6226 48.7653 62.0544 49.2648 61.163 50.2443C61.09 49.9773 61.0193 49.7097 60.9442 49.443ZM59.2803 48.6506C55.9647 48.892 51.3098 49.5827 48.6565 47.031C46.9265 45.3672 47.0189 42.7763 48.417 40.9278C49.2148 39.8729 50.304 39.1302 51.3978 38.4227C51.8199 38.1494 52.1774 37.9692 52.6408 37.8122C52.7158 37.8041 52.7864 37.8209 52.8524 37.8627C52.8785 37.7503 52.9415 37.6672 53.0418 37.6128C53.2208 37.5167 53.4758 37.4823 53.5789 37.2828C53.4688 37.6577 53.4122 38.0437 53.3719 38.4314C53.2826 38.327 53.1934 38.2226 53.1042 38.1182C53.0296 38.8247 52.2965 38.397 51.8588 38.4852C52.1471 38.8859 52.3533 39.0314 52.3782 39.5609C52.1634 39.1628 51.7144 38.9011 51.2969 38.7729C51.5236 39.4462 51.6839 39.8458 51.4556 40.5841C51.1799 40.426 51.1613 40.0464 50.8268 39.9555C50.7386 40.3957 50.723 40.8843 50.61 41.3115C49.7535 40.9193 49.837 41.9756 50.181 42.4982C50.3638 42.7763 50.4536 43.0982 50.6167 43.3651C51.017 44.0199 50.7129 43.0408 51.1578 43.0871C51.0579 43.7777 51.0231 43.8465 51.5264 44.3522C52.0177 44.8453 52.2725 45.5295 52.7979 45.9928C52.9501 45.7976 52.7108 45.5933 52.6898 45.4065C53.1787 45.4888 53.4077 45.981 53.8777 45.545C54.0827 45.9461 54.3046 46.3879 54.7954 46.4702C54.4709 45.8508 55.4186 46.2709 55.6616 46.3588C55.8459 46.4255 56.1762 46.4785 56.2473 46.5041C56.6477 46.6493 56.3731 46.3888 56.6162 46.8648C56.973 46.7566 57.1076 46.4594 57.5345 46.7105C57.8815 46.9148 57.8822 47.2645 57.9616 47.6229C58.0443 47.3885 58.1278 47.1542 58.2192 46.923C58.3124 46.9624 58.7031 47.3941 58.6604 47.3961C59.575 47.3511 59.5427 47.9212 59.2803 48.6506ZM54.625 36.9638C54.8087 36.8343 55.0328 37.0066 55.239 36.9603C55.5246 36.8963 55.6867 36.6508 56.0056 36.6245C55.9169 36.9092 55.7504 36.8825 55.6094 37.1061C55.5614 37.1823 55.5865 37.365 55.5437 37.409C55.1863 37.7765 55.0629 37.4766 54.6981 37.1983C54.7298 37.5339 54.7941 37.6398 54.4792 37.7298C54.1942 37.8115 53.7238 37.511 53.5801 37.2805C53.7013 37.0371 54.4052 37.1186 54.625 36.9638ZM56.9001 36.4393C57.2096 36.469 56.8367 37.3861 56.3931 36.4966C56.5602 36.46 56.7292 36.4409 56.9001 36.4393ZM58.492 36.2621C58.9803 36.1621 60.6089 35.6961 60.7901 36.4591C60.8226 36.4402 60.9438 36.0093 61.0001 36.0619C61.2256 36.2726 61.2508 36.5517 61.2336 36.8442C60.961 36.2741 61.0579 36.7749 60.8732 36.7358C60.825 36.7255 60.7512 36.816 60.6291 36.7787C60.4689 36.7296 60.3542 36.3876 60.2531 36.2718C60.0848 36.5129 59.8762 36.8236 59.5392 36.8027C59.3006 36.7878 58.9161 36.1712 59.2251 36.8463C59.0437 36.7862 58.8337 36.6499 58.6316 36.6772C58.4053 36.708 58.2878 36.9321 58.0757 36.9683C57.6055 37.0483 57.5346 36.5941 57.2294 36.3474C57.6504 36.3229 58.0763 36.3471 58.492 36.2621ZM61.446 36.2547C61.4804 36.0983 61.9077 36.0351 62.0165 36.0848C62.282 36.2059 62.1837 36.3658 62.135 36.6317C61.938 36.5381 61.7409 36.4446 61.5439 36.3509C61.8379 36.8265 61.3051 36.8954 61.446 36.2547ZM144.15 64.1076C144.115 62.9681 144.082 61.8088 143.794 60.6994C143.593 59.923 143.098 58.5308 142.162 58.3961C140.751 58.1927 139.97 60.9928 139.575 61.9538C139.496 60.8223 139.565 59.6178 139.139 58.5438C138.798 57.6831 137.937 56.8679 137.195 57.8345C136.536 58.6948 136.409 59.9646 136.235 60.9996C136.01 62.3407 135.875 63.6922 135.71 65.0414C135.066 63.7908 134.953 62.3594 134.444 61.0597C133.963 59.8333 133.207 58.662 132.478 57.5712C131.883 56.6802 131.159 55.8424 130.227 55.2978C129.416 54.8238 127.997 54.311 127.224 55.0982C126.578 55.7552 126.679 56.6343 126.713 57.4633C126.728 57.8325 126.786 58.0856 126.462 58.2717C126.303 58.3631 126.055 58.3158 125.88 58.3646C125.599 58.4435 125.383 58.5772 125.145 58.7548C123.477 60 122.707 62.2441 122.469 64.2447C122.168 66.7797 123.152 68.9528 123.999 71.2723C124.134 71.6419 124.563 72.4262 124.504 72.8388C124.439 73.2909 123.873 73.3027 123.492 73.3121C122.34 73.3406 121.136 73.2545 119.99 73.1466C117.261 72.8904 114.534 71.5713 112.091 70.3937C111.645 70.1788 111.014 70.0558 110.65 69.7174C110.308 69.3993 110.218 68.8895 109.923 68.5246C109.198 67.6293 108.737 66.8653 107.669 66.3243C106.583 65.7736 105.474 65.2646 104.414 64.6615C103.103 63.9151 101.891 62.9698 100.635 62.1342C98.2999 60.5816 95.9808 58.8797 93.5053 57.5594C92.355 56.9458 91.0695 56.8466 89.8752 56.3442C88.7121 55.855 87.2846 55.8544 86.0709 56.1633C85.4797 56.3139 85.0774 56.6706 84.5336 56.9035C83.8965 57.1765 83.3767 56.8752 82.816 56.5494C81.9592 56.0517 81.1101 55.2407 82.3301 54.7038C82.7438 54.5215 83.2624 54.4525 83.6239 54.1661C84.0093 53.8609 84.3187 53.2978 84.632 52.9154C85.3286 52.0654 85.7447 51.0871 86.7643 50.5585C87.8918 49.974 89.2283 49.8149 90.4305 49.4328C91.7331 49.0191 93.0085 48.527 94.2868 48.0439C96.5899 47.1736 98.9843 46.2339 100.639 44.3178C102.067 42.6649 102.689 40.5312 102.631 38.3642C102.513 33.9341 100.15 29.438 96.7585 26.6682C92.6001 23.2717 87.3098 22.1391 82.057 22.1985C79.5918 22.2264 76.6498 22.5504 74.5928 24.0542C72.8161 25.3531 72.5206 27.6249 72.7849 29.6756C72.8921 30.5079 73.2587 31.6063 72.6741 32.3396C72.3469 32.75 71.7596 32.8515 71.3188 33.1073C70.7651 33.4287 70.2766 33.7368 69.6493 33.9067C66.9849 34.6293 64.1782 34.3777 61.4538 34.3377C56.9155 34.271 52.2636 35.5047 48.8781 38.7154C46.1441 41.308 45.3242 46.1969 48.6586 48.7244C51.3527 50.7662 55.5783 50.5417 58.7549 50.1855C59.7399 50.0749 60.4173 49.9143 60.4196 51.1243C60.422 52.4461 60.2041 53.8275 60.5399 55.125C61.0689 57.1688 63.0248 57.2174 64.7539 56.7773C65.6663 56.5452 66.5484 56.196 67.4147 55.8303C68.6856 55.294 69.8505 54.5054 71.1056 53.97C71.9564 53.6072 72.5935 54.7806 73.3482 53.9671C73.4876 53.8168 73.5135 53.5928 73.7237 53.5158C74.0534 53.3953 74.6062 53.8178 74.8954 53.9515C75.3283 54.1515 75.7647 54.2987 75.9376 54.7806C76.0994 55.2313 76.0285 55.9481 75.8735 56.3927C75.5368 57.3594 74.6299 57.1683 73.802 57.1036C72.358 56.9908 70.9238 56.7516 69.4804 56.6511C68.1854 56.5611 66.9726 56.9495 65.8557 57.5908C63.5096 58.9374 61.5901 61.0794 59.5559 62.841C58.5089 63.7475 57.4969 64.7268 56.3584 65.5162C55.8633 65.8596 55.3272 66.1751 54.897 66.6017C54.47 67.0248 54.423 67.4095 54.2771 67.9727C54.017 68.9753 52.7256 69.4653 51.9184 69.9944C50.7769 70.7424 49.5667 71.2701 48.2869 71.7291C45.5768 72.7011 42.8453 73.3797 40.012 73.8813C38.6247 74.1271 37.2491 74.2885 35.8484 74.4211C34.6409 74.5353 33.357 74.9087 32.1511 74.6105C32.4984 74.0448 33.1139 73.7052 33.5933 73.268C34.2112 72.7044 34.7367 72.0364 35.2045 71.3445C36.1148 69.997 36.7534 68.5511 36.9 66.9167C37.0322 65.4457 36.8806 63.6861 35.9966 62.4435C35.6913 62.0142 35.0871 61.8975 34.8139 61.5107C34.542 61.1264 34.6457 60.4646 34.4969 60.0165C34.1182 58.8766 32.9942 57.4641 32.005 56.802C30.9318 56.0836 29.3619 55.8197 28.1223 56.194C25.8256 56.8876 24.4148 59.3519 23.3639 61.3434C22.7898 60.1306 23.7512 58.3312 22.6297 57.338C21.6838 56.5001 20.933 58.1232 20.6167 58.8175C19.1316 62.0771 18.7943 65.5342 18.1721 69.0218C17.9185 68.7708 18.0485 68.1268 18.0723 67.8275C18.1167 67.2701 18.1125 66.7235 18.1137 66.164C18.1167 64.7503 18.3784 63.3302 18.2584 61.9178C18.1892 61.1013 17.9299 59.3798 16.7484 59.651C15.7464 59.8811 15.1188 61.2957 14.804 62.1606C14.3499 63.4081 14.2451 64.643 14.2733 65.9608C14.3046 67.4168 14.0283 68.849 13.9614 70.3031C13.8313 73.1274 13.9598 75.9271 14.7669 78.6529C16.0886 83.1164 19.1275 86.825 23.1833 89.0645C25.4179 90.2985 27.8969 91.0792 30.4456 91.2471C31.8268 91.3381 33.1602 91.173 34.5297 91.0297C35.881 90.8881 37.2394 90.8227 38.5885 90.6567C41.5927 90.2867 44.5201 89.3318 47.2509 88.0469C48.6882 87.3704 50.04 86.5399 51.4538 85.8187C52.0212 85.5296 52.4044 85.1676 52.8886 84.7652C53.3686 84.3665 53.5014 84.3353 54.0474 84.3353C53.8872 83.9052 54.3545 83.7726 54.5625 83.5004C54.5509 83.6326 54.5391 83.7644 54.5275 83.8963C54.686 83.5511 54.8336 83.5544 54.9702 83.9063C55.1051 83.5123 55.205 83.107 55.3681 82.7229C55.9913 83.0396 55.9388 83.7923 56.7722 83.2427C57.4585 82.7905 58.0896 82.2567 58.7892 81.8135C60.3829 80.8034 61.757 79.4893 63.3553 78.4909C63.3553 79.4634 63.4237 80.4441 63.2942 81.4116C63.171 82.3316 62.829 83.1914 62.5569 84.0722C62.0551 85.697 62.0204 87.4336 61.4644 89.042C61.2343 89.7082 60.6353 90.2653 60.4634 90.9137C60.2883 91.5754 60.6928 92.1055 60.0148 92.5398C59.5366 92.8461 58.9391 92.9753 58.4096 93.1605C57.6021 93.4433 56.8353 93.842 56.0492 94.1802C52.3619 95.7666 48.7652 97.3822 45.3489 99.5151C42.1068 101.539 38.8152 103.63 35.8369 106.033C33.2521 108.12 30.6393 110.817 30.01 114.22C29.3995 117.522 31.0263 121.065 34.2927 122.152C35.991 122.717 37.9111 122.647 39.6798 122.672C41.5829 122.698 43.5997 122.238 45.4709 121.904C47.4469 121.553 49.3892 121.002 51.371 120.688C53.2725 120.386 55.0164 119.712 56.8868 119.297C58.8788 118.855 60.9221 118.614 62.9251 118.217C63.827 118.037 64.7104 117.773 65.6147 117.607C66.6047 117.426 67.6055 117.358 68.5858 117.117C70.4873 116.651 72.3079 115.898 74.2177 115.464C75.0763 115.269 75.9218 115.008 76.7808 114.825C77.5715 114.657 78.1876 114.211 78.9802 114.578C79.6205 114.874 80.1313 115.381 80.7373 115.735C81.5232 116.194 82.3518 116.605 83.1713 117C84.8177 117.793 86.5252 118.341 88.2468 118.936C90.055 119.562 91.8308 120.276 93.7042 120.689C95.6247 121.112 97.584 121.23 99.5178 121.565C103.478 122.251 107.405 122.559 111.425 122.584C113.457 122.597 115.489 122.355 117.516 122.383C119.311 122.409 120.871 122.815 122.512 121.857C125.135 120.326 128.176 118.021 128.112 114.672C128.053 111.639 126.241 108.741 124.541 106.348C122.477 103.443 119.534 101.397 116.65 99.3934C113.575 97.2578 110.122 95.782 106.891 93.9178C105.239 92.9644 103.715 91.9386 101.921 91.2611C101.064 90.9378 100.228 90.5629 99.382 90.2147C98.7008 89.9346 97.7174 89.7798 97.1344 89.315C96.7706 89.0249 96.7357 88.5857 96.6397 88.1546C96.4269 87.2003 96.0928 86.2955 95.7687 85.3752C95.1432 83.5982 94.7274 81.7885 94.4586 79.9248C94.2023 78.1483 93.6334 76.3007 93.928 74.495C95.8659 76.3772 97.8572 78.1863 99.84 80.0185C100.583 80.7051 101.312 81.4061 102.059 82.0885C102.62 82.6009 103.321 83.3619 104.103 83.5139C105.101 83.7082 104.737 82.5995 105.422 82.4277C105.841 82.3228 107.104 83.3915 107.436 83.6026C109.535 84.9407 111.859 85.7886 114.168 86.6995C116.59 87.6545 119.08 88.5029 121.685 88.7432C124.092 88.9657 126.552 88.6803 128.875 88.022C133.5 86.711 136.903 83.6006 139.401 79.5687C142.246 74.9742 144.317 69.5922 144.15 64.1076Z" fill="#1C1C1C"/>
<path fill-rule="evenodd" clip-rule="evenodd" d="M73.465 54.0917C73.4642 54.093 73.4572 54.108 73.4572 54.108C73.4659 54.102 73.4684 54.0966 73.465 54.0917Z" fill="#1C1C1C"/>
<path fill-rule="evenodd" clip-rule="evenodd" d="M73.6878 54.1506C73.6705 54.0044 73.6331 53.8613 73.5758 53.7212C73.423 53.9646 73.2861 54.0688 73.487 54.3266C73.5538 54.2679 73.6207 54.2093 73.6878 54.1506Z" fill="#1C1C1C"/>
<path fill-rule="evenodd" clip-rule="evenodd" d="M84.3528 88.9815C84.5237 88.7987 84.2247 88.7298 84.111 88.7274C84.1223 88.9234 84.0255 89.3933 84.2927 89.4841C84.2286 89.3068 84.2486 89.1392 84.3528 88.9815Z" fill="#1C1C1C"/>
<path fill-rule="evenodd" clip-rule="evenodd" d="M79.8352 50.6969C79.5409 51.2676 80.1911 51.4446 80.5675 51.1689C80.8507 50.9616 81.0182 50.4332 81.0647 50.0942C81.2152 48.9973 80.4507 47.9532 80.0695 46.9798C79.971 46.7283 79.8361 45.8654 79.5188 45.8417C79.1545 45.8145 79.1275 46.6092 79.1228 46.8142C79.1088 47.4325 79.2718 48.0623 79.4628 48.6459C79.6687 49.2751 80.179 50.0304 79.8352 50.6969Z" fill="#1C1C1C"/>
<path fill-rule="evenodd" clip-rule="evenodd" d="M81.2352 48.4081C82.3664 49.4195 83.2715 47.7349 83.1924 46.7385C83.1729 46.4917 83.0067 45.5814 82.5403 45.9126C82.3061 46.079 82.5058 46.6199 82.3941 46.8574C81.853 48.0085 81.3319 46.2228 80.9676 46.0827C80.5243 45.9119 80.4797 46.4967 80.4804 46.8093C80.4814 47.4299 80.7756 47.9971 81.2352 48.4081Z" fill="#1C1C1C"/>
<path fill-rule="evenodd" clip-rule="evenodd" d="M77.1286 48.5652C77.395 48.1439 77.7227 47.5788 77.7589 47.0741C77.8151 46.2895 77.3598 46.355 76.9849 46.9024C76.7203 47.2891 76.5217 47.945 75.9373 47.7819C75.2158 47.581 75.4363 46.6069 75.0324 46.144C74.0125 47.5194 75.9426 50.4398 77.1286 48.5652Z" fill="#1C1C1C"/>
<path fill-rule="evenodd" clip-rule="evenodd" d="M78.6571 52.7744C79.079 52.8659 80.1788 52.8323 79.7977 52.1837C79.3171 51.3668 77.719 52.5707 78.6571 52.7744Z" fill="#1C1C1C"/>
<path fill-rule="evenodd" clip-rule="evenodd" d="M93.435 28.413C93.5122 28.1824 93.4062 28.1406 93.2224 27.959C93.0483 28.1203 93.2712 28.2901 93.435 28.413Z" fill="#1C1C1C"/>
<path fill-rule="evenodd" clip-rule="evenodd" d="M101.304 70.2309C101.581 70.2753 101.671 70.1277 101.572 69.7881C101.133 69.7597 101.044 69.9072 101.304 70.2309Z" fill="#1C1C1C"/>
<path fill-rule="evenodd" clip-rule="evenodd" d="M86.1067 34.5586C86.4137 34.6995 86.2961 34.9887 86.2908 35.233C86.449 35.0605 86.7683 34.745 86.6382 34.4972C86.438 34.1152 85.9144 34.4704 86.1067 34.5586Z" fill="#1C1C1C"/>
<path fill-rule="evenodd" clip-rule="evenodd" d="M75.6497 29.7491C75.603 29.6575 75.5563 29.5659 75.5095 29.4744C75.3192 29.6278 75.0252 30.0334 75.3278 30.2311C75.4518 30.0799 75.5591 29.9193 75.6497 29.7491Z" fill="#1C1C1C"/>
<path fill-rule="evenodd" clip-rule="evenodd" d="M79.3334 32.4444C79.7149 32.7446 79.532 31.8228 79.5205 31.7476C79.4638 31.8556 79.1408 32.2926 79.3334 32.4444Z" fill="#1C1C1C"/>
<path fill-rule="evenodd" clip-rule="evenodd" d="M79.1216 31.9762C79.0925 31.9001 79.0631 31.8238 79.034 31.7476C78.8793 31.8913 78.69 32.1848 78.9453 32.3529C79.0154 32.2352 79.0741 32.1096 79.1216 31.9762Z" fill="#1C1C1C"/>
<path fill-rule="evenodd" clip-rule="evenodd" d="M81.5474 35.1456C81.5786 35.1744 81.6097 35.2033 81.6407 35.2324C81.7666 34.9775 81.6235 34.7862 81.386 34.7783C81.4029 34.9213 81.4567 35.0438 81.5474 35.1456Z" fill="#1C1C1C"/>
<path fill-rule="evenodd" clip-rule="evenodd" d="M71.3129 63.8487C71.4642 63.7454 71.6015 63.6273 71.7251 63.4949C71.2773 63.2201 71.5456 63.8157 71.0065 63.4499C70.8905 63.6111 71.0801 63.9719 71.3129 63.8487Z" fill="#1C1C1C"/>
<path fill-rule="evenodd" clip-rule="evenodd" d="M90.1554 88.8783C90.3258 88.6159 90.3565 88.6235 90.1239 88.4243C89.9299 88.7486 89.95 88.6653 90.1554 88.8783Z" fill="#1C1C1C"/>
<path fill-rule="evenodd" clip-rule="evenodd" d="M54.5193 47.0646C54.612 47.1616 54.7047 47.2588 54.7974 47.3556C54.8407 47.2286 55.0767 46.8697 54.9163 46.7502C54.7841 46.855 54.6516 46.9597 54.5193 47.0646Z" fill="#1C1C1C"/>
<path fill-rule="evenodd" clip-rule="evenodd" d="M57.8202 48.0264C57.6721 48.0016 57.3181 47.8932 57.2362 48.0314C57.4528 48.2095 57.9414 48.0468 57.8202 48.0264Z" fill="#1C1C1C"/>
</svg>
