<svg width="157" height="157" viewBox="0 0 157 157" fill="none" xmlns="http://www.w3.org/2000/svg">
<circle cx="78.2104" cy="78.2104" r="78.2104" fill="white"/>
<path fill-rule="evenodd" clip-rule="evenodd" d="M53.5193 67.514C53.9932 72.3182 54.4672 77.1226 54.941 81.9266C57.5212 80.4485 60.1015 78.9702 62.6816 77.492V88.4367V91.3134C62.6816 91.568 62.5311 92.4424 62.6816 92.6629C62.8093 92.8498 63.7547 92.8552 63.9783 92.8867C65.4371 93.0918 66.8995 93.2742 68.3639 93.4365C72.2235 93.8645 76.3543 94.4776 80.2287 93.9859C83.5964 93.5584 86.8613 92.3557 89.9381 90.9564C91.0183 90.4651 92.0835 89.9392 93.1289 89.3773C93.3505 89.2582 94.1551 88.9769 94.2756 88.7345C94.374 88.5363 94.143 87.8402 94.1122 87.632C93.9823 86.7541 93.8522 85.8762 93.7222 84.9985L91.9063 72.7406L95.3366 76.1798C95.6053 76.4492 96.1156 77.2142 96.4875 77.3336C96.7601 77.4212 97.4352 77.1501 97.7048 77.0982C99.6471 76.7223 101.589 76.3464 103.532 75.9707C103.984 75.8831 105.004 75.8864 105.386 75.612C105.591 75.4641 105.601 75.1633 105.673 74.8782C106.147 73.0147 106.621 71.1513 107.094 69.2881C107.18 68.9524 107.656 67.8942 107.535 67.5561C107.491 67.4351 107.281 67.3522 107.153 67.2732C104.221 65.4755 101.29 63.6777 98.3581 61.88C96.7521 60.8952 95.1461 59.9104 93.5402 58.9256C92.8676 58.513 92.0412 57.7697 91.279 57.5389C90.8058 57.3957 90.1174 57.503 89.6278 57.4889C88.6326 57.4604 87.6378 57.4319 86.6427 57.4034C86.4869 57.399 85.9413 57.2875 85.8101 57.3796C85.701 57.4563 85.7463 57.5631 85.7105 57.7459C85.623 58.1923 85.6224 58.6736 85.5792 59.1267C85.5446 59.4903 85.6133 60.1571 85.4502 60.4862C85.3459 60.6966 85.4781 60.6128 85.3371 60.7145C85.1691 60.8355 84.633 60.7966 84.4332 60.8198C83.4581 60.9336 82.4831 61.0472 81.508 61.1609C80.3488 61.2961 79.1766 61.5498 78.012 61.4329C76.2464 61.2559 74.3426 61.2647 72.6088 60.8913C72.1583 60.7942 71.996 60.5393 71.6484 60.1909C70.9701 59.5108 70.2986 58.8228 69.6127 58.1499C69.2766 57.8201 69.4206 57.8761 69.074 58.0011C68.6398 58.1578 68.1993 58.536 67.8063 58.7764C66.3004 59.6973 64.7945 60.6184 63.2885 61.5393L54.0947 67.1621C53.9028 67.2794 53.7111 67.3967 53.5193 67.514Z" fill="#F0DD33"/>
<path fill-rule="evenodd" clip-rule="evenodd" d="M141.457 68.1113C139.562 75.3354 135.75 83.2124 128.071 85.5151C126.204 86.0749 124.387 86.4976 122.448 86.2844C122.264 86.2641 122.109 86.2901 121.934 86.2934C121.619 86.2995 121.891 86.4129 121.538 86.3036C121.263 86.2183 121.005 86.0051 120.719 85.9108C119.957 85.6605 119.144 85.6121 118.37 85.4098C116.467 84.9128 114.506 84.2992 112.662 83.6137C111.794 83.2911 110.996 82.8416 110.179 82.4093C109.349 81.97 108.469 81.697 107.63 81.2941C106.966 80.9755 105.83 80.5605 105.364 79.9629C104.866 79.3257 105.554 77.9692 105.751 77.2918C106.42 74.9869 107.216 72.7157 107.719 70.3648C109.455 72.3846 111.864 73.6354 114.358 74.4421C115.711 74.8799 117.103 75.1963 118.511 75.3944C119.789 75.5741 121.168 75.7917 122.449 75.5365C123.416 75.3438 124.629 74.8975 125.32 74.1564C125.567 73.8918 125.862 73.4069 125.724 73.0226C125.549 72.5348 125.038 72.7644 124.762 72.4004C124.521 72.0832 124.559 71.3415 124.482 70.9554C124.346 70.2719 124.16 69.6073 123.932 68.9494C123.49 67.6721 122.94 66.3919 122.808 65.0327C122.693 63.8535 122.96 62.7383 123.546 61.7151C123.823 61.2314 124.519 59.9154 125.197 59.9701C125.942 60.0301 124.937 63.1834 124.904 63.8267C124.774 66.3765 125.115 69.0936 126.418 71.3285C126.917 72.1843 127.639 73.1806 128.704 73.2867C129.833 73.3989 130.743 72.5075 131.28 71.6055C132.591 69.405 131.93 66.3853 131.266 64.079C130.452 61.2493 128.327 59.2989 126.983 56.7576C128.989 56.96 130.064 58.2396 131.093 59.8631C132.227 61.6504 133.109 63.7962 133.544 65.8759C133.764 66.9266 133.612 67.9817 133.614 69.0428C133.614 69.3953 133.614 70.6957 134.187 70.6444C134.798 70.5897 135.008 69.1231 135.098 68.6756C135.304 67.6494 135.528 66.623 135.707 65.5917C136.023 63.767 136.164 61.8982 136.544 60.086C136.608 59.7798 136.736 58.9299 137.192 59.1593C137.545 59.336 137.488 60.6505 137.501 60.956C137.533 61.7089 137.577 62.4618 137.583 63.2154C137.592 64.3324 137.37 65.4887 137.479 66.5989C137.55 67.3243 137.938 68.1258 138.419 67.1476C138.895 66.1773 138.993 64.9674 139.258 63.924C139.538 62.8285 139.826 61.7169 140.418 60.7439C140.583 60.474 140.76 60.0454 141.125 60.1724C141.39 60.2649 141.586 60.8965 141.668 61.1194C142.039 62.127 141.976 63.2472 141.952 64.3019C141.924 65.5944 141.786 66.8582 141.457 68.1113ZM104.5 69.986C104.399 69.9531 103.969 69.9122 103.862 69.9028C103.737 69.8919 103.879 69.6605 103.576 69.7262C103.635 69.8717 103.739 69.9687 103.888 70.0174C103.433 70.1719 103.097 69.7902 102.786 69.7411C102.488 69.6941 102.476 69.7411 102.182 70.0568C101.863 69.667 101.923 69.9101 101.661 69.9102C101.566 69.9104 101.562 70.0548 101.407 70.0375C101.271 70.0224 101.257 69.8163 101.177 69.792C100.743 69.66 100.296 70.3241 99.8035 69.7481C99.6841 70.3474 98.3166 69.5967 97.7904 69.702C97.2389 69.8122 97.4768 70.0107 97.0311 69.6714C96.6063 69.3481 96.7248 69.5629 96.2308 69.8275C96.2423 69.8213 95.9519 70.0181 95.9789 70.0213C95.6369 69.9811 95.6564 69.6262 95.2233 69.645C94.7649 69.665 94.5692 70.0258 94.1496 69.5818C94.0584 69.9143 94.0395 69.7711 93.8246 69.8549C93.7063 69.8831 93.6029 69.8519 93.5141 69.7614C93.4873 69.8528 93.4282 69.9088 93.3368 69.9295C93.1027 69.9505 92.6631 69.9833 92.4505 69.8701C92.1314 69.7002 92.3878 69.6349 92.1666 69.4438C92.0674 69.9707 91.85 69.8587 91.3915 69.9079C91.0418 69.9455 90.9647 69.8378 90.6306 69.7853C90.3016 69.7338 89.8764 69.862 89.5554 69.9166C89.4228 69.9393 89.2455 70.0321 89.1105 69.9995C88.989 69.9701 88.937 69.8754 88.8644 69.8505C88.7762 69.8208 88.7949 69.7434 88.6427 69.7058C88.5376 69.6802 88.3495 69.779 88.2446 69.7961C87.4963 69.9181 86.7777 69.9193 86.0639 69.6238C86.4154 70.2441 85.2422 69.9092 85.033 69.6523C84.7716 70.0636 84.4552 69.7732 83.9283 69.8053C83.4209 69.8363 82.6576 69.9924 82.4519 69.3578C82.4116 69.4867 82.1236 69.8611 82.009 69.9182C81.6763 70.0837 81.6366 69.8388 81.3274 69.7391C80.9064 69.6033 80.9943 69.8611 80.7331 69.9134C80.2926 70.002 80.0544 69.6905 79.665 69.5248C79.6485 69.7823 79.6401 69.9407 79.4183 70.101C79.222 69.3832 78.5212 70.1598 78.6415 69.2004C78.3748 69.3747 77.9997 69.5086 77.9238 69.8611C78.3696 69.7379 77.9713 70.0305 77.9526 70.0402C77.8937 70.0712 77.6946 69.7906 77.6485 69.7511C77.6358 69.8834 77.6233 70.0158 77.6107 70.1481C77.4331 70.059 77.2663 69.8993 77.1221 69.8193C76.9922 69.7473 77.1783 69.5973 76.9588 69.587C76.8432 69.5814 76.7225 69.8329 76.6011 69.8544C76.4155 69.887 76.5047 69.6197 76.4269 69.6286C76.3086 69.6423 76.1157 69.8161 76.0262 69.8128C75.7328 69.8019 75.9314 69.6647 75.7074 69.6018C75.3073 69.4894 75.3329 69.7522 75.0453 69.8469C74.387 70.0639 74.4531 69.0655 73.7836 69.7314C73.6233 69.8907 73.5202 70.1368 73.3007 70.123C72.8463 70.0943 73.0058 69.5535 73.0982 69.2886C73.1937 69.3359 71.4377 70.2415 71.4516 70.206C71.4626 69.9889 71.7389 69.8214 71.4921 69.6285C71.2903 70.0633 71.0779 70.0708 70.6124 70.1518C70.3862 70.1912 70.3416 70.2438 70.0995 70.1493C69.9453 70.0893 69.8417 69.8423 69.6884 69.8287C69.7091 69.8307 69.4276 70.0457 69.3847 70.0649C69.1307 70.18 68.9699 70.0496 68.7232 70.0969C68.5126 70.1372 68.4297 70.317 68.2204 70.2677C67.941 70.2021 68.1051 69.867 67.7206 69.9605C67.5892 69.9925 67.5102 70.2468 67.3031 70.2992C66.9803 70.3814 66.5847 70.2283 66.2436 70.3082C65.9728 70.3717 65.7719 70.3985 65.5351 70.4117C65.3438 70.4224 65.4225 70.273 65.0703 70.4494L64.9211 70.0715C64.7448 70.2307 64.5685 70.3897 64.3922 70.549C64.3588 70.4062 64.3375 70.2618 64.3286 70.1154C64.0657 70.3798 63.7347 70.425 63.3812 70.4488C62.9986 70.4746 62.7135 70.5582 62.3411 70.6285C62.2234 70.6507 61.9202 70.6861 61.8234 70.6447C61.8376 70.6508 61.6423 70.5693 61.7011 70.5847C61.6758 70.5329 61.6522 70.4802 61.6305 70.4265C61.5976 70.2774 61.4907 70.2709 61.3102 70.4068C61.2168 70.3924 61.0357 70.2694 60.9425 70.2997C60.7024 70.3779 60.735 70.5649 60.4958 70.5374C60.3405 70.5196 60.2612 70.2892 60.0996 70.2736C59.8522 70.2498 59.6377 70.5278 59.4148 70.5884C60.0926 70.4036 58.5357 70.547 59.0198 70.5597C58.7023 70.5514 58.3729 70.5356 58.0796 70.6784C57.9175 70.5672 58.1143 70.3435 57.9505 70.2515C57.802 70.168 57.7905 70.3885 57.7732 70.3933C57.8669 70.3667 57.8201 70.5543 57.7264 70.5876C57.4343 70.6916 57.2005 70.4273 57.1854 70.1651C56.9373 70.5402 56.8676 70.3894 56.5026 70.4126C56.1426 70.4355 55.8321 70.6249 55.472 70.6214C54.7597 70.6146 54.2764 70.3661 54.0387 69.7276C54.7976 69.8205 55.5615 69.3304 56.3037 69.4459C56.5476 69.4838 56.6999 69.6677 56.9136 69.635C57.1768 69.5949 57.3607 69.3065 57.6983 69.2754C58.4429 69.2071 59.1769 69.2736 59.9266 69.159C60.8221 69.022 61.7565 68.941 62.6606 69.0076C63.3593 69.0593 63.925 68.7911 64.6335 68.7394C65.5496 68.6724 66.4731 68.6606 67.3908 68.6123C68.3336 68.5625 69.3482 68.4115 70.2884 68.46C70.5819 68.475 70.8346 68.5039 71.1259 68.4863C71.2491 68.4789 71.3657 68.3948 71.4949 68.4074C71.6634 68.4237 71.7357 68.5968 71.9103 68.5907C72.2071 68.5806 72.5243 68.3351 72.8771 68.3284C73.4571 68.3174 74.0346 68.3187 74.6162 68.2855C75.1281 68.2563 75.6766 68.1363 76.1863 68.1428C76.5459 68.1473 76.6346 68.4548 76.8441 68.4866C77.2209 68.5436 79.1266 67.4548 79.2913 68.4321C80.2834 67.7503 81.6139 68.3275 82.7183 68.1995C84.1369 68.0349 85.5817 68.1816 87.01 68.1229C88.4633 68.0634 89.9585 68.1185 91.4062 68.2561C92.0058 68.3131 92.5851 68.3666 93.1864 68.3321C93.4545 68.3166 93.7644 68.2479 94.0324 68.3099C94.0973 68.3251 94.5945 68.6735 94.5328 68.6835C94.8043 68.4387 94.6206 68.4028 95.0983 68.3902C95.4666 68.3805 95.8148 68.4604 96.181 68.4822C96.8383 68.5212 97.5005 68.4298 98.1563 68.45C98.7039 68.4668 99.2393 68.5479 99.7897 68.5518C100.383 68.5562 101.084 68.573 101.513 69.0532C101.468 68.9025 101.423 68.7517 101.377 68.6009C102.039 68.6529 102.694 68.8902 103.363 68.7793C103.194 68.9422 103.022 69.0752 102.957 69.3142C103.318 69.2681 103.563 69.0151 103.943 69.0131C104.262 69.0111 104.329 69.1719 104.666 68.9641C104.707 69.2187 104.749 69.4733 104.79 69.7278C105.257 69.6174 104.951 69.268 104.985 68.9529C105.364 69.0673 105.686 68.936 105.536 69.4839C105.421 69.9064 104.895 70.1146 104.5 69.986ZM103.844 74.6923C103.681 75.1515 102.273 74.8891 101.94 74.8405C101.51 74.7781 101.018 74.6788 100.622 74.6295C100.574 74.5659 100.517 74.5119 100.451 74.4675C100.401 74.5373 100.338 74.5868 100.262 74.6158C100.08 74.6558 100.079 74.8443 99.8405 74.8026C99.8293 75.0816 100.022 74.9231 100.17 75.0243C99.7976 75.2751 99.968 74.9864 99.7589 74.991C99.7072 74.9172 99.635 74.8882 99.5425 74.9041C99.4246 74.9348 99.3161 74.9854 99.2168 75.056C99.1235 75.1548 99.0438 75.1598 98.9774 75.0714C98.9137 75.0072 98.8361 74.9675 98.7444 74.9525C98.3773 75.0123 98.2746 75.1759 97.8612 75.1492C97.2706 75.111 96.6317 75.2672 96.0503 75.1849C95.69 75.134 95.0879 74.5656 94.9243 75.1196C94.6753 74.709 94.2785 74.4295 94.04 74.0099C95.151 73.9453 96.2616 73.8685 97.3736 73.8282C98.3471 73.793 99.4121 73.9031 100.322 73.857C101.174 73.8138 102.077 73.7192 102.947 73.6412C103.869 73.5584 104.174 73.7617 103.844 74.6923ZM74.8607 74.76C75.2641 74.8722 75.6483 74.618 76.0395 74.6983C76.1688 74.7249 76.4366 74.9613 76.4955 74.966C76.6032 74.9746 76.9199 74.7424 77.0557 74.7114C77.915 74.515 78.956 74.5359 79.8151 74.6565C80.2704 74.7203 80.3403 74.5112 80.7377 74.4097C81.1506 74.3039 81.7378 74.3853 82.1726 74.3562C83.1958 74.2874 84.2186 74.3363 85.2348 74.2611C86.2781 74.184 87.3162 74.1423 88.3599 74.0884C89.071 74.0517 90.7796 73.6445 91.3689 74.1745C91.8549 74.6114 91.2288 75.37 90.7428 75.5432C90.3792 75.6723 90.2051 75.4 89.9353 75.4261C89.628 75.4556 89.7351 75.8201 89.4609 75.482C89.2909 75.8182 88.2226 75.6749 87.9165 75.6972C87.2494 75.7455 86.685 75.8799 86.2308 75.2551C86.2616 75.4351 86.2924 75.6155 86.3232 75.7957C85.7211 75.4726 85.0748 75.5759 84.5521 75.6887C84.2933 75.7444 83.4987 76.1298 83.2183 75.9636C83.0254 75.8493 83.3655 75.6538 83.0399 75.5562C82.8693 75.505 82.5749 75.7894 82.3664 75.7752C81.7895 75.7353 81.9532 75.3459 81.3866 75.8416C81.1946 75.6749 81.1307 75.3915 81.1561 75.1486C80.7445 75.5011 80.7789 76.0886 80.0429 75.981C79.7687 75.941 79.7183 75.6602 79.5753 75.6084C79.2707 75.4979 79.2362 75.6964 78.9723 75.8535C78.8727 75.9128 78.7512 76.0081 78.6339 76.0201C78.393 76.0442 78.3548 75.9331 78.3218 75.9367C78.1615 75.9545 77.9595 76.0363 77.7694 75.9778C77.5986 75.9254 77.5487 75.6229 77.248 75.6937C76.9602 75.7614 76.9578 75.9577 77.01 76.2515C76.7261 76.222 76.5545 76.0633 76.3421 75.8913C76.1278 76.3933 75.6765 75.9775 75.4268 76.4011C75.1017 76.0113 74.8931 76.1186 74.4897 75.7379C74.5096 75.8967 74.5294 76.0556 74.549 76.2145C74.2343 76.1536 74.0942 75.9307 73.8255 76.2256C73.5649 75.7381 72.7746 76.4327 72.3686 75.9619C72.1876 76.5582 70.9904 76.4156 70.4847 76.4259C70.0366 76.4352 69.7048 76.3983 69.267 76.5028C68.8801 76.595 68.3438 76.6908 67.9799 76.6485C67.7422 76.621 67.4823 76.5772 67.186 76.6096C66.759 76.656 66.3901 76.878 65.9477 76.773C65.2817 76.6149 64.8734 75.7364 65.6152 75.3506C66.123 75.0866 67.0376 75.1843 67.5964 75.1355C68.5224 75.0548 69.5602 74.8855 70.4874 74.9625C71.2107 75.0225 71.87 74.8493 72.6079 74.7761C73.1635 74.7211 74.0741 74.6218 74.4365 75.1746C74.5756 75.0132 74.5612 74.6768 74.8607 74.76ZM64.7235 82.3274C64.624 81.8302 68.8576 81.5564 69.2778 81.524C70.1601 81.4556 71.0447 81.407 71.929 81.3844C72.6559 81.3659 73.3344 81.5052 74.0615 81.3932C74.7405 81.2886 75.5601 81.0742 76.1512 81.5569C76.2381 80.8967 78.7865 81.2183 79.2713 81.2201C81.3819 81.2277 83.4014 81.2327 85.4428 81.1015C86.6095 81.0265 87.8484 80.9255 89.0153 80.9842C89.5416 81.0107 89.9655 81.1515 90.4888 81.0292C90.8302 80.9496 91.198 80.7837 91.5246 81.0181C91.9066 81.2927 92.07 82.2247 91.8067 82.6137C91.615 82.8971 91.4452 82.8657 91.139 82.8166C90.6682 82.7415 90.3183 82.632 89.8382 82.8242C89.916 82.793 89.5166 82.8825 89.5496 82.88C89.0058 82.9207 88.2599 83.3022 87.7912 82.8625C87.979 82.8956 88.2519 82.559 88.0152 82.5313C87.8374 82.5107 87.7247 82.7019 87.586 82.766C87.1114 82.9851 86.8686 82.9166 86.5852 82.4569C86.0138 82.9535 85.9522 82.816 85.7014 82.2045C85.5082 82.3538 85.4667 82.7072 85.3147 82.823C85.292 82.8403 85.3856 83.0548 85.2759 83.0461C85.174 83.0377 85.1406 82.8701 85.0623 82.8569C85.0123 82.8484 84.9862 82.7014 84.9384 82.6925C84.8865 82.6828 84.8332 82.7766 84.7743 82.7739C84.6173 82.7665 84.1683 83.102 84.3293 82.6311C84.0913 82.935 83.989 82.7413 83.9031 82.4647C83.6284 82.6745 83.3538 82.8841 83.079 83.0936C82.9513 82.7371 82.7314 82.8342 82.4549 82.9588C82.5382 82.7111 82.486 82.4769 82.2769 82.649C82.1557 82.7487 82.0745 83.0651 81.9506 83.1996C81.449 82.6896 81.2667 82.8295 80.5738 82.8959C80.3093 82.921 79.9806 82.9701 79.7444 82.8097C79.5365 82.6687 79.4191 82.1513 79.0638 82.5693C79.143 82.4764 79.019 83.1905 78.9971 83.3038C78.8404 83.1979 78.7073 83.0674 78.5977 82.9128C78.3933 83.3191 77.8566 82.9545 77.4169 83.0376C76.7246 83.1684 76.0105 83.3885 75.3989 82.8712C75.3557 83.0382 74.8548 83.2509 74.854 83.2575C74.8838 82.9616 75.0696 83.0656 74.6901 83.0095C74.6202 82.9992 74.541 83.1253 74.475 83.1391C74.2488 83.1861 73.9845 83.1415 73.7564 83.135C72.8078 83.1076 71.9394 83.3187 71.0027 83.3952C70.687 83.4208 70.3124 83.4714 70.0159 83.352C69.7106 83.2287 69.7189 83.0888 69.4099 83.1682C69.5077 83.1432 69.2169 83.4499 69.2326 83.4384C69.1911 83.4687 69.0178 83.319 68.9562 83.3302C68.9382 83.3957 68.9203 83.461 68.9023 83.5264C68.8277 83.5172 68.7533 83.508 68.6789 83.4989C68.4752 83.5263 68.2915 83.3193 68.1001 83.3123C68.1353 83.3135 67.5836 83.5198 67.6088 83.5324C67.2236 83.3394 67.3342 83.3954 66.8456 83.5128C66.3838 83.6237 65.924 83.5978 65.4502 83.6671C64.072 83.868 64.8931 83.1746 64.7235 82.3274ZM63.5063 89.2455C63.2472 88.8765 63.9367 88.7489 64.157 88.7163C64.5191 88.6627 64.9997 88.7693 65.2411 88.7116C65.6086 88.6239 65.9634 88.4143 66.3771 88.3575C66.8994 88.2858 67.4257 88.2741 67.9501 88.2293C68.1247 88.2141 68.341 88.1538 68.5109 88.1639C68.7641 88.1792 68.8691 88.3137 69.0735 88.3146C69.4215 88.3164 69.8509 88.0957 70.2076 88.0553C70.6643 88.0033 71.1258 87.9789 71.5847 87.956C72.5518 87.9078 73.5089 87.9278 74.4755 87.9268C74.9164 87.9262 76.0903 87.4669 76.3101 87.9818C76.6158 87.5916 77.3997 87.6448 77.8367 87.6334C78.6064 87.6135 79.3682 87.539 80.1374 87.5031C80.7959 87.4723 81.5317 87.6138 82.1785 87.5147C82.5349 87.4602 82.6531 87.3455 83.0571 87.3973C83.3575 87.4355 83.8153 87.2762 84.0731 87.3467C84.0596 87.343 84.3947 87.5514 84.2901 87.5581C84.4053 87.5507 84.3985 87.6314 84.5254 87.5954C84.692 87.5482 84.6155 87.3377 84.961 87.263C85.4999 87.1463 86.2185 87.2814 86.7783 87.2514C87.3214 87.2224 87.8637 87.2098 88.4073 87.2124C88.6576 87.2135 88.9672 87.1535 89.2106 87.2026C89.3299 87.2265 89.5834 87.3829 89.6846 87.3671C89.971 87.3221 90.117 87.1224 90.5043 87.1348C90.9434 87.1488 91.3385 87.1427 91.7752 87.1091C92.1978 87.0766 92.2657 87.016 92.4752 87.3691C92.6829 87.7195 92.7401 88.1756 92.3579 88.4137C92.6062 88.3973 92.9116 88.7312 92.6191 88.9159C92.4382 89.0302 92.0757 88.7724 91.8593 88.7909C91.5925 88.8139 91.3832 88.9555 91.0931 88.9642C90.7879 88.9736 90.478 89.0508 90.1772 89.0567C89.8637 89.0627 89.6268 88.9221 89.3294 88.982C89.0678 89.0349 89.0402 89.25 88.7252 89.0611C88.5687 88.967 88.5423 88.6187 88.3287 88.6155C88.0425 88.6111 88.1566 88.9823 87.9921 89.1543C87.9479 88.6234 87.5398 89.5018 87.3775 88.8574C87.2279 89.0714 86.6741 89.3707 86.4058 89.1988C86.1613 89.0421 86.2425 88.6877 86.1406 88.4322C85.9709 88.8912 85.516 89.3675 85.5572 88.5317C85.3361 88.805 84.7388 88.7618 84.8886 89.2397C84.7085 89.2363 84.6659 88.9782 84.5144 88.9586C84.3835 88.9418 84.2797 89.0427 84.2596 89.0412C84.3313 89.0473 84.0454 89.1428 84.0409 89.1438C84.2346 89.1043 83.4826 89.037 83.6106 89.038C83.4361 89.0367 83.2225 89.18 83.0185 89.1796C82.8327 89.1791 82.6478 89.1056 82.4642 89.0847C81.9886 89.0302 82.0876 89.135 81.7889 89.2851C81.6783 89.3405 81.6505 89.4346 81.4934 89.423C81.3775 89.4142 81.3342 89.2623 81.321 89.2611C81.158 89.2446 81.2785 89.1896 81.0254 89.215C80.9962 89.2652 80.9674 89.3152 80.9383 89.3654C80.8469 89.4828 80.7283 89.5121 80.5828 89.4536C80.2082 89.5342 78.966 89.8838 79.0876 89.2364C78.8973 89.3298 78.707 89.4233 78.5166 89.5168C78.435 88.9947 77.4008 89.6868 77.1698 89.7218C76.8734 89.7663 76.8461 89.6522 76.5659 89.5915C76.5154 89.5806 76.4141 89.7479 76.2958 89.7238C75.9883 89.6618 75.9335 89.631 75.8808 89.2958C75.6617 89.7072 75.4795 89.5233 75.0819 89.5909C74.9939 89.6059 74.9378 89.7797 74.8115 89.7497C74.7204 89.7282 74.718 89.5612 74.6552 89.5396C74.5988 89.5201 74.6072 89.3883 74.5241 89.3696C74.4287 89.3479 74.1034 89.6157 74.0101 89.6571C73.7997 89.7501 73.4541 89.9043 73.2487 89.8582C72.9946 89.8012 73.1077 89.6121 72.7488 89.6334C72.1826 89.6666 71.9464 90.1505 71.5941 89.3881C71.4352 89.6935 71.4554 89.7764 71.2 89.8771C71.0113 89.9515 70.5335 89.8738 70.285 89.8645C69.2241 89.8253 68.181 90.1882 67.1288 90.0932C66.6663 90.0514 66.2763 89.9585 65.8096 90.0344C65.3192 90.1144 64.8396 90.2319 64.3421 90.2792C64.0891 90.3031 63.5605 90.3762 63.4363 90.0514C63.3272 89.7656 63.7346 89.5707 63.5063 89.2455ZM65.5871 100.965C64.2109 101.89 63.0712 103.152 61.8076 104.221C60.5407 105.292 59.5354 106.484 58.3961 107.67C57.3427 108.767 56.3749 109.805 55.1015 110.634C54.2956 111.159 53.5767 111.804 52.749 112.299C52.1289 112.669 51.1896 113.157 51.4921 112.024C51.8021 110.862 52.3745 109.689 52.8715 108.604C53.5782 107.062 54.2902 105.535 55.0547 104.023C55.3421 103.455 55.5028 102.889 55.9585 102.436C56.4543 101.944 56.8015 101.301 57.3444 100.835C59.6283 98.8774 63.0703 100.39 65.5871 100.965ZM69.9041 101.629C69.2798 101.958 68.5811 102.039 67.9196 102.256C67.3558 102.441 66.8316 102.771 66.2253 102.795C66.7773 102.379 67.2514 101.814 67.8737 101.498C68.5736 101.142 69.2089 101.401 69.9041 101.629ZM97.3038 104.367C95.0076 103.589 92.8698 102.443 90.6334 101.521C90.2473 101.361 87.2279 100.363 87.2892 99.8879C89.405 99.4987 91.5841 98.8308 93.7051 99.559C95.6345 100.221 97.2038 101.81 98.6974 103.14C99.0871 103.487 101.497 105.067 101.282 105.571C101.132 105.919 99.971 105.824 99.6968 105.753C99.3424 105.66 99.1385 105.444 98.8606 105.207C98.396 104.811 97.8821 104.563 97.3038 104.367ZM93.0649 91.3712C93.4137 91.049 93.6225 90.5601 93.9556 90.2626C94.3837 89.8805 95.0743 90.0667 95.5422 90.2652C96.9463 90.8609 98.1464 91.8623 99.5418 92.4838C101.088 93.1727 102.427 94.0932 103.822 95.0418C105.097 95.909 106.475 96.6268 107.777 97.4542C109.103 98.2977 110.587 98.8459 111.931 99.6593C113.299 100.487 114.662 101.319 115.977 102.231C118.321 103.858 120.762 105.529 122.497 107.842C123.388 109.031 124.223 110.379 124.877 111.714C125.471 112.928 126.116 114.613 125.346 115.875C124.606 117.088 123.344 118.043 122.277 118.947C121.872 119.29 121.488 119.706 120.964 119.855C120.326 120.035 119.582 119.985 118.927 120.039C115.422 120.324 112.156 120.055 108.702 119.425C105.371 118.818 102.027 118.478 98.6706 118.057C96.7772 117.819 94.8842 117.542 93.0165 117.145C92.218 116.976 91.4057 116.781 90.6245 116.55C89.9422 116.348 89.3685 115.905 88.667 115.729C85.6897 114.982 82.2834 114.697 79.3359 113.441C81.9443 112.353 84.716 111.696 87.3893 110.791C90.2029 109.839 92.9508 109.041 95.9164 108.77C97.4424 108.631 98.8081 108.24 100.276 107.83C101.675 107.44 103.135 107.321 104.572 107.146C105.211 107.068 107.035 107.184 107.247 106.346C107.562 105.097 105.77 104.953 105.006 105.065C103.923 105.224 103.029 105.495 102.2 104.602C101.353 103.691 100.531 102.758 99.6684 101.858C98.07 100.19 96.4224 98.2597 94.1628 97.5111C91.4063 96.5979 88.2098 97.4647 85.4593 97.984C82.5542 98.5326 79.6538 99.0577 76.8031 99.8551C75.6226 100.185 74.1001 100.913 72.875 100.796C71.6675 100.68 70.2998 100.482 69.1329 100.132C68.605 99.9744 68.171 99.6812 67.6986 99.4079C67.0843 99.0524 66.4111 98.8246 65.7592 98.5482C64.4409 97.9896 63.1557 97.475 61.7334 97.2554C60.5356 97.0705 59.2637 96.9608 58.103 97.3824C56.9642 97.796 55.9552 98.6381 55.1606 99.5376C54.2976 100.515 53.5842 101.61 52.877 102.702C52.5374 103.226 52.1229 103.684 51.7711 104.196C51.4758 104.626 51.3035 105.104 50.991 105.523C50.2917 106.458 49.8169 107.655 49.3932 108.744C48.9223 109.952 48.3993 111.39 48.5117 112.705C48.5542 113.202 48.5985 113.861 48.7901 114.322C49.0337 114.908 49.381 114.893 49.8816 115.114C50.7418 115.494 50.983 116.544 52.0947 116.339C53.1373 116.147 54.0416 115.285 54.8023 114.597C55.7938 113.701 56.7427 112.756 57.6915 111.815C58.6651 110.849 59.6244 109.777 60.3989 108.641C60.7038 108.193 60.9415 107.688 61.3018 107.281C61.7606 106.762 62.2758 106.699 62.899 106.493C68.3475 104.685 73.8224 102.942 79.4411 101.748C80.7872 101.462 82.1442 101.094 83.4666 100.713C84.8691 100.309 85.5954 100.736 86.7529 101.504C89.1711 103.109 92.0294 104.24 94.7221 105.288C95.57 105.617 96.9198 105.638 97.5826 106.289C93.6539 106.89 89.9099 108.047 86.1205 109.199C84.2522 109.767 82.3625 110.259 80.4871 110.803C78.611 111.346 76.8064 112.05 74.9561 112.663C73.1146 113.272 71.1685 113.521 69.3092 114.083C67.4112 114.657 65.5212 115.052 63.5729 115.401C61.6058 115.754 59.6523 116.16 57.6784 116.476C56.7746 116.62 55.8709 116.77 54.9772 116.969C54.1027 117.163 53.2578 117.629 52.3789 117.737C48.4538 118.219 44.6057 119.293 40.6958 119.901C37.7766 120.354 32.6977 120.986 30.8047 118.046C28.9011 115.089 31.2365 111.639 33.3203 109.524C34.6153 108.21 36.0705 107.054 37.5972 106.025C39.2313 104.924 40.8034 103.735 42.4378 102.635C46.1363 100.147 50.1468 98.1172 54.1204 96.1178C56.0276 95.1581 57.8704 94.1288 59.7257 93.0756C60.6466 92.5528 61.1561 93.3962 61.8841 93.9695C62.4566 94.4207 63.5079 95.5322 64.3089 95.0184C64.3397 95.2034 64.3706 95.3884 64.4014 95.5738C64.6359 95.4663 64.8708 95.359 65.1054 95.2516C65.2629 95.6665 65.2445 95.9243 65.6848 96.1422C65.9551 96.2762 66.5322 96.4372 66.79 96.2014C66.8425 96.3654 66.895 96.5291 66.9477 96.6929C67.173 96.6756 67.2165 96.0284 67.2591 95.8768C67.6452 96.4432 68.1793 96.9164 68.8581 97.0765C68.8614 97.0395 68.7477 96.5742 68.7526 96.5714C68.9674 96.4394 69.2383 97.0046 69.3521 97.1257C69.7296 97.5268 69.9548 97.4645 70.3718 97.1409C70.4022 97.1739 70.5433 97.5437 70.5638 97.537C70.6541 97.5082 70.8254 97.1806 70.8443 97.1507C70.8181 97.5817 71.6469 97.6685 71.9396 97.5761C71.8739 97.4497 71.8083 97.3235 71.7428 97.1972C72.7622 97.0605 73.1625 98.148 74.141 98.0928C74.8644 98.0518 74.2842 97.8931 74.6937 97.582C75.0513 97.3101 75.115 97.9048 75.1502 97.8858C75.2184 97.8142 75.2712 97.7317 75.3088 97.6385C75.4412 98.1477 76.495 98.6044 76.386 97.7673C76.8006 97.9337 77.095 98.2101 77.5538 98.2685C78.1115 98.3394 78.7071 98.2206 79.2635 98.1742C80.4622 98.0741 81.5923 97.8286 82.6728 97.2771C83.3135 96.9502 83.9955 96.6536 84.5977 96.2592C85.1017 95.9291 86.0579 94.927 86.7289 95.3584C86.557 94.8495 87.366 95.3211 87.3918 94.6656C87.5218 94.7639 87.6518 94.8621 87.7817 94.9606C87.8596 94.7891 87.8379 94.5187 87.9423 94.3691C88.0855 94.1638 88.1556 94.2847 88.2777 94.1693C88.4144 94.04 88.5338 93.6939 88.6977 93.5954C88.8666 93.494 89.0654 93.6149 89.2472 93.5263C89.524 93.3912 90.7144 92.0733 90.5129 93.2026C91.0249 93.028 90.6302 92.8683 90.694 92.5258C90.8225 91.8395 91.1351 92.3335 91.4464 92.3932C91.9563 92.4914 91.946 92.0681 92.2303 91.7607C92.4899 91.4797 92.978 91.3541 92.8099 90.8661C93.0018 90.97 93.0426 91.1736 93.0649 91.3712ZM62.3318 76.7126C61.9301 77.1618 61.6293 76.9698 61.1828 76.9039C61.135 76.7431 61.0533 76.721 60.938 76.8371C60.8056 76.9134 60.6635 76.9638 60.511 76.9877C60.1448 77.0783 59.7645 77.0398 59.4063 77.1771C59.4166 77.0566 59.5426 76.8425 59.4619 76.7202C59.0851 76.9818 58.8516 77.1482 58.389 77.1532C58.0142 77.1571 57.3563 76.8696 57.0451 77.2133C57.0354 77.0795 57.0257 76.9459 57.0164 76.8121C56.8639 76.8883 56.7313 76.9903 56.6185 77.1182C56.5971 76.92 56.5853 76.7701 56.4548 76.6099C56.2071 77.1212 55.9358 77.1333 55.4548 76.938C55.5223 76.9653 54.9733 76.6422 54.9943 76.7317C54.8207 75.9975 57.5604 76.0581 57.848 76.0292C58.5663 75.9563 59.2845 75.914 60.0039 75.8475C60.6861 75.7846 61.1954 75.6778 61.6675 76.2492C61.4571 75.4238 63.4478 75.4647 62.3318 76.7126ZM30.9198 63.9111C30.9953 65.1591 31.272 66.4855 30.7887 67.6866C30.4002 68.6521 29.6251 69.7425 28.7901 70.3726C27.0805 71.6626 25.6315 70.084 25.3934 68.3492C25.1455 66.5396 25.6371 64.3286 27.189 63.213C28.1163 62.5463 29.0143 62.5925 30.0818 62.8117C30.3325 62.8632 30.7396 62.8433 30.883 63.0935C30.9167 63.152 30.8865 63.9099 30.9198 63.9111ZM53.6262 80.5383C53.3308 80.6881 53.0219 80.7756 52.7615 80.9792C52.6711 81.0499 52.6403 81.2112 52.5443 81.2706C52.3697 81.3791 52.12 81.3071 51.938 81.3967C51.6367 81.5444 51.4207 81.756 51.0627 81.8922C50.531 82.0945 50.0647 82.372 49.5621 82.6351C48.7247 83.0735 47.8259 83.4498 46.9505 83.8066C46.5085 83.9868 45.2864 84.338 45.3286 84.9875C45.2298 85.0143 45.1288 84.7973 44.9223 84.8146C44.639 84.8382 44.2647 85.1672 43.9705 85.2481C43.4202 85.3994 42.9943 85.4127 42.9943 86.1171C42.8192 85.9976 42.7747 85.7052 42.5416 85.6665C42.2793 85.6229 42.1689 85.907 41.9591 85.9954C41.7121 86.0995 41.4048 85.9996 41.1601 86.1104C41.0531 86.2241 40.9341 86.3233 40.8033 86.4079C40.6702 86.4232 40.5376 86.4192 40.4059 86.3954C39.8863 86.5061 39.4083 86.7023 38.8876 86.8042C38.3801 86.9037 38.0325 86.9398 38.246 87.5423C37.703 87.649 37.5705 87.0706 36.958 87.2823C36.2073 87.5413 35.5056 87.7283 34.7219 87.8863C34.3222 87.9669 33.9046 88.1468 33.502 88.1891C33.2148 88.2193 32.9467 88.1161 32.6639 88.1482C32.3231 88.1865 32.0491 88.345 31.6964 88.3509C31.3618 88.3569 31.0105 88.2965 30.6819 88.2373C30.7284 88.3702 30.7865 88.4976 30.8563 88.6196C30.6291 88.5719 30.5242 88.2976 30.3316 88.257C30.1295 88.2146 29.9484 88.4238 29.7801 88.3775C29.7084 88.3576 29.7561 88.1358 29.628 88.0933C29.511 88.055 29.4618 88.1003 29.3459 88.0821C29.3072 88.076 28.8226 88.0497 28.7453 88.0907C28.6103 88.1626 28.7469 88.2971 28.7201 88.3171C28.2643 88.6558 28.2587 88.4731 28.0555 88.1192C27.7571 87.5999 27.3973 87.9277 26.855 87.8368C26.2505 87.7355 25.7743 88.0033 25.1794 87.9651C24.5378 87.924 23.7837 87.442 23.2163 87.1604C21.9913 86.5526 20.7967 85.9773 19.7679 85.0566C17.7567 83.2567 16.1205 81.0433 15.1558 78.5093C14.1193 75.787 13.9229 72.9479 14.0061 70.0598C14.0561 68.3228 14.1946 66.5869 14.4673 64.8704C14.655 63.6896 14.6943 61.5911 16.0203 61.0535C16.2482 63.8182 15.5289 66.6355 15.9826 69.3824C16.1192 70.2098 16.4523 71.3121 17.0827 71.925C18.0161 72.8319 18.2345 71.5208 18.3189 70.7966C18.476 69.4513 18.768 68.1137 18.9747 66.7748C19.1812 65.4367 19.3272 64.0834 19.6143 62.7592C19.719 62.2764 20.5633 58.7408 21.1831 58.9082C21.0577 61.4804 20.7247 64.0082 20.7116 66.5898C20.7064 67.6253 20.6141 68.7189 20.7629 69.7476C20.8396 70.2769 21.3197 71.8303 22.1455 71.7007C22.9096 71.5808 22.0695 70.4867 21.9981 70.0648C21.8092 68.9479 22.0501 67.5584 22.2262 66.4499C22.5598 64.3519 23.3037 62.2034 24.5197 60.4502C25.6088 58.8804 27.2857 57.3858 29.306 57.6627C30.1691 57.7811 30.8425 57.9963 31.2762 58.7876C31.6165 59.4086 32.957 60.1144 32.1801 60.8919C31.473 61.5998 30.3292 61.0332 29.5431 60.8643C28.5806 60.6578 27.5491 60.9063 26.7442 61.4726C25.3631 62.4439 24.5761 64.1805 24.3192 65.8093C23.973 68.0053 24.8985 73.7536 28.3074 72.4654C30.5721 71.6095 32.2778 68.5307 32.0876 66.1736C32.0114 65.2301 31.644 63.4389 32.9442 63.1842C34.6099 62.8579 34.8452 64.7014 34.6765 65.8995C34.4314 67.6421 33.514 69.2625 32.4645 70.6403C31.5498 71.8412 30.486 72.5921 29.3854 73.5839C29.0595 73.8774 28.2283 74.5376 28.3679 75.0837C28.521 75.6822 29.8272 75.8523 30.3502 75.9507C32.9377 76.437 35.8556 75.9896 38.4387 75.6502C43.7477 74.952 48.9869 73.2329 53.3402 70.0722C53.516 72.0279 53.7378 73.977 53.8194 75.9398C53.859 76.8925 53.8691 77.8591 53.9776 78.8067C54.0445 79.3895 54.2858 80.2037 53.6262 80.5383ZM38.9053 87.3529C38.6968 87.4622 38.9222 86.8002 38.8642 87.0192C39.1756 87.1313 39.1893 87.2426 38.9053 87.3529ZM60.9285 63.6853C61.2594 63.3192 62.1633 62.4483 62.4502 63.2748C62.557 62.9224 62.5708 62.4005 62.9829 62.8764C63.147 62.2919 64.9568 62.3466 65.4051 62.3208C66.8405 62.2384 68.2817 62.1943 69.7119 62.0511C72.6511 61.7569 75.6415 61.9088 78.5914 61.8991C79.2301 61.897 79.8672 61.8623 80.5013 61.9553C81.1132 62.045 81.7563 62.2969 82.38 62.2049C82.9345 62.1231 83.2981 61.9695 83.8688 62.0352C84.5518 62.1138 85.2149 62.1697 85.9039 62.1672C88.9516 62.1559 91.9978 62.2799 95.0461 62.2848C95.6402 62.2857 96.352 62.1691 96.9094 62.4225C97.1159 62.5165 97.3416 62.8289 97.4993 62.8632C97.68 62.9024 97.5726 62.6194 97.8146 62.7473C98.1386 62.9184 97.8878 63.4447 97.6736 63.528C97.8019 63.4782 97.4422 63.4289 97.4782 63.4269C97.3076 63.4362 97.1619 63.5676 96.9787 63.5594C96.6995 63.5471 96.4658 63.3762 96.2409 63.2257C96.237 63.2872 96.3606 63.6968 96.2195 63.7174C96.0981 63.7353 95.9843 63.3315 95.9721 63.2375C95.2902 63.8414 94.5676 63.5048 93.7215 63.5812C93.1212 63.6356 91.8697 64.0375 91.451 63.4084C91.4336 63.5423 91.38 63.6594 91.2907 63.7599C91.171 63.9428 91.0676 63.9273 90.9802 63.7127C90.9506 63.7141 90.659 63.7778 90.6533 63.7773C90.4482 63.7609 90.182 63.687 89.9733 63.6691C89.6503 63.6414 89.7098 63.8775 89.4524 63.8813C89.3119 63.8832 88.9536 63.6796 88.7085 63.6668C88.284 63.6445 87.8505 63.8253 87.4318 63.7706C87.1436 63.733 86.883 63.4974 86.6002 63.4883C86.2477 63.4765 86.1335 63.7464 85.8543 63.3674C85.7971 63.3518 85.7616 63.5747 85.7389 63.5786C85.7444 63.5776 85.4731 63.6179 85.4411 63.6305C85.3854 63.6518 85.1686 63.7515 85.1026 63.7526C84.9601 63.7553 84.8827 63.6529 84.7316 63.6505C84.4816 63.6462 83.6836 63.8672 83.706 63.4028C82.8139 63.7347 82.0528 63.6054 81.1372 63.6838C80.7171 63.72 80.4533 63.6635 80.0536 63.5861C79.5531 63.4891 79.2208 63.6109 78.7216 63.6356C78.2419 63.6592 78.0907 63.4554 77.6857 63.2714C77.526 63.1989 77.4205 63.1032 77.2246 63.1435C77.1129 63.1666 77.1925 63.3554 77.1594 63.3683C76.9874 63.435 76.8672 63.3643 76.6313 63.3806C76.1957 63.4103 76.0223 63.7758 75.5746 63.4327C75.7233 63.4147 75.8721 63.3962 76.0211 63.3781C75.5929 63.1958 75.0278 63.1029 75.1314 63.7665C74.7663 63.715 75.0824 63.4654 74.9029 63.376C74.7233 63.2869 74.5224 63.4362 74.2963 63.51C73.6992 63.7044 73.2014 63.6079 72.579 63.573C71.8715 63.5333 70.2168 64.1128 69.7103 63.3606C69.695 63.5191 69.5255 63.9607 69.2999 63.9399C69.2264 63.9331 69.4313 63.4642 69.4546 63.4147C69.3384 63.663 68.8083 63.7102 68.5469 63.839C68.5763 63.7055 68.6054 63.5721 68.6347 63.4388C68.3921 63.698 68.2743 63.5398 67.9888 63.6265C67.864 63.6644 67.6833 63.9228 67.5766 63.9384C67.4524 63.7937 67.296 63.7314 67.108 63.7515C66.9827 63.7202 66.8576 63.714 66.7324 63.7332C66.2315 63.7697 65.7748 64.0492 65.2764 63.8588C64.845 63.6938 64.6782 63.2695 64.421 63.9446C64.3532 63.8246 64.2856 63.7046 64.218 63.5845C64.1345 63.7149 64.0511 63.845 63.9674 63.9752C63.6411 63.7606 63.6211 63.6364 63.2455 63.7152C63.1574 63.7505 63.067 63.7455 62.9744 63.7003C62.9523 63.7665 62.9302 63.8325 62.908 63.8985C62.8993 64.0646 62.8501 64.1196 62.7607 64.0631C62.6856 64.036 62.6178 63.9949 62.5573 63.9396C62.3088 63.9587 61.9914 64.0243 61.7247 63.9881C61.6218 63.9743 60.9765 63.6323 60.9285 63.6853ZM68.5324 59.2174C68.5616 59.2625 68.5909 59.3076 68.6202 59.3527C68.2168 59.5665 68.1218 59.4438 68.0802 59.0143C68.2773 59.0181 68.3109 59.3662 68.5324 59.2174ZM68.7823 58.9654C68.9766 59.0514 69.1993 59.2204 69.3823 58.994C69.5054 59.3535 68.5906 59.844 68.7823 58.9654ZM70.0369 59.1242C70.4447 59.4009 69.4665 59.1784 69.468 59.1789C69.6439 59.0158 69.8334 58.9977 70.0369 59.1242ZM73.5447 57.5809C73.6846 58.2895 74.0704 58.2693 74.693 57.9399C75.601 57.4595 75.7544 56.6728 75.8176 55.7334C75.8784 54.8327 75.9882 54.484 76.9132 54.672C77.559 54.8033 78.1052 54.6929 78.7562 54.6749C79.4508 54.6557 79.6956 54.7622 79.7515 55.4799C79.8074 56.1985 79.9348 56.7442 80.4542 57.2911C80.9823 57.8471 81.6866 58.1792 82.3728 58.4903C82.7257 58.65 83.057 58.822 83.4474 58.8567C83.5987 58.8702 84.3861 58.7702 84.4026 59.0204C84.4149 59.2084 83.3244 59.7388 83.2088 59.802C82.703 60.0781 82.1987 60.3259 81.6463 60.4932C80.3754 60.8781 79.0279 60.9009 77.7115 60.8775C75.5891 60.8401 72.6558 59.9387 71.3867 58.0482C72.1061 57.8925 72.8254 57.7367 73.5447 57.5809ZM73.3543 51.4449C73.0185 51.162 72.801 50.7345 72.5221 50.3994C72.3814 50.2305 72.2783 50.1767 72.1444 50.0921C72.0034 50.003 71.9241 50.1291 71.8063 49.9197C71.5025 49.3787 72.4403 48.6173 71.4456 48.4091C71.1091 48.3385 70.2992 48.6062 70.201 48.1221C70.062 47.4375 71.3633 47.3928 71.6694 47.0454C72.2783 46.3546 71.865 45.1837 72.2359 44.3869C72.5868 43.632 73.4929 43.4979 74.208 43.271C75.2045 42.9552 76.2129 42.772 77.2246 42.5192C77.9321 42.3425 79.1074 41.6327 79.7635 42.26C78.751 42.4856 79.3396 42.8399 80.0144 43.0398C80.7787 43.2665 81.5888 43.3548 82.3808 43.418C83.1961 43.4829 84.0269 43.4953 84.8324 43.3321C85.5774 43.1812 86.4094 42.5311 87.1905 42.6976C86.7571 43.4543 85.466 43.8675 84.6815 44.0657C84.2818 44.1667 84.0258 44.1351 84.0796 44.6355C84.1315 45.1205 84.5514 45.6068 84.6463 46.112C84.7717 46.7806 84.6622 47.3951 84.425 48.0239C84.1918 48.6426 84.1375 48.7234 84.3413 49.3146C84.6588 50.235 83.9763 51.2525 83.3455 51.9209C80.7944 54.6238 75.9124 53.6 73.3543 51.4449ZM79.8366 35.2908C79.8468 35.3184 79.8381 35.3079 79.8366 35.2908V35.2908ZM80.6311 42.112C80.5253 42.1913 79.9161 42.3577 79.9416 42.1187C79.9756 41.7984 80.5247 41.9141 80.6311 42.112ZM82.0196 35.6421C81.8766 35.5351 81.4762 35.5791 81.769 35.1735C81.8643 35.3519 81.942 35.4969 82.0196 35.6421ZM72.4114 33.0786C72.5936 32.6034 72.7954 32.1612 72.8775 31.6552C72.9282 31.3435 72.8274 30.9875 73.2615 30.9385C72.7083 30.6964 72.7027 29.7404 72.67 29.2449C72.6252 28.5625 72.4104 27.6488 72.7092 27.0136C73.0158 26.3611 73.4295 26.3719 73.5543 27.149C73.6032 27.4532 73.4162 27.5516 73.381 27.7635C73.3115 28.1827 73.4499 28.0908 73.7191 27.7715C73.8304 28.096 73.8729 28.5837 74.3254 28.5631C74.2953 28.4753 74.122 28.2817 74.1799 28.1727C74.2688 28.0052 74.7034 28.2611 74.7585 28.2998C75.1554 28.5785 75.2415 28.8329 74.9585 29.1844C75.3503 29.2269 75.0214 29.5713 75.2744 29.661C75.6603 29.798 75.4015 29.1491 75.3597 29.035C75.5945 29.127 75.6733 29.2322 75.8221 29.4184C75.9094 29.5469 75.9889 29.6804 76.0606 29.8185C76.1406 30.0706 76.3051 30.1337 76.5545 30.0081C77.0544 30.1655 77.7445 30.1408 78.1924 30.4162C78.3971 30.5418 78.4709 30.8168 78.6419 30.9213C78.8342 31.0389 79.092 30.9855 79.2986 31.0593C79.223 31.2318 79.2843 31.3251 79.4819 31.3397C79.6355 31.3538 79.7844 31.3885 79.9282 31.4438C80.0357 31.3624 80.1528 31.298 80.2791 31.2513C80.3641 31.4015 80.4841 31.4386 80.6394 31.363C81.1004 31.4497 81.3218 31.6247 81.6148 31.8864C81.8777 32.1213 81.6637 32.1404 81.9518 32.1195C82.0676 32.1112 82.2704 31.914 82.5352 31.9525C82.6876 31.9822 82.8345 32.0295 82.9761 32.0939C83.1289 32.2253 83.2915 32.2418 83.4633 32.1436C83.7424 32.2804 83.7698 32.5232 84.1102 32.5564C84.4865 32.5932 84.3654 32.1221 84.6238 32.7864C84.9719 32.0821 85.0994 33.2042 85.4588 33.2949C85.831 33.3888 85.8712 33.0857 86.1898 33.4169C86.2853 33.5161 86.28 33.6801 86.3872 33.7853C86.5629 33.9574 86.8005 33.923 86.9532 34.1579C86.8681 34.0268 86.9733 34.6225 86.9715 34.6028C86.9952 34.8656 86.7626 35.16 87.2393 35.1376C87.234 35.1652 87.005 35.5003 86.9603 35.4624C86.9494 35.4242 86.9401 35.3854 86.9328 35.3461C86.8817 35.3683 86.859 35.6874 86.8684 35.7438C86.9088 35.7501 86.9254 35.72 86.9181 35.6533C86.8397 35.8994 86.9578 36.0558 86.8073 36.2895C86.711 36.4388 86.4474 36.5511 86.3074 36.6432C85.9694 36.8657 85.6387 37.0889 85.3089 37.3257C84.5402 37.878 83.6794 38.544 82.7113 38.6592C83.1975 38.1798 85.9949 36.3659 84.5918 35.8452C84.3316 35.7486 83.8578 35.6573 83.5857 35.6369C83.2471 35.6118 82.8971 35.8064 82.5238 35.6848C82.0732 35.5386 82.243 35.1134 81.9678 34.9608C81.3834 34.6372 81.5213 35.3983 81.3375 35.5975C81.1441 35.394 81.1855 35.2949 80.8805 35.2766C80.5707 35.2578 80.4971 35.5453 80.1356 35.3661C79.6376 35.1194 79.9012 34.6278 79.1948 34.6163C79.2066 34.5084 79.3091 34.2068 79.1743 34.1227C78.9925 34.3593 79.1332 34.6239 78.9645 34.8517C78.8801 34.9659 78.6969 35.057 78.5631 35.094C78.2499 35.1804 78.2054 35.3457 78.2564 34.8723C78.0243 35.292 77.3126 35.1194 76.8893 35.0772C76.201 35.0085 75.4695 34.8777 74.8097 34.6562C74.1994 34.4511 73.8735 34.0989 73.3702 33.7784C73.18 33.6572 73.0891 33.7036 72.8164 33.6283C72.547 33.554 72.2846 33.41 72.4114 33.0786ZM73.8636 25.6457C73.9676 25.5828 74.0421 26.5206 73.9163 26.6959C73.6856 26.3297 73.2769 25.7926 73.8636 25.6457ZM74.1955 25.2716C74.5297 24.9679 74.2975 25.7521 74.2362 25.8837C74.1125 25.804 73.9887 25.7244 73.8649 25.6447C74.0228 25.5474 74.0622 25.3927 74.1955 25.2716ZM86.8017 24.0077C89.8886 24.6581 92.9475 25.8739 95.4233 27.8746C97.6786 29.6969 99.2702 32.2826 100.163 35.0329C101.089 37.8877 100.778 41.0549 98.574 43.2398C97.4129 44.3906 95.8799 45.085 94.4188 45.7626C93.7188 46.0872 92.9978 46.3575 92.295 46.6747C91.7903 46.9025 91.174 47.2668 90.598 47.2037C90.8919 46.8932 91.3182 46.8868 91.6739 46.6971C92.1036 46.4675 92.4545 46.0271 92.8249 45.7125C93.1926 45.4002 94.0083 44.4167 94.5734 44.6548C94.4949 44.1307 95.0896 43.8875 95.3575 43.542C95.6408 43.1765 95.6612 42.749 96.1834 42.6294C95.6226 42.1887 95.7943 41.3578 95.9163 40.758C96.0723 39.9909 96.1445 39.2867 96.2061 38.5061C96.317 37.0989 96.4064 35.3061 95.6319 34.0691C95.3806 33.6674 95.0606 33.2982 94.8365 32.8808C94.5661 32.378 94.6258 31.9355 94.6258 31.3842C94.1318 31.7176 94.0276 31.0379 93.8189 30.7067C93.6622 30.4581 93.4565 30.3193 93.4059 30.0065C93.3692 29.7791 93.6152 29.7406 93.4803 29.5021C93.315 29.6274 93.2491 29.8217 93.1653 30.002C93.0127 29.9408 93.1926 29.7274 93.1052 29.6581C93.1027 29.6562 92.8082 29.5278 92.8228 29.5463C92.6334 29.3052 92.5724 28.9051 92.4796 28.6182C92.1326 28.7947 92.1975 28.7739 91.8104 28.479C91.7421 28.4271 91.4015 28.1887 91.3693 28.1108C91.2196 27.7464 91.4821 27.9622 91.4087 27.7361C91.1979 27.0864 90.0148 27.2093 89.9211 26.2359C89.3442 26.6036 89.1241 26.0826 88.7832 25.712C88.4336 25.3324 87.8474 25.1863 87.8788 24.5842C87.6972 24.6466 87.5156 24.7088 87.3342 24.7708C87.4285 24.2152 86.6064 24.2506 86.3086 23.9687C86.4738 23.9708 86.6382 23.9838 86.8017 24.0077ZM87.2718 58.4229C87.5579 58.166 87.4711 58.5079 87.6552 58.4688C87.8127 58.4353 87.8437 58.3159 87.9947 58.2792C88.6167 58.1283 89.5466 58.3178 90.2006 58.2853C90.9582 58.2477 92.2568 58.4056 92.6179 59.2956C92.8354 59.8314 92.5035 59.6491 92.1377 59.6093C91.8543 59.5785 91.6022 59.6361 91.3216 59.6332C91.1829 59.6547 91.0448 59.6526 90.907 59.6267C90.8398 59.5823 90.8001 59.5197 90.7879 59.4391C90.3976 59.3798 89.983 59.6117 89.5507 59.6232C88.9737 59.6387 88.4609 59.5276 88.0226 59.1365C87.8483 59.3973 87.7296 59.5267 87.4161 59.5558C87.408 59.5565 87.1017 59.4329 87.0545 59.4205C86.9917 59.4041 86.8331 59.5362 86.7122 59.4985C86.9267 59.1554 86.9579 58.7046 87.2718 58.4229ZM126.676 61.5199C126.778 61.1643 126.863 60.8039 126.956 60.4459C128.38 62.0737 129.626 64.2527 130.187 66.3402C130.551 67.6966 131.118 70.1547 129.382 70.8543C127.967 71.4243 127.178 69.3813 126.82 68.3751C126.03 66.1538 126.03 63.78 126.676 61.5199ZM62.9603 36.0144C62.9785 36.0107 62.0383 36.5597 62.3481 36.1152C62.4724 35.9364 62.9444 35.8108 63.1538 35.8108L62.9603 36.0144ZM62.0558 36.2471C61.947 36.3389 61.8371 36.4297 61.7263 36.5192C61.6199 36.3504 61.5132 36.1814 61.4068 36.0126C61.6168 35.9238 62.5077 35.8571 62.0558 36.2471ZM61.3931 53.3163C61.1964 53.1825 61.0405 53.2536 60.9813 53.4782C60.9813 53.2548 61.0972 52.7356 61.2754 52.6752C61.3905 52.6359 60.8927 52.0447 61.0326 51.89C61.3884 52.0946 61.1754 52.2905 61.2796 52.5547C61.3267 52.6738 61.4679 52.7865 61.4989 52.8781C61.5514 53.0336 61.7638 53.5679 61.3931 53.3163ZM60.4294 51.9859C60.2279 52.0378 60.5806 52.3716 60.5803 52.5192C60.58 52.6309 60.4466 52.7165 60.3915 52.8693C60.2721 53.2001 60.4775 53.4236 60.1394 53.6761C60.1394 52.9511 59.6548 51.03 60.586 50.6768C60.1317 50.3176 60.5048 49.903 60.8609 50.3329C61.2032 50.7462 60.9851 51.8432 60.4294 51.9859ZM59.9442 49.125C59.7612 48.4733 59.2102 48.2454 58.5805 48.2841C58.6045 47.9504 58.8563 47.4694 59.0382 48.0707C59.113 47.8929 59.1648 47.6611 59.3354 47.5433C59.6226 48.4473 61.0544 48.9468 60.163 49.9263C60.09 49.6593 60.0193 49.3917 59.9442 49.125ZM58.2803 48.3326C54.9647 48.574 50.3098 49.2647 47.6565 46.713C45.9265 45.0492 46.0189 42.4583 47.417 40.6098C48.2148 39.5549 49.304 38.8122 50.3978 38.1047C50.8199 37.8314 51.1774 37.6512 51.6408 37.4943C51.7158 37.4861 51.7864 37.5029 51.8524 37.5447C51.8785 37.4323 51.9415 37.3492 52.0418 37.2948C52.2208 37.1987 52.4758 37.1643 52.5789 36.9648C52.4688 37.3397 52.4122 37.7257 52.3719 38.1135C52.2826 38.009 52.1934 37.9046 52.1042 37.8002C52.0296 38.5067 51.2965 38.0791 50.8588 38.1672C51.1471 38.5679 51.3533 38.7134 51.3782 39.2429C51.1634 38.8448 50.7144 38.5831 50.2969 38.4549C50.5236 39.1282 50.6839 39.5278 50.4556 40.2661C50.1799 40.1081 50.1613 39.7284 49.8268 39.6375C49.7386 40.0777 49.723 40.5663 49.61 40.9935C48.7535 40.6013 48.837 41.6576 49.181 42.1802C49.3638 42.4583 49.4536 42.7802 49.6167 43.0471C50.017 43.7019 49.7129 42.7228 50.1578 42.7691C50.0579 43.4597 50.0231 43.5285 50.5264 44.0342C51.0177 44.5273 51.2725 45.2115 51.7979 45.6748C51.9501 45.4796 51.7108 45.2753 51.6898 45.0885C52.1787 45.1708 52.4077 45.663 52.8777 45.227C53.0827 45.6281 53.3046 46.0699 53.7954 46.1522C53.4709 45.5328 54.4186 45.9529 54.6616 46.0408C54.8459 46.1075 55.1762 46.1605 55.2473 46.1861C55.6477 46.3313 55.3731 46.0708 55.6162 46.5468C55.973 46.4386 56.1076 46.1414 56.5345 46.3925C56.8815 46.5968 56.8822 46.9466 56.9616 47.3049C57.0443 47.0705 57.1278 46.8362 57.2192 46.605C57.3124 46.6444 57.7031 47.0761 57.6604 47.0781C58.575 47.0331 58.5427 47.6032 58.2803 48.3326ZM53.625 36.6458C53.8087 36.5163 54.0328 36.6887 54.239 36.6423C54.5246 36.5783 54.6867 36.3328 55.0056 36.3065C54.9169 36.5912 54.7504 36.5645 54.6094 36.7881C54.5614 36.8643 54.5865 37.047 54.5437 37.091C54.1863 37.4585 54.0629 37.1586 53.6981 36.8804C53.7298 37.2159 53.7941 37.3218 53.4792 37.4118C53.1942 37.4935 52.7238 37.193 52.5801 36.9625C52.7013 36.7191 53.4052 36.8006 53.625 36.6458ZM55.9001 36.1213C56.2096 36.151 55.8367 37.0681 55.3931 36.1786C55.5602 36.142 55.7292 36.1229 55.9001 36.1213ZM57.492 35.9441C57.9803 35.8441 59.6089 35.3781 59.7901 36.1411C59.8226 36.1222 59.9438 35.6914 60.0001 35.7439C60.2256 35.9546 60.2508 36.2337 60.2336 36.5262C59.961 35.9561 60.0579 36.4569 59.8732 36.4178C59.825 36.4075 59.7512 36.498 59.6291 36.4607C59.4689 36.4116 59.3542 36.0696 59.2531 35.9538C59.0848 36.1949 58.8762 36.5056 58.5392 36.4847C58.3006 36.4698 57.9161 35.8532 58.2251 36.5283C58.0437 36.4682 57.8337 36.3319 57.6316 36.3592C57.4053 36.39 57.2878 36.6141 57.0757 36.6503C56.6055 36.7303 56.5346 36.2762 56.2294 36.0294C56.6504 36.0049 57.0763 36.0291 57.492 35.9441ZM60.446 35.9367C60.4804 35.7803 60.9077 35.7171 61.0165 35.7668C61.282 35.8879 61.1837 36.0478 61.135 36.3137C60.938 36.2201 60.7409 36.1266 60.5439 36.0329C60.8379 36.5085 60.3051 36.5774 60.446 35.9367ZM143.15 63.7896C143.115 62.6501 143.082 61.4908 142.794 60.3814C142.593 59.605 142.098 58.2128 141.162 58.0781C139.751 57.8747 138.97 60.6748 138.575 61.6358C138.496 60.5043 138.565 59.2998 138.139 58.2258C137.798 57.3651 136.937 56.5499 136.195 57.5165C135.536 58.3768 135.409 59.6466 135.235 60.6816C135.01 62.0227 134.875 63.3742 134.71 64.7234C134.066 63.4729 133.953 62.0414 133.444 60.7418C132.963 59.5153 132.207 58.3441 131.478 57.2533C130.883 56.3622 130.159 55.5245 129.227 54.9798C128.416 54.5058 126.997 53.993 126.224 54.7802C125.578 55.4372 125.679 56.3163 125.713 57.1454C125.728 57.5145 125.786 57.7676 125.462 57.9537C125.303 58.0451 125.055 57.9978 124.88 58.0466C124.599 58.1255 124.383 58.2592 124.145 58.4368C122.477 59.682 121.707 61.9261 121.469 63.9267C121.168 66.4617 122.152 68.6348 122.999 70.9543C123.134 71.324 123.563 72.1082 123.504 72.5208C123.439 72.9729 122.873 72.9847 122.492 72.9941C121.34 73.0226 120.136 72.9365 118.99 72.8286C116.261 72.5724 113.534 71.2533 111.091 70.0757C110.645 69.8608 110.014 69.7378 109.65 69.3994C109.308 69.0813 109.218 68.5715 108.923 68.2066C108.198 67.3113 107.737 66.5473 106.669 66.0063C105.583 65.4556 104.474 64.9466 103.414 64.3435C102.103 63.5971 100.891 62.6518 99.6349 61.8162C97.2999 60.2636 94.9808 58.5617 92.5053 57.2414C91.355 56.6278 90.0695 56.5286 88.8752 56.0262C87.7121 55.537 86.2846 55.5364 85.0709 55.8453C84.4797 55.9959 84.0774 56.3526 83.5336 56.5856C82.8965 56.8585 82.3767 56.5572 81.816 56.2314C80.9592 55.7337 80.1101 54.9227 81.3301 54.3858C81.7438 54.2035 82.2624 54.1345 82.6239 53.8481C83.0093 53.5429 83.3187 52.9798 83.632 52.5974C84.3286 51.7474 84.7447 50.7691 85.7643 50.2405C86.8918 49.656 88.2283 49.4969 89.4305 49.1148C90.7331 48.7011 92.0085 48.2091 93.2868 47.7259C95.5899 46.8556 97.9843 45.9159 99.6393 43.9998C101.067 42.3469 101.689 40.2132 101.631 38.0462C101.513 33.6161 99.1498 29.12 95.7585 26.3502C91.6001 22.9537 86.3098 21.8211 81.057 21.8805C78.5918 21.9084 75.6498 22.2324 73.5928 23.7362C71.8161 25.0351 71.5206 27.3069 71.7849 29.3576C71.8921 30.1899 72.2587 31.2883 71.6741 32.0216C71.3469 32.432 70.7596 32.5335 70.3188 32.7893C69.7651 33.1107 69.2766 33.4188 68.6493 33.5887C65.9849 34.3113 63.1782 34.0597 60.4538 34.0197C55.9155 33.953 51.2636 35.1867 47.8781 38.3974C45.1441 40.99 44.3242 45.8789 47.6586 48.4064C50.3527 50.4482 54.5783 50.2237 57.7549 49.8675C58.7399 49.7569 59.4173 49.5963 59.4196 50.8063C59.422 52.1281 59.2041 53.5095 59.5399 54.8071C60.0689 56.8508 62.0248 56.8994 63.7539 56.4593C64.6663 56.2272 65.5484 55.878 66.4147 55.5123C67.6856 54.976 68.8505 54.1874 70.1056 53.652C70.9564 53.2892 71.5935 54.4626 72.3482 53.6491C72.4876 53.4988 72.5135 53.2748 72.7237 53.1978C73.0534 53.0773 73.6062 53.4998 73.8954 53.6335C74.3283 53.8335 74.7647 53.9807 74.9376 54.4626C75.0994 54.9133 75.0285 55.6301 74.8735 56.0747C74.5368 57.0414 73.6299 56.8503 72.802 56.7856C71.358 56.6728 69.9238 56.4336 68.4804 56.3331C67.1854 56.2431 65.9726 56.6315 64.8557 57.2728C62.5096 58.6194 60.5901 60.7615 58.5559 62.523C57.5089 63.4295 56.4969 64.4088 55.3584 65.1982C54.8633 65.5416 54.3272 65.8571 53.897 66.2837C53.47 66.7068 53.423 67.0915 53.2771 67.6547C53.017 68.6573 51.7256 69.1474 50.9184 69.6764C49.7769 70.4244 48.5667 70.9521 47.2869 71.4111C44.5768 72.3831 41.8453 73.0617 39.012 73.5633C37.6247 73.8091 36.2491 73.9705 34.8484 74.1031C33.6409 74.2174 32.357 74.5908 31.1511 74.2925C31.4984 73.7268 32.1139 73.3872 32.5933 72.95C33.2112 72.3864 33.7367 71.7184 34.2045 71.0265C35.1148 69.679 35.7534 68.2331 35.9 66.5987C36.0322 65.1277 35.8806 63.3681 34.9966 62.1255C34.6913 61.6962 34.0871 61.5795 33.8139 61.1927C33.542 60.8084 33.6457 60.1466 33.4969 59.6985C33.1182 58.5586 31.9942 57.1461 31.005 56.484C29.9318 55.7656 28.3619 55.5017 27.1223 55.876C24.8256 56.5696 23.4148 59.0339 22.3639 61.0254C21.7898 59.8126 22.7512 58.0132 21.6297 57.02C20.6838 56.1821 19.933 57.8052 19.6167 58.4995C18.1316 61.7591 17.7943 65.2162 17.1721 68.7038C16.9185 68.4528 17.0485 67.8088 17.0723 67.5095C17.1167 66.9521 17.1125 66.4055 17.1137 65.846C17.1167 64.4323 17.3784 63.0122 17.2584 61.5998C17.1892 60.7833 16.9299 59.0618 15.7484 59.333C14.7464 59.5631 14.1188 60.9777 13.804 61.8426C13.3499 63.0901 13.2451 64.325 13.2733 65.6428C13.3046 67.0988 13.0283 68.531 12.9614 69.9851C12.8313 72.8094 12.9598 75.6091 13.7669 78.3349C15.0886 82.7984 18.1275 86.507 22.1833 88.7465C24.4179 89.9805 26.8969 90.7612 29.4456 90.9291C30.8268 91.0201 32.1602 90.855 33.5297 90.7117C34.881 90.5701 36.2394 90.5047 37.5885 90.3387C40.5927 89.9687 43.5201 89.0138 46.2509 87.7289C47.6882 87.0524 49.04 86.2219 50.4538 85.5007C51.0212 85.2116 51.4044 84.8496 51.8886 84.4472C52.3686 84.0485 52.5014 84.0173 53.0474 84.0173C52.8872 83.5872 53.3545 83.4546 53.5625 83.1824C53.5509 83.3146 53.5391 83.4464 53.5275 83.5783C53.686 83.2331 53.8336 83.2364 53.9702 83.5883C54.1051 83.1943 54.205 82.789 54.3681 82.4049C54.9913 82.7216 54.9388 83.4743 55.7722 82.9247C56.4585 82.4725 57.0896 81.9387 57.7892 81.4955C59.3829 80.4854 60.757 79.1713 62.3553 78.1729C62.3553 79.1454 62.4237 80.1261 62.2942 81.0936C62.171 82.0136 61.829 82.8734 61.5569 83.7542C61.0551 85.379 61.0204 87.1156 60.4644 88.724C60.2343 89.3902 59.6353 89.9473 59.4634 90.5957C59.2883 91.2574 59.6928 91.7875 59.0148 92.2218C58.5366 92.5281 57.9391 92.6573 57.4096 92.8425C56.6021 93.1253 55.8353 93.524 55.0492 93.8622C51.3619 95.4486 47.7652 97.0642 44.3489 99.1971C41.1068 101.221 37.8152 103.312 34.8369 105.715C32.2521 107.802 29.6393 110.499 29.01 113.902C28.3995 117.204 30.0263 120.747 33.2927 121.834C34.991 122.399 36.9111 122.329 38.6798 122.354C40.5829 122.38 42.5997 121.92 44.4709 121.586C46.4469 121.235 48.3892 120.684 50.371 120.37C52.2725 120.068 54.0164 119.394 55.8868 118.979C57.8788 118.536 59.9221 118.296 61.9251 117.899C62.827 117.719 63.7104 117.455 64.6147 117.289C65.6047 117.108 66.6055 117.04 67.5858 116.799C69.4873 116.333 71.3079 115.58 73.2177 115.146C74.0763 114.951 74.9218 114.69 75.7808 114.507C76.5715 114.339 77.1876 113.893 77.9802 114.26C78.6205 114.556 79.1313 115.063 79.7373 115.417C80.5232 115.876 81.3518 116.287 82.1713 116.682C83.8177 117.475 85.5252 118.023 87.2468 118.618C89.055 119.244 90.8308 119.958 92.7042 120.371C94.6247 120.794 96.584 120.912 98.5178 121.247C102.478 121.933 106.405 122.241 110.425 122.266C112.457 122.279 114.489 122.037 116.516 122.065C118.311 122.091 119.871 122.497 121.512 121.539C124.135 120.008 127.176 117.703 127.112 114.354C127.053 111.321 125.241 108.423 123.541 106.03C121.477 103.125 118.534 101.079 115.65 99.0754C112.575 96.9398 109.122 95.464 105.891 93.5998C104.239 92.6464 102.715 91.6206 100.921 90.9431C100.064 90.6198 99.2284 90.2449 98.382 89.8967C97.7008 89.6166 96.7174 89.4618 96.1344 88.997C95.7706 88.7069 95.7357 88.2677 95.6397 87.8366C95.4269 86.8823 95.0928 85.9775 94.7687 85.0572C94.1432 83.2802 93.7274 81.4705 93.4586 79.6068C93.2023 77.8303 92.6334 75.9827 92.928 74.177C94.8659 76.0592 96.8572 77.8683 98.84 79.7005C99.5831 80.3871 100.312 81.0881 101.059 81.7705C101.62 82.2829 102.321 83.0439 103.103 83.1959C104.101 83.3902 103.737 82.2815 104.422 82.1097C104.841 82.0048 106.104 83.0735 106.436 83.2846C108.535 84.6227 110.859 85.4706 113.168 86.3815C115.59 87.3365 118.08 88.1849 120.685 88.4252C123.092 88.6477 125.552 88.3623 127.875 87.704C132.5 86.393 135.903 83.2826 138.401 79.2507C141.246 74.6562 143.317 69.2742 143.15 63.7896Z" fill="#1C1C1C"/>
<path fill-rule="evenodd" clip-rule="evenodd" d="M72.465 53.7737C72.4642 53.7751 72.4572 53.7901 72.4572 53.7901C72.4659 53.7841 72.4684 53.7787 72.465 53.7737Z" fill="#1C1C1C"/>
<path fill-rule="evenodd" clip-rule="evenodd" d="M72.6878 53.8325C72.6705 53.6863 72.6331 53.5433 72.5758 53.4031C72.423 53.6465 72.2861 53.7508 72.487 54.0085C72.5538 53.9498 72.6207 53.8912 72.6878 53.8325Z" fill="#1C1C1C"/>
<path fill-rule="evenodd" clip-rule="evenodd" d="M83.3528 88.6635C83.5237 88.4807 83.2247 88.4118 83.111 88.4094C83.1223 88.6054 83.0255 89.0753 83.2927 89.1662C83.2286 88.9888 83.2486 88.8212 83.3528 88.6635Z" fill="#1C1C1C"/>
<path fill-rule="evenodd" clip-rule="evenodd" d="M78.8352 50.3788C78.5409 50.9495 79.1911 51.1265 79.5675 50.8509C79.8507 50.6436 80.0182 50.1151 80.0647 49.7761C80.2152 48.6793 79.4507 47.6351 79.0695 46.6618C78.971 46.4102 78.8361 45.5473 78.5188 45.5237C78.1545 45.4964 78.1275 46.2911 78.1228 46.4961C78.1088 47.1144 78.2718 47.7442 78.4628 48.3278C78.6687 48.957 79.179 49.7123 78.8352 50.3788Z" fill="#1C1C1C"/>
<path fill-rule="evenodd" clip-rule="evenodd" d="M80.2352 48.0901C81.3664 49.1015 82.2715 47.4169 82.1924 46.4205C82.1729 46.1737 82.0067 45.2634 81.5403 45.5946C81.3061 45.761 81.5058 46.3019 81.3941 46.5394C80.853 47.6905 80.3319 45.9049 79.9676 45.7647C79.5243 45.5939 79.4797 46.1787 79.4804 46.4913C79.4814 47.1119 79.7756 47.6791 80.2352 48.0901Z" fill="#1C1C1C"/>
<path fill-rule="evenodd" clip-rule="evenodd" d="M76.1286 48.2472C76.395 47.8259 76.7227 47.2608 76.7589 46.7561C76.8151 45.9715 76.3598 46.037 75.9849 46.5844C75.7203 46.9711 75.5217 47.627 74.9373 47.4639C74.2158 47.263 74.4363 46.2889 74.0324 45.826C73.0125 47.2014 74.9426 50.1218 76.1286 48.2472Z" fill="#1C1C1C"/>
<path fill-rule="evenodd" clip-rule="evenodd" d="M77.6571 52.4564C78.079 52.5479 79.1788 52.5143 78.7977 51.8657C78.3171 51.0489 76.719 52.2527 77.6571 52.4564Z" fill="#1C1C1C"/>
<path fill-rule="evenodd" clip-rule="evenodd" d="M92.435 28.095C92.5122 27.8644 92.4062 27.8225 92.2224 27.6409C92.0483 27.8023 92.2712 27.9721 92.435 28.095Z" fill="#1C1C1C"/>
<path fill-rule="evenodd" clip-rule="evenodd" d="M100.304 69.913C100.581 69.9573 100.671 69.8098 100.572 69.4702C100.133 69.4417 100.044 69.5893 100.304 69.913Z" fill="#1C1C1C"/>
<path fill-rule="evenodd" clip-rule="evenodd" d="M85.1067 34.2407C85.4137 34.3816 85.2961 34.6707 85.2908 34.915C85.449 34.7426 85.7683 34.4271 85.6382 34.1793C85.438 33.7973 84.9144 34.1525 85.1067 34.2407Z" fill="#1C1C1C"/>
<path fill-rule="evenodd" clip-rule="evenodd" d="M74.6497 29.4311C74.603 29.3395 74.5563 29.2479 74.5095 29.1564C74.3192 29.3098 74.0252 29.7154 74.3278 29.9131C74.4518 29.7619 74.5591 29.6013 74.6497 29.4311Z" fill="#1C1C1C"/>
<path fill-rule="evenodd" clip-rule="evenodd" d="M78.3334 32.1263C78.7149 32.4266 78.532 31.5047 78.5205 31.4295C78.4638 31.5376 78.1408 31.9745 78.3334 32.1263Z" fill="#1C1C1C"/>
<path fill-rule="evenodd" clip-rule="evenodd" d="M78.1216 31.6582C78.0925 31.5821 78.0631 31.5058 78.034 31.4295C77.8793 31.5733 77.69 31.8667 77.9453 32.0349C78.0154 31.9171 78.0741 31.7915 78.1216 31.6582Z" fill="#1C1C1C"/>
<path fill-rule="evenodd" clip-rule="evenodd" d="M80.5474 34.8277C80.5786 34.8565 80.6097 34.8854 80.6407 34.9144C80.7666 34.6596 80.6235 34.4683 80.386 34.4604C80.4029 34.6034 80.4567 34.7258 80.5474 34.8277Z" fill="#1C1C1C"/>
<path fill-rule="evenodd" clip-rule="evenodd" d="M70.3129 63.5308C70.4642 63.4274 70.6015 63.3094 70.7251 63.177C70.2773 62.9021 70.5456 63.4978 70.0065 63.132C69.8905 63.2932 70.0801 63.654 70.3129 63.5308Z" fill="#1C1C1C"/>
<path fill-rule="evenodd" clip-rule="evenodd" d="M89.1554 88.5603C89.3258 88.2979 89.3565 88.3055 89.1239 88.1063C88.9299 88.4306 88.95 88.3473 89.1554 88.5603Z" fill="#1C1C1C"/>
<path fill-rule="evenodd" clip-rule="evenodd" d="M53.5193 46.7466C53.612 46.8436 53.7047 46.9408 53.7974 47.0376C53.8407 46.9107 54.0767 46.5517 53.9163 46.4323C53.7841 46.537 53.6516 46.6417 53.5193 46.7466Z" fill="#1C1C1C"/>
<path fill-rule="evenodd" clip-rule="evenodd" d="M56.8202 47.7084C56.6721 47.6836 56.3181 47.5752 56.2362 47.7134C56.4528 47.8915 56.9414 47.7288 56.8202 47.7084Z" fill="#1C1C1C"/>
</svg>
