<svg width="158" height="157" viewBox="0 0 158 157" fill="none" xmlns="http://www.w3.org/2000/svg">
<circle cx="78.971" cy="78.7309" r="78.2104" fill="white"/>
<path fill-rule="evenodd" clip-rule="evenodd" d="M54.5193 66.2878C54.9932 71.092 55.4672 75.8964 55.941 80.7004C58.5212 79.2223 61.1015 77.744 63.6816 76.2658V87.2105V90.0872C63.6816 90.3418 63.5311 91.2162 63.6816 91.4367C63.8093 91.6236 64.7547 91.629 64.9783 91.6605C66.4371 91.8656 67.8995 92.048 69.3639 92.2103C73.2235 92.6383 77.3543 93.2514 81.2287 92.7597C84.5964 92.3322 87.8613 91.1295 90.9381 89.7302C92.0183 89.2389 93.0835 88.713 94.1289 88.1511C94.3505 88.032 95.1551 87.7508 95.2756 87.5083C95.374 87.3101 95.143 86.614 95.1122 86.4058C94.9823 85.5279 94.8522 84.65 94.7222 83.7723L92.9063 71.5144L96.3366 74.9536C96.6053 75.2231 97.1156 75.988 97.4875 76.1075C97.7601 76.195 98.4352 75.9239 98.7048 75.872C100.647 75.4961 102.589 75.1202 104.532 74.7445C104.984 74.6569 106.004 74.6602 106.386 74.3858C106.591 74.2379 106.601 73.9371 106.673 73.652C107.147 71.7885 107.621 69.9251 108.094 68.0619C108.18 67.7263 108.656 66.668 108.535 66.3299C108.491 66.2089 108.281 66.126 108.153 66.047C105.221 64.2493 102.29 62.4515 99.3581 60.6538C97.7521 59.6691 96.1461 58.6842 94.5402 57.6995C93.8676 57.2868 93.0412 56.5435 92.279 56.3127C91.8058 56.1695 91.1174 56.2768 90.6278 56.2627C89.6326 56.2342 88.6378 56.2057 87.6427 56.1772C87.4869 56.1728 86.9413 56.0613 86.8101 56.1534C86.701 56.2301 86.7463 56.3369 86.7105 56.5197C86.623 56.9661 86.6224 57.4474 86.5792 57.9006C86.5446 58.2641 86.6133 58.9309 86.4502 59.26C86.3459 59.4704 86.4781 59.3866 86.3371 59.4883C86.1691 59.6093 85.633 59.5704 85.4332 59.5936C84.4581 59.7074 83.4831 59.821 82.508 59.9347C81.3488 60.0699 80.1766 60.3236 79.012 60.2067C77.2464 60.0297 75.3426 60.0385 73.6088 59.6651C73.1583 59.568 72.996 59.3131 72.6484 58.9647C71.9701 58.2846 71.2986 57.5966 70.6127 56.9237C70.2766 56.594 70.4206 56.6499 70.074 56.7749C69.6398 56.9316 69.1993 57.3098 68.8063 57.5502C67.3004 58.4711 65.7945 59.3922 64.2885 60.3131L55.0947 65.9359C54.9028 66.0532 54.7111 66.1705 54.5193 66.2878Z" fill="#F0DD33"/>
<path fill-rule="evenodd" clip-rule="evenodd" d="M142.457 66.8851C140.562 74.1092 136.75 81.9863 129.071 84.2889C127.204 84.8487 125.387 85.2714 123.448 85.0582C123.264 85.0379 123.109 85.0639 122.934 85.0673C122.619 85.0733 122.891 85.1867 122.538 85.0774C122.263 84.9921 122.005 84.7789 121.719 84.6846C120.957 84.4343 120.144 84.3859 119.37 84.1836C117.467 83.6866 115.506 83.073 113.662 82.3875C112.794 82.0649 111.996 81.6154 111.179 81.1831C110.349 80.7438 109.469 80.4708 108.63 80.0679C107.966 79.7493 106.83 79.3343 106.364 78.7367C105.866 78.0995 106.554 76.743 106.751 76.0656C107.42 73.7607 108.216 71.4895 108.719 69.1386C110.455 71.1584 112.864 72.4092 115.358 73.2159C116.711 73.6537 118.103 73.9701 119.511 74.1682C120.789 74.3479 122.168 74.5655 123.449 74.3103C124.416 74.1176 125.629 73.6713 126.32 72.9302C126.567 72.6656 126.862 72.1807 126.724 71.7964C126.549 71.3086 126.038 71.5382 125.762 71.1742C125.521 70.857 125.559 70.1153 125.482 69.7292C125.346 69.0458 125.16 68.3811 124.932 67.7232C124.49 66.4459 123.94 65.1657 123.808 63.8065C123.693 62.6273 123.96 61.5121 124.546 60.4889C124.823 60.0052 125.519 58.6892 126.197 58.7439C126.942 58.8039 125.937 61.9572 125.904 62.6005C125.774 65.1504 126.115 67.8674 127.418 70.1023C127.917 70.9581 128.639 71.9545 129.704 72.0605C130.833 72.1727 131.743 71.2813 132.28 70.3793C133.591 68.1788 132.93 65.1591 132.266 62.8528C131.452 60.0231 129.327 58.0727 127.983 55.5314C129.989 55.7338 131.064 57.0134 132.093 58.6369C133.227 60.4242 134.109 62.57 134.544 64.6497C134.764 65.7005 134.612 66.7555 134.614 67.8166C134.614 68.1691 134.614 69.4695 135.187 69.4182C135.798 69.3635 136.008 67.8969 136.098 67.4494C136.304 66.4232 136.528 65.3968 136.707 64.3655C137.023 62.5408 137.164 60.672 137.544 58.8598C137.608 58.5536 137.736 57.7037 138.192 57.9332C138.545 58.1099 138.488 59.4243 138.501 59.7298C138.533 60.4827 138.577 61.2356 138.583 61.9892C138.592 63.1062 138.37 64.2625 138.479 65.3727C138.55 66.0981 138.938 66.8996 139.419 65.9214C139.895 64.9511 139.993 63.7412 140.258 62.6978C140.538 61.6023 140.826 60.4907 141.418 59.5177C141.583 59.2478 141.76 58.8192 142.125 58.9462C142.39 59.0387 142.586 59.6703 142.668 59.8932C143.039 60.9008 142.976 62.021 142.952 63.0757C142.924 64.3682 142.786 65.632 142.457 66.8851ZM105.5 68.7598C105.399 68.7269 104.969 68.686 104.862 68.6766C104.737 68.6657 104.879 68.4343 104.576 68.5001C104.635 68.6455 104.739 68.7425 104.888 68.7912C104.433 68.9457 104.097 68.564 103.786 68.5149C103.488 68.4679 103.476 68.5149 103.182 68.8306C102.863 68.4408 102.923 68.6839 102.661 68.684C102.566 68.6842 102.562 68.8286 102.407 68.8113C102.271 68.7962 102.257 68.5901 102.177 68.5658C101.743 68.4338 101.296 69.0979 100.803 68.5219C100.684 69.1212 99.3166 68.3705 98.7904 68.4758C98.2389 68.586 98.4768 68.7845 98.0311 68.4452C97.6063 68.122 97.7248 68.3367 97.2308 68.6013C97.2423 68.5951 96.9519 68.7919 96.9789 68.7951C96.6369 68.7549 96.6564 68.4 96.2233 68.4188C95.7649 68.4388 95.5692 68.7997 95.1496 68.3556C95.0584 68.6881 95.0395 68.5449 94.8246 68.6287C94.7063 68.6569 94.6029 68.6257 94.5141 68.5352C94.4873 68.6266 94.4282 68.6827 94.3368 68.7033C94.1027 68.7243 93.6631 68.7571 93.4505 68.6439C93.1314 68.474 93.3878 68.4087 93.1666 68.2176C93.0674 68.7445 92.85 68.6325 92.3915 68.6817C92.0418 68.7193 91.9647 68.6116 91.6306 68.5592C91.3016 68.5076 90.8764 68.6358 90.5554 68.6904C90.4228 68.7131 90.2455 68.8059 90.1105 68.7733C89.989 68.7439 89.937 68.6492 89.8644 68.6243C89.7762 68.5946 89.7949 68.5172 89.6427 68.4796C89.5376 68.454 89.3495 68.5528 89.2446 68.5699C88.4963 68.6919 87.7777 68.6931 87.0639 68.3976C87.4154 69.0179 86.2422 68.683 86.033 68.4261C85.7716 68.8374 85.4552 68.547 84.9283 68.5792C84.4209 68.6101 83.6576 68.7662 83.4519 68.1317C83.4116 68.2605 83.1236 68.6349 83.009 68.6921C82.6763 68.8575 82.6366 68.6126 82.3274 68.5129C81.9064 68.3772 81.9943 68.6349 81.7331 68.6872C81.2926 68.7759 81.0544 68.4643 80.665 68.2987C80.6485 68.5561 80.6401 68.7145 80.4183 68.8748C80.222 68.157 79.5212 68.9336 79.6415 67.9742C79.3748 68.1485 78.9997 68.2824 78.9238 68.6349C79.3696 68.5117 78.9713 68.8043 78.9526 68.814C78.8937 68.845 78.6946 68.5645 78.6485 68.5249C78.6358 68.6572 78.6233 68.7896 78.6107 68.9219C78.4331 68.8328 78.2663 68.6731 78.1221 68.5931C77.9922 68.5211 78.1783 68.3711 77.9588 68.3608C77.8432 68.3552 77.7225 68.6067 77.6011 68.6283C77.4155 68.6608 77.5047 68.3935 77.4269 68.4025C77.3086 68.4161 77.1157 68.5899 77.0262 68.5866C76.7328 68.5757 76.9314 68.4385 76.7074 68.3756C76.3073 68.2632 76.3329 68.526 76.0453 68.6207C75.387 68.8377 75.4531 67.8393 74.7836 68.5052C74.6233 68.6645 74.5202 68.9106 74.3007 68.8968C73.8463 68.8681 74.0058 68.3273 74.0982 68.0624C74.1937 68.1097 72.4377 69.0153 72.4516 68.9798C72.4626 68.7627 72.7389 68.5952 72.4921 68.4023C72.2903 68.8371 72.0779 68.8447 71.6124 68.9256C71.3862 68.965 71.3416 69.0176 71.0995 68.9232C70.9453 68.8631 70.8417 68.6161 70.6884 68.6025C70.7091 68.6045 70.4276 68.8195 70.3847 68.8387C70.1307 68.9538 69.9699 68.8234 69.7232 68.8707C69.5126 68.911 69.4297 69.0908 69.2204 69.0415C68.941 68.9759 69.1051 68.6408 68.7206 68.7343C68.5892 68.7663 68.5102 69.0206 68.3031 69.073C67.9803 69.1552 67.5847 69.0021 67.2436 69.082C66.9728 69.1455 66.7719 69.1723 66.5351 69.1855C66.3438 69.1962 66.4225 69.0468 66.0703 69.2232L65.9211 68.8453C65.7448 69.0045 65.5685 69.1635 65.3922 69.3228C65.3588 69.18 65.3375 69.0356 65.3286 68.8892C65.0657 69.1537 64.7347 69.1988 64.3812 69.2226C63.9986 69.2484 63.7135 69.332 63.3411 69.4023C63.2234 69.4245 62.9202 69.4599 62.8234 69.4185C62.8376 69.4246 62.6423 69.3431 62.7011 69.3585C62.6758 69.3067 62.6522 69.254 62.6305 69.2003C62.5976 69.0512 62.4907 69.0447 62.3102 69.1806C62.2168 69.1662 62.0357 69.0432 61.9425 69.0735C61.7024 69.1517 61.735 69.3387 61.4958 69.3113C61.3405 69.2934 61.2612 69.063 61.0996 69.0474C60.8522 69.0236 60.6377 69.3016 60.4148 69.3622C61.0926 69.1774 59.5357 69.3208 60.0198 69.3335C59.7023 69.3252 59.3729 69.3094 59.0796 69.4522C58.9175 69.341 59.1143 69.1173 58.9505 69.0253C58.802 68.9418 58.7905 69.1623 58.7732 69.1671C58.8669 69.1405 58.8201 69.3281 58.7264 69.3614C58.4343 69.4654 58.2005 69.2011 58.1854 68.9389C57.9373 69.314 57.8676 69.1632 57.5026 69.1864C57.1426 69.2093 56.8321 69.3987 56.472 69.3952C55.7597 69.3884 55.2764 69.1399 55.0387 68.5014C55.7976 68.5943 56.5615 68.1042 57.3037 68.2197C57.5476 68.2576 57.6999 68.4416 57.9136 68.4088C58.1768 68.3687 58.3607 68.0803 58.6983 68.0492C59.4429 67.9809 60.1769 68.0474 60.9266 67.9328C61.8221 67.7958 62.7565 67.7148 63.6606 67.7814C64.3593 67.8331 64.925 67.5649 65.6335 67.5132C66.5496 67.4462 67.4731 67.4344 68.3908 67.3861C69.3336 67.3364 70.3482 67.1853 71.2884 67.2338C71.5819 67.2488 71.8346 67.2777 72.1259 67.2601C72.2491 67.2527 72.3657 67.1686 72.4949 67.1812C72.6634 67.1975 72.7357 67.3706 72.9103 67.3645C73.2071 67.3544 73.5243 67.1089 73.8771 67.1022C74.4571 67.0912 75.0346 67.0925 75.6162 67.0593C76.1281 67.0301 76.6766 66.9101 77.1863 66.9166C77.5459 66.9211 77.6346 67.2286 77.8441 67.2604C78.2209 67.3174 80.1266 66.2286 80.2913 67.2059C81.2834 66.5241 82.6139 67.1013 83.7183 66.9733C85.1369 66.8087 86.5817 66.9554 88.01 66.8967C89.4633 66.8372 90.9585 66.8923 92.4062 67.0299C93.0058 67.0869 93.5851 67.1404 94.1864 67.1059C94.4545 67.0904 94.7644 67.0218 95.0324 67.0837C95.0973 67.0989 95.5945 67.4473 95.5328 67.4573C95.8043 67.2125 95.6206 67.1766 96.0983 67.1641C96.4666 67.1544 96.8148 67.2342 97.181 67.256C97.8383 67.295 98.5005 67.2036 99.1563 67.2238C99.7039 67.2406 100.239 67.3217 100.79 67.3256C101.383 67.33 102.084 67.3468 102.513 67.827C102.468 67.6763 102.423 67.5255 102.377 67.3747C103.039 67.4267 103.694 67.664 104.363 67.5531C104.194 67.716 104.022 67.849 103.957 68.088C104.318 68.0419 104.563 67.7889 104.943 67.7869C105.262 67.7849 105.329 67.9457 105.666 67.7379C105.707 67.9925 105.749 68.2471 105.79 68.5016C106.257 68.3912 105.951 68.0418 105.985 67.7267C106.364 67.8411 106.686 67.7098 106.536 68.2577C106.421 68.6802 105.895 68.8885 105.5 68.7598ZM104.844 73.4661C104.681 73.9253 103.273 73.6629 102.94 73.6143C102.51 73.5519 102.018 73.4526 101.622 73.4034C101.574 73.3397 101.517 73.2858 101.451 73.2414C101.401 73.3111 101.338 73.3606 101.262 73.3896C101.08 73.4296 101.079 73.6181 100.84 73.5764C100.829 73.8554 101.022 73.6969 101.17 73.7981C100.798 74.0489 100.968 73.7602 100.759 73.7648C100.707 73.691 100.635 73.662 100.543 73.678C100.425 73.7086 100.316 73.7592 100.217 73.8298C100.124 73.9286 100.044 73.9336 99.9774 73.8452C99.9137 73.781 99.8361 73.7413 99.7444 73.7263C99.3773 73.7862 99.2746 73.9497 98.8612 73.923C98.2706 73.8848 97.6317 74.041 97.0503 73.9588C96.69 73.9078 96.0879 73.3394 95.9243 73.8934C95.6753 73.4828 95.2785 73.2033 95.04 72.7837C96.151 72.7191 97.2616 72.6423 98.3736 72.602C99.3471 72.5668 100.412 72.6769 101.322 72.6308C102.174 72.5876 103.077 72.493 103.947 72.415C104.869 72.3323 105.174 72.5355 104.844 73.4661ZM75.8607 73.5338C76.2641 73.646 76.6483 73.3918 77.0395 73.4722C77.1688 73.4987 77.4366 73.7351 77.4955 73.7398C77.6032 73.7484 77.9199 73.5163 78.0557 73.4852C78.915 73.2888 79.956 73.3097 80.8151 73.4303C81.2704 73.4941 81.3403 73.285 81.7377 73.1835C82.1506 73.0777 82.7378 73.1591 83.1726 73.13C84.1958 73.0612 85.2186 73.1101 86.2348 73.035C87.2781 72.9578 88.3162 72.9161 89.3599 72.8622C90.071 72.8255 91.7796 72.4183 92.3689 72.9483C92.8549 73.3852 92.2288 74.1438 91.7428 74.317C91.3792 74.4461 91.2051 74.1738 90.9353 74.1999C90.628 74.2294 90.7351 74.5939 90.4609 74.2558C90.2909 74.5921 89.2226 74.4487 88.9165 74.471C88.2494 74.5193 87.685 74.6537 87.2308 74.0289C87.2616 74.209 87.2924 74.3893 87.3232 74.5695C86.7211 74.2464 86.0748 74.3497 85.5521 74.4625C85.2933 74.5183 84.4987 74.9036 84.2183 74.7374C84.0254 74.6231 84.3655 74.4276 84.0399 74.33C83.8693 74.2788 83.5749 74.5633 83.3664 74.549C82.7895 74.5092 82.9532 74.1197 82.3866 74.6154C82.1946 74.4487 82.1307 74.1653 82.1561 73.9224C81.7445 74.2749 81.7789 74.8624 81.0429 74.7548C80.7687 74.7148 80.7183 74.434 80.5753 74.3822C80.2707 74.2717 80.2362 74.4702 79.9723 74.6274C79.8727 74.6866 79.7512 74.7819 79.6339 74.7939C79.393 74.818 79.3548 74.7069 79.3218 74.7106C79.1615 74.7283 78.9595 74.8101 78.7694 74.7516C78.5986 74.6992 78.5487 74.3967 78.248 74.4675C77.9602 74.5352 77.9578 74.7315 78.01 75.0253C77.7261 74.9958 77.5545 74.8371 77.3421 74.6651C77.1278 75.1672 76.6765 74.7513 76.4268 75.1749C76.1017 74.7851 75.8931 74.8924 75.4897 74.5117C75.5096 74.6706 75.5294 74.8294 75.549 74.9883C75.2343 74.9274 75.0942 74.7045 74.8255 74.9994C74.5649 74.5119 73.7746 75.2066 73.3686 74.7357C73.1876 75.332 71.9904 75.1894 71.4847 75.1997C71.0366 75.209 70.7048 75.1722 70.267 75.2766C69.8801 75.3689 69.3438 75.4646 68.9799 75.4224C68.7422 75.3948 68.4823 75.351 68.186 75.3834C67.759 75.4298 67.3901 75.6518 66.9477 75.5468C66.2817 75.3887 65.8734 74.5102 66.6152 74.1244C67.123 73.8604 68.0376 73.9581 68.5964 73.9094C69.5224 73.8286 70.5602 73.6593 71.4874 73.7363C72.2107 73.7963 72.87 73.6231 73.6079 73.5499C74.1635 73.4949 75.0741 73.3956 75.4365 73.9484C75.5756 73.7871 75.5612 73.4506 75.8607 73.5338ZM65.7235 81.1012C65.624 80.604 69.8576 80.3302 70.2778 80.2978C71.1601 80.2294 72.0447 80.1808 72.929 80.1582C73.6559 80.1397 74.3344 80.279 75.0615 80.167C75.7405 80.0624 76.5601 79.848 77.1512 80.3307C77.2381 79.6705 79.7865 79.9921 80.2713 79.9939C82.3819 80.0015 84.4014 80.0065 86.4428 79.8753C87.6095 79.8003 88.8484 79.6993 90.0153 79.758C90.5416 79.7845 90.9655 79.9253 91.4888 79.803C91.8302 79.7234 92.198 79.5575 92.5246 79.7919C92.9066 80.0665 93.07 80.9985 92.8067 81.3875C92.615 81.6709 92.4452 81.6395 92.139 81.5904C91.6682 81.5153 91.3183 81.4059 90.8382 81.598C90.916 81.5668 90.5166 81.6563 90.5496 81.6538C90.0058 81.6945 89.2599 82.076 88.7912 81.6363C88.979 81.6694 89.2519 81.3328 89.0152 81.3051C88.8374 81.2845 88.7247 81.4757 88.586 81.5398C88.1114 81.7589 87.8686 81.6904 87.5852 81.2307C87.0138 81.7273 86.9522 81.5898 86.7014 80.9783C86.5082 81.1276 86.4667 81.481 86.3147 81.5968C86.292 81.6141 86.3856 81.8287 86.2759 81.8199C86.174 81.8115 86.1406 81.6439 86.0623 81.6307C86.0123 81.6222 85.9862 81.4753 85.9384 81.4663C85.8865 81.4566 85.8332 81.5504 85.7743 81.5477C85.6173 81.5403 85.1683 81.8758 85.3293 81.4049C85.0913 81.7088 84.989 81.5151 84.9031 81.2385C84.6284 81.4483 84.3538 81.6579 84.079 81.8674C83.9513 81.5109 83.7314 81.608 83.4549 81.7326C83.5382 81.485 83.486 81.2507 83.2769 81.4228C83.1557 81.5225 83.0745 81.839 82.9506 81.9734C82.449 81.4634 82.2667 81.6033 81.5738 81.6697C81.3093 81.6948 80.9806 81.7439 80.7444 81.5835C80.5365 81.4425 80.4191 80.9252 80.0638 81.3431C80.143 81.2502 80.019 81.9643 79.9971 82.0776C79.8404 81.9717 79.7073 81.8412 79.5977 81.6867C79.3933 82.0929 78.8566 81.7283 78.4169 81.8114C77.7246 81.9422 77.0105 82.1623 76.3989 81.645C76.3557 81.812 75.8548 82.0247 75.854 82.0313C75.8838 81.7355 76.0696 81.8394 75.6901 81.7833C75.6202 81.773 75.541 81.8991 75.475 81.9129C75.2488 81.9599 74.9845 81.9153 74.7564 81.9088C73.8078 81.8814 72.9394 82.0925 72.0027 82.169C71.687 82.1946 71.3124 82.2452 71.0159 82.1258C70.7106 82.0025 70.7189 81.8626 70.4099 81.942C70.5077 81.917 70.2169 82.2237 70.2326 82.2122C70.1911 82.2425 70.0178 82.0928 69.9562 82.104C69.9382 82.1695 69.9203 82.2348 69.9023 82.3003C69.8277 82.291 69.7533 82.2818 69.6789 82.2727C69.4752 82.3001 69.2915 82.0931 69.1001 82.0861C69.1353 82.0873 68.5836 82.2936 68.6088 82.3062C68.2236 82.1132 68.3342 82.1692 67.8456 82.2866C67.3838 82.3975 66.924 82.3716 66.4502 82.4409C65.072 82.6418 65.8931 81.9484 65.7235 81.1012ZM64.5063 88.0193C64.2472 87.6503 64.9367 87.5227 65.157 87.4901C65.5191 87.4365 65.9997 87.5432 66.2411 87.4854C66.6086 87.3977 66.9634 87.1881 67.3771 87.1313C67.8994 87.0596 68.4257 87.0479 68.9501 87.0031C69.1247 86.9879 69.341 86.9276 69.5109 86.9378C69.7641 86.9531 69.8691 87.0875 70.0735 87.0884C70.4215 87.0902 70.8509 86.8696 71.2076 86.8291C71.6643 86.7771 72.1258 86.7527 72.5847 86.7298C73.5518 86.6816 74.5089 86.7017 75.4755 86.7006C75.9164 86.7 77.0903 86.2407 77.3101 86.7556C77.6158 86.3654 78.3997 86.4186 78.8367 86.4072C79.6064 86.3874 80.3682 86.3128 81.1374 86.2769C81.7959 86.2461 82.5317 86.3877 83.1785 86.2885C83.5349 86.234 83.6531 86.1193 84.0571 86.1711C84.3575 86.2093 84.8153 86.05 85.0731 86.1205C85.0596 86.1168 85.3947 86.3252 85.2901 86.3319C85.4053 86.3245 85.3985 86.4052 85.5254 86.3692C85.692 86.322 85.6155 86.1115 85.961 86.0368C86.4999 85.9201 87.2185 86.0552 87.7783 86.0252C88.3214 85.9962 88.8637 85.9836 89.4073 85.9862C89.6576 85.9873 89.9672 85.9273 90.2106 85.9764C90.3299 86.0003 90.5834 86.1567 90.6846 86.1409C90.971 86.0959 91.117 85.8962 91.5043 85.9086C91.9434 85.9226 92.3385 85.9165 92.7752 85.8829C93.1978 85.8504 93.2657 85.7898 93.4752 86.1429C93.6829 86.4933 93.7401 86.9494 93.3579 87.1875C93.6062 87.1711 93.9116 87.505 93.6191 87.6897C93.4382 87.804 93.0757 87.5462 92.8593 87.5647C92.5925 87.5877 92.3832 87.7293 92.0931 87.738C91.7879 87.7474 91.478 87.8246 91.1772 87.8305C90.8637 87.8365 90.6268 87.6959 90.3294 87.7558C90.0678 87.8087 90.0402 88.0239 89.7252 87.8349C89.5687 87.7408 89.5423 87.3925 89.3287 87.3893C89.0425 87.3849 89.1566 87.7561 88.9921 87.9281C88.9479 87.3972 88.5398 88.2756 88.3775 87.6312C88.2279 87.8452 87.6741 88.1445 87.4058 87.9726C87.1613 87.8159 87.2425 87.4615 87.1406 87.206C86.9709 87.665 86.516 88.1413 86.5572 87.3055C86.3361 87.5788 85.7388 87.5356 85.8886 88.0135C85.7085 88.0101 85.6659 87.752 85.5144 87.7324C85.3835 87.7156 85.2797 87.8165 85.2596 87.815C85.3313 87.8211 85.0454 87.9166 85.0409 87.9176C85.2346 87.8781 84.4826 87.8108 84.6106 87.8119C84.4361 87.8105 84.2225 87.9538 84.0185 87.9534C83.8327 87.9529 83.6478 87.8794 83.4642 87.8585C82.9886 87.804 83.0876 87.9088 82.7889 88.0589C82.6783 88.1143 82.6505 88.2084 82.4934 88.1968C82.3775 88.188 82.3342 88.0361 82.321 88.0349C82.158 88.0184 82.2785 87.9634 82.0254 87.9889C81.9962 88.039 81.9674 88.089 81.9383 88.1392C81.8469 88.2566 81.7283 88.2859 81.5828 88.2274C81.2082 88.308 79.966 88.6576 80.0876 88.0102C79.8973 88.1036 79.707 88.1971 79.5166 88.2906C79.435 87.7685 78.4008 88.4606 78.1698 88.4956C77.8734 88.5402 77.8461 88.426 77.5659 88.3653C77.5154 88.3544 77.4141 88.5217 77.2958 88.4976C76.9883 88.4356 76.9335 88.4048 76.8808 88.0696C76.6617 88.4811 76.4795 88.2971 76.0819 88.3647C75.9939 88.3797 75.9378 88.5535 75.8115 88.5235C75.7204 88.502 75.718 88.335 75.6552 88.3135C75.5988 88.2939 75.6072 88.1621 75.5241 88.1434C75.4287 88.1217 75.1034 88.3895 75.0101 88.4309C74.7997 88.5239 74.4541 88.6781 74.2487 88.632C73.9946 88.575 74.1077 88.3859 73.7488 88.4073C73.1826 88.4404 72.9464 88.9243 72.5941 88.1619C72.4352 88.4673 72.4554 88.5502 72.2 88.6509C72.0113 88.7253 71.5335 88.6476 71.285 88.6384C70.2241 88.5991 69.181 88.9621 68.1288 88.867C67.6663 88.8252 67.2763 88.7323 66.8096 88.8082C66.3192 88.8883 65.8396 89.0057 65.3421 89.053C65.0891 89.0769 64.5605 89.15 64.4363 88.8252C64.3272 88.5394 64.7346 88.3445 64.5063 88.0193ZM66.5871 99.7393C65.2109 100.664 64.0712 101.926 62.8076 102.995C61.5407 104.066 60.5354 105.257 59.3961 106.444C58.3427 107.541 57.3749 108.579 56.1015 109.408C55.2956 109.932 54.5767 110.578 53.749 111.073C53.1289 111.443 52.1896 111.93 52.4921 110.797C52.8021 109.636 53.3745 108.462 53.8715 107.378C54.5782 105.836 55.2902 104.309 56.0547 102.797C56.3421 102.228 56.5028 101.663 56.9585 101.21C57.4543 100.717 57.8015 100.074 58.3444 99.6088C60.6283 97.6512 64.0703 99.1636 66.5871 99.7393ZM70.9041 100.403C70.2798 100.732 69.5811 100.813 68.9196 101.03C68.3558 101.215 67.8316 101.544 67.2253 101.569C67.7773 101.153 68.2514 100.587 68.8737 100.272C69.5736 99.9163 70.2089 100.175 70.9041 100.403ZM98.3038 103.141C96.0076 102.363 93.8698 101.217 91.6334 100.295C91.2473 100.135 88.2279 99.1368 88.2892 98.6617C90.405 98.2725 92.5841 97.6047 94.7051 98.3328C96.6345 98.9952 98.2038 100.584 99.6974 101.914C100.087 102.261 102.497 103.841 102.282 104.344C102.132 104.693 100.971 104.598 100.697 104.527C100.342 104.434 100.138 104.218 99.8606 103.981C99.396 103.585 98.8821 103.337 98.3038 103.141ZM94.0649 90.145C94.4137 89.8228 94.6225 89.3339 94.9556 89.0365C95.3837 88.6543 96.0743 88.8405 96.5422 89.039C97.9463 89.6348 99.1464 90.6361 100.542 91.2576C102.088 91.9465 103.427 92.867 104.822 93.8157C106.097 94.6828 107.475 95.4006 108.777 96.2281C110.103 97.0715 111.587 97.6197 112.931 98.4331C114.299 99.2612 115.662 100.092 116.977 101.005C119.321 102.632 121.762 104.302 123.497 106.615C124.388 107.804 125.223 109.153 125.877 110.488C126.471 111.702 127.116 113.386 126.346 114.649C125.606 115.861 124.344 116.816 123.277 117.721C122.872 118.064 122.488 118.48 121.964 118.628C121.326 118.809 120.582 118.759 119.927 118.812C116.422 119.098 113.156 118.828 109.702 118.199C106.371 117.592 103.027 117.252 99.6706 116.831C97.7772 116.593 95.8842 116.315 94.0165 115.919C93.218 115.75 92.4057 115.554 91.6245 115.324C90.9422 115.122 90.3685 114.678 89.667 114.503C86.6897 113.756 83.2834 113.471 80.3359 112.215C82.9443 111.127 85.716 110.469 88.3893 109.565C91.2029 108.613 93.9508 107.815 96.9164 107.544C98.4424 107.405 99.8081 107.014 101.276 106.604C102.675 106.214 104.135 106.094 105.572 105.919C106.211 105.842 108.035 105.958 108.247 105.119C108.562 103.871 106.77 103.727 106.006 103.839C104.923 103.997 104.029 104.269 103.2 103.376C102.353 102.465 101.531 101.532 100.668 100.632C99.07 98.9634 97.4224 97.0335 95.1628 96.2849C92.4063 95.3717 89.2098 96.2385 86.4593 96.7579C83.5542 97.3064 80.6538 97.8315 77.8031 98.6289C76.6226 98.959 75.1001 99.6864 73.875 99.5697C72.6675 99.4542 71.2998 99.2559 70.1329 98.9062C69.605 98.7482 69.171 98.455 68.6986 98.1817C68.0843 97.8262 67.4111 97.5984 66.7592 97.322C65.4409 96.7635 64.1557 96.2488 62.7334 96.0292C61.5356 95.8443 60.2637 95.7346 59.103 96.1562C57.9642 96.5698 56.9552 97.4119 56.1606 98.3115C55.2976 99.2889 54.5842 100.384 53.877 101.476C53.5374 102 53.1229 102.458 52.7711 102.97C52.4758 103.4 52.3035 103.878 51.991 104.296C51.2917 105.232 50.8169 106.429 50.3932 107.517C49.9223 108.726 49.3993 110.164 49.5117 111.479C49.5542 111.976 49.5985 112.635 49.7901 113.095C50.0337 113.682 50.381 113.667 50.8816 113.888C51.7418 114.268 51.983 115.318 53.0947 115.113C54.1373 114.921 55.0416 114.059 55.8023 113.371C56.7938 112.475 57.7427 111.53 58.6915 110.589C59.6651 109.623 60.6244 108.551 61.3989 107.415C61.7038 106.967 61.9415 106.462 62.3018 106.055C62.7606 105.535 63.2758 105.473 63.899 105.266C69.3475 103.459 74.8224 101.716 80.4411 100.522C81.7872 100.236 83.1442 99.8673 84.4666 99.4868C85.8691 99.0831 86.5954 99.5098 87.7529 100.278C90.1711 101.883 93.0294 103.014 95.7221 104.061C96.57 104.391 97.9198 104.412 98.5826 105.063C94.6539 105.664 90.9099 106.821 87.1205 107.973C85.2522 108.541 83.3625 109.033 81.4871 109.576C79.611 110.12 77.8064 110.824 75.9561 111.436C74.1146 112.046 72.1685 112.295 70.3092 112.857C68.4112 113.431 66.5212 113.826 64.5729 114.175C62.6058 114.527 60.6523 114.934 58.6784 115.249C57.7746 115.394 56.8709 115.544 55.9772 115.742C55.1027 115.937 54.2578 116.403 53.3789 116.511C49.4538 116.993 45.6057 118.067 41.6958 118.674C38.7766 119.128 33.6977 119.76 31.8047 116.82C29.9011 113.862 32.2365 110.413 34.3203 108.298C35.6153 106.984 37.0705 105.827 38.5972 104.799C40.2313 103.697 41.8034 102.508 43.4378 101.409C47.1363 98.9205 51.1468 96.8911 55.1204 94.8916C57.0276 93.9319 58.8704 92.9026 60.7257 91.8494C61.6466 91.3266 62.1561 92.1701 62.8841 92.7433C63.4566 93.1945 64.5079 94.306 65.3089 93.7922C65.3397 93.9772 65.3706 94.1622 65.4014 94.3476C65.6359 94.2401 65.8708 94.1328 66.1054 94.0254C66.2629 94.4403 66.2445 94.6981 66.6848 94.916C66.9551 95.05 67.5322 95.2111 67.79 94.9753C67.8425 95.1392 67.895 95.3029 67.9477 95.4667C68.173 95.4494 68.2165 94.8022 68.2591 94.6507C68.6452 95.217 69.1793 95.6902 69.8581 95.8503C69.8614 95.8133 69.7477 95.3481 69.7526 95.3452C69.9674 95.2132 70.2383 95.7784 70.3521 95.8995C70.7296 96.3006 70.9548 96.2384 71.3718 95.9147C71.4022 95.9477 71.5433 96.3175 71.5638 96.3108C71.6541 96.282 71.8254 95.9544 71.8443 95.9245C71.8181 96.3555 72.6469 96.4423 72.9396 96.3499C72.8739 96.2235 72.8083 96.0973 72.7428 95.971C73.7622 95.8344 74.1625 96.9218 75.141 96.8667C75.8644 96.8256 75.2842 96.6669 75.6937 96.3558C76.0513 96.0839 76.115 96.6786 76.1502 96.6597C76.2184 96.588 76.2712 96.5055 76.3088 96.4123C76.4412 96.9215 77.495 97.3783 77.386 96.5411C77.8006 96.7075 78.095 96.9839 78.5538 97.0423C79.1115 97.1132 79.7071 96.9944 80.2635 96.948C81.4622 96.8479 82.5923 96.6024 83.6728 96.0509C84.3135 95.724 84.9955 95.4275 85.5977 95.033C86.1017 94.7029 87.0579 93.7008 87.7289 94.1322C87.557 93.6233 88.366 94.0949 88.3918 93.4394C88.5218 93.5377 88.6518 93.6359 88.7817 93.7344C88.8596 93.5629 88.8379 93.2925 88.9423 93.143C89.0855 92.9376 89.1556 93.0585 89.2777 92.9431C89.4144 92.8138 89.5338 92.4677 89.6977 92.3692C89.8666 92.2678 90.0654 92.3887 90.2472 92.3001C90.524 92.1651 91.7144 90.8471 91.5129 91.9764C92.0249 91.8018 91.6302 91.6421 91.694 91.2996C91.8225 90.6133 92.1351 91.1073 92.4464 91.167C92.9563 91.2652 92.946 90.8419 93.2303 90.5345C93.4899 90.2535 93.978 90.1279 93.8099 89.6399C94.0018 89.7439 94.0426 89.9474 94.0649 90.145ZM63.3318 75.4865C62.9301 75.9356 62.6293 75.7436 62.1828 75.6777C62.135 75.5169 62.0533 75.4948 61.938 75.6109C61.8056 75.6872 61.6635 75.7376 61.511 75.7615C61.1448 75.8521 60.7645 75.8136 60.4063 75.9509C60.4166 75.8305 60.5426 75.6163 60.4619 75.494C60.0851 75.7556 59.8516 75.922 59.389 75.927C59.0142 75.9309 58.3563 75.6435 58.0451 75.9871C58.0354 75.8533 58.0257 75.7197 58.0164 75.5859C57.8639 75.6621 57.7313 75.7641 57.6185 75.892C57.5971 75.6938 57.5853 75.5439 57.4548 75.3837C57.2071 75.895 56.9358 75.9071 56.4548 75.7118C56.5223 75.7391 55.9733 75.416 55.9943 75.5056C55.8207 74.7713 58.5604 74.8319 58.848 74.803C59.5663 74.7301 60.2845 74.6878 61.0039 74.6213C61.6861 74.5584 62.1954 74.4516 62.6675 75.023C62.4571 74.1976 64.4478 74.2385 63.3318 75.4865ZM31.9198 62.6849C31.9953 63.9329 32.272 65.2593 31.7887 66.4604C31.4002 67.4259 30.6251 68.5163 29.7901 69.1464C28.0805 70.4365 26.6315 68.8578 26.3934 67.123C26.1455 65.3134 26.6371 63.1024 28.189 61.9868C29.1163 61.3201 30.0143 61.3663 31.0818 61.5855C31.3325 61.637 31.7396 61.6171 31.883 61.8673C31.9167 61.9258 31.8865 62.6837 31.9198 62.6849ZM54.6262 79.3121C54.3308 79.4619 54.0219 79.5495 53.7615 79.753C53.6711 79.8237 53.6403 79.985 53.5443 80.0444C53.3697 80.1529 53.12 80.0809 52.938 80.1705C52.6367 80.3182 52.4207 80.5298 52.0627 80.666C51.531 80.8683 51.0647 81.1458 50.5621 81.4089C49.7247 81.8473 48.8259 82.2236 47.9505 82.5805C47.5085 82.7606 46.2864 83.1118 46.3286 83.7613C46.2298 83.7881 46.1288 83.5711 45.9223 83.5884C45.639 83.612 45.2647 83.941 44.9705 84.0219C44.4202 84.1732 43.9943 84.1865 43.9943 84.8909C43.8192 84.7715 43.7747 84.479 43.5416 84.4403C43.2793 84.3967 43.1689 84.6808 42.9591 84.7692C42.7121 84.8733 42.4048 84.7734 42.1601 84.8842C42.0531 84.9979 41.9341 85.0971 41.8033 85.1817C41.6702 85.197 41.5376 85.193 41.4059 85.1693C40.8863 85.2799 40.4083 85.4761 39.8876 85.578C39.3801 85.6775 39.0325 85.7136 39.246 86.3161C38.703 86.4228 38.5705 85.8444 37.958 86.0561C37.2073 86.3151 36.5056 86.5021 35.7219 86.6601C35.3222 86.7407 34.9046 86.9206 34.502 86.9629C34.2148 86.9931 33.9467 86.8899 33.6639 86.922C33.3231 86.9603 33.0491 87.1188 32.6964 87.1248C32.3618 87.1307 32.0105 87.0704 31.6819 87.0111C31.7284 87.144 31.7865 87.2714 31.8563 87.3934C31.6291 87.3457 31.5242 87.0714 31.3316 87.0308C31.1295 86.9884 30.9484 87.1976 30.7801 87.1513C30.7084 87.1314 30.7561 86.9096 30.628 86.8671C30.511 86.8288 30.4618 86.8741 30.3459 86.8559C30.3072 86.8499 29.8226 86.8235 29.7453 86.8646C29.6103 86.9364 29.7469 87.071 29.7201 87.091C29.2643 87.4297 29.2587 87.2469 29.0555 86.893C28.7571 86.3737 28.3973 86.7015 27.855 86.6106C27.2505 86.5093 26.7743 86.7771 26.1794 86.7389C25.5378 86.6979 24.7837 86.2158 24.2163 85.9342C22.9913 85.3264 21.7967 84.7511 20.7679 83.8304C18.7567 82.0305 17.1205 79.8171 16.1558 77.2831C15.1193 74.5608 14.9229 71.7217 15.0061 68.8336C15.0561 67.0966 15.1946 65.3607 15.4673 63.6442C15.655 62.4634 15.6943 60.365 17.0203 59.8273C17.2482 62.592 16.5289 65.4093 16.9826 68.1562C17.1192 68.9836 17.4523 70.0859 18.0827 70.6988C19.0161 71.6058 19.2345 70.2946 19.3189 69.5704C19.476 68.2252 19.768 66.8875 19.9747 65.5486C20.1812 64.2105 20.3272 62.8572 20.6143 61.533C20.719 61.0502 21.5633 57.5146 22.1831 57.682C22.0577 60.2542 21.7247 62.7821 21.7116 65.3636C21.7064 66.3991 21.6141 67.4927 21.7629 68.5214C21.8396 69.0508 22.3197 70.6041 23.1455 70.4745C23.9096 70.3546 23.0695 69.2605 22.9981 68.8386C22.8092 67.7217 23.0501 66.3322 23.2262 65.2237C23.5598 63.1258 24.3037 60.9772 25.5197 59.224C26.6088 57.6542 28.2857 56.1597 30.306 56.4365C31.1691 56.5549 31.8425 56.7701 32.2762 57.5614C32.6165 58.1824 33.957 58.8882 33.1801 59.6657C32.473 60.3736 31.3292 59.807 30.5431 59.6382C29.5806 59.4316 28.5491 59.6801 27.7442 60.2464C26.3631 61.2177 25.5761 62.9544 25.3192 64.5831C24.973 66.7791 25.8985 72.5274 29.3074 71.2392C31.5721 70.3833 33.2778 67.3045 33.0876 64.9474C33.0114 64.0039 32.644 62.2127 33.9442 61.958C35.6099 61.6317 35.8452 63.4752 35.6765 64.6733C35.4314 66.4159 34.514 68.0363 33.4645 69.4142C32.5498 70.615 31.486 71.3659 30.3854 72.3577C30.0595 72.6512 29.2283 73.3114 29.3679 73.8575C29.521 74.456 30.8272 74.6261 31.3502 74.7245C33.9377 75.2108 36.8556 74.7634 39.4387 74.424C44.7477 73.7258 49.9869 72.0067 54.3402 68.846C54.516 70.8017 54.7378 72.7508 54.8194 74.7136C54.859 75.6663 54.8691 76.6329 54.9776 77.5805C55.0445 78.1633 55.2858 78.9775 54.6262 79.3121ZM39.9053 86.1267C39.6968 86.236 39.9222 85.574 39.8642 85.793C40.1756 85.9051 40.1893 86.0164 39.9053 86.1267ZM61.9285 62.4591C62.2594 62.093 63.1633 61.2221 63.4502 62.0486C63.557 61.6963 63.5708 61.1743 63.9829 61.6502C64.147 61.0657 65.9568 61.1204 66.4051 61.0946C67.8405 61.0122 69.2817 60.9681 70.7119 60.8249C73.6511 60.5307 76.6415 60.6826 79.5914 60.6729C80.2301 60.6708 80.8672 60.6361 81.5013 60.7291C82.1132 60.8188 82.7563 61.0707 83.38 60.9787C83.9345 60.8969 84.2981 60.7434 84.8688 60.809C85.5518 60.8876 86.2149 60.9435 86.9039 60.941C89.9516 60.9298 92.9978 61.0537 96.0461 61.0586C96.6402 61.0595 97.352 60.9429 97.9094 61.1963C98.1159 61.2903 98.3416 61.6027 98.4993 61.637C98.68 61.6762 98.5726 61.3932 98.8146 61.5211C99.1386 61.6922 98.8878 62.2185 98.6736 62.3018C98.8019 62.252 98.4422 62.2027 98.4782 62.2007C98.3076 62.21 98.1619 62.3414 97.9787 62.3332C97.6995 62.3209 97.4658 62.15 97.2409 61.9995C97.237 62.061 97.3606 62.4706 97.2195 62.4912C97.0981 62.5091 96.9843 62.1053 96.9721 62.0113C96.2902 62.6152 95.5676 62.2786 94.7215 62.355C94.1212 62.4094 92.8697 62.8113 92.451 62.1823C92.4336 62.3161 92.38 62.4332 92.2907 62.5337C92.171 62.7166 92.0676 62.7011 91.9802 62.4865C91.9506 62.4879 91.659 62.5516 91.6533 62.5511C91.4482 62.5347 91.182 62.4608 90.9733 62.4429C90.6503 62.4152 90.7098 62.6513 90.4524 62.6551C90.3119 62.657 89.9536 62.4534 89.7085 62.4406C89.284 62.4184 88.8505 62.5991 88.4318 62.5444C88.1436 62.5069 87.883 62.2712 87.6002 62.2621C87.2477 62.2503 87.1335 62.5202 86.8543 62.1412C86.7971 62.1256 86.7616 62.3485 86.7389 62.3524C86.7444 62.3514 86.4731 62.3917 86.4411 62.4043C86.3854 62.4256 86.1686 62.5253 86.1026 62.5264C85.9601 62.5291 85.8827 62.4267 85.7316 62.4243C85.4816 62.42 84.6836 62.641 84.706 62.1766C83.8139 62.5085 83.0528 62.3793 82.1372 62.4576C81.7171 62.4938 81.4533 62.4373 81.0536 62.3599C80.5531 62.2629 80.2208 62.3847 79.7216 62.4094C79.2419 62.4331 79.0907 62.2292 78.6857 62.0453C78.526 61.9727 78.4205 61.877 78.2246 61.9174C78.1129 61.9404 78.1925 62.1292 78.1594 62.1421C77.9874 62.2088 77.8672 62.1381 77.6313 62.1544C77.1957 62.1841 77.0223 62.5496 76.5746 62.2065C76.7233 62.1885 76.8721 62.17 77.0211 62.1519C76.5929 61.9696 76.0278 61.8767 76.1314 62.5403C75.7663 62.4888 76.0824 62.2392 75.9029 62.1498C75.7233 62.0607 75.5224 62.21 75.2963 62.2838C74.6992 62.4782 74.2014 62.3817 73.579 62.3468C72.8715 62.3071 71.2168 62.8866 70.7103 62.1344C70.695 62.2929 70.5255 62.7345 70.2999 62.7137C70.2264 62.7069 70.4313 62.238 70.4546 62.1885C70.3384 62.4368 69.8083 62.484 69.5469 62.6128C69.5763 62.4793 69.6054 62.3459 69.6347 62.2126C69.3921 62.4718 69.2743 62.3136 68.9888 62.4003C68.864 62.4382 68.6833 62.6966 68.5766 62.7122C68.4524 62.5675 68.296 62.5052 68.108 62.5253C67.9827 62.494 67.8576 62.4878 67.7324 62.507C67.2315 62.5435 66.7748 62.823 66.2764 62.6326C65.845 62.4676 65.6782 62.0433 65.421 62.7184C65.3532 62.5984 65.2856 62.4784 65.218 62.3583C65.1345 62.4887 65.0511 62.6188 64.9674 62.749C64.6411 62.5344 64.6211 62.4102 64.2455 62.489C64.1574 62.5243 64.067 62.5193 63.9744 62.4741C63.9523 62.5403 63.9302 62.6063 63.908 62.6723C63.8993 62.8384 63.8501 62.8934 63.7607 62.8369C63.6856 62.8098 63.6178 62.7687 63.5573 62.7134C63.3088 62.7325 62.9914 62.7981 62.7247 62.7619C62.6218 62.7481 61.9765 62.4061 61.9285 62.4591ZM69.5324 57.9912C69.5616 58.0364 69.5909 58.0814 69.6202 58.1265C69.2168 58.3404 69.1218 58.2176 69.0802 57.7881C69.2773 57.7919 69.3109 58.14 69.5324 57.9912ZM69.7823 57.7392C69.9766 57.8253 70.1993 57.9942 70.3823 57.7678C70.5054 58.1273 69.5906 58.6178 69.7823 57.7392ZM71.0369 57.898C71.4447 58.1747 70.4665 57.9523 70.468 57.9527C70.6439 57.7896 70.8334 57.7715 71.0369 57.898ZM74.5447 56.3547C74.6846 57.0633 75.0704 57.0431 75.693 56.7137C76.601 56.2333 76.7544 55.4467 76.8176 54.5072C76.8784 53.6065 76.9882 53.2578 77.9132 53.4458C78.559 53.5771 79.1052 53.4667 79.7562 53.4487C80.4508 53.4295 80.6956 53.536 80.7515 54.2537C80.8074 54.9723 80.9348 55.518 81.4542 56.0649C81.9823 56.6209 82.6866 56.953 83.3728 57.2641C83.7257 57.4238 84.057 57.5958 84.4474 57.6305C84.5987 57.644 85.3861 57.544 85.4026 57.7942C85.4149 57.9823 84.3244 58.5127 84.2088 58.5758C83.703 58.852 83.1987 59.0997 82.6463 59.267C81.3754 59.652 80.0279 59.6747 78.7115 59.6513C76.5891 59.6139 73.6558 58.7125 72.3867 56.822C73.1061 56.6663 73.8254 56.5105 74.5447 56.3547ZM74.3543 50.2187C74.0185 49.9358 73.801 49.5083 73.5221 49.1733C73.3814 49.0043 73.2783 48.9505 73.1444 48.8659C73.0034 48.7768 72.9241 48.9029 72.8063 48.6935C72.5025 48.1525 73.4403 47.3911 72.4456 47.1829C72.1091 47.1123 71.2992 47.38 71.201 46.8959C71.062 46.2114 72.3633 46.1667 72.6694 45.8192C73.2783 45.1284 72.865 43.9575 73.2359 43.1607C73.5868 42.4058 74.4929 42.2717 75.208 42.0448C76.2045 41.729 77.2129 41.5458 78.2246 41.293C78.9321 41.1164 80.1074 40.4065 80.7635 41.0338C79.751 41.2594 80.3396 41.6137 81.0144 41.8136C81.7787 42.0403 82.5888 42.1287 83.3808 42.1918C84.1961 42.2567 85.0269 42.2691 85.8324 42.1059C86.5774 41.955 87.4094 41.3049 88.1905 41.4714C87.7571 42.2281 86.466 42.6413 85.6815 42.8395C85.2818 42.9405 85.0258 42.9089 85.0796 43.4093C85.1315 43.8943 85.5514 44.3806 85.6463 44.8858C85.7717 45.5544 85.6622 46.1689 85.425 46.7977C85.1918 47.4164 85.1375 47.4972 85.3413 48.0884C85.6588 49.0088 84.9763 50.0263 84.3455 50.6947C81.7944 53.3976 76.9124 52.3738 74.3543 50.2187ZM80.8366 34.0646C80.8468 34.0922 80.8381 34.0818 80.8366 34.0646V34.0646ZM81.6311 40.8859C81.5253 40.9651 80.9161 41.1315 80.9416 40.8925C80.9756 40.5722 81.5247 40.6879 81.6311 40.8859ZM83.0196 34.4159C82.8766 34.3089 82.4762 34.3529 82.769 33.9473C82.8643 34.1257 82.942 34.2707 83.0196 34.4159ZM73.4114 31.8524C73.5936 31.3772 73.7954 30.935 73.8775 30.429C73.9282 30.1173 73.8274 29.7613 74.2615 29.7123C73.7083 29.4702 73.7027 28.5142 73.67 28.0187C73.6252 27.3363 73.4104 26.4226 73.7092 25.7874C74.0158 25.1349 74.4295 25.1457 74.5543 25.9228C74.6032 26.227 74.4162 26.3254 74.381 26.5373C74.3115 26.9565 74.4499 26.8646 74.7191 26.5453C74.8304 26.8698 74.8729 27.3575 75.3254 27.3369C75.2953 27.2491 75.122 27.0555 75.1799 26.9465C75.2688 26.779 75.7034 27.0349 75.7585 27.0736C76.1554 27.3523 76.2415 27.6067 75.9585 27.9582C76.3503 28.0007 76.0214 28.3451 76.2744 28.4348C76.6603 28.5718 76.4015 27.9229 76.3597 27.8088C76.5945 27.9008 76.6733 28.006 76.8221 28.1922C76.9094 28.3207 76.9889 28.4542 77.0606 28.5923C77.1406 28.8445 77.3051 28.9075 77.5545 28.7819C78.0544 28.9393 78.7445 28.9146 79.1924 29.19C79.3971 29.3156 79.4709 29.5906 79.6419 29.6951C79.8342 29.8127 80.092 29.7593 80.2986 29.8331C80.223 30.0056 80.2843 30.0989 80.4819 30.1135C80.6355 30.1276 80.7844 30.1623 80.9282 30.2176C81.0357 30.1362 81.1528 30.0718 81.2791 30.0251C81.3641 30.1753 81.4841 30.2124 81.6394 30.1368C82.1004 30.2235 82.3218 30.3985 82.6148 30.6602C82.8777 30.8951 82.6637 30.9142 82.9518 30.8933C83.0676 30.885 83.2704 30.6878 83.5352 30.7263C83.6876 30.756 83.8345 30.8033 83.9761 30.8677C84.1289 30.9991 84.2915 31.0156 84.4633 30.9174C84.7424 31.0542 84.7698 31.297 85.1102 31.3302C85.4865 31.367 85.3654 30.8959 85.6238 31.5602C85.9719 30.8559 86.0994 31.978 86.4588 32.0687C86.831 32.1626 86.8712 31.8595 87.1898 32.1907C87.2853 32.2899 87.28 32.4539 87.3872 32.5591C87.5629 32.7312 87.8005 32.6968 87.9532 32.9317C87.8681 32.8006 87.9733 33.3963 87.9715 33.3766C87.9952 33.6394 87.7626 33.9338 88.2393 33.9114C88.234 33.939 88.005 34.2741 87.9603 34.2362C87.9494 34.198 87.9401 34.1592 87.9328 34.1199C87.8817 34.1421 87.859 34.4612 87.8684 34.5176C87.9088 34.524 87.9254 34.4938 87.9181 34.4271C87.8397 34.6732 87.9578 34.8296 87.8073 35.0633C87.711 35.2126 87.4474 35.3249 87.3074 35.417C86.9694 35.6395 86.6387 35.8627 86.3089 36.0995C85.5402 36.6518 84.6794 37.3178 83.7113 37.433C84.1975 36.9536 86.9949 35.1397 85.5918 34.619C85.3316 34.5224 84.8578 34.4311 84.5857 34.4108C84.2471 34.3856 83.8971 34.5802 83.5238 34.4586C83.0732 34.3124 83.243 33.8872 82.9678 33.7346C82.3834 33.411 82.5213 34.1721 82.3375 34.3714C82.1441 34.1678 82.1855 34.0687 81.8805 34.0504C81.5707 34.0316 81.4971 34.3191 81.1356 34.1399C80.6376 33.8932 80.9012 33.4016 80.1948 33.3901C80.2066 33.2822 80.3091 32.9806 80.1743 32.8965C79.9925 33.1331 80.1332 33.3977 79.9645 33.6255C79.8801 33.7397 79.6969 33.8308 79.5631 33.8678C79.2499 33.9542 79.2054 34.1195 79.2564 33.6461C79.0243 34.0658 78.3126 33.8932 77.8893 33.851C77.201 33.7823 76.4695 33.6515 75.8097 33.43C75.1994 33.2249 74.8735 32.8728 74.3702 32.5522C74.18 32.431 74.0891 32.4774 73.8164 32.4021C73.547 32.3278 73.2846 32.1838 73.4114 31.8524ZM74.8636 24.4195C74.9676 24.3566 75.0421 25.2944 74.9163 25.4697C74.6856 25.1035 74.2769 24.5664 74.8636 24.4195ZM75.1955 24.0454C75.5297 23.7417 75.2975 24.5259 75.2362 24.6575C75.1125 24.5779 74.9887 24.4982 74.8649 24.4185C75.0228 24.3212 75.0622 24.1665 75.1955 24.0454ZM87.8017 22.7815C90.8886 23.432 93.9475 24.6477 96.4233 26.6484C98.6786 28.4707 100.27 31.0564 101.163 33.8067C102.089 36.6615 101.778 39.8287 99.574 42.0136C98.4129 43.1644 96.8799 43.8588 95.4188 44.5364C94.7188 44.861 93.9978 45.1313 93.295 45.4485C92.7903 45.6763 92.174 46.0406 91.598 45.9775C91.8919 45.667 92.3182 45.6607 92.6739 45.4709C93.1036 45.2413 93.4545 44.801 93.8249 44.4863C94.1926 44.174 95.0083 43.1905 95.5734 43.4286C95.4949 42.9045 96.0896 42.6613 96.3575 42.3158C96.6408 41.9503 96.6612 41.5228 97.1834 41.4032C96.6226 40.9625 96.7943 40.1316 96.9163 39.5318C97.0723 38.7647 97.1445 38.0605 97.2061 37.2799C97.317 35.8727 97.4064 34.0799 96.6319 32.8429C96.3806 32.4412 96.0606 32.072 95.8365 31.6547C95.5661 31.1518 95.6258 30.7093 95.6258 30.158C95.1318 30.4914 95.0276 29.8117 94.8189 29.4805C94.6622 29.2319 94.4565 29.0931 94.4059 28.7803C94.3692 28.5529 94.6152 28.5144 94.4803 28.2759C94.315 28.4012 94.2491 28.5955 94.1653 28.7758C94.0127 28.7146 94.1926 28.5012 94.1052 28.432C94.1027 28.43 93.8082 28.3016 93.8228 28.3201C93.6334 28.079 93.5724 27.6789 93.4796 27.392C93.1326 27.5685 93.1975 27.5477 92.8104 27.2528C92.7421 27.2009 92.4015 26.9625 92.3693 26.8846C92.2196 26.5202 92.4821 26.736 92.4087 26.5099C92.1979 25.8602 91.0148 25.9831 90.9211 25.0097C90.3442 25.3775 90.1241 24.8564 89.7832 24.4858C89.4336 24.1062 88.8474 23.9601 88.8788 23.358C88.6972 23.4204 88.5156 23.4826 88.3342 23.5446C88.4285 22.989 87.6064 23.0244 87.3086 22.7425C87.4738 22.7446 87.6382 22.7576 87.8017 22.7815ZM88.2718 57.1967C88.5579 56.9398 88.4711 57.2817 88.6552 57.2426C88.8127 57.2091 88.8437 57.0897 88.9947 57.053C89.6167 56.9021 90.5466 57.0916 91.2006 57.0591C91.9582 57.0215 93.2568 57.1794 93.6179 58.0694C93.8354 58.6052 93.5035 58.4229 93.1377 58.3831C92.8543 58.3523 92.6022 58.4099 92.3216 58.407C92.1829 58.4285 92.0448 58.4264 91.907 58.4005C91.8398 58.3561 91.8001 58.2935 91.7879 58.2129C91.3976 58.1536 90.983 58.3855 90.5507 58.397C89.9737 58.4125 89.4609 58.3014 89.0226 57.9103C88.8483 58.1711 88.7296 58.3005 88.4161 58.3296C88.408 58.3303 88.1017 58.2067 88.0545 58.1943C87.9917 58.1779 87.8331 58.31 87.7122 58.2723C87.9267 57.9292 87.9579 57.4784 88.2718 57.1967ZM127.676 60.2937C127.778 59.9381 127.863 59.5777 127.956 59.2197C129.38 60.8475 130.626 63.0265 131.187 65.114C131.551 66.4704 132.118 68.9285 130.382 69.6281C128.967 70.1981 128.178 68.1551 127.82 67.1489C127.03 64.9276 127.03 62.5538 127.676 60.2937ZM63.9603 34.7882C63.9785 34.7845 63.0383 35.3335 63.3481 34.889C63.4724 34.7102 63.9444 34.5846 64.1538 34.5846L63.9603 34.7882ZM63.0558 35.0209C62.947 35.1127 62.8371 35.2035 62.7263 35.293C62.6199 35.1242 62.5132 34.9552 62.4068 34.7864C62.6168 34.6976 63.5077 34.6309 63.0558 35.0209ZM62.3931 52.0901C62.1964 51.9563 62.0405 52.0274 61.9813 52.252C61.9813 52.0286 62.0972 51.5094 62.2754 51.449C62.3905 51.4097 61.8927 50.8185 62.0326 50.6638C62.3884 50.8684 62.1754 51.0643 62.2796 51.3285C62.3267 51.4476 62.4679 51.5603 62.4989 51.6519C62.5514 51.8074 62.7638 52.3417 62.3931 52.0901ZM61.4294 50.7597C61.2279 50.8116 61.5806 51.1454 61.5803 51.293C61.58 51.4047 61.4466 51.4903 61.3915 51.6431C61.2721 51.9739 61.4775 52.1974 61.1394 52.4499C61.1394 51.7249 60.6548 49.8038 61.586 49.4506C61.1317 49.0914 61.5048 48.6768 61.8609 49.1067C62.2032 49.52 61.9851 50.617 61.4294 50.7597ZM60.9442 47.8988C60.7612 47.2471 60.2102 47.0192 59.5805 47.0579C59.6045 46.7242 59.8563 46.2432 60.0382 46.8445C60.113 46.6667 60.1648 46.4349 60.3354 46.3171C60.6226 47.2211 62.0544 47.7206 61.163 48.7001C61.09 48.4331 61.0193 48.1655 60.9442 47.8988ZM59.2803 47.1064C55.9647 47.3478 51.3098 48.0385 48.6565 45.4868C46.9265 43.823 47.0189 41.2321 48.417 39.3836C49.2148 38.3287 50.304 37.586 51.3978 36.8785C51.8199 36.6052 52.1774 36.4251 52.6408 36.2681C52.7158 36.2599 52.7864 36.2767 52.8524 36.3185C52.8785 36.2061 52.9415 36.123 53.0418 36.0686C53.2208 35.9725 53.4758 35.9381 53.5789 35.7386C53.4688 36.1135 53.4122 36.4995 53.3719 36.8873C53.2826 36.7828 53.1934 36.6784 53.1042 36.574C53.0296 37.2805 52.2965 36.8529 51.8588 36.9411C52.1471 37.3417 52.3533 37.4872 52.3782 38.0167C52.1634 37.6186 51.7144 37.3569 51.2969 37.2287C51.5236 37.902 51.6839 38.3016 51.4556 39.0399C51.1799 38.8819 51.1613 38.5022 50.8268 38.4113C50.7386 38.8515 50.723 39.3401 50.61 39.7673C49.7535 39.3751 49.837 40.4314 50.181 40.954C50.3638 41.2321 50.4536 41.554 50.6167 41.8209C51.017 42.4757 50.7129 41.4966 51.1578 41.5429C51.0579 42.2335 51.0231 42.3023 51.5264 42.808C52.0177 43.3011 52.2725 43.9853 52.7979 44.4486C52.9501 44.2534 52.7108 44.0491 52.6898 43.8623C53.1787 43.9446 53.4077 44.4368 53.8777 44.0008C54.0827 44.4019 54.3046 44.8437 54.7954 44.926C54.4709 44.3066 55.4186 44.7267 55.6616 44.8146C55.8459 44.8813 56.1762 44.9343 56.2473 44.9599C56.6477 45.1051 56.3731 44.8446 56.6162 45.3206C56.973 45.2124 57.1076 44.9152 57.5345 45.1663C57.8815 45.3706 57.8822 45.7204 57.9616 46.0788C58.0443 45.8443 58.1278 45.61 58.2192 45.3788C58.3124 45.4182 58.7031 45.8499 58.6604 45.8519C59.575 45.8069 59.5427 46.377 59.2803 47.1064ZM54.625 35.4196C54.8087 35.2902 55.0328 35.4625 55.239 35.4161C55.5246 35.3521 55.6867 35.1066 56.0056 35.0803C55.9169 35.365 55.7504 35.3383 55.6094 35.5619C55.5614 35.6381 55.5865 35.8209 55.5437 35.8648C55.1863 36.2323 55.0629 35.9324 54.6981 35.6542C54.7298 35.9897 54.7941 36.0956 54.4792 36.1856C54.1942 36.2673 53.7238 35.9668 53.5801 35.7363C53.7013 35.4929 54.4052 35.5744 54.625 35.4196ZM56.9001 34.8951C57.2096 34.9248 56.8367 35.8419 56.3931 34.9524C56.5602 34.9158 56.7292 34.8968 56.9001 34.8951ZM58.492 34.7179C58.9803 34.6179 60.6089 34.1519 60.7901 34.9149C60.8226 34.896 60.9438 34.4652 61.0001 34.5177C61.2256 34.7284 61.2508 35.0075 61.2336 35.3C60.961 34.7299 61.0579 35.2308 60.8732 35.1917C60.825 35.1813 60.7512 35.2718 60.6291 35.2345C60.4689 35.1854 60.3542 34.8434 60.2531 34.7276C60.0848 34.9687 59.8762 35.2794 59.5392 35.2585C59.3006 35.2436 58.9161 34.627 59.2251 35.3021C59.0437 35.242 58.8337 35.1057 58.6316 35.133C58.4053 35.1638 58.2878 35.3879 58.0757 35.4241C57.6055 35.5041 57.5346 35.05 57.2294 34.8032C57.6504 34.7787 58.0763 34.8029 58.492 34.7179ZM61.446 34.7105C61.4804 34.5541 61.9077 34.4909 62.0165 34.5406C62.282 34.6617 62.1837 34.8216 62.135 35.0875C61.938 34.9939 61.7409 34.9004 61.5439 34.8067C61.8379 35.2823 61.3051 35.3512 61.446 34.7105ZM144.15 62.5634C144.115 61.4239 144.082 60.2646 143.794 59.1552C143.593 58.3788 143.098 56.9866 142.162 56.8519C140.751 56.6485 139.97 59.4486 139.575 60.4097C139.496 59.2781 139.565 58.0736 139.139 56.9997C138.798 56.1389 137.937 55.3237 137.195 56.2903C136.536 57.1506 136.409 58.4204 136.235 59.4554C136.01 60.7965 135.875 62.148 135.71 63.4972C135.066 62.2467 134.953 60.8152 134.444 59.5156C133.963 58.2891 133.207 57.1179 132.478 56.0271C131.883 55.136 131.159 54.2983 130.227 53.7536C129.416 53.2796 127.997 52.7668 127.224 53.554C126.578 54.211 126.679 55.0901 126.713 55.9192C126.728 56.2883 126.786 56.5414 126.462 56.7275C126.303 56.8189 126.055 56.7716 125.88 56.8204C125.599 56.8993 125.383 57.033 125.145 57.2106C123.477 58.4558 122.707 60.6999 122.469 62.7005C122.168 65.2355 123.152 67.4086 123.999 69.7281C124.134 70.0978 124.563 70.882 124.504 71.2946C124.439 71.7467 123.873 71.7585 123.492 71.7679C122.34 71.7964 121.136 71.7103 119.99 71.6024C117.261 71.3462 114.534 70.0271 112.091 68.8495C111.645 68.6346 111.014 68.5116 110.65 68.1732C110.308 67.8551 110.218 67.3453 109.923 66.9804C109.198 66.0851 108.737 65.3211 107.669 64.7801C106.583 64.2294 105.474 63.7204 104.414 63.1173C103.103 62.3709 101.891 61.4256 100.635 60.59C98.2999 59.0374 95.9808 57.3355 93.5053 56.0152C92.355 55.4016 91.0695 55.3024 89.8752 54.8C88.7121 54.3108 87.2846 54.3102 86.0709 54.6191C85.4797 54.7697 85.0774 55.1264 84.5336 55.3594C83.8965 55.6323 83.3767 55.331 82.816 55.0052C81.9592 54.5075 81.1101 53.6965 82.3301 53.1596C82.7438 52.9773 83.2624 52.9083 83.6239 52.6219C84.0093 52.3167 84.3187 51.7536 84.632 51.3712C85.3286 50.5212 85.7447 49.5429 86.7643 49.0143C87.8918 48.4298 89.2283 48.2707 90.4305 47.8886C91.7331 47.4749 93.0085 46.9829 94.2868 46.4997C96.5899 45.6294 98.9843 44.6897 100.639 42.7736C102.067 41.1207 102.689 38.987 102.631 36.82C102.513 32.3899 100.15 27.8938 96.7585 25.124C92.6001 21.7275 87.3098 20.5949 82.057 20.6543C79.5918 20.6822 76.6498 21.0062 74.5928 22.51C72.8161 23.8089 72.5206 26.0807 72.7849 28.1314C72.8921 28.9637 73.2587 30.0621 72.6741 30.7954C72.3469 31.2058 71.7596 31.3073 71.3188 31.5631C70.7651 31.8845 70.2766 32.1926 69.6493 32.3625C66.9849 33.0851 64.1782 32.8335 61.4538 32.7935C56.9155 32.7268 52.2636 33.9605 48.8781 37.1712C46.1441 39.7638 45.3242 44.6527 48.6586 47.1802C51.3527 49.222 55.5783 48.9975 58.7549 48.6413C59.7399 48.5307 60.4173 48.3701 60.4196 49.5801C60.422 50.9019 60.2041 52.2834 60.5399 53.5809C61.0689 55.6246 63.0248 55.6732 64.7539 55.2331C65.6663 55.001 66.5484 54.6518 67.4147 54.2861C68.6856 53.7498 69.8505 52.9612 71.1056 52.4258C71.9564 52.063 72.5935 53.2364 73.3482 52.4229C73.4876 52.2726 73.5135 52.0486 73.7237 51.9716C74.0534 51.8512 74.6062 52.2737 74.8954 52.4073C75.3283 52.6073 75.7647 52.7545 75.9376 53.2364C76.0994 53.6871 76.0285 54.4039 75.8735 54.8485C75.5368 55.8152 74.6299 55.6241 73.802 55.5594C72.358 55.4466 70.9238 55.2074 69.4804 55.1069C68.1854 55.0169 66.9726 55.4053 65.8557 56.0466C63.5096 57.3932 61.5901 59.5353 59.5559 61.2968C58.5089 62.2033 57.4969 63.1826 56.3584 63.972C55.8633 64.3154 55.3272 64.6309 54.897 65.0575C54.47 65.4806 54.423 65.8653 54.2771 66.4285C54.017 67.4311 52.7256 67.9212 51.9184 68.4502C50.7769 69.1982 49.5667 69.7259 48.2869 70.1849C45.5768 71.1569 42.8453 71.8355 40.012 72.3371C38.6247 72.5829 37.2491 72.7443 35.8484 72.8769C34.6409 72.9912 33.357 73.3646 32.1511 73.0663C32.4984 72.5006 33.1139 72.161 33.5933 71.7238C34.2112 71.1602 34.7367 70.4922 35.2045 69.8003C36.1148 68.4528 36.7534 67.0069 36.9 65.3725C37.0322 63.9015 36.8806 62.1419 35.9966 60.8993C35.6913 60.47 35.0871 60.3533 34.8139 59.9666C34.542 59.5822 34.6457 58.9205 34.4969 58.4723C34.1182 57.3324 32.9942 55.9199 32.005 55.2578C30.9318 54.5394 29.3619 54.2755 28.1223 54.6498C25.8256 55.3434 24.4148 57.8077 23.3639 59.7992C22.7898 58.5865 23.7512 56.787 22.6297 55.7938C21.6838 54.956 20.933 56.579 20.6167 57.2733C19.1316 60.5329 18.7943 63.99 18.1721 67.4776C17.9185 67.2266 18.0485 66.5826 18.0723 66.2833C18.1167 65.7259 18.1125 65.1793 18.1137 64.6198C18.1167 63.2061 18.3784 61.786 18.2584 60.3736C18.1892 59.5571 17.9299 57.8356 16.7484 58.1068C15.7464 58.3369 15.1188 59.7515 14.804 60.6164C14.3499 61.8639 14.2451 63.0988 14.2733 64.4166C14.3046 65.8726 14.0283 67.3048 13.9614 68.7589C13.8313 71.5832 13.9598 74.3829 14.7669 77.1087C16.0886 81.5722 19.1275 85.2808 23.1833 87.5203C25.4179 88.7543 27.8969 89.535 30.4456 89.7029C31.8268 89.7939 33.1602 89.6288 34.5297 89.4855C35.881 89.3439 37.2394 89.2785 38.5885 89.1125C41.5927 88.7425 44.5201 87.7876 47.2509 86.5027C48.6882 85.8262 50.04 84.9957 51.4538 84.2745C52.0212 83.9854 52.4044 83.6234 52.8886 83.221C53.3686 82.8223 53.5014 82.7911 54.0474 82.7911C53.8872 82.361 54.3545 82.2284 54.5625 81.9563C54.5509 82.0884 54.5391 82.2202 54.5275 82.3521C54.686 82.0069 54.8336 82.0102 54.9702 82.3621C55.1051 81.9681 55.205 81.5629 55.3681 81.1787C55.9913 81.4954 55.9388 82.2481 56.7722 81.6985C57.4585 81.2463 58.0896 80.7125 58.7892 80.2693C60.3829 79.2593 61.757 77.9451 63.3553 76.9467C63.3553 77.9192 63.4237 78.8999 63.2942 79.8674C63.171 80.7874 62.829 81.6473 62.5569 82.528C62.0551 84.1529 62.0204 85.8894 61.4644 87.4978C61.2343 88.164 60.6353 88.7211 60.4634 89.3696C60.2883 90.0312 60.6928 90.5613 60.0148 90.9956C59.5366 91.3019 58.9391 91.4311 58.4096 91.6163C57.6021 91.8991 56.8353 92.2978 56.0492 92.636C52.3619 94.2224 48.7652 95.838 45.3489 97.9709C42.1068 99.9949 38.8152 102.085 35.8369 104.489C33.2521 106.576 30.6393 109.273 30.01 112.676C29.3995 115.977 31.0263 119.521 34.2927 120.608C35.991 121.173 37.9111 121.103 39.6798 121.128C41.5829 121.154 43.5997 120.694 45.4709 120.36C47.4469 120.008 49.3892 119.458 51.371 119.143C53.2725 118.842 55.0164 118.168 56.8868 117.753C58.8788 117.31 60.9221 117.07 62.9251 116.672C63.827 116.493 64.7104 116.229 65.6147 116.063C66.6047 115.882 67.6055 115.813 68.5858 115.573C70.4873 115.106 72.3079 114.354 74.2177 113.92C75.0763 113.725 75.9218 113.464 76.7808 113.281C77.5715 113.113 78.1876 112.667 78.9802 113.033C79.6205 113.33 80.1313 113.837 80.7373 114.191C81.5232 114.65 82.3518 115.061 83.1713 115.455C84.8177 116.249 86.5252 116.797 88.2468 117.392C90.055 118.018 91.8308 118.731 93.7042 119.145C95.6247 119.568 97.584 119.686 99.5178 120.021C103.478 120.707 107.405 121.015 111.425 121.04C113.457 121.053 115.489 120.811 117.516 120.839C119.311 120.865 120.871 121.271 122.512 120.313C125.135 118.782 128.176 116.477 128.112 113.128C128.053 110.094 126.241 107.197 124.541 104.804C122.477 101.899 119.534 99.8532 116.65 97.8493C113.575 95.7136 110.122 94.2378 106.891 92.3736C105.239 91.4202 103.715 90.3944 101.921 89.7169C101.064 89.3936 100.228 89.0187 99.382 88.6705C98.7008 88.3904 97.7174 88.2356 97.1344 87.7708C96.7706 87.4807 96.7357 87.0416 96.6397 86.6104C96.4269 85.6562 96.0928 84.7513 95.7687 83.831C95.1432 82.054 94.7274 80.2443 94.4586 78.3806C94.2023 76.6041 93.6334 74.7565 93.928 72.9509C95.8659 74.833 97.8572 76.6421 99.84 78.4743C100.583 79.1609 101.312 79.8619 102.059 80.5443C102.62 81.0567 103.321 81.8177 104.103 81.9697C105.101 82.164 104.737 81.0553 105.422 80.8835C105.841 80.7786 107.104 81.8473 107.436 82.0584C109.535 83.3965 111.859 84.2444 114.168 85.1553C116.59 86.1103 119.08 86.9587 121.685 87.199C124.092 87.4215 126.552 87.1361 128.875 86.4778C133.5 85.1668 136.903 82.0564 139.401 78.0245C142.246 73.43 144.317 68.048 144.15 62.5634Z" fill="#1C1C1C"/>
<path fill-rule="evenodd" clip-rule="evenodd" d="M73.465 52.5475C73.4642 52.5488 73.4572 52.5638 73.4572 52.5638C73.4659 52.5578 73.4684 52.5524 73.465 52.5475Z" fill="#1C1C1C"/>
<path fill-rule="evenodd" clip-rule="evenodd" d="M73.6878 52.6064C73.6705 52.4602 73.6331 52.3171 73.5758 52.177C73.423 52.4204 73.2861 52.5246 73.487 52.7824C73.5538 52.7237 73.6207 52.6651 73.6878 52.6064Z" fill="#1C1C1C"/>
<path fill-rule="evenodd" clip-rule="evenodd" d="M84.3528 87.4373C84.5237 87.2545 84.2247 87.1856 84.111 87.1832C84.1223 87.3792 84.0255 87.8491 84.2927 87.9399C84.2286 87.7626 84.2486 87.595 84.3528 87.4373Z" fill="#1C1C1C"/>
<path fill-rule="evenodd" clip-rule="evenodd" d="M79.8352 49.1527C79.5409 49.7234 80.1911 49.9004 80.5675 49.6247C80.8507 49.4174 81.0182 48.889 81.0647 48.55C81.2152 47.4531 80.4507 46.409 80.0695 45.4356C79.971 45.1841 79.8361 44.3212 79.5188 44.2976C79.1545 44.2703 79.1275 45.065 79.1228 45.27C79.1088 45.8883 79.2718 46.5181 79.4628 47.1017C79.6687 47.7309 80.179 48.4862 79.8352 49.1527Z" fill="#1C1C1C"/>
<path fill-rule="evenodd" clip-rule="evenodd" d="M81.2352 46.8639C82.3664 47.8753 83.2715 46.1907 83.1924 45.1944C83.1729 44.9475 83.0067 44.0372 82.5403 44.3684C82.3061 44.5348 82.5058 45.0757 82.3941 45.3132C81.853 46.4643 81.3319 44.6787 80.9676 44.5385C80.5243 44.3677 80.4797 44.9525 80.4804 45.2651C80.4814 45.8857 80.7756 46.4529 81.2352 46.8639Z" fill="#1C1C1C"/>
<path fill-rule="evenodd" clip-rule="evenodd" d="M77.1286 47.021C77.395 46.5998 77.7227 46.0347 77.7589 45.5299C77.8151 44.7453 77.3598 44.8108 76.9849 45.3582C76.7203 45.7449 76.5217 46.4008 75.9373 46.2377C75.2158 46.0368 75.4363 45.0627 75.0324 44.5999C74.0125 45.9752 75.9426 48.8956 77.1286 47.021Z" fill="#1C1C1C"/>
<path fill-rule="evenodd" clip-rule="evenodd" d="M78.6571 51.2302C79.079 51.3217 80.1788 51.2881 79.7977 50.6395C79.3171 49.8227 77.719 51.0265 78.6571 51.2302Z" fill="#1C1C1C"/>
<path fill-rule="evenodd" clip-rule="evenodd" d="M93.435 26.8688C93.5122 26.6383 93.4062 26.5964 93.2224 26.4148C93.0483 26.5762 93.2712 26.7459 93.435 26.8688Z" fill="#1C1C1C"/>
<path fill-rule="evenodd" clip-rule="evenodd" d="M101.304 68.6867C101.581 68.7311 101.671 68.5835 101.572 68.2439C101.133 68.2155 101.044 68.363 101.304 68.6867Z" fill="#1C1C1C"/>
<path fill-rule="evenodd" clip-rule="evenodd" d="M86.1067 33.0144C86.4137 33.1553 86.2961 33.4445 86.2908 33.6888C86.449 33.5163 86.7683 33.2008 86.6382 32.953C86.438 32.571 85.9144 32.9262 86.1067 33.0144Z" fill="#1C1C1C"/>
<path fill-rule="evenodd" clip-rule="evenodd" d="M75.6497 28.2049C75.603 28.1133 75.5563 28.0217 75.5095 27.9302C75.3192 28.0836 75.0252 28.4892 75.3278 28.6869C75.4518 28.5357 75.5591 28.3751 75.6497 28.2049Z" fill="#1C1C1C"/>
<path fill-rule="evenodd" clip-rule="evenodd" d="M79.3334 30.9002C79.7149 31.2004 79.532 30.2786 79.5205 30.2034C79.4638 30.3114 79.1408 30.7484 79.3334 30.9002Z" fill="#1C1C1C"/>
<path fill-rule="evenodd" clip-rule="evenodd" d="M79.1216 30.4321C79.0925 30.3559 79.0631 30.2796 79.034 30.2034C78.8793 30.3471 78.69 30.6406 78.9453 30.8088C79.0154 30.691 79.0741 30.5654 79.1216 30.4321Z" fill="#1C1C1C"/>
<path fill-rule="evenodd" clip-rule="evenodd" d="M81.5474 33.6014C81.5786 33.6302 81.6097 33.6591 81.6407 33.6882C81.7666 33.4333 81.6235 33.242 81.386 33.2341C81.4029 33.3772 81.4567 33.4996 81.5474 33.6014Z" fill="#1C1C1C"/>
<path fill-rule="evenodd" clip-rule="evenodd" d="M71.3129 62.3046C71.4642 62.2012 71.6015 62.0831 71.7251 61.9507C71.2773 61.6759 71.5456 62.2716 71.0065 61.9058C70.8905 62.0669 71.0801 62.4278 71.3129 62.3046Z" fill="#1C1C1C"/>
<path fill-rule="evenodd" clip-rule="evenodd" d="M90.1554 87.3342C90.3258 87.0717 90.3565 87.0793 90.1239 86.8801C89.9299 87.2045 89.95 87.1211 90.1554 87.3342Z" fill="#1C1C1C"/>
<path fill-rule="evenodd" clip-rule="evenodd" d="M54.5193 45.5204C54.612 45.6174 54.7047 45.7146 54.7974 45.8114C54.8407 45.6845 55.0767 45.3255 54.9163 45.2061C54.7841 45.3108 54.6516 45.4155 54.5193 45.5204Z" fill="#1C1C1C"/>
<path fill-rule="evenodd" clip-rule="evenodd" d="M57.8202 46.4822C57.6721 46.4574 57.3181 46.349 57.2362 46.4872C57.4528 46.6653 57.9414 46.5026 57.8202 46.4822Z" fill="#1C1C1C"/>
</svg>
