<svg width="158" height="157" viewBox="0 0 158 157" fill="none" xmlns="http://www.w3.org/2000/svg">
<circle cx="78.9251" cy="78.413" r="78.2104" fill="white"/>
<path fill-rule="evenodd" clip-rule="evenodd" d="M43.0018 87.1391C43.7656 92.8348 44.5293 98.5305 45.2931 104.226L45.9098 108.826C45.9877 109.406 45.9142 110.551 46.2108 111.071C46.3155 111.254 46.5909 111.341 46.7934 111.449C47.4902 111.821 48.1873 112.193 48.8841 112.565C54.7793 115.712 60.6744 118.859 66.5693 122.007C72.2269 125.027 77.8845 128.047 83.542 131.067C84.1274 131.38 85.0744 132.196 85.7064 131.981C86.3072 131.776 86.9212 131.273 87.4666 130.955C88.5137 130.345 89.5606 129.735 90.6076 129.125C96.9431 125.433 103.278 121.741 109.614 118.049C112.228 116.526 114.842 115.003 117.456 113.479C118.171 113.063 118.886 112.646 119.601 112.229C119.975 112.011 120.024 112.019 120.171 111.649C120.722 110.266 120.976 108.681 121.366 107.246C121.795 105.664 122.224 104.083 122.654 102.501C122.845 101.796 122.755 101.705 122.443 101.023C121.825 99.6749 121.208 98.3267 120.59 96.9784C119.219 93.9859 117.848 90.9934 116.477 88.0008C115.922 86.7907 114.587 85.9392 113.625 85.0491L98.6973 71.2292C98.3181 70.8781 97.939 70.5271 97.5598 70.176C97.4974 72.2858 97.0781 74.5539 97.6931 76.5921C98.7023 79.9368 99.7114 83.2816 100.72 86.6263C101.208 88.2431 101.696 89.8597 102.184 91.4763C102.274 91.7767 102.826 92.9678 102.679 93.232C102.597 93.3784 101.9 93.5266 101.749 93.5836C101.101 93.8289 100.452 94.0742 99.8036 94.3195C97.9969 95.003 96.1902 95.6865 94.3835 96.3698C92.7586 96.9847 91.1336 97.5993 89.5086 98.214C88.9575 98.4225 88.3104 98.8085 87.7284 98.7763C87.2078 98.7475 86.6159 98.4913 86.1121 98.3624C85.2265 98.1356 84.3407 97.9087 83.455 97.6818C81.7153 97.2362 79.9754 96.7907 78.2357 96.345C76.2783 95.8437 74.6253 94.3712 72.9514 93.2814C70.0742 91.4081 67.1969 89.5348 64.3198 87.6617C63.6611 87.2328 63.6587 86.9882 63.3962 86.2051C62.8064 84.4455 62.2164 82.6858 61.6265 80.9261C61.3116 79.9866 60.9242 79.043 60.6863 78.0811C60.294 76.4936 60.0613 74.8503 59.7505 73.2452C59.6568 72.761 59.563 72.2766 59.4693 71.7923C58.2644 72.2785 57.0594 72.7648 55.8543 73.2511C55.6797 73.3215 54.8287 73.5317 54.753 73.7043C54.7051 73.8135 54.9582 74.3088 54.9944 74.4152C55.9936 77.3576 56.9927 80.2999 57.9919 83.2422C58.3062 84.1678 58.6204 85.0933 58.9347 86.0189C58.1838 84.8454 57.4327 83.6717 56.6816 82.4982C56.0916 84.4719 55.5014 86.4457 54.9112 88.4193C53.5166 86.819 52.1217 85.2187 50.7269 83.6184C50.244 85.2187 49.7612 86.819 49.2784 88.4193C47.7764 86.4457 46.2743 84.4719 44.7721 82.4982C44.5937 83.5282 44.415 84.5581 44.2364 85.5881C44.1825 85.899 44.1933 86.7908 43.9852 87.037C43.8138 87.2396 43.3203 87.1391 43.0018 87.1391Z" fill="#F0DD33"/>
<path fill-rule="evenodd" clip-rule="evenodd" d="M138.106 99.4503C138.021 102.131 138.08 105.612 136.604 107.969C136.366 108.35 135.559 109.535 135.469 108.492C135.381 107.469 135.634 106.455 135.383 105.42C135.249 104.866 134.797 103.655 134.026 104.156C133.633 104.411 133.529 105.041 133.375 105.438C133.147 106.026 132.893 106.605 132.653 107.189C131.816 109.226 130.949 111.657 129.089 113.006C129.332 111.249 129.996 109.373 129.55 107.597C129.398 106.992 128.937 105.887 128.144 106.241C127.371 106.587 126.87 108.129 126.506 108.815C125.4 110.897 124.269 112.939 123.024 114.943C122.398 115.95 121.722 116.872 120.902 117.734C120.39 118.273 119.751 119.184 118.944 119.265C118.944 117.728 119.452 116.243 119.917 114.796C120.416 113.24 120.871 111.671 121.362 110.112C121.787 108.759 122.136 107.417 122.419 106.03C122.536 105.457 122.629 104.863 123.121 104.492C123.563 104.16 124.261 104.001 124.754 103.756C126.048 103.114 127.378 102.42 128.58 101.621C129.074 101.293 129.499 100.869 130.016 100.575C130.604 100.24 131.154 99.9576 131.699 99.549C134.05 97.786 136.169 95.6172 137.597 93.0357C137.828 94.0728 138.135 95.0863 138.169 96.1554C138.204 97.2516 138.14 98.3547 138.106 99.4503ZM118.759 111.774C118.383 111.143 117.811 111.401 117.306 111.706C116.523 112.178 115.738 112.647 114.951 113.113C113.349 114.062 111.777 115.061 110.212 116.068C107.026 118.119 103.729 119.797 100.37 121.532C97.1242 123.21 94.0064 125.206 90.965 127.223C90.234 127.708 89.5082 128.205 88.8063 128.73C88.1833 129.197 87.6851 129.853 87.0292 130.268C86.3462 130.701 85.8768 130.35 85.2235 130.031C84.4066 129.632 83.5552 129.297 82.7201 128.937C79.3502 127.485 75.9707 125.977 72.6926 124.328C69.4342 122.689 66.3469 120.801 63.2249 118.925C61.738 118.032 60.2765 117.082 58.8099 116.156C57.2491 115.171 55.6331 114.433 53.9959 113.595C53.2715 113.225 52.6299 112.721 51.8858 112.384C51.1037 112.03 50.2774 111.776 49.577 111.265C49.263 111.036 48.9981 110.762 48.6392 110.6C48.3446 110.467 48.0101 110.445 47.7192 110.303C47.1272 110.016 46.9578 109.433 46.8432 108.826C46.1059 104.931 45.714 100.929 45.2867 96.9908C45.0466 94.7763 44.7787 92.5705 44.4468 90.3677C44.2971 89.3745 44.5981 88.6051 44.7561 87.639C44.9406 86.5107 45.0135 85.3586 45.1371 84.2226C45.7203 85.297 46.2247 86.4246 46.9668 87.4051C47.5138 88.1276 48.4482 89.1522 49.4555 89.1281C51.0211 89.0905 50.9495 86.4204 51.0126 85.3605C51.7257 85.9934 51.942 87.0245 52.5339 87.7597C53.0744 88.4308 53.8099 89.2636 54.6398 89.5642C56.3873 90.1971 56.2191 86.9717 56.123 86.057C56.0747 85.5982 55.8142 84.8723 56.4323 85.0814C57.0016 85.2741 57.5555 86.0728 58.034 86.4391C58.8611 87.0725 59.7683 87.5989 60.6167 88.2034C61.6694 88.9537 62.8053 89.4958 63.8786 90.1945C64.5499 90.6316 65.2822 90.7297 66.014 91.051C67.0861 91.522 68.0332 92.2238 69.0537 92.7884C71.0746 93.9059 73.3165 94.908 75.527 95.5817C76.2422 95.7997 77.1953 96.4142 77.7378 95.7827C78.0719 95.3942 78.2914 94.8006 78.575 94.365C78.9337 93.8136 79.3147 93.2767 79.7103 92.7507C81.1165 90.8814 82.6771 89.1162 84.4103 87.5396C86.4267 85.7055 88.6315 84.055 90.9899 82.6804C92.0032 82.0897 96.2342 79.4423 97.1643 81.3056C96.4 81.2582 95.7376 81.5362 95.084 81.8842C94.9245 81.9692 94.102 82.5533 94.2945 82.0385C94.0555 82.083 93.8459 82.3928 93.665 82.5306C93.3523 82.7687 92.878 83.0436 92.5159 83.2408C92.158 83.4355 91.7158 83.4832 91.3895 83.7194C91.2704 83.8057 91.1982 83.9456 91.0845 84.0388L90.7588 84.0414C90.7101 84.2208 90.6613 84.4 90.6125 84.5794C90.4284 83.9926 90.1658 84.7558 89.8582 85.0037C89.6733 85.1527 89.3805 85.3061 89.1628 85.4023C89.0001 85.4741 88.975 85.3071 88.8169 85.4341C88.6766 85.547 88.5871 85.7955 88.4362 85.937C88.2509 86.1101 88.0139 86.2447 87.8074 86.3926C87.4118 86.6758 86.9933 86.8982 86.5926 87.1668C86.0535 87.5281 85.7707 88.1495 85.2473 88.5273C84.9993 88.7062 84.6142 88.7272 84.48 88.8418C84.1434 89.1295 84.2543 89.5654 83.6267 89.5846C83.6838 89.6755 83.7181 89.7741 83.7298 89.8805C83.5803 89.8549 83.4474 89.7933 83.331 89.6955C83.3571 90.3181 82.7415 90.5403 82.3725 90.9236C82.1597 91.1444 81.8947 91.4551 81.7447 91.7209C81.7197 91.7654 81.6721 92.1201 81.6618 92.1249C81.6048 92.1521 81.258 91.8492 81.2908 91.8745C81.1941 92.4496 80.6344 92.9934 80.3893 93.5258C80.2602 93.8064 80.129 94.2573 79.8746 94.4546C79.8054 94.5082 79.5925 94.4522 79.4165 94.6387C79.2875 94.7753 79.1386 95.028 79.0861 95.2093C79.0512 95.3305 79.0932 95.6438 79.043 95.7165C78.951 95.8493 78.8077 95.7158 78.6635 95.8141C78.397 95.9956 78.3902 96.2791 78.0003 96.3164C78.2691 96.9658 79.892 97.166 80.4818 97.3507C82.1499 97.8727 83.9 98.3941 85.4593 99.1936C85.8626 99.4003 86.2442 99.5708 86.3156 100.047C86.4153 100.71 86.0755 101.591 86.0107 102.261C85.8351 104.069 85.7992 105.931 85.8359 107.746C85.8706 109.466 85.9266 111.203 86.0073 112.921C86.0819 114.513 86.405 116.075 86.5792 117.656C86.627 118.09 86.5952 120.048 87.3458 119.949C87.9725 119.867 87.5767 118.53 87.565 118.147C87.5388 117.298 87.7184 116.432 87.7108 115.576C87.7073 115.165 87.8882 114.81 87.9055 114.417C87.9228 114.028 87.7283 113.72 87.7866 113.317C87.8426 112.93 88.993 110.704 87.8882 110.965C87.9529 110.647 88.0095 110.326 88.095 110.013C88.2131 110.118 88.3084 110.242 88.3801 110.382C88.4785 109.699 88.4456 109.016 88.5066 108.332C88.534 108.023 88.6603 107.683 88.6172 107.371C88.6254 107.241 88.6088 107.114 88.5676 106.99C88.4997 106.918 88.4156 106.881 88.3156 106.877C88.263 106.706 88.2495 106.659 88.3428 106.491C88.3829 106.377 88.4624 106.306 88.5813 106.278C88.8079 106.251 88.8338 106.122 88.6589 105.889C88.7501 105.431 88.7619 105.142 88.6961 104.684C88.6407 104.3 88.8443 103.556 88.6368 103.214C88.3946 102.814 88.2742 103.202 88.2292 102.648C88.2195 102.53 88.2118 102.286 88.2593 102.169C88.3113 102.042 88.4675 102.094 88.4875 102.048C88.6232 101.74 88.6322 101.134 88.1521 101.187C88.1709 100.967 88.1898 100.746 88.2084 100.526C88.5552 100.923 88.4341 100.587 88.6307 100.367C88.8956 100.069 89.1547 100.018 89.5334 99.9006C90.5427 99.5876 91.5151 99.1166 92.5013 98.7345C94.5896 97.9252 96.7167 97.2027 98.7439 96.2463C103.008 94.2346 107.187 92.0513 111.477 90.0927C111.17 89.5272 111.361 89.4997 111.585 88.9687C111.884 89.1751 111.821 89.0311 112.034 89.0185C112.014 88.8413 112.07 88.7879 112.2 88.8581C112.303 88.8896 112.409 88.9008 112.518 88.8916C112.783 88.9368 113 89.0822 113.242 89.1374C113.321 89.1955 113.408 89.239 113.503 89.2683C113.588 89.2489 113.661 89.207 113.721 89.1423C114.112 89.2143 114.244 89.507 114.261 89.9308C114.264 90.0046 114.037 90.0801 114.102 90.1792C114.215 90.3523 114.521 90.311 114.696 90.3331C114.657 90.513 114.619 90.6927 114.581 90.8724C115.348 90.5205 115.148 91.622 115.38 91.9838C115.445 92.0848 115.589 92.0041 115.665 92.1211C115.762 92.2738 115.733 92.49 115.817 92.642C116.005 92.9859 116.194 92.9441 116.382 93.338C117.366 95.3942 118.674 97.3099 119.617 99.4102C120.067 100.41 120.472 101.427 120.941 102.418C121.373 103.33 121.619 104.105 121.312 105.101C120.598 107.411 119.835 109.764 118.9 111.995C118.853 111.921 118.806 111.848 118.759 111.774ZM68.9825 129.019C68.9155 129.132 68.8486 129.246 68.7816 129.359C68.6329 128.508 69.0291 128.903 68.9825 129.019ZM65.8348 127.426C65.6203 127.362 65.713 127.014 65.7199 126.865C65.8556 127.033 65.9887 127.205 66.1017 127.389C66.0127 127.402 65.9237 127.414 65.8348 127.426ZM57.2081 124.157C57.4334 124.031 57.5954 123.941 57.8509 123.798C57.5913 124.301 57.5913 124.301 57.2081 124.157ZM43.6363 79.8387C43.2921 80.6789 44.3417 85.8664 43.3645 86.0357C43.2243 85.5804 43.2068 84.3267 42.6266 84.1771C41.9067 83.9913 41.9777 85.282 41.8794 85.6811C40.4015 84.6586 39.745 82.6842 39.039 81.1194C38.139 79.125 37.4309 77.0506 36.7546 74.9724C36.1764 73.1956 35.6982 71.3875 35.1139 69.6135C34.7468 68.4994 34.351 67.3826 34.1041 66.2342C34.0505 65.9847 33.8395 65.3521 34.0188 65.115C34.2794 64.7701 35.2173 65.1651 35.5196 65.2556C37.4803 65.8423 39.5142 66.0948 41.5287 66.4357C43.7668 66.8142 46 67.2054 48.2517 67.4989C48.8143 67.5722 49.3773 67.6417 49.9406 67.7092C50.3059 67.753 50.8589 67.7092 51.2059 67.8721C51.9082 68.2016 52.0577 69.4626 52.3186 70.1168C53.2918 72.5576 54.4372 74.9212 55.4619 77.3399C56.385 79.5187 57.0848 81.8367 58.4117 83.8206C57.4221 83.3843 56.1679 81.078 55.0621 82.4074C54.5867 82.979 54.7066 83.7321 54.7446 84.4162C54.7996 85.4052 54.8168 86.4015 54.8168 87.3921C53.7347 87.1125 53.0076 85.891 52.4395 85.0257C51.6634 83.8439 51.1747 82.7303 50.8311 81.3755C50.6822 80.7888 50.2876 80.7743 49.9369 80.4232C49.7116 80.1975 49.5983 79.8935 49.2751 80.2217C48.8689 80.6342 49.1391 81.7767 49.2093 82.2638C49.3759 83.4229 49.9222 85.2067 49.3911 86.2959C48.6743 87.7658 46.7535 84.0673 46.5285 83.5332C46.4141 83.2613 44.3705 78.0467 43.6363 79.8387ZM42.2944 54.6486C42.4154 54.667 42.5363 54.6854 42.6573 54.7038C42.5598 54.7894 42.3569 55.0897 42.1911 55.0103C42.2255 54.8898 42.26 54.7693 42.2944 54.6486ZM48.7046 53.2809C48.6668 53.3223 48.6286 53.3636 48.5906 53.405C48.4171 53.1893 48.4786 52.8749 48.4786 52.6254C48.708 52.7632 48.764 53.0387 48.7046 53.2809ZM49.2226 55.6742V56.3793C48.7421 56.1723 48.7326 56.0654 49.2226 55.6742ZM49.8062 56.5707C49.4695 56.4789 49.4293 56.4048 49.4766 55.8903C49.6161 56.1785 49.708 56.3684 49.8062 56.5707ZM51.7442 61.7925C51.6031 62.1535 50.7783 61.2932 50.8085 61.0357C50.8373 60.79 50.964 60.7167 51.1388 60.8747C51.1966 60.927 51.1108 61.116 51.1476 61.1816C51.2807 61.4191 51.549 61.6134 51.7442 61.7925ZM51.7534 63.9676C51.5468 64.4806 51.1784 63.6726 51.7183 63.6506C51.7537 63.7538 51.7655 63.8594 51.7534 63.9676ZM51.3525 63.1586C51.2725 63.0525 51.1948 62.945 51.1193 62.8355C51.3974 62.8914 51.6182 63.2943 51.9116 63.0255C51.8768 63.4355 51.5839 63.4468 51.3525 63.1586ZM33.3685 56.4944C32.9212 56.009 35.8376 55.6683 36.1894 55.5849C38.7425 54.9796 41.153 54.1036 43.5402 53.0286C44.679 52.5159 45.812 51.9969 46.9241 51.4285C47.4044 51.1832 48.0626 50.9752 48.4637 50.6068C48.75 50.3438 48.7385 50.1449 49.1106 49.9883C49.4266 49.8556 49.4423 49.9809 49.587 49.7409C49.6739 49.5968 49.7722 49.0691 49.7214 48.9129C49.5828 48.4867 49.3779 48.8322 49.0904 48.5386C48.8832 48.3268 48.9334 47.7248 48.9899 47.4755C49.0633 47.5942 49.1055 47.7232 49.1167 47.8621C49.4288 47.7091 49.303 47.1838 49.6443 47.0977C50.004 47.0071 49.9668 47.2857 50.0606 47.5705C50.3325 47.1737 50.1146 46.8352 49.9675 46.4476C50.7153 46.3084 51.5189 46.1735 52.2602 46.4209C52.7963 46.5997 53.2551 47.0393 53.8211 47.1242C54.3754 47.2073 54.4819 46.946 54.8906 46.6808C55.2223 46.4655 55.5071 46.719 55.6779 46.5564C55.5726 47.1053 54.6677 47.0303 54.779 47.7162C54.8292 48.0249 55.2097 48.3022 55.3829 48.5424C55.6003 48.8439 55.7736 49.1772 55.9217 49.517C56.4977 50.8385 56.7439 52.3721 56.9856 53.7853C57.5821 57.2736 57.6576 60.8307 58.2186 64.3302C58.4859 65.9971 58.7539 67.6649 58.8928 69.3481C58.9275 69.7689 59.186 70.7235 58.9745 71.1284C58.7957 71.4702 58.3979 71.4712 58.0486 71.5539C57.3653 71.7154 56.7236 71.9348 56.0681 72.1778C55.4806 72.3956 55.3098 72.5293 54.9326 71.9796C54.5677 71.4476 54.3873 70.8136 54.1263 70.2305C53.7938 69.4874 53.3921 68.7705 53.0065 68.0537C53.764 68.0537 54.2 67.6471 54.1799 66.8817C54.158 66.0339 53.4568 65.8327 53.1677 65.1359C52.8866 65.499 52.8629 65.5093 52.6625 65.1646C52.4334 64.7704 52.2787 64.0492 52.1385 63.6021C52.2388 63.7085 52.3391 63.8149 52.4393 63.9212C52.6921 63.5752 52.2961 63.0298 52.1636 62.704C51.9592 62.2009 51.9232 61.6569 51.7293 61.1552C51.6235 60.8814 51.3786 60.6659 51.3185 60.3802C51.2785 60.189 51.4391 60.007 51.4009 59.8129C51.3346 59.4749 50.9502 59.1123 50.8306 58.7686C50.6466 58.2398 50.4469 57.7743 50.2187 57.2592C49.9098 56.5619 49.9816 55.8303 49.9251 55.0882C49.8666 54.3188 49.6187 53.5827 49.5312 52.8166C49.4706 52.2874 49.6601 51.621 49.2574 51.1971C49.2103 51.9017 49.4134 51.8908 48.7476 52.0176C47.9895 52.1618 47.4398 52.7233 46.7231 52.8909C46.5754 52.9254 46.4677 52.2837 46.5253 53.1591C46.1816 52.9067 45.4478 53.22 45.7216 53.3698C45.5141 53.5905 45.1055 53.4378 45.0373 53.7685C44.3322 53.0869 43.2016 55.4068 42.362 54.1967C42.2234 55.0168 41.6262 55.5017 40.8244 55.6102C40.4213 55.6646 40.1728 55.7983 39.815 55.9184C39.7424 55.9426 39.7157 56.0465 39.6298 56.0745C39.4984 56.117 39.3056 55.9885 39.211 56.0135C39.0184 56.0644 38.8042 56.3164 38.5352 56.3665C38.2269 56.424 37.8905 56.3976 37.5818 56.362C37.1959 56.3176 37.0261 56.2721 36.6482 56.3985C36.3083 56.5123 35.9443 56.8309 35.6289 56.484C35.1333 57.3365 33.9519 57.1281 33.3685 56.4944ZM56.277 46.2073C55.9021 46.1626 56.1624 45.8419 56.3361 45.7456C56.808 45.4841 56.682 46.2556 56.277 46.2073ZM35.5128 49.2664C37.7138 46.109 41.4785 43.9397 44.7909 42.1144C46.6002 41.1174 48.4469 40.151 50.3466 39.335C51.2912 38.9295 52.2467 38.5396 53.2112 38.1834C53.7262 37.9932 54.2474 37.8202 54.7691 37.648C54.9132 37.6004 55.1756 37.4545 55.3265 37.4687C55.3005 37.4662 55.7017 37.5747 55.6228 37.6088C55.8813 37.4969 56.0043 37.2052 56.3081 37.0885C56.6496 36.9573 57.0846 36.903 57.4504 36.8912C57.7741 36.8806 58.0543 37.0136 58.3626 37.024C58.5653 37.0307 58.7375 36.935 58.9359 36.921C59.0374 36.9139 59.0284 37.065 59.0896 37.0738C59.1161 37.0776 59.3865 36.9766 59.3891 36.9784C59.4876 37.0413 59.5748 37.2868 59.6638 37.3826C59.9191 37.6576 60.2937 37.8491 60.6341 37.9938C61.0484 38.1698 62.0589 38.3468 61.5906 38.9981C61.9232 38.9506 62.0781 39.2495 61.6615 39.3252C61.4359 39.3664 61.3395 39.1609 61.172 39.0207C60.7849 38.6974 59.8454 38.2372 59.2879 38.258C58.9742 38.2697 58.7318 38.5064 58.4426 38.5923C58.1579 38.6768 58.0169 38.5457 57.7672 38.5665C57.4752 38.5907 57.2872 38.8363 57.009 38.88C56.7484 38.921 56.6033 38.7443 56.3704 38.7566C56.0936 38.7712 55.8254 39.0103 55.5612 39.0906C55.1408 39.2183 54.8321 39.3054 54.4217 39.5171C53.6264 39.9276 52.7382 40.0834 51.9185 40.4368C51.2632 40.7192 50.5201 40.8679 49.9137 41.1803C49.2394 41.5274 48.562 41.8732 47.9017 42.2504C47.4246 42.5229 46.4548 42.6167 45.9289 42.5474C45.9213 43.5105 45.4446 42.8353 44.9642 43.2571C45.0778 43.3568 45.2069 43.4301 45.351 43.477C44.8303 43.6838 44.3491 43.9411 43.8447 44.1787C43.3235 44.4245 42.7673 44.4786 42.4248 44.9435C42.1093 45.3719 42.2162 45.1509 41.7455 45.3196C41.5295 45.397 41.3417 45.6332 41.186 45.7918C40.9186 46.0645 40.8593 46.4774 40.7066 45.917C40.662 45.9853 40.4866 46.4204 40.4525 46.4315C40.2611 46.2295 40.2336 46.4689 40.1266 46.5545C40.1829 46.7406 40.1024 46.8626 39.8852 46.9204C39.7753 47.0016 39.6639 47.0813 39.5514 47.1593C39.1433 47.4408 38.6237 47.6822 38.3363 48.1017C38.1244 47.9773 38.0458 47.7627 38.1749 47.5437C37.7698 47.9149 37.2865 48.2963 37.1769 48.8677C37.1265 48.8194 37.0678 48.7845 37.0012 48.7631C36.8367 48.8735 37.0509 49.2025 37.1552 49.2766C37.61 49.1009 37.0416 49.1646 37.3472 49.1929C37.4343 49.2009 37.5237 49.2657 37.6198 49.2669C37.9016 49.2705 38.1664 49.2571 38.4458 49.2144C39.0618 49.1199 39.6673 48.9441 40.2637 48.7677C40.9133 48.5757 41.563 48.384 42.1982 48.1484C42.7212 47.9545 43.2356 47.7383 43.7498 47.5229C43.9551 47.4368 44.1603 47.3496 44.366 47.2641C44.7566 47.1018 44.9626 46.8352 44.9081 47.2919C45.2191 47.2406 45.4887 46.8034 45.7276 46.6249C46.0636 46.3742 46.4415 46.1871 46.8396 46.0591C47.0009 46.0072 47.1193 45.9413 47.2861 45.9408C47.3678 45.9407 47.4168 46.1698 47.4683 46.1573C47.8255 46.0712 47.6627 45.8744 47.8233 45.5908C48.1746 44.971 49.1209 44.6283 49.7021 44.2762C50.0709 44.0526 50.3328 43.7519 50.6733 43.5044C50.8327 43.3887 50.9484 43.3375 51.1153 43.2885C51.2431 43.2509 51.3998 43.5428 51.4827 43.2495C51.1854 43.1286 50.9403 42.9796 50.6543 42.8915C50.452 42.8289 50.6947 42.6149 50.3742 42.7423C50.2454 42.7935 50.2011 43.0413 50.1538 43.145C49.7957 42.827 48.7889 43.1565 48.364 43.2896C48.3348 43.2987 48.2036 43.2299 48.1418 43.2341C47.8965 43.2504 47.7258 43.5786 47.5643 43.7201C47.1351 44.096 46.6695 44.2532 46.141 44.4678C46.2817 43.7036 47.3154 43.3906 47.9187 43.0979C48.8007 42.67 49.6218 42.1238 50.5874 41.8937C51.2305 41.7402 52.0827 41.6168 52.3605 42.3603C52.5267 42.806 52.5476 43.9133 51.9851 44.1189C51.9258 43.9109 52.116 43.7331 52.1733 43.5525C51.6134 43.7651 51.5212 44.4338 51.096 44.7828C50.857 44.9789 50.7715 45.0418 50.656 45.2312C50.5412 45.4194 50.4862 45.595 50.2172 45.7952C49.7777 44.8669 49.8521 46.1385 49.6292 46.298C49.7188 46.2338 49.2659 46.4212 49.32 46.4014C49.2991 46.4091 49.1018 46.0912 48.9738 46.098C48.741 46.1101 48.7857 46.3651 48.6735 46.4934C48.2932 46.9277 47.8019 47.2126 47.1898 47.1442C47.1755 47.4532 47.2714 47.8224 46.847 47.8506L46.7914 47.1655C46.5604 47.3979 46.2564 47.6186 46.0684 47.8876C45.8545 48.1937 45.8774 48.3822 45.5225 48.5863C45.1517 48.7996 44.3628 49.2198 43.9215 49.2561C44.0306 49.1022 44.0113 48.9631 43.8639 48.8393C43.642 49.0668 43.3143 49.0892 43.078 49.2947C43.8982 49.6354 42.448 49.6178 42.264 49.6564C42.1409 49.6823 42.0334 49.7938 41.9087 49.819C41.743 49.8524 41.7216 49.6792 41.5791 49.7341C41.3705 49.8145 41.4551 50.0412 41.2369 50.1552C41.0801 50.2371 40.8143 50.236 40.6374 50.3138C40.2159 50.4994 39.318 50.9105 39.0332 50.4119C38.8888 51.2674 37.4145 50.7466 36.8687 50.689C36.1213 50.6101 34.8195 50.2613 35.5128 49.2664ZM38.6521 40.5131C38.7578 40.4233 38.8637 40.4299 38.9696 40.533C38.8222 39.7587 39.9624 39.3828 40.4599 39.0537C41.1197 38.6171 41.8964 37.7701 42.7599 37.8371C42.6126 37.9456 42.4657 38.0541 42.3186 38.1626C42.5286 38.1897 42.7385 38.2167 42.9482 38.2438C42.8299 38.4166 42.7114 38.5893 42.5928 38.7619C42.399 37.7 41.388 39.0407 41.0954 39.2361C40.8008 39.4328 40.5069 39.5794 40.245 39.8192C39.9856 40.0569 39.7514 40.4848 39.3225 40.271C39.2834 40.8775 38.7931 40.713 38.454 41.0489C38.4398 40.8381 38.5611 40.6892 38.6521 40.5131ZM43.1316 37.4855C44.1753 37.0968 45.084 36.3781 46.0675 35.8648C47.0068 35.3743 47.9652 34.9339 48.9202 34.4764C49.4047 34.2442 50.2921 33.6438 50.8459 33.9498C51.5931 34.363 50.5644 34.4963 50.2972 34.6393C50.1984 34.0031 49.8522 34.5795 50.059 34.9335C49.4888 34.6886 48.2453 35.6466 47.7013 35.9107C47.5782 35.9705 47.6334 36.0051 47.4934 36.0755C47.4589 36.0928 47.102 36.1736 46.9998 36.2077C46.4877 36.3781 46.1502 36.2428 45.9295 36.8574C45.8833 36.7128 45.8372 36.5679 45.791 36.4231C45.4704 37.1389 44.4959 37.4523 43.8727 37.8755C43.7121 37.9847 43.2535 38.4079 43.0497 38.3204C42.7661 38.1985 42.8799 37.5792 43.1316 37.4855ZM61.9593 39.6437C62.3999 39.6727 61.975 39.877 62.0961 40.0121C62.0824 39.9969 62.3615 40.2336 62.3249 40.1686C62.3742 40.256 62.4925 40.2528 62.553 40.4304C62.7614 41.0412 61.8513 41.6724 61.5444 42.019C60.9476 42.6932 60.6027 43.5469 59.9809 44.1995C59.7 44.4943 59.4206 44.6979 59.0313 44.8078C58.7589 44.8848 58.4706 44.8024 58.2202 45.0629C58.0185 45.2727 58.0643 45.3919 57.8414 45.5035C57.4487 45.7001 57.2757 45.5276 56.8936 45.9527C56.5648 45.0639 57.5095 45.0653 58.0025 44.5686C58.6829 43.8828 59.4285 43.191 60.0667 42.4575C60.6335 41.8057 60.8606 41.2342 61.1296 40.4424C61.2145 40.1927 61.3068 39.6574 61.5407 39.5008C61.9049 39.2569 61.6863 39.6256 61.9593 39.6437ZM64.1261 62.7326C65.2818 61.4473 66.7155 60.2932 68.2695 59.5189C68.8249 59.2421 69.6156 58.8788 70.1913 59.305C70.7558 59.7226 70.6343 60.5559 70.4068 61.1227C70.1887 61.0376 70.3945 60.241 70.2814 60.0441C70.0345 59.6146 69.5018 59.8427 69.1394 59.9867C68.7148 60.1554 68.336 60.3416 67.9998 60.6478C67.8633 60.7718 67.6021 60.883 67.5147 60.9683C67.3834 60.9141 67.306 60.9536 67.2828 61.0867C67.3098 61.1683 67.3066 61.2487 67.273 61.3277C67.2538 61.3529 67.0831 61.2498 67.0588 61.2704C66.948 61.3647 66.8444 61.4756 66.7354 61.5631C66.5167 61.739 66.3307 61.8222 66.1293 62.0674C65.7405 62.5412 65.2262 62.8189 64.8356 63.2703C64.7474 63.3724 64.6416 63.6341 64.6218 63.657C64.4244 63.8861 64.1316 64.0674 63.9089 64.31C63.5238 64.7291 63.1126 65.0105 62.6682 65.3699C62.4769 65.5245 62.2536 65.6911 62.1263 65.9062C62.0684 66.0043 62.0357 66.542 62.0336 66.5442C61.5978 67.0192 61.6826 66.0644 61.7155 65.9447C62.0694 64.6567 63.2659 63.6896 64.1261 62.7326ZM61.7473 71.4425C61.8016 71.6448 61.8461 71.812 61.9012 72.0173C61.5556 71.7355 61.5556 71.7355 61.7473 71.4425ZM61.3741 72.105C61.2471 72.2323 61.1195 72.3587 60.9909 72.4843C60.7081 72.1871 61.4259 72.0541 61.3741 72.105ZM61.1947 66.9902C61.0595 67.534 60.5646 68.1931 60.2244 68.6223C60.2619 68.575 59.934 68.6702 59.8967 68.6918C59.7755 68.7616 60.0657 69.2138 59.6458 69.0117C59.4968 69.0955 59.7902 69.437 59.5877 69.5899C59.0025 68.264 60.6003 67.1153 61.219 66.1312C61.5215 66.4074 61.2706 66.6853 61.1947 66.9902ZM57.3938 74.1585C57.8204 74.2677 58.0424 74.199 58.3304 73.7823C58.5036 73.532 58.5669 73.0887 58.9629 73.4632L59.0328 72.9817C59.5982 73.2123 59.5507 74.0457 59.7977 74.5075C59.9179 73.985 60.2026 72.5254 61.0744 72.7595C62.0531 73.0225 60.4243 74.6961 60.273 75.106C59.9403 74.5927 60.0712 75.0702 59.8174 75.1425C59.5996 75.2048 59.2594 75.0454 58.9948 75.0598C58.1898 75.1033 57.4826 75.4634 56.7473 75.7682C56.5611 75.2691 56.3751 74.77 56.1888 74.2709C56.6218 74.304 57.5169 73.1582 57.644 73.991C57.323 73.9354 57.2325 73.9495 57.0761 74.2401C57.176 74.1897 57.2819 74.1625 57.3938 74.1585ZM59.2008 80.6734C59.1995 80.6694 60.0335 80.7207 60.1078 80.6936C60.6785 80.4864 60.4675 79.8427 60.5842 79.3878C60.8195 79.6029 60.6948 79.9954 60.7674 80.2737C60.8525 80.6008 61.0991 80.8796 61.1219 81.2294C61.1739 82.0198 60.5216 81.8444 60.0272 82.1001C59.6048 82.3187 59.5579 82.5936 59.2011 82.0046C59.1046 81.8452 58.8969 81.4299 58.9182 81.226C58.9391 81.0241 59.2608 80.8562 59.2008 80.6734ZM59.8729 84.0936L59.6423 83.8367C60.3295 84.0459 59.9242 83.7314 60.0823 83.3014C60.6097 83.6506 61.0398 84.0096 61.4571 83.3104L62.1782 86.2021C61.6939 86.3154 61.0691 85.5714 60.737 85.3159C60.5451 85.1682 59.4805 84.5993 60.1198 84.4335C60.0374 84.3202 59.9551 84.2069 59.8729 84.0936ZM64.5793 75.0132C64.1791 75.3917 63.7759 75.6036 63.3401 75.9011C62.9579 76.1622 63.0895 76.462 62.7582 76.7532C62.5382 76.9469 62.0224 77.144 61.7505 77.2917C61.2663 77.5548 60.8326 77.6049 60.3344 77.3104C60.47 78.3956 59.7226 78.4806 58.7922 78.6955C58.3485 78.7981 58.0858 78.9547 57.766 78.5507C57.547 78.2741 57.4612 77.7734 57.7337 77.5204C58.1665 77.1184 59.3194 77.2572 59.8746 77.0043C60.296 76.8126 60.7252 75.7322 61.245 76.1254C60.9768 75.7006 61.2891 75.5861 61.5223 75.2832C61.7777 74.9511 61.9347 74.5629 62.1989 74.2336C62.701 73.6075 63.4719 72.9778 64.1851 72.6003C64.8125 72.2683 65.142 72.5033 65.236 73.2007C65.2833 73.5514 65.2815 74.0737 65.0841 74.3848C65.0211 74.484 64.8134 74.4851 64.7504 74.5783C64.6408 74.741 64.7414 74.8599 64.5793 75.0132ZM71.9427 66.5968C72.4434 66.9822 72.3947 67.7919 72.4735 68.3434C72.5847 69.1207 72.5041 69.8728 72.4922 70.6645C72.4796 71.4939 72.0704 72.0341 71.8777 72.8116C71.6637 73.6763 71.3873 74.1344 70.9071 74.8601C71.4279 74.9415 70.6528 76.4881 70.525 76.6883C70.3863 76.9056 69.2676 77.907 69.7472 77.907C69.4826 78.254 69.1946 78.61 68.931 78.9474C68.8271 79.0802 68.6451 79.1324 68.5634 79.2262C68.3968 79.4167 68.3867 79.5867 68.2674 79.8091C68.0863 80.1466 68.0268 80.0565 67.7888 80.3014C67.6245 80.4705 67.5166 80.6938 67.3552 80.8559C66.8351 81.3781 66.7687 80.9503 66.4779 80.5481C66.4334 80.6558 66.3542 80.7234 66.2404 80.7507C66.1493 80.2956 66.7763 79.8359 67.0399 79.5593C67.4717 79.1061 67.8663 78.6068 68.2481 78.1112C69.0657 77.0493 69.8003 75.9211 70.38 74.7125C70.9967 73.4264 71.4894 72.0345 71.7453 70.6313C71.9403 69.5619 72.1257 67.7273 70.6886 67.4552C69.6433 67.2574 68.4909 67.8889 67.6293 68.4002C67.1041 68.7116 66.5761 69.0213 66.0759 69.3716C65.5329 69.7515 65.0636 70.2892 64.4743 70.594C64.7966 70.4273 63.733 70.9291 63.8958 70.788C63.8196 70.8539 63.8854 71.0554 63.835 71.1463C63.7693 71.2646 63.5411 71.3814 63.4388 71.4579C63.1684 71.6598 62.7364 71.8664 62.6135 72.1999C60.8985 70.9834 64.309 68.8236 65.1832 68.2736C66.9173 67.1827 69.9347 65.0511 71.9427 66.5968ZM76.5687 54.7654C76.5523 53.8894 77.2698 52.6935 77.7544 51.9792C77.9914 51.6295 78.3701 51.6434 78.509 51.231C78.5892 50.9936 78.4841 50.7446 78.5079 50.5061C78.5401 50.1837 78.6807 49.9251 78.843 49.6479C80.3096 47.1423 82.0915 44.9246 83.9894 42.7386C84.9253 41.661 85.8125 40.5419 86.8218 39.5296C87.2434 39.1068 88.3766 37.5868 89.0249 37.7389C89.3681 37.8194 89.5679 38.3403 89.7229 38.6061C89.9791 39.0457 90.2609 39.4574 90.5723 39.8616C91.3942 40.9289 92.3423 41.8657 93.4619 42.6221C94.161 43.0949 94.8674 43.5543 95.5511 44.0496C96.1139 44.4572 96.9647 44.9232 97.3666 45.4955C97.7686 46.0679 97.1783 46.5526 96.8556 47.0279C96.3541 47.7671 95.8929 48.533 95.3893 49.2713C95.1893 49.1283 95.2409 48.8377 95.1038 48.6544C94.9821 48.492 94.8101 48.4259 94.6421 48.3256C94.32 48.1337 94.004 47.8991 93.7132 48.2206C93.2041 48.7832 93.904 50.1132 94.6585 49.9673C94.7473 50.5226 93.2408 51.4372 92.8632 51.7428C91.7045 52.6803 90.5092 53.4953 88.9785 53.5801C88.3591 53.6144 87.7145 53.5676 87.126 53.3615C86.844 53.2628 86.5323 53.1272 86.3161 52.912C86.0573 52.6543 85.9913 52.2709 85.7403 52.0158C85.5225 51.7945 85.2235 51.7604 85.0059 51.5383C84.788 51.316 84.6804 50.9649 84.592 50.677C84.4191 50.1145 84.3865 49.5213 84.2204 48.9575C84.1204 48.6184 84.0384 48.1651 83.7125 48.4909C83.2391 48.9642 83.4769 50.4527 83.598 51.0198C83.7714 51.8289 84.1777 52.4812 84.6034 53.1773C85.065 53.9325 85.2354 54.6329 85.3181 55.5067C85.473 57.1423 85.945 58.7119 86.6795 60.1835C86.9887 60.8032 87.359 61.3858 87.6928 61.9912C87.8487 62.2737 88.1981 63.2374 88.6222 63.2322C89.2998 63.2239 88.3346 61.2592 88.2007 60.9294C87.4585 59.1027 86.7495 57.1827 86.5905 55.2047C87.6545 55.4772 88.8142 55.7359 89.916 55.5632C89.2048 57.1446 89.9477 58.7191 89.8568 60.3469C89.8114 61.1632 89.7785 61.9163 89.7954 62.7302C89.8104 63.444 89.4863 64.1574 89.2061 64.8028C88.6496 66.0844 87.949 67.6655 86.9154 68.6473C86.0514 69.4681 84.8955 69.5322 83.7665 69.3433C81.1983 68.9131 79.5108 66.95 78.4331 64.7205C77.7405 63.2882 77.2112 61.7593 76.8826 60.2039C76.5021 58.4037 76.6025 56.5914 76.5687 54.7654ZM79.904 42.6335C77.5073 40.9092 80.99 38.9511 82.7628 39.2177C83.1786 39.2801 83.9437 39.451 83.9048 39.9906C83.8729 40.4317 83.1331 40.9233 82.849 41.1955C82.039 41.9723 81.2147 43.5762 79.904 42.6335ZM97.3391 80.9471C97.2568 80.8738 96.5861 81.0537 96.8518 80.659C97.0726 80.3311 97.6848 80.7421 97.9072 80.8264C97.7239 80.9524 97.5644 81.1475 97.3391 80.9471ZM87.3595 101.802C87.1535 101.827 86.9381 101.275 87.6807 101.687C87.5737 101.726 87.4665 101.764 87.3595 101.802ZM87.3382 110.805C87.3638 111.053 87.4399 111.216 87.2631 111.396C87.1136 111.213 87.0943 110.954 87.3382 110.805ZM87.6397 114.525C87.6178 114.66 87.5959 114.795 87.5743 114.929C87.4028 114.843 87.2315 114.757 87.06 114.67C87.2531 114.622 87.4465 114.574 87.6397 114.525ZM87.8495 111.388C88.1051 111.483 87.9862 111.18 88.1717 111.137C88.2382 111.453 88.1563 111.724 87.9736 111.985C87.9562 111.923 87.8626 111.393 87.8495 111.388ZM94.381 88.9404C94.0225 88.8949 93.9682 89.2716 93.7009 89.4177C93.5284 89.5121 93.0031 89.4413 92.9051 89.6219C93.0345 89.6591 93.164 89.6963 93.2934 89.7335C92.9971 89.8922 92.7008 90.0511 92.4046 90.2099C93.1172 90.2099 93.8598 89.8714 94.5676 89.9708C94.8667 90.0129 95.0861 90.1134 95.2738 90.3553C95.3877 90.5023 95.4878 90.7386 95.5062 90.9185C95.5259 91.1131 95.3734 91.2475 95.4004 91.3403C95.7194 91.349 95.6817 91.8692 95.6101 92.0813C95.4548 92.541 94.8379 93.261 94.2851 92.9694C94.5164 93.2957 94.4575 93.482 94.1155 93.6713C94.1466 93.5634 94.1694 93.3748 93.9946 93.3935C93.9497 93.5743 93.9669 93.8611 93.8184 93.9974C93.6522 94.1499 93.5038 93.9717 93.3448 94.0709C93.1563 94.1887 93.213 94.3735 93.0647 94.5012C92.8687 94.6699 92.8407 94.55 92.6064 94.5828C92.2515 94.6328 92.4779 94.4135 92.1937 94.6993C92.0954 94.7979 92.112 95.0544 91.9526 95.1988C91.6465 95.4758 90.8298 95.7645 90.5366 95.4092C89.8315 96.5203 87.7182 96.7869 86.7346 95.9098C85.1657 94.511 88.091 91.6661 89.0567 90.7645C90.0261 89.8597 91.1027 89.0782 92.1921 88.3238C92.8111 87.8952 93.4463 87.5062 94.0949 87.1244C94.495 86.8886 94.9974 86.4583 95.4891 86.4996C95.9301 86.5367 96.3068 86.877 96.7711 86.9443C97.1068 86.993 97.7591 87.0733 97.3355 87.5262C97.1374 87.7378 96.3595 88.0799 96.0945 88.1314C95.9389 88.1617 95.7749 88.1037 95.6207 88.1351C95.3597 88.1884 95.1804 88.4075 94.8964 88.3796C94.9863 88.7987 94.8222 88.9961 94.381 88.9404ZM99.0239 73.3808C99.0241 73.7087 98.4222 73.6269 98.2965 73.5155C98.0895 73.3323 98.0823 72.7844 98.0055 72.5352C98.3554 72.6227 99.0236 72.9431 99.0239 73.3808ZM94.1752 62.5632C95.4395 61.5299 96.7689 60.5825 98.1742 59.7481C98.6774 59.4493 99.388 58.8467 100.013 58.9219C100.275 58.9536 100.817 59.253 100.62 59.5831C100.583 59.6449 100.291 59.6697 100.201 59.7145C100.099 59.7652 100.019 59.9051 99.9239 59.9742C99.2673 60.4532 98.4784 60.7475 97.8196 61.238C97.2782 61.6408 96.7734 62.0914 96.1906 62.4371C95.6315 62.7685 95.0473 62.9783 94.5165 63.3454C94.527 63.338 93.8261 63.5886 93.9636 63.6342C93.3483 63.4296 93.9982 62.708 94.1752 62.5632ZM102.605 62.1783C103.356 61.8806 104.091 61.5195 104.877 61.3194C105.269 61.2196 105.672 61.1445 106.078 61.1895C106.148 61.0693 106.239 61.0427 106.354 61.1098C106.444 61.2468 106.562 61.3519 106.709 61.4254C106.933 61.5966 107.758 61.8205 107.593 62.1986C107.484 62.4487 106.657 62.4695 106.43 62.5257C105.746 62.6952 105.108 63.0764 104.403 63.17C104.337 63.1788 104.121 63.0991 104.119 63.0996C103.844 63.1593 103.615 63.443 103.378 63.579C102.87 63.8717 102.139 63.9208 101.774 64.4261C102.957 65.2232 103.983 64.4326 105.022 63.8307C105.645 63.4704 106.314 63.2103 106.994 62.9792C107.35 62.8586 107.709 62.7331 108.069 62.6272C108.218 62.5731 108.372 62.5342 108.529 62.5103C108.676 62.4814 108.78 62.5344 108.844 62.6694C109.28 62.655 109.317 62.3831 109.579 62.8903C109.949 63.6053 109.383 63.5689 108.851 63.6568C108.114 63.7784 107.364 64.0524 106.637 64.234C106.47 64.2759 105 64.6147 104.999 64.6267C104.932 65.0879 109.15 64.6608 109.512 64.5917C110.151 64.4694 110.836 64.1223 111.497 64.206C112.005 64.2702 113.162 65.0111 112.352 65.5034C112.193 64.7442 111.645 65.3712 111.359 65.6274C110.978 65.9684 110.433 65.9356 109.911 66.0692C109.196 66.2517 107.368 66.9363 106.861 66.0635C107.021 66.8284 104.107 66.4397 103.706 66.4144C103.315 66.3896 102.811 66.4722 102.433 66.3614C102.187 66.2893 102.05 66.13 101.818 66.0942C101.762 66.155 101.694 66.1964 101.614 66.2184C101.497 66.1593 101.391 66.0841 101.296 65.9931C100.516 65.6363 99.308 65.4392 99.7417 64.3028C100.151 63.2311 101.613 62.5716 102.605 62.1783ZM109.921 62.8406C109.94 62.7739 109.96 62.7072 109.979 62.6403C109.982 62.845 110.472 62.9323 110.416 63.1975C110.29 63.7847 109.724 62.9024 109.675 62.8062C109.757 62.8178 109.839 62.8291 109.921 62.8406ZM112.918 63.8162C112.975 64.0567 113.627 64.5688 113.466 64.6869C113.208 64.339 112.497 64.4969 112.918 63.8162ZM101.907 85.7625C102.146 85.2912 102.868 86.0938 102.792 85.2892C103.185 85.3245 102.94 85.6217 103.41 85.4911C103.587 85.4421 103.706 85.2477 103.921 85.2029C103.978 85.1909 104.226 85.2104 104.312 85.2079C104.595 85.1992 105.704 85.1679 104.94 84.7987C105.368 84.5177 105.421 84.6602 105.806 84.9177C105.707 84.3855 106.275 84.6876 106.539 84.754C106.351 84.4504 106.818 84.1275 106.97 83.9223C106.916 84.2384 106.944 84.5922 107.404 84.3901C107.519 84.3399 107.493 84.1165 107.584 84.08C107.751 84.0132 107.844 84.1347 107.903 84.1278C107.962 84.1213 108.086 84.1541 108.209 84.1078C108.37 84.0478 108.292 83.8337 108.496 83.8018C108.628 83.7812 108.725 83.9748 108.887 83.9764C108.97 83.9772 109.108 83.8934 109.171 83.8979C109.183 83.8987 109.262 83.7092 109.359 83.7046C109.501 83.6977 109.558 84.0758 109.61 84.1493C109.859 84.4997 110.189 84.7283 110.57 84.9152C109.881 85.5438 108.49 85.4772 107.623 85.6891C107.153 85.804 106.753 85.9696 106.323 86.1831C106.219 86.2501 106.13 86.3324 106.055 86.4298C105.994 86.3897 105.933 86.3495 105.873 86.3093C105.637 86.3237 105.414 86.2079 105.149 86.2524C104.331 86.3897 103.69 86.9995 102.858 87.1354C102.484 87.1965 102.177 87.2818 101.933 86.9595C101.719 86.6769 101.755 86.0631 101.907 85.7625ZM100.784 82.0062C100.97 82.1622 100.747 82.6701 101.106 82.6149C101.361 82.5757 101.31 82.1825 101.51 82.0991C101.773 81.9898 101.932 82.2493 102.179 82.2252C102.64 82.1801 102.613 81.78 102.224 81.6043C102.629 81.4981 102.759 81.974 103.117 81.9697C103.588 81.9641 103.475 81.4118 103.876 81.3203C104.05 81.2806 103.992 81.5339 104.104 81.5654C104.329 81.6283 104.486 81.5203 104.686 81.4253C104.864 81.3403 104.991 81.1761 105.186 81.1204C105.274 81.095 105.5 81.1415 105.565 81.0943C105.696 80.9993 105.813 80.629 105.942 80.58C105.916 80.5899 106.339 80.8008 106.4 80.8207C106.363 80.977 106.277 80.9956 106.142 80.8765C106.142 81.2294 107.128 81.3393 106.926 80.9032C107.459 81.1228 107.062 81.2358 107.008 81.5422C106.987 81.6655 106.915 81.6621 106.936 81.7924C106.946 81.8524 107.226 81.8007 107.222 81.8825C107.199 82.4091 105.511 82.5711 105.191 82.6175C104.529 82.7137 103.902 82.8754 103.264 83.0747C102.789 83.223 101.97 83.6479 101.464 83.6215C100.737 83.5836 100.642 82.64 100.784 82.0062ZM99.1594 76.6321C98.9821 76.0462 99.551 74.8361 100.292 74.9873C100.474 75.0244 100.519 75.1745 100.66 75.2411C100.858 75.3343 101.179 75.2853 101.35 75.3815C101.733 75.5973 101.54 76.1474 101.924 76.3461C101.317 76.4924 99.4413 77.5633 99.1594 76.6321ZM99.8616 78.9083C100.123 78.7686 100.547 78.7507 100.725 78.482C100.814 78.5431 100.982 78.9142 101.141 78.8574C101.215 78.831 101.292 78.6299 101.287 78.63C101.428 78.626 101.457 78.4351 101.673 78.4566C101.872 78.4764 102.095 78.7142 102.272 78.8029C102.242 78.2133 102.394 78.157 102.874 77.8414C102.98 77.7723 103.068 77.5127 103.165 77.4077C103.072 78.0264 103.306 78.0298 103.803 78.1227C104.426 78.2393 104.814 78.5718 105.064 79.1701C104.533 79.0672 103.848 79.1911 103.639 79.7584C103.216 78.9888 101.676 80.0508 101.178 80.2683C100.808 80.4297 100.378 80.6467 100.068 80.2705C99.85 80.0055 99.9751 79.6867 99.9798 79.4513C99.981 79.3774 100.058 79.3731 100.051 79.263C100.042 79.1224 99.8578 79.0663 99.8616 78.9083ZM105.528 91.0099C105.388 91.0627 104.667 91.0923 104.662 90.8546C104.658 90.6447 105.935 90.8562 105.528 91.0099ZM104.356 90.2411C103.81 90.5757 103.2 89.3966 102.999 89.057C103.572 89.1298 103.851 88.6536 104.188 88.2916C104.509 88.9908 104.997 88.6213 105.509 88.3878C106.114 88.1124 106.776 88.1103 107.395 87.8893C107.589 87.8203 107.767 87.7178 107.956 87.6389C108.107 87.5824 108.259 87.5244 108.41 87.4651C108.517 87.369 108.555 87.2508 108.524 87.1106C108.473 86.9928 108.508 86.9184 108.627 86.8877C108.77 86.9299 108.916 86.9546 109.064 86.9611C109.303 86.9141 109.646 86.6902 109.358 86.4489C109.666 86.1701 109.976 86.4473 110.273 86.5694C110.202 86.3692 110.132 86.169 110.061 85.9688C110.209 86.0311 110.646 86.6392 110.691 86.6358C110.974 86.6147 110.944 86.2372 111.107 86.0848C111.201 86.1999 111.228 87.0578 111.597 86.7688C111.754 86.6452 111.415 86.2244 111.331 86.1285C111.753 86.2232 112.121 86.7241 112.235 87.113C112.035 87.1418 111.85 87.1018 111.68 86.9927C111.571 87.5342 112.579 87.3148 112.742 87.5977C113.062 88.1516 110.983 88.5363 110.712 88.5877C110.17 88.6904 109.53 88.7287 109.033 88.9676C108.557 89.1963 108.445 89.2617 107.889 89.3046C107.254 89.3536 106.634 89.5616 106.02 89.7235C105.487 89.8641 104.829 89.9514 104.356 90.2411ZM115.96 70.415C116.461 70.2356 118.15 69.3047 118.58 69.7187C118.534 69.6748 118.89 70.4049 118.886 70.359C118.917 70.7387 118.907 70.8915 118.437 71.0735C118.1 71.2038 117.807 70.9269 117.504 71.0368C117.172 71.1577 117.404 71.3715 117.233 71.5208C117.045 71.6845 116.684 71.7552 116.45 71.8269C115.878 72.0025 115.302 72.1492 114.733 72.3384C113.576 72.7232 112.35 73.0814 111.16 73.3536C110.271 73.557 108.762 74.0625 107.943 73.4654C107.863 73.8049 107.668 73.7584 107.396 73.8079C107.183 73.8466 106.799 73.9514 106.609 73.9569C106.294 73.966 105.419 73.8839 105.539 73.4446C105.506 73.5656 106.22 73.1515 106.097 73.1257C106.4 73.1892 106.302 73.0374 106.55 72.9529C106.875 72.8426 107.214 72.8485 107.545 72.7317C108.381 72.4373 109.082 72.0551 109.963 71.8706C111.978 71.4492 114.017 71.1103 115.96 70.415ZM35.2178 115.798C35.0546 115.802 34.9276 115.341 35.4241 115.67C35.3554 115.713 35.2867 115.755 35.2178 115.798ZM31.2958 115.201C31.0738 115.258 30.9853 115.135 31.0305 114.832C31.34 114.71 31.4284 114.833 31.2958 115.201ZM28.2679 114.584C28.2111 114.314 28.4122 114.253 28.5946 114.132C28.5762 114.489 28.5762 114.489 28.2679 114.584ZM20.6494 112.363C20.3425 112.296 19.9335 111.998 19.8632 112.499C19.8119 112.383 19.5499 111.837 19.6624 111.711C19.7211 111.645 19.9435 111.951 19.9199 111.92C20.1885 111.38 20.6515 112.032 20.9103 112.225C20.8234 112.271 20.7363 112.317 20.6494 112.363ZM100.445 52.6574C100.551 52.4346 100.676 52.3639 100.82 52.4453C100.594 52.9664 99.8298 53.2488 100.445 52.6574ZM105.754 47.7663C105.944 48.1191 105.659 48.2683 105.456 48.5616C105.575 48.2452 105.657 48.026 105.754 47.7663ZM128.829 82.2115C129.512 82.2113 130.966 81.853 131.378 82.629C131.651 82.1017 131.96 83.0905 132.197 83.2491C132.223 83.267 132.393 83.1376 132.473 83.1853C132.592 83.2571 132.695 83.4528 132.763 83.5692C132.97 83.9199 133.058 84.337 133.173 84.723C131.98 84.723 130.758 84.4469 129.566 84.3466C128.784 84.2807 128.017 84.2787 127.234 84.3207C127.079 84.329 126.77 84.2779 126.637 84.3071C126.501 84.3367 126.256 84.6105 126.107 84.5665C126.339 84.9987 129.305 86.0451 129.531 85.5665C129.263 85.4052 128.667 85.2813 128.668 84.8915C128.668 84.4548 129.227 84.4556 129.522 84.4684C130.169 84.4965 131.253 84.7107 131.518 85.3796C131.632 85.6663 131.667 86.3884 131.542 86.6652C131.461 86.844 131.325 87.0589 131.108 87.0952C131.02 87.1101 130.892 86.9928 130.878 86.9957C130.434 87.0893 129.613 87.4438 129.129 86.944C128.78 87.3932 127.098 86.9026 126.583 86.7331C125.683 86.4367 124.443 86.0298 123.896 85.1944C123.23 84.1763 124.585 83.3158 125.363 82.902C126.427 82.3365 127.642 82.212 128.829 82.2115ZM133.373 84.5655C133.582 84.6242 133.792 84.6831 134.001 84.7419C133.945 85.1067 133.119 84.818 133.373 84.5655ZM139.699 97.8282C139.764 96.3663 139.339 95.0789 139.093 93.6651C139.032 93.3146 139.094 92.7018 138.827 92.4136C138.571 92.1381 138 92.3621 137.977 91.875C137.726 92.1683 137.751 92.2296 137.44 91.8923C137.497 92.0369 137.505 92.184 137.465 92.3338C137.272 92.224 136.574 91.8595 136.633 92.3579C136.059 92.2317 136.225 91.8747 135.898 91.6021C135.851 91.5634 135.664 91.7009 135.591 91.6423C135.46 91.5362 135.395 91.4399 135.284 91.3032C135.142 91.4728 134.95 91.5954 134.778 91.7295C134.677 91.5124 134.482 91.353 134.248 91.3002C134.467 91.7566 135.009 92.3477 134.265 92.6074C133.821 92.7623 133.094 92.5724 132.624 92.6086C130.881 92.743 128.972 92.3651 127.287 91.9523C125.556 91.5282 123.805 90.9295 122.248 90.0545C121.916 89.8679 121.707 89.6471 121.421 89.4157C121.143 89.1907 120.941 89.1551 120.607 89.0113C120.006 88.7523 119.457 88.3371 118.999 87.8743C118.016 86.879 117.103 85.5775 117.377 84.1205C117.649 82.6682 118.653 81.5333 119.728 80.577C120.996 79.4475 122.429 78.5044 123.949 77.7441C124.629 77.4044 126.368 76.1277 127.039 76.8747C127.468 77.3519 127.227 77.9608 126.641 78.0669C126.496 78.0931 126.345 77.9966 126.198 78.0627C125.988 78.1581 126.062 78.2708 125.975 78.3503C125.824 78.4884 125.663 78.7038 125.437 78.8235C124.649 79.2413 123.887 79.5725 123.134 80.0813C122.787 80.3158 122.452 80.4166 122.146 80.6213C121.842 80.8247 121.773 81.1614 121.363 80.9537C121.509 81.5458 120.633 82.1798 120.29 82.5426C119.759 83.1043 119.121 83.8212 119.369 84.6522C119.855 86.2791 122.049 87.5147 123.453 88.2298C125.205 89.1222 127.137 89.8325 129.087 90.1265C130.057 90.2726 131.059 90.3629 132.037 90.4555C132.797 90.5277 133.965 90.2635 134.512 90.9447C134.529 90.1503 137.024 90.2204 137.555 90.1188C136.49 86.4998 134.4 83.2821 132.165 80.2758C131.068 78.8 129.99 77.2823 128.74 75.9294C127.371 74.4483 125.807 73.1247 124.321 71.7619C121.407 69.089 118.11 66.7034 114.756 64.6019C111.409 62.5054 107.944 60.442 104.277 58.9471C100.09 57.24 95.6813 56.117 91.2679 55.1607C91.8665 54.4022 92.8404 54.0322 93.6069 53.4772C93.8754 53.2829 94.2381 52.8166 94.5867 52.7529C94.9643 52.6838 95.2615 53.0877 95.5303 53.2905C96.3017 53.8723 96.8352 53.6252 97.7187 53.5902C98.2474 53.5692 99.4994 53.8619 99.7223 53.1509C100.019 53.5433 99.5888 53.8579 99.3688 54.1456C99.529 54.3678 99.658 54.1373 99.8162 54.1026C99.865 54.0624 99.9136 54.0221 99.9624 53.9819C100.041 53.869 100.112 53.8683 100.175 53.9797C100.269 54.1208 100.364 54.0896 100.46 53.8859C100.486 53.8696 100.512 53.8531 100.538 53.8368C100.652 53.7763 100.763 53.6806 100.869 53.6052C101.672 53.0347 102.387 52.5487 103.274 52.1285C104.018 51.7758 103.618 51.1009 104.108 50.6244C104.219 50.5165 104.406 50.5706 104.525 50.4792C104.641 50.3895 104.659 50.2877 104.744 50.1915C104.947 49.9603 104.705 49.6919 105.225 49.975L105.037 48.925C106.057 49.9089 106.053 47.0777 106.192 46.6587C106.174 46.7141 106.284 46.2854 106.284 46.289C106.314 45.4394 106.43 44.8237 105.43 44.7744C105.809 44.5374 105.924 45.0002 106.099 44.521C106.187 44.281 105.914 43.8684 106.349 44.0232C106.441 43.513 106.35 43.1001 106.236 42.6044C106.119 42.0969 106.188 41.7583 106.193 41.2509C106.199 40.6752 105.928 40.0967 105.841 39.5299C105.774 39.086 105.844 38.3859 105.266 38.5489C105.185 38.4227 105.47 38.0343 105.459 37.8422C105.441 37.5439 105.115 37.2409 105.023 36.9544C104.887 37.0936 104.696 37.14 104.511 37.0771C104.685 36.688 104.522 36.5572 104.356 36.2216C104.261 36.0294 104.318 35.8172 104.115 35.6795C103.998 35.6005 103.799 35.7336 103.708 35.641C103.512 35.4425 103.584 35.1793 103.449 34.9178C103.28 34.5899 102.894 34.3394 102.628 34.0933C101.131 32.7099 99.505 31.6526 97.5139 31.112C95.5052 30.5666 93.1634 30.3712 91.1615 31.0003C90.3613 31.2517 89.6509 31.2259 88.9307 31.6954C88.6972 31.8478 88.6721 31.807 88.5535 32.0609C88.5261 32.1202 88.7748 32.2778 88.6225 32.3746C88.4571 32.4797 88.2744 32.2659 88.1901 32.0885C87.1482 32.8384 86.1719 33.8381 85.5785 34.9844C84.9889 36.1234 84.9348 37.4615 84.7096 38.6994C83.6711 37.5196 82.2664 36.9541 80.7393 37.5212C79.4082 38.0154 78.3767 39.1017 78.1163 40.509C77.9575 41.3669 78.131 42.2357 78.5229 43.0097C78.6923 43.3442 78.8975 43.7145 79.2091 43.9397C79.4555 44.1176 79.8775 44.0926 79.9935 44.4137C80.1713 44.9054 79.1442 45.9675 78.8776 46.398C78.3952 47.177 77.947 47.9815 77.6058 48.8324C76.3825 47.1141 75.2116 45.2375 73.8206 43.6532C72.5078 42.1579 70.9428 40.8169 69.408 39.5529C66.2224 36.9298 62.9099 34.4654 59.3465 32.3756C56.0284 30.4296 52.0204 29.3493 48.1534 29.7313C44.375 30.1046 41.4823 32.4807 39.0481 35.2212C34.3677 40.4904 31.5011 48.0007 31.2211 55.0149C31.1369 57.122 31.2983 59.2016 31.8217 61.2453C32.071 62.2185 32.0348 63.1756 32.1796 64.1612C32.3431 65.2731 32.6259 66.381 32.8993 67.4701C33.9409 71.6192 35.268 75.765 36.7572 79.7766C37.5315 81.8628 38.4683 83.9022 39.7357 85.7417C40.321 86.5915 41.0793 87.2562 41.7093 88.0631C42.3203 88.8456 42.4818 89.8061 42.6161 90.7663C42.9383 93.0686 43.1521 95.3807 43.3458 97.6965C43.4281 98.678 43.5242 99.6508 43.6548 100.625C43.7688 101.475 43.4821 101.433 42.7632 101.722C42.909 100.958 39.4743 101.478 39.15 101.53C38.7971 101.587 38.4234 101.587 38.1454 101.633C37.8347 101.683 37.5305 101.756 37.1726 101.745C36.6465 101.73 35.6614 101.597 35.4605 102.265C35.3223 101.49 34.4091 102.337 35.0847 102.193C34.3912 102.27 33.6836 102.142 32.9817 102.207C32.1774 102.281 31.3661 102.352 30.5674 102.472C30.0113 102.556 29.4807 102.769 28.9237 102.831C28.2109 102.91 27.467 102.903 26.7473 102.966C24.0927 103.198 21.3411 103.774 18.7606 104.434C18.1761 104.583 17.5045 104.689 16.946 104.929C16.7965 104.993 16.662 105.136 16.5188 105.191C16.2786 105.283 16.3115 105.22 16.0982 105.262C14.8205 105.516 13.5025 105.931 12.2249 106.256C11.5163 106.437 10.3637 106.6 9.78566 107.091C9.52655 107.312 9.30011 107.702 9.71533 107.953C10.047 108.152 10.5204 107.833 10.7889 107.661C10.5497 108.281 10.0987 108.59 10.3423 109.295C10.5346 109.852 10.9688 110.538 11.6369 110.179C11.7263 110.386 11.7626 110.798 12.026 110.874C12.2628 110.942 12.4342 110.644 12.6661 110.714C12.7491 110.739 12.7176 110.895 12.7919 110.936C12.92 111.006 13.0499 111.036 13.1967 111.085C13.3228 111.128 13.526 111.215 13.6576 111.224C13.7411 111.23 13.938 111.088 13.9373 111.088C14.1291 111.117 14.2323 111.482 14.3704 111.588C14.5497 111.725 14.6977 111.756 14.9223 111.805C15.389 111.908 15.9906 112.085 16.2986 111.61C16.2281 111.949 16.6921 111.916 16.8968 111.959C16.8741 111.78 16.7748 111.617 16.6216 111.519C17.0793 111.549 16.8937 112.001 17.232 112.121C17.4731 112.206 17.4458 111.989 17.6302 111.965C17.8732 111.934 18.0576 112.109 18.4371 111.948C18.5194 112.311 18.5495 112.677 18.9983 112.732C19.2618 112.764 19.8761 112.29 19.8413 112.684C20.4299 112.513 20.6533 112.629 20.9608 113.144C21.0128 112.828 21.2643 112.92 21.4951 112.9C21.8609 112.869 21.8703 112.898 22.1538 112.692C22.1798 112.674 22.4028 112.165 22.5019 112.481C22.5465 112.623 22.2519 112.956 22.1427 113.04C22.2782 113.108 22.7223 113.347 22.893 113.303C23.0408 113.265 23.0413 113.014 23.2188 113.001C23.1753 113.146 23.132 113.29 23.0884 113.434C23.4338 113.484 23.7223 113.254 23.9951 113.086C24.2552 113.74 24.9986 113.372 25.4029 113.864C25.6167 114.124 25.6267 114.322 26.0342 114.39C26.4512 114.46 26.8154 114.278 27.1698 114.62C27.0575 114.407 26.7776 114.231 27.0557 114.003C27.245 114.27 27.3426 114.592 27.5609 114.84C27.591 114.714 27.6211 114.588 27.6512 114.461C28.2201 115.066 28.9362 115.072 29.665 115.407V114.964C30.1867 115.756 30.2146 115.255 30.8379 114.932C30.7956 115.165 30.7531 115.397 30.7107 115.63C31.1593 115.597 31.5784 116.125 31.9466 115.676C32.169 116.047 32.4386 115.864 32.8031 115.982C33.0104 116.049 33.1647 116.252 33.3664 116.326C33.6688 116.436 33.7591 116.431 34.0438 116.526C34.2969 116.612 34.4408 116.777 34.7577 116.83C34.9635 116.865 35.1502 116.862 35.3472 116.853C35.4233 116.849 35.3982 116.679 35.5674 116.719C35.8289 116.78 36.0236 117.107 36.2119 117.274C36.4952 116.566 37.2883 117.514 37.6716 117.64C37.7083 117.459 37.7017 117.24 37.8339 117.091C37.989 117.429 38.0482 117.713 38.3703 117.931C38.5562 118.056 38.8291 118.146 39.0438 118.192C39.1795 118.221 39.426 118.186 39.5113 118.228C39.6568 118.299 39.7104 118.488 39.8573 118.506C39.9438 118.516 40.0719 118.29 40.1366 118.308C40.4327 118.388 40.5972 118.746 40.8962 118.939C41.786 119.515 42.9058 119.571 43.8972 119.697C44.146 119.729 44.1821 119.661 44.3842 119.806C44.492 119.884 44.4431 120.12 44.5757 120.186C45.0754 120.435 45.0758 119.904 45.1805 119.573C45.3458 119.79 45.3743 120.077 45.6004 120.249C45.7239 120.246 45.8475 120.248 45.9707 120.257C46.0403 120.336 46.086 120.427 46.1072 120.531C46.4066 120.732 46.7456 120.662 47.0548 120.812C47.1562 120.862 47.3358 121.161 47.4607 121.247C47.6842 121.401 48.0299 121.483 48.2853 121.55C48.8209 121.69 49.5889 121.504 49.9076 122.06C50.3307 121.609 50.167 122.148 50.4543 122.261C50.6239 122.327 50.879 122.062 51.0672 122.088C51.4059 122.136 51.5279 122.5 51.6364 122.766C51.8427 122.72 51.7011 122.139 51.6953 122.012C51.9517 121.982 52.0086 122.653 52.0529 122.801C52.4577 122.607 51.7933 122.004 52.2285 121.811C52.1886 122.324 52.6004 122.748 51.8649 122.821C51.9665 123.131 54.3387 123.474 54.5035 123.201C54.54 123.706 54.8812 123.235 55.0071 123.062C55.0212 123.356 54.9203 123.774 55.2528 123.911C55.4788 124.004 55.9883 123.764 56.077 123.544C56.1782 123.88 56.3479 123.869 56.5587 124.083C56.7035 124.23 56.799 124.484 56.9509 124.607C57.2304 124.833 57.7504 124.798 58.0762 124.748C58.7135 124.649 58.6382 124.528 58.8652 125.186C58.9166 124.936 59.0775 124.413 59.3582 124.802C59.5368 125.049 59.1565 125.593 59.0466 125.81C59.2922 125.676 59.536 125.517 59.8154 125.459C59.831 125.545 59.8454 125.726 59.8042 125.806C59.8125 125.79 60.1106 125.988 60.2211 126.044C60.1946 126.03 60.3085 125.535 60.3053 125.552C60.6985 125.793 60.4257 126.254 60.774 126.492C60.8639 126.554 61.0751 126.482 61.1839 126.519C61.3733 126.585 61.5371 126.761 61.7055 126.864C61.5711 126.685 61.5904 126.384 61.5996 126.177C61.6852 126.224 61.7464 126.401 61.8328 126.414C61.8655 126.42 62.2042 126.464 62.202 126.463C62.5546 126.708 62.482 126.739 62.1793 127.034C62.2874 127.203 62.7395 126.91 62.8618 126.861C62.8874 126.927 62.894 127.167 62.9421 127.21C62.9713 127.281 63.0005 127.352 63.0298 127.423C63.1201 127.356 63.217 127.334 63.3203 127.356C63.3857 127.379 63.8957 127.585 63.9303 127.514C63.8188 127.478 63.7175 127.423 63.6271 127.349C63.9214 127.086 64.115 126.946 64.3862 127.326C64.4203 127.374 64.303 127.546 64.3378 127.608C64.4673 127.841 64.7335 128.026 64.9143 128.215C64.9891 127.954 64.815 127.299 65.2305 127.323C65.5625 127.342 65.815 128.142 65.7001 128.39C65.8321 128.247 66.62 128.104 66.7687 128.149C67.1893 128.276 67.0713 128.663 67.5887 128.096C67.9415 128.338 67.6306 128.43 67.6941 128.725C67.7873 128.744 67.8755 128.721 67.959 128.656C67.8966 129.91 68.8273 128.952 69.4316 129.144C69.6689 129.219 69.7295 129.487 69.9841 129.565C70.1188 129.606 70.2687 129.508 70.3997 129.532C70.5046 129.517 70.6089 129.499 70.7125 129.477C70.8439 129.412 70.9055 129.485 70.8975 129.697C71.1086 129.805 71.0288 129.848 71.2757 129.869C71.4347 129.883 71.581 129.718 71.7617 129.746C72.0734 129.795 72.0322 130.033 72.2315 130.157C72.4108 130.269 72.6129 130.266 72.8337 130.244C72.9462 130.233 73.2621 130.089 73.3001 130.088C73.536 130.085 73.4081 130.035 73.6913 130.237C73.9118 130.394 74.0044 130.496 74.2751 130.568C74.5855 130.651 75.1362 130.832 75.3451 130.609C75.6273 131.029 75.8482 130.72 76.2206 130.748C76.4112 130.763 76.4414 130.837 76.6111 130.866C76.886 130.914 77.2289 130.872 77.5213 130.966C77.9821 131.113 78.0341 131.187 78.505 131.207C78.59 131.174 78.6749 131.141 78.7598 131.108C78.7852 131.249 78.852 131.364 78.9603 131.453C79.2237 131.508 79.3968 131.376 79.614 131.231C79.7759 131.732 80.3012 131.776 80.7506 131.842C81.4756 131.948 82.1689 132.006 82.868 132.243C83.4585 132.443 84.0501 132.668 84.6181 132.924C85.1179 133.15 85.5896 133.487 86.1552 133.329C87.4366 132.97 88.6784 131.662 89.7504 130.911C91.0202 130.021 92.3896 129.289 93.7164 128.489C98.9983 125.305 104.579 122.612 109.787 119.31C112.63 117.507 115.268 115.365 118.322 113.907C117.887 115.693 117.147 117.506 117.281 119.376C117.334 120.13 117.558 121.02 118.145 121.546C118.872 122.196 119.681 121.782 120.376 121.318C121.865 120.322 122.858 118.869 123.973 117.505C125.291 115.891 126.314 114.158 127.282 112.318C127.514 112.642 127.337 113.185 127.34 113.543C127.345 114.002 127.469 114.443 127.683 114.852C128.234 115.907 129.284 116.163 130.232 115.44C132.056 114.048 133.115 111.57 134.093 109.575C134.651 110.606 135.442 111.905 136.781 111.168C137.886 110.56 138.536 109.202 138.873 108.051C139.86 104.692 139.548 101.271 139.699 97.8282Z" fill="#1C1C1C"/>
<path fill-rule="evenodd" clip-rule="evenodd" d="M138.023 77.6545C137.897 77.3501 137.842 77.3999 138.074 77.1048C138.254 77.2816 138.11 77.4277 138.023 77.6545ZM143.608 96.0759C143.254 95.0741 143.472 93.9862 143.257 92.9587C143.158 92.4872 143.002 92.0299 142.946 91.5499C142.921 91.3369 142.731 90.3782 142.86 90.2273C142.461 89.9866 142.459 89.8085 142.367 89.3366C142.509 89.1863 142.492 89.0581 142.313 88.9517C142.197 88.8115 142.08 88.6712 141.963 88.531C142.473 88.7789 142.172 88.1444 142.12 87.7787C142.079 87.4897 142.051 87.1882 141.954 86.9112C141.835 86.5706 141.569 86.3985 142.121 86.3985C141.94 86.1931 141.668 85.9813 141.578 85.7299C141.448 85.368 141.662 84.8899 141.397 84.5703C141.249 84.392 140.487 84.3222 140.62 83.9372C140.688 83.741 140.997 83.8874 141.093 83.75C141.469 83.2097 140.359 82.9858 140.305 82.756C140.234 82.4581 140.635 82.3915 140.66 82.1129C140.684 81.8402 140.257 81.3921 140.145 81.1482C139.991 81.1854 139.823 81.4268 139.647 81.3115C139.614 81.2897 139.664 80.3457 139.624 80.2204C139.585 80.0972 139.504 79.7704 139.476 79.7099C139.362 79.4697 139.036 79.3527 138.985 79.069C138.954 78.8997 139.621 78.6433 138.856 78.6353C139.131 78.1536 138.627 77.8609 138.444 77.4493C138.208 76.9201 138.069 76.3485 137.827 75.8166C137.592 75.2995 137.329 74.8088 136.99 74.3516C136.683 73.9377 136.55 73.5395 136.304 73.1023C136.255 73.0639 136.206 73.0255 136.157 72.9871C135.952 73.0165 135.887 72.9239 135.96 72.709C135.804 72.4784 135.687 72.2322 135.549 71.9914C135.389 71.7115 135.172 71.4833 135.006 71.2111C134.786 70.8502 134.721 70.4433 134.473 70.0813C134.167 69.6359 133.823 69.2432 133.54 68.7812C133.185 68.2024 132.792 67.8426 132.345 67.3944C132.132 67.1809 132.107 66.6477 131.846 66.3446C131.562 66.0145 131.282 65.925 131.086 65.4917C130.83 64.9279 130.454 64.6587 130.089 64.1714C129.787 63.7694 129.64 63.3074 129.308 62.9186C129.022 62.5846 128.698 62.2794 128.393 61.9627C128.008 61.5628 127.724 61.0768 127.323 60.6966C127.381 60.7514 126.974 60.4311 126.995 60.4413C126.905 60.3957 126.614 60.3591 126.657 60.3839C126.052 60.0304 125.294 58.7365 124.384 59.4221C123.905 59.7826 124.135 60.4439 124.469 60.803C124.613 60.9572 125.358 61.7177 125.52 61.397C125.694 61.6422 126.229 62.8273 126.675 62.4878C126.63 62.8928 126.866 62.7584 127.021 63.0322C127.124 63.2128 127.074 63.3015 127.149 63.5835C127.354 64.3586 128.138 65.1157 128.556 65.7917C129.595 67.4741 130.742 69.0697 131.782 70.754C132.774 72.3593 133.885 73.8824 134.836 75.5093C135.918 77.3592 137.266 79.1055 138.081 81.0997C138.108 81.1668 138.335 81.2729 138.391 81.3735C138.489 81.5485 138.468 81.8509 138.531 82.049C138.75 82.7359 139.104 83.412 139.508 83.9809C139.863 84.48 139.888 85.1584 140.132 85.7439C140.476 86.5692 140.839 87.3858 141.174 88.2153C141.694 89.5062 142.046 90.7435 142.405 92.0913C142.638 92.9647 142.823 93.8377 142.898 94.7396C142.966 95.5691 142.982 96.4331 143.291 97.2183C143.502 96.8951 143.75 96.4763 143.608 96.0759Z" fill="#1C1C1C"/>
<path fill-rule="evenodd" clip-rule="evenodd" d="M24.6527 113.849C24.279 113.774 23.9274 113.674 23.8482 113.247C23.794 113.448 23.7399 113.649 23.6857 113.85C24.1406 113.953 24.5958 114.055 25.0507 114.158C24.9445 113.972 24.867 113.892 24.6527 113.849Z" fill="#1C1C1C"/>
<path fill-rule="evenodd" clip-rule="evenodd" d="M25.6555 43.8297C25.6838 43.7093 25.7205 43.5914 25.7657 43.4763C25.7965 43.5885 25.9471 43.8311 25.8594 43.9369C25.7477 44.0712 25.6347 43.9951 25.6555 43.8297ZM27.4874 40.3638C27.6101 40.4175 27.8755 40.4279 28.0277 40.4734C27.6328 40.8112 27.5632 40.7118 27.0526 40.6726C27.0299 40.3308 27.1696 40.2247 27.4874 40.3638ZM24.0641 48.8258C24.1171 48.8272 24.1702 48.8285 24.2235 48.8298C24.2267 48.6809 24.2228 48.5323 24.2115 48.3838C24.75 48.5008 24.4452 47.5651 24.2761 47.3711C24.8014 47.3886 25.0573 45.7348 25.2237 45.4162C25.3714 45.1333 25.5388 45.0238 25.6468 44.6788C25.7413 44.3768 25.8435 44.1051 25.9798 43.8194C26.293 43.1627 26.7038 42.5662 26.628 41.8008C26.8934 42.3752 27.1268 41.8018 27.2951 41.5272C27.5663 41.0847 28.2279 40.5201 28.2982 39.9946C28.3604 39.5319 28.0147 39.5075 28.2187 39.0784C28.4251 38.6441 28.5947 38.6876 28.9562 38.5487C29.1966 38.4562 29.2444 38.5686 29.414 38.2668C29.5239 38.0714 29.4852 37.9257 29.626 37.7655C29.6841 37.8158 29.7502 37.8366 29.8243 37.828C29.9385 37.678 30.0135 37.5109 30.0491 37.3267C30.1423 37.0781 30.1873 36.8497 30.3277 36.6129C30.4608 36.3885 30.697 35.7882 30.8222 35.68C30.9552 35.5651 31.7092 35.6235 31.7059 35.6277C32.0174 35.2382 31.4459 34.8501 32.2372 34.9322C32.0809 34.6429 32.6299 34.2838 32.7892 34.1228C33.1872 33.721 33.2189 33.535 33.3029 33.0296C33.3456 32.772 33.0672 32.8018 33.4404 32.743C33.5947 32.7189 33.7428 32.9151 33.8541 32.8863C34.3458 32.7595 33.8314 32.7837 33.9671 32.5844C34.0099 32.5212 34.2286 32.2661 34.2266 32.2689C34.2159 32.2817 34.2758 32.0469 34.3254 31.9866C34.4194 31.9786 34.5119 31.9622 34.6028 31.9376C34.649 31.8448 34.6899 31.7497 34.7253 31.6524C35.0811 31.3573 35.6135 31.2253 35.8596 30.9011C36.0188 30.6915 35.9711 30.4861 36.1768 30.2771C36.3727 30.0781 36.6318 30.2223 36.6706 29.7726C36.72 29.2005 36.102 28.9459 35.8491 29.5233C35.1635 28.6836 32.2979 31.7643 31.9668 32.1668C30.5288 33.914 29.1155 35.7044 27.936 37.6364C26.7867 39.519 25.8435 41.4998 25.1062 43.5762C24.7507 44.5773 24.5342 45.574 24.3171 46.6095C24.2442 46.9563 23.6994 48.5017 23.9262 48.8475C23.9721 48.8403 24.0181 48.833 24.0641 48.8258Z" fill="#1C1C1C"/>
<path fill-rule="evenodd" clip-rule="evenodd" d="M137.253 91.6713C137.495 91.5108 137.495 91.5108 137.537 91.2076C137.213 91.2665 137.213 91.2665 137.253 91.6713Z" fill="#1C1C1C"/>
<path fill-rule="evenodd" clip-rule="evenodd" d="M17.8626 112.095C17.8656 112.095 17.8678 112.096 17.8695 112.097C17.8645 112.091 17.8463 112.072 17.8626 112.095Z" fill="#1C1C1C"/>
<path fill-rule="evenodd" clip-rule="evenodd" d="M17.7003 112.258C17.7751 112.419 17.8951 112.459 18.0607 112.378C18.1259 112.47 17.4946 111.799 17.7003 112.258Z" fill="#1C1C1C"/>
<path fill-rule="evenodd" clip-rule="evenodd" d="M28.632 38.8539C28.2532 39.5924 28.7277 39.0553 28.7034 39.2951C28.7193 39.1376 28.785 38.913 28.632 38.8539Z" fill="#1C1C1C"/>
<path fill-rule="evenodd" clip-rule="evenodd" d="M90.3022 50.2995C90.4666 51.6255 92.291 50.9984 92.7014 50.1963C93.0002 49.6123 93.7549 47.3049 92.9429 46.8174C92.341 46.4561 92.2124 48.0135 92.064 48.3614C91.8154 48.9441 91.6211 48.5312 91.0683 48.6807C90.4582 48.8456 90.2343 49.7496 90.3022 50.2995Z" fill="#1C1C1C"/>
<path fill-rule="evenodd" clip-rule="evenodd" d="M88.3089 47.8723C88.961 48.0163 89.6002 47.9421 90.0634 47.43C90.3199 47.1464 90.6613 46.5839 90.1994 46.3095C89.7808 46.0609 89.3062 46.643 88.8654 46.5226C88.2659 46.3589 88.5746 45.7198 88.3689 45.2976C87.6131 45.7303 87.1915 47.6255 88.3089 47.8723Z" fill="#1C1C1C"/>
<path fill-rule="evenodd" clip-rule="evenodd" d="M88.9851 51.2206C88.3565 51.2193 88.3513 51.9881 88.6795 52.3176C88.9935 52.6328 89.7875 52.9519 90.2132 52.7068C91.053 52.2228 89.4938 51.2705 88.9851 51.2206Z" fill="#1C1C1C"/>
<path fill-rule="evenodd" clip-rule="evenodd" d="M52.409 81.792C52.5432 81.8568 52.9388 82.1903 53.1055 82.0397C52.8702 81.804 52.6347 81.5682 52.3995 81.3325C52.2694 81.4743 52.1803 81.6815 52.409 81.792Z" fill="#1C1C1C"/>
<path fill-rule="evenodd" clip-rule="evenodd" d="M49.4378 48.0642C49.3711 48.1138 49.3043 48.1631 49.2375 48.2125C49.4627 48.399 49.4571 48.4545 49.6841 48.2779C49.6167 48.1897 49.5347 48.1185 49.4378 48.0642Z" fill="#1C1C1C"/>
<path fill-rule="evenodd" clip-rule="evenodd" d="M92.0433 92.0585C91.9169 91.8329 91.6783 92.249 91.5168 92.3167C91.2542 92.4266 91.0387 91.8441 91.114 92.5423C90.5203 92.272 90.16 92.8921 89.7771 93.2151C89.2362 93.6715 88.5746 93.919 88.2137 94.5672C89.9121 94.9623 91.7782 93.5063 93.0446 92.55C93.2513 92.3938 94.2842 91.606 93.5841 91.5298C93.2978 91.4988 92.2557 92.4378 92.0433 92.0585Z" fill="#1C1C1C"/>
<path fill-rule="evenodd" clip-rule="evenodd" d="M91.5389 90.691C91.8713 90.4308 91.1546 90.407 91.0413 90.3796C91.0511 90.5866 91.0605 90.7934 91.0703 91.0004C91.2308 90.9037 91.387 90.8004 91.5389 90.691Z" fill="#1C1C1C"/>
<path fill-rule="evenodd" clip-rule="evenodd" d="M90.2895 91.5599C90.3888 91.4982 90.6658 91.3056 90.4774 91.1621C90.3072 91.2698 90.1855 91.4456 90.1588 91.6462C90.2024 91.6174 90.2459 91.5887 90.2895 91.5599Z" fill="#1C1C1C"/>
<path fill-rule="evenodd" clip-rule="evenodd" d="M62.7831 74.7562C62.5707 74.839 62.4756 74.9699 62.4979 75.1492C62.8242 75.0829 62.762 74.7765 62.7831 74.7562Z" fill="#1C1C1C"/>
</svg>
